<?xml version="1.0" standalone="no"?>
<!DOCTYPE svg PUBLIC "-//W3C//DTD SVG 1.1//EN" "http://www.w3.org/Graphics/SVG/1.1/DTD/svg11.dtd" >
<svg xmlns="http://www.w3.org/2000/svg">
<metadata></metadata>
<defs>
<font id="wiegel_kurrent_mediumregular" horiz-adv-x="473" >
<font-face units-per-em="2048" ascent="1638" descent="-410" />
<missing-glyph horiz-adv-x="546" />
<glyph horiz-adv-x="0" />
<glyph unicode="&#xd;" horiz-adv-x="546" />
<glyph unicode=" "  horiz-adv-x="546" />
<glyph unicode="&#x09;" horiz-adv-x="546" />
<glyph unicode="&#xa0;" horiz-adv-x="546" />
<glyph unicode="!" horiz-adv-x="495" d="M-10 53q12 12 19 29.5t16 32.5q10 16 16 27.5t14 15.5l-4 -2q15 10 29 10q10 0 18 -3t11 -13q6 -16 -13 -52q-10 -16 -25.5 -34.5t-25.5 -28.5v2q-35 -37 -49 -37q-35 0 -6 55v-2zM143 373l602 1085q18 33 36 48.5t29 14.5t13 -16.5t-10 -40.5l-571 -1065z" />
<glyph unicode="&#x22;" horiz-adv-x="391" d="M467 1253l119 234l63 39l19 -21l-138 -219zM573 1253l123 234l62 39l20 -21l-139 -219z" />
<glyph unicode="$" horiz-adv-x="731" d="M-6 373q18 14 37.5 30.5t38.5 28.5q39 33 79.5 66.5t81.5 62.5q51 113 119 225.5t158 229.5q184 240 383 375q127 86 214 113.5t122 -11.5q14 -20 22 -41.5t8 -48.5q0 -59 -38 -146q-70 -153 -230 -313q-164 -158 -344 -160q25 6 28 19.5t-18 19.5q66 4 134.5 41 t140.5 109q154 152 225 293q20 43 31.5 77.5t11.5 63.5t-16 51q-16 27 -87 -3t-182 -105q-96 -70 -188 -158t-180 -199q-158 -199 -250 -391q37 20 82 38.5t100 39.5v-2q51 23 94 22q86 0 121 -79v2q10 -20 14.5 -43t4.5 -50q0 -37 -6.5 -75.5t-22.5 -81.5 q-49 -154 -156 -256q-96 -96 -213 -97q-139 0 -163 150v-2q-4 14 -4.5 29.5t-0.5 31.5q0 53 13.5 119t42.5 139q-25 -18 -47.5 -37.5t-47.5 -37.5q-16 -16 -37.5 -30.5t-37.5 -29.5q-16 -10 -26.5 -4t-10.5 25zM193 178q18 -113 122 -117q47 -2 93.5 24t83.5 67 q39 47 67.5 104t50.5 125q16 47 22.5 84t6.5 72q0 37 -8 63v-2q-21 55 -84 55q-35 0 -75 -12t-79 -30.5t-72.5 -39t-54.5 -34.5q-47 -104 -66.5 -197.5t-6.5 -161.5zM264 535l2 2q0 2 2 4z" />
<glyph unicode="'" horiz-adv-x="0" d="M297 1245l119 232l63 39l19 -19l-138 -221z" />
<glyph unicode="(" horiz-adv-x="471" d="M-8 -350q-12 322 131 702q37 100 90 214t111 220q59 111 119.5 210.5t115.5 179.5q59 86 116.5 158.5t106.5 124.5t87 82t61 34q6 0 6 -21.5t-4 -27.5q-16 -4 -46 -27.5t-73 -75.5q-41 -47 -92 -116.5t-115 -161.5v2q-57 -86 -112.5 -181.5t-114.5 -203.5 q-57 -100 -104.5 -208t-88.5 -218q-66 -186 -99.5 -359.5t-29.5 -318.5q8 -285 49 -285q63 0 156 105l29 -31q-115 -123 -193 -123q-92 0 -106 326z" />
<glyph unicode=")" horiz-adv-x="552" d="M10 -654.5q0 21.5 4 27.5q12 4 43 29t74 76q45 51 95 119.5t110 154.5q57 86 113.5 181.5t115.5 201.5q57 102 105.5 210t89.5 218q66 186 98.5 359.5t28.5 318.5q-8 285 -47 285q-59 0 -158 -107l-25 33q104 123 191 123q90 0 106 -326q0 -14 1 -27.5t1 -29.5 q0 -297 -131 -647q-39 -106 -90 -215t-112 -219q-63 -111 -122 -208.5t-116 -178.5q-57 -80 -112.5 -151t-108.5 -128q-49 -53 -87 -85t-61 -36q-6 0 -6 21.5z" />
<glyph unicode="+" d="M143 580v65h138q10 31 21 68t20 65l63 -18l-33 -115h121v-65h-141q-10 -31 -20.5 -69t-18.5 -67l-66 19l35 117h-119z" />
<glyph unicode="," horiz-adv-x="249" d="M-14 -35q0 10 10 23.5t18 23.5q35 49 63.5 100.5t28.5 106.5q0 29 18.5 41t33.5 -4q16 -20 8 -74q-14 -49 -39 -96t-64 -88l-12 -12q-23 -23 -40 -39.5t-25 18.5z" />
<glyph unicode="-" d="M125 356q-31 57 37 78q23 8 51.5 15.5t60.5 11.5q55 8 115 28q45 16 39 50l27 10q41 -70 -21 -98q-47 -25 -115 -33q-33 -4 -62.5 -9.5t-59.5 -11.5q-45 -10 -43 -30zM166 461q-31 55 35 78q27 6 54.5 13t61.5 11q57 10 115 31q43 16 35 49l31 10q39 -66 -23 -98 q-25 -10 -54.5 -18.5t-60.5 -14.5q-33 -4 -63.5 -10t-58.5 -12q-18 -4 -31.5 -12.5t-11.5 -16.5z" />
<glyph unicode="." horiz-adv-x="292" d="M-127 53q12 12 19.5 29.5t15.5 32.5q10 16 17 27.5t14 15.5l-5 -2q15 10 29 10q10 0 18.5 -3t12.5 -13q2 -10 -1 -22.5t-13 -29.5q-14 -20 -26.5 -36.5t-23.5 -26.5v2q-37 -37 -51 -37q-35 0 -6 55v-2z" />
<glyph unicode="/" horiz-adv-x="808" d="M-6 20l2 39q55 0 103 20.5t94 59.5q41 39 85 89.5t84 109.5q43 59 81 119.5t67 117.5q23 43 42 80t36 70q14 25 24 49q6 12 12.5 24.5t14.5 26.5q16 29 34.5 66t41.5 78q33 63 69.5 125.5t75.5 115.5q41 59 87 112.5t97.5 94.5t104.5 64.5t108 23.5l-6 -39 q-94 0 -176 -82q-84 -84 -164 -200v2q-37 -53 -74.5 -115.5t-66.5 -122.5q-23 -41 -41 -77.5t-35 -65.5q-14 -23 -24 -51q-6 -12 -13.5 -24.5t-15.5 -29.5q-29 -57 -67.5 -129.5t-85 -148.5t-101.5 -148.5t-117.5 -129t-131 -90.5t-144.5 -34z" />
<glyph unicode="0" horiz-adv-x="753" d="M29 127q-4 47 11 107.5t44 125.5q18 43 49 93.5t66 103.5q82 121 190 131q2 0 4 -8t2 -17.5t-2 -16.5t-4 -7q-57 -4 -119 -86q-35 -41 -63.5 -92t-52.5 -111q-29 -66 -46.5 -123t-17.5 -98q0 -57 41 -57q55 0 133 84q82 88 135 204q23 53 35 98.5t12 86.5q-12 8 -20 28 v-2q-18 29 -18 51.5t10 34t26.5 9.5t32.5 -21q12 -18 15 -49v-2q0 -2 2 -2q2 -6 2 -29q18 -8 49 15q29 18 49 34.5t43 32.5l55 41l23 -16l-8 -15l-58 -59q-45 -37 -86 -55.5t-69 -18.5q-4 -39 -16.5 -81t-35.5 -91q-31 -72 -69.5 -130t-81.5 -103q-92 -96 -168 -97 q-86 0 -94 107z" />
<glyph unicode="1" horiz-adv-x="436" d="M-12 4l295 551q-66 -53 -127.5 -101t-126.5 -102h2q-12 -10 -27.5 -3t-15.5 24l401 315l23 -16l-316 -590q-27 -39 -108 -78z" />
<glyph unicode="2" horiz-adv-x="559" d="M16 51q35 127 168 205q121 72 168 201v-2q25 74 25 123q0 29 -9.5 45t-29.5 16q-43 0 -98.5 -49t-108.5 -127l-41 18q61 92 130 149.5t126 57.5q45 0 69.5 -36t24.5 -95t-20 -121q-49 -135 -193 -209q-66 -31 -106 -73q2 2 4 3t4 3q68 49 113 35q47 -18 52 -41t-28 -58 q-29 -31 4 -37q27 -4 84.5 25t112.5 70l63 -7q-86 -57 -158.5 -95t-111.5 -29q-109 18 -41 88q39 39 6 49q-25 10 -73 -33q-27 -23 -51.5 -45.5t-45.5 -48.5l2 4q-18 -55 -29.5 -51t-11.5 65z" />
<glyph unicode="3" horiz-adv-x="589" d="M-226 -480q7 50 87 163q4 4 5 6t3 4q6 10 9 13l7 7h56q-41 -43 -45 -55q-82 -127 -54 -119q76 25 193 139q61 59 114.5 128t96.5 149q45 80 45 141q0 27 -11.5 55.5t-27.5 53.5q-16 16 -35.5 33.5t-56.5 33.5l2 -2q-8 2 -10 9.5t0 14.5t7 13t13 6q16 -4 32.5 -6t28.5 -2 q59 0 107 35v-2q74 49 109 121q35 70 28 129q-4 51 -43 51q-59 0 -166 -86h2q-2 -4 -9 -1t-15 7t-13.5 9t-1.5 10q61 47 116.5 79.5t94.5 30.5q84 -4 95 -84q4 -35 -1.5 -75t-25.5 -80q-45 -84 -121 -140q-27 -16 -55.5 -28.5t-61.5 -16.5q16 -12 29 -28q55 -66 55 -140 q0 -78 -53 -168q-102 -172 -244 -297q-68 -59 -127 -97t-104 -48q-61 -16 -54 34z" />
<glyph unicode="4" horiz-adv-x="782" d="M-27 -602l349 629q-45 -4 -103.5 -4h-130.5q20 6 17 26.5t-19 20.5l4 2q27 4 56.5 28.5t60.5 64.5t60.5 90t56.5 105q23 55 39 109.5t20 97.5q4 33 -6 52.5t-33 19.5q-47 0 -125 -76l-31 35q94 90 164 90q84 0 92 -106q4 -47 -9 -105.5t-42 -126.5q-16 -39 -39.5 -80 t-54.5 -88q-47 -72 -100 -110q41 0 76.5 2t74.5 6l312 561q8 14 22 20.5t26.5 6.5t18.5 -6.5t0 -14.5q-72 -137 -148.5 -278.5t-150.5 -280.5q76 10 140.5 28.5t121.5 43.5h-2q25 14 31 -4.5t-16 -38.5q-25 -12 -51.5 -25.5t-62.5 -25t-82 -19.5t-108 -14 q-84 -152 -164.5 -305.5t-162.5 -305.5z" />
<glyph unicode="5" horiz-adv-x="935" d="M-143 -502q0 45 37 105q-12 -18 -8.5 -28.5t16 -11.5t29 6t28.5 19h2q-45 -66 -45 -100q0 -20 24.5 -27.5t49.5 -7.5q84 12 157.5 68.5t124.5 126.5h-2q27 41 48.5 80t35.5 73q35 92 35 170q0 109 -70 142q-68 35 -143 -37q-4 -4 -6 -5t-6 -5q-8 -8 -21.5 -14.5 t-48.5 -16.5l309 575q4 20 13.5 42t19.5 38q47 66 80 0l-6 -6q-8 -8 -10 -16l-35 -64l2 2q-12 -35 2 -50t43 -15q33 0 75 13t85 36.5t82.5 57.5t68.5 77q-10 -20 5.5 -28.5t31.5 5.5q-135 -164 -268 -196q-49 -12 -84 -12q-59 0 -86 32q-53 -98 -96 -182t-99 -184 q12 2 24.5 3t24.5 1q18 0 40 -4t40 -15h-2q86 -41 103 -163q4 -43 -5.5 -93.5t-27.5 -99.5q-14 -39 -42 -84t-67 -94q-61 -76 -139 -132.5t-176 -70.5q-66 -8 -104.5 15.5t-38.5 74.5zM823 725q2 2 2 3t2 3q-2 -2 -2 -3t-2 -3zM860 702q2 4 4 5.5t4 5.5v-2q-2 -2 -3 -4 t-5 -5z" />
<glyph unicode="6" horiz-adv-x="645" d="M-18 264q0 61 23.5 145.5t57.5 168.5q61 139 130 249.5t141 178.5q152 147 254 159q2 0 4 -7t2 -15t-1 -16.5t-3 -10.5q-61 -10 -184 -108q-61 -49 -131 -164t-142 -279q-53 -131 -75.5 -231.5t-10.5 -157.5q12 -47 32.5 -75.5t43.5 -28.5q55 0 133 84q41 45 75.5 96 t59.5 108q10 23 21.5 65t23.5 105q20 109 -51 109q-57 0 -139 -94q-4 -2 -10.5 2t-12.5 10t-10 12t0 11v-2q100 111 180 110q125 0 94 -153q-16 -66 -28.5 -111t-22.5 -74q-63 -143 -151 -233q-92 -96 -168 -97q-86 0 -125 156q-4 20 -7 41t-3 47z" />
<glyph unicode="7" horiz-adv-x="618" d="M-53 -479q-2 86 47 205q27 63 58.5 121.5t66.5 113.5q23 33 42 61.5t36 55.5q12 20 24 37.5t23 34.5q25 39 57.5 90t73.5 114q35 53 63.5 103.5t50.5 97.5q-49 -29 -93 -44t-70 -11q-109 20 -43 90q35 35 6 47q-10 4 -28.5 -5t-45.5 -26q-27 -23 -52.5 -47t-47.5 -55 l-54 4q35 39 68 71.5t66 55.5q70 51 112 37q90 -31 25 -101q-27 -30 4 -32q47 -4 104 34q16 12 31.5 22.5t30.5 18.5h-2q10 8 20 14.5t17 10.5q61 35 38 -35q-29 -63 -62.5 -128.5t-74.5 -129.5q-35 -57 -69.5 -111.5t-57.5 -89.5q-6 -6 -8 -10q-4 -8 -10 -14t-10 -15 q-20 -33 -47 -71.5t-56 -85.5q-39 -59 -70.5 -117.5t-54.5 -112.5q-23 -53 -35 -102t-14 -90q-2 -70 119 -76l-39 -39q-137 10 -139 109z" />
<glyph unicode="8" horiz-adv-x="536" d="M18 174q0 35 8.5 74t28.5 86q45 117 133 176v-2q86 63 166 110q-4 35 -5 72t-1 70q0 94 12 174q27 158 228 180q4 0 4 -21.5t-4 -25.5q-150 -10 -168 -131q-4 -29 -6 -62.5t-2 -66.5q0 -35 2 -71t6 -77q57 37 107.5 87.5t80.5 121.5q35 78 31 140l-8 8q-12 14 -11 31.5 t7 30t16 17.5t19 -3q2 -4 7 -15.5t9 -19.5q4 -4 4 -15q0 -4 1 -4t1 -4v-4q0 -2 2 -2q8 -4 20.5 0t28 15.5t32.5 24.5t34 28l41 24l16 -24l-55 -54q-33 -29 -64.5 -41t-54.5 -12q-6 -55 -33 -131q-37 -92 -97 -149.5t-126 -100.5q8 -61 13 -120.5t5 -118.5q0 -31 -2 -59.5 t-6 -53.5q-20 -119 -119 -184q-90 -59 -178 -49q-51 6 -87 42.5t-36 108.5zM70 172q0 -53 22.5 -77.5t59.5 -28.5q59 -8 137 47q35 29 58.5 68.5t29.5 86.5q2 16 2 31.5v32.5q0 53 -5 112.5t-14 124.5q-35 -20 -70.5 -44.5t-70.5 -47.5q-76 -51 -115 -147q-20 -47 -27 -86 t-7 -72zM662 1092h2q-2 2 -2 0z" />
<glyph unicode="9" horiz-adv-x="653" d="M8 -429q0 9 1 17.5t5 8.5q55 4 181 108q59 51 130.5 165t143.5 275q53 131 76.5 231.5t7.5 155.5q-27 106 -76 107q-55 0 -135 -84q-39 -41 -71.5 -93.5t-59.5 -111.5q-10 -23 -21.5 -65.5t-25.5 -108.5q-23 -104 51 -104q59 0 143 90q6 6 18.5 -7.5t12.5 -21.5 q-49 -53 -95 -83t-85 -30q-53 0 -74.5 35t-21.5 84q0 31 6 64t14 62.5t17.5 55t15.5 39.5q63 145 149 232q92 96 170 96q39 0 71 -41t52 -115q6 -20 8 -41.5t2 -48.5q0 -66 -19 -141.5t-60 -167.5q-63 -141 -132 -247.5t-141 -178.5q-147 -147 -252 -160q-4 0 -5 7.5 t-1 16.5z" />
<glyph unicode=":" horiz-adv-x="329" d="M-88 53q10 12 17.5 29.5t15.5 32.5q10 16 17 27.5t15 15.5l-4 -2q15 10 27 10q10 0 18.5 -3t12.5 -13q6 -18 -15 -52q-14 -20 -26.5 -36.5t-22.5 -26.5v2q-37 -37 -49 -37q-37 0 -6 55v-2zM70 305q12 12 19 30.5t15 31.5q10 16 16.5 27.5t14.5 15.5l-4 -2q11 10 29 10 q10 0 17 -3t11 -14q6 -18 -12 -49q-29 -43 -51 -63q-35 -37 -49 -37q-35 0 -6 55v-2z" />
<glyph unicode=";" horiz-adv-x="385" d="M-133 -225l178 319l88 66l23 -21l-226 -362l-45 -23zM123 305q12 12 19.5 30.5t15.5 31.5q10 16 17 27.5t13 15.5l-2 -2q9 10 27 10q10 0 18.5 -3t12.5 -14q6 -18 -15 -49q-27 -41 -49 -63q-37 -37 -51 -37q-35 0 -6 55v-2z" />
<glyph unicode="&#x3c;" horiz-adv-x="665" d="M244 559q53 41 130 100.5t161 122.5q61 47 135.5 103.5t150.5 113.5l37 -36q-49 -29 -114.5 -78t-143.5 -121q-82 -61 -141.5 -105.5t-116.5 -83.5q209 -182 305 -565l-80 2q-127 373 -323 547z" />
<glyph unicode="=" d="M143 422v67h330v-67h-330zM143 580v65h330v-65h-330z" />
<glyph unicode="&#x3e;" horiz-adv-x="665" d="M242 41q49 31 113.5 79t144.5 120q82 61 141 105t117 83q-213 184 -307 565l79 -2q131 -373 326 -547q-55 -41 -131 -100t-160 -121q-61 -47 -137 -103.5t-149 -115.5z" />
<glyph unicode="?" horiz-adv-x="550" d="M92 63q12 12 19.5 30t15.5 32q16 33 31 41l-4 -2q12 12 28 12q23 0 29 -16q6 -18 -12 -51q-29 -41 -52 -64v2q-35 -37 -49 -37q-37 0 -6 56v-3zM164 1032q-4 115 63 217q90 137 240 207h-2q41 23 88 32t96 9q16 0 31.5 -1t32.5 -3q145 -16 121 -182q-8 -47 -33 -94.5 t-58.5 -95.5t-74.5 -97t-84 -98t-85 -98.5t-76 -98.5t-58.5 -96t-32.5 -90q-4 -29 -10.5 -36t-12.5 -3t-11 17.5t-5 27.5q-2 82 67 182q57 82 158 201q43 53 84 104t78 101q74 94 92 172q10 61 -7 97t-71 40q-59 8 -111.5 0t-99.5 -31h2q-66 -31 -121 -81t-96 -105 q-29 -47 -44 -96.5t-13 -96.5q2 -86 139 -92q20 -6 15 -23.5t-27 -17.5q-168 10 -174 129z" />
<glyph unicode="@" horiz-adv-x="739" d="M-10 297q-2 47 2 97t14 102q18 92 54 168.5t87 136.5q121 139 289 139q131 0 215 -66q45 -35 71 -85.5t30 -116.5q2 -49 -7 -99q-25 -121 -120 -211q-98 -88 -222 -88q-61 0 -63 58h-2q0 2 1 1t1 1h-2l-2 -2q-16 -12 -35.5 -25.5t-36.5 -21.5h-12q-63 -2 -72 104 q0 12 1 22.5t3 20.5q18 90 92 189q84 109 150 108h51l31 -27q16 23 34.5 29t47.5 2l16 -18q-10 -20 -24.5 -46t-24.5 -46q-16 -31 -32.5 -61t-35.5 -60q-80 -147 -81 -178q10 -10 26 -11q35 0 71 28t70 79q29 47 51.5 102.5t37.5 114.5v-2q4 25 6 46t2 40q-10 174 -205 174 q-74 0 -137.5 -32t-114.5 -91q-43 -53 -77 -126t-52 -150q-10 -51 -14 -98.5t-2 -94.5q14 -227 137 -227q35 0 121 45q43 27 70.5 47t43.5 41l41 -4q-31 -70 -137 -127q-53 -29 -94 -42t-70 -13q-98 0 -149 100v-2q-18 35 -29.5 79t-13.5 97zM246 356q0 -6 2 -10q4 -4 8 -7 t8 -7h8q18 12 50 50t65 91q37 59 61.5 108.5t28.5 77.5v5q0 25 -16 24q-20 0 -49 -29.5t-66 -83.5q-35 -53 -57.5 -95t-26.5 -68q-4 -16 -8 -29.5t-8 -26.5zM266 315l17 17h-11l-4 -2q0 -2 -1 -7.5t-1 -7.5zM336 332l2 2v-2q-2 -2 -2 0z" />
<glyph unicode="A" horiz-adv-x="1341" d="M-8 262q0 168 127 420q154 311 375 543q219 238 364 295l2 2q2 0 6 -6.5t7.5 -14.5t4.5 -15t-4 -7l3 2q-127 -55 -338 -287q-100 -113 -192.5 -248t-164.5 -278q-68 -141 -102 -258q-29 -100 -30 -172q0 -13 1 -25q8 -76 45 -116q35 -38 91 -38h6q131 4 307 170 q86 82 172 203t159 260q53 104 91.5 208t56.5 202q10 61 16 113.5t6 93.5q0 23 -2 45t-6 41q-35 6 -55 20h2q-49 31 -49 60q0 18 20 36q19 16 36 16q9 1 17 -3q26 -10 48 -45q10 -16 20 -49q10 0 23.5 -1.5t23.5 -1.5q25 0 60 3.5t73 7.5q125 18 187 80v-2q11 16 23 16 q10 0 20 -10h-2q4 -5 4 -13q0 -11 -8 -26q-98 -96 -200.5 -271.5t-215.5 -390.5q-16 -29 -40 -76t-40 -79q-74 -143 -120 -257t-64 -204q-8 -39 -8 -68q0 -78 57 -78h6q100 8 233 103q68 47 144 103.5t153 119.5h64q-86 -74 -169 -138.5t-159 -113.5t-143.5 -81t-124.5 -38 q-8 -1 -16 -1q-100 0 -100 149q0 17 1 37q10 150 121 374q-66 -115 -141.5 -213t-149.5 -170q-86 -78 -175 -127t-161 -49h-3q-151 0 -187 179q-6 31 -6 69zM891 715q123 219 233.5 406.5t198.5 301.5q-31 -12 -63.5 -20t-67.5 -12q-27 -4 -53.5 -6.5t-48.5 -2.5h-24.5 t-23.5 2q2 -14 2 -30.5v-32.5q0 -47 -6 -106t-20 -125q-20 -86 -52 -184.5t-75 -190.5zM946 1466q4 -8 15 -14q2 -2 5 -3t7 -3l8 -4q-2 4 -3 7t-3 7v-2q-18 25 -27 21v2q-4 -2 -4 -6q0 -2 2 -5z" />
<glyph unicode="B" horiz-adv-x="1392" d="M-23 119q24 127 193 127h10q41 -2 103.5 -23.5t134.5 -50.5q78 78 144.5 180.5t121.5 202.5q-17 -1 -34 -1q-154 0 -263 101q-63 57 -63 140q0 29 7 58.5t23 61.5q35 80 101.5 126t160.5 53q6 0 8.5 -21.5t-3.5 -21.5q-160 -10 -222 -150q-23 -61 -22 -106q0 -63 41 -103 q94 -94 235 -94h27.5t30.5 4q16 31 30.5 60.5t30.5 58.5q8 16 18.5 35.5t16.5 34.5q16 31 34.5 64.5t43.5 80.5q10 18 25.5 48t27.5 52q41 80 91 156t106 145q41 49 88 88t93 65t89 40t80 14q72 0 116 -40t44 -111q0 -53 -35 -131t-113 -172q-74 -88 -182.5 -185.5 t-241.5 -195.5q-78 -55 -158.5 -93t-152.5 -53q-59 -109 -128 -221.5t-157 -198.5q72 -29 152 -53t164 -47q49 -12 88 -12q53 0 98 21.5t80 58.5q21 29 33 63q11 30 10 63v11q-31 14 -49 35h2q-21 24 -21 45q0 17 15 32q16 16 31 16q19 0 36 -26q10 -23 17.5 -41t9.5 -33 q16 -5 35 -4q39 0 88 19q41 16 69.5 41.5t57.5 52.5h63q-35 -35 -77 -70.5t-91 -58.5q-38 -18 -74 -26q-18 -4 -34 -3q-17 0 -33 4q-4 -82 -53 -147q-72 -102 -205 -102q-49 0 -98 12q-86 23 -173.5 54.5t-177.5 66.5q-66 -59 -137.5 -93t-134.5 -34h-12q-181 0 -182 104 q0 13 3 27zM23 115q-1 -6 -1 -11q0 -34 32 -54q35 -22 104 -21h12q49 0 101.5 25.5t115.5 82.5q-66 29 -118 46.5t-89 19.5h-17q-129 0 -140 -88zM788 621q63 18 128 49.5t135 81.5v-2q127 92 232.5 187t178.5 181q68 82 100.5 152.5t32.5 120.5q0 53 -30.5 82.5t-79.5 29.5 q-63 0 -146 -49.5t-161 -155.5q-49 -66 -95.5 -136t-89.5 -154q-41 -78 -74.5 -138.5t-56.5 -107.5q-18 -37 -33.5 -63.5t-40.5 -77.5zM1085 313l2 -2h3q14 -20 30 -26l-22 -17q-2 12 -5 23.5t-8 21.5z" />
<glyph unicode="C" horiz-adv-x="1234" d="M-6 145q24 121 184 121h10q41 -2 100.5 -21.5t129.5 -47.5q61 63 115.5 134.5t101.5 162.5q49 92 88 162.5t63 123.5q4 6 7.5 13.5t9.5 23.5q39 76 95 182.5t126 206.5q39 59 83 113.5t91 96.5t96 71t99 35h39q42 0 42 -16q0 -11 -20 -29v2q-55 -70 -78.5 -115t-23.5 -68 q0 -27 29.5 -21.5t75.5 34t100.5 79t103.5 115.5q25 8 36 -1q6 -5 6 -10t-5 -11q-205 -242 -332 -242q-68 0 -68 61t78 177q-53 -16 -105 -62.5t-104.5 -110t-99.5 -139t-89 -149.5t-77 -140.5t-57 -113.5q-16 -31 -45 -84t-51 -96q-14 -27 -28.5 -53.5t-31.5 -57.5 q-47 -88 -100 -165t-113 -136q76 -29 162 -55.5t174 -44.5q18 -4 33.5 -6.5t27.5 -2.5q129 0 195 140l45 -2q-78 -184 -231 -185q-39 0 -72 9q-92 20 -184.5 50.5t-184.5 69.5q-63 -57 -131.5 -90t-130.5 -33h-6q-180 0 -180 103q0 10 2 22zM39 143q-1 -7 -1 -13 q0 -71 129 -71h13q47 0 97.5 25t109.5 80q-61 27 -111.5 44t-87.5 19h-17q-121 0 -132 -84z" />
<glyph unicode="D" horiz-adv-x="1228" d="M4 270q80 121 162 207t153 139q118 79 192 79q25 0 46 -9q50 -26 50 -85q0 -26 -9 -58q-12 -41 -31.5 -91.5t-42.5 -109.5q-23 -53 -42 -100t-36 -92q-10 -35 -10 -50q0 -27 8 -28q8 -3 18 -3q68 0 220 150q172 166 301 350q-47 20 -84 64q-69 85 -69 193q0 14 1 28 q4 66 15.5 122t30.5 107v-2q8 29 23 59.5t34 65.5q39 63 84 114.5t98 88.5q109 78 199 96q29 6 55 6q44 1 77 -17q52 -28 52 -101q0 -41 -20 -95q-51 -139 -154 -290q-49 -78 -91 -141.5t-71 -108.5q-10 -16 -20 -33.5t-21 -32.5v2q-18 -31 -29.5 -50t-31.5 -46 q10 -2 22.5 -2h22.5q88 0 207 41q78 31 146.5 65.5t123.5 75.5v-53q-51 -33 -115.5 -65.5t-148.5 -63.5q-115 -45 -211 -45q-39 0 -76 6q-154 -215 -323 -385q-156 -151 -238 -151q-13 0 -25 4h3q-62 21 -62 87q0 20 6 44q25 90 70 200q23 53 41 102.5t35 96.5q8 35 7 60.5 t-11 35.5q-12 5 -27 5q-61 0 -180 -87q-156 -113 -281 -325q-21 -31 -43 -26q-11 3 -11 16t11 36zM883 827q0 -91 49 -163q31 -43 78 -56q25 39 50 77t54 79q84 127 168 262t139 264q31 70 31 113q0 63 -75 63h-7q-49 -2 -97 -23.5t-94 -56t-88 -80.5t-77 -100q-6 -6 -6 -10 q-2 -4 -6.5 -10t-6.5 -10q-41 -66 -67.5 -136.5t-38.5 -142.5q-4 -16 -5 -35.5t-1 -34.5zM1004 598l18 8q-8 0 -12 2q-4 -8 -6 -10z" />
<glyph unicode="E" horiz-adv-x="684" d="M-27 -492q0 20 2 46t7 49q18 104 61 229t102 231q10 18 18.5 35t18.5 33q-29 29 -45 74q-10 26 -10 43q0 23 20 28q23 6 41 -30q6 -16 9 -26.5t-9 -14.5q4 -6 9.5 -16.5t9.5 -14.5q39 74 68.5 132.5t48.5 96.5q20 43 35.5 73t43.5 77h-18q-164 0 -276 102q-59 55 -60 140 q0 61 29 120q35 80 102.5 126t161.5 53q4 0 6 -21.5t-4 -21.5q-162 -10 -219 -150q-23 -61 -23 -106q0 -66 41 -105q43 -45 99.5 -68.5t130.5 -23.5h30.5t30.5 4l4 4l-2 -4q8 14 23.5 45t23.5 45q12 25 23.5 49.5t21.5 40.5q4 8 9.5 16.5t9.5 18.5q23 43 50.5 98.5 t61.5 120.5q43 80 93.5 156t103.5 145q84 98 182.5 152.5t169.5 54.5q49 0 84 -18h-2q76 -38 76 -142v-16q-2 -106 -143 -278q-72 -86 -177.5 -183.5t-248.5 -199.5v2q-82 -63 -160 -99.5t-158 -52.5q-27 -47 -47 -89t-43 -85v2q-23 -43 -52.5 -104.5t-72.5 -143.5 q10 -4 21.5 -4h21.5q80 0 185 80q47 39 97 78t97 78q20 14 38.5 5t2.5 -26l-205 -166q-121 -96 -217 -96q-18 0 -32.5 2t-30.5 8q-4 -4 -4 -9t-5 -9l-16 -33q-59 -111 -102 -221.5t-70 -216.5q-10 -37 -13 -64.5t-3 -50.5q0 -74 48 -74h3q53 4 114.5 31t131.5 76 q72 49 150.5 107.5t160.5 121.5h65q-41 -33 -87 -69.5t-92 -71.5t-90 -67.5t-81 -57.5q-76 -53 -143.5 -82t-128.5 -37q-7 -1 -13 -1q-93 0 -94 140zM514 621q63 18 128 49.5t132 81.5q137 98 240.5 189t171.5 177q72 86 102.5 154.5t30.5 120.5q0 53 -29.5 80.5t-79.5 27.5 q-63 0 -144 -48.5t-163 -154.5q-51 -66 -97 -136t-89 -154q-76 -137 -119 -226q-4 -4 -5 -10t-5 -10q-20 -37 -34.5 -63.5t-39.5 -77.5z" />
<glyph unicode="F" horiz-adv-x="1073" d="M6 246q12 29 37 51t55.5 37.5t65.5 23t67 7.5q66 0 109 -29q31 -21 31 -59q0 -14 -4 -31q-12 -41 -67.5 -76t-141.5 -41l2 43q55 2 102 27.5t57 54.5q2 8 2 15q0 44 -95 44h-7q-133 0 -166 -80q-8 -22 -9 -43q0 -45 42 -81q63 -51 131 -52q4 0 25.5 3t31.5 6 q53 14 103.5 43.5t93.5 70.5q57 53 105.5 122t95.5 140q-61 27 -86 99h2q-11 26 -11 43q0 22 19 26q25 6 39 -30q12 -33 -2 -41q20 -43 61 -56q45 72 78 136.5t62 117.5q6 12 12 22.5t10 20.5q6 12 12 26.5t13 27.5q16 31 35.5 67.5t41.5 77.5q31 63 69 126.5t75 117.5 q41 59 87 113.5t95 95.5t100.5 65.5t102.5 24.5q49 0 49 -19q0 -10 -12 -24q-55 -70 -79 -115t-24 -68q0 -27 30 -21.5t75 34t100 79t105 115.5q31 14 38 1q3 -5 3 -10q0 -7 -7 -13q-203 -242 -329 -242q-70 0 -70 61q0 59 80 177q-51 -14 -105.5 -60.5t-106.5 -111 t-100.5 -140t-90.5 -150.5t-75.5 -141.5t-56.5 -111.5v2q-6 -14 -14 -27.5t-16 -29.5q-25 -53 -51.5 -107.5t-67.5 -124.5q82 6 164 74l174 139q33 4 43 -5t-13 -24q-88 -70 -174 -139q-58 -48 -116 -72q-53 -22 -98 -22h-7q-45 -72 -106.5 -149.5t-118.5 -131.5 q-100 -90 -227 -118q-16 -4 -34 -6.5t-34 -2.5q-43 0 -82 14.5t-78 41.5q-62 49 -62 112q0 29 13 60zM1100 688l4 4h2z" />
<glyph unicode="G" horiz-adv-x="940" d="M-8 262q0 168 127 420q154 311 375 543q111 121 204 194.5t170 104.5q2 0 5.5 -6.5t5.5 -14.5t1 -16t-6 -8l3 2q-133 -57 -336 -287q-98 -113 -190.5 -248t-164.5 -278q-72 -145 -106 -260q-29 -93 -29 -164q0 -16 2 -31q16 -154 134 -154h6q131 4 307 170q86 82 172 203 t159 260q53 104 91.5 208t56.5 202q10 61 16 113.5t6 93.5q0 23 -2 45t-6 41q-35 6 -55 20h2q-49 31 -49 60q0 18 20 36q19 16 36 16q9 0 17 -3q25 -11 48 -45q10 -16 20 -49q10 0 23.5 -1.5t23.5 -1.5q25 0 60 3.5t73 7.5q125 18 187 80v-2q11 16 23 16q10 0 20 -10h-2 q4 -5 4 -13q0 -10 -8 -26q-158 -152 -260 -361q-53 -104 -103.5 -201.5t-101.5 -193.5q0 2 -7.5 -11.5t-11.5 -19.5q-39 -72 -74.5 -139.5t-66.5 -126.5q-20 -41 -46 -91t-52 -97q-8 -16 -11.5 -21.5t-5.5 -9.5t-6 -10t-12 -25q66 53 131 105.5t131 103.5h64l-369 -295 q-74 -131 -169 -271.5t-200 -248.5q-158 -157 -217 -157q-15 0 -24 12q-7 8 -7 22q0 25 20 66q32 65 105 165q72 96 176.5 195.5t221.5 196.5q55 102 143 259.5t195 352.5q8 16 15 31.5t17 31.5q2 2 2 3.5t2 3.5l-2 -4q53 94 103.5 188t103.5 192q84 158 199 295 q-55 -23 -127 -32q-27 -4 -53.5 -6.5t-48.5 -2.5h-24.5t-23.5 2q2 -14 2 -30.5v-32.5q0 -47 -6 -106.5t-20 -124.5q-23 -94 -59.5 -204t-88.5 -212q-74 -145 -164 -271.5t-182 -212.5q-86 -78 -175 -127t-161 -49h-3q-151 0 -187 179q-6 31 -6 69zM82 -524q14 0 174 170v-2 q61 68 115.5 143.5t115.5 183.5q-111 -94 -194.5 -179t-114.5 -136q-47 -72 -70.5 -118t-25.5 -62zM487 -29q16 14 33 26.5t33 27.5l-25 20q-10 -20 -20 -38.5t-21 -35.5zM946 1466q4 -8 15 -14q2 -2 5 -3t7 -3l8 -4q-2 4 -3 7t-3 7v-2q-18 25 -27 21v2q-4 -2 -4 -6 q0 -3 2 -5z" />
<glyph unicode="H" horiz-adv-x="915" d="M-8 57q74 41 138.5 101.5t113.5 132.5q51 78 89 140.5t75 127.5q-17 -1 -33 -1q-147 0 -252 97q-59 59 -60 136q0 57 29 116q33 76 96.5 120t155.5 50q6 0 8 -21.5t-4 -21.5q-154 -8 -213 -141q-23 -55 -22 -100q0 -61 43 -101q86 -88 221 -88h27.5t31.5 4q23 41 42.5 80 t35.5 70l10 20q27 49 63 117t83 156q4 10 10 21t12 24q117 205 260 329q33 29 79 52.5t99 38.5q28 7 54 7q75 0 129 -63q25 -35 24 -80q0 -86 -82 -219q-61 -96 -183 -213t-292 -239q-72 -53 -147.5 -89t-149.5 -53q-47 -90 -108.5 -190.5t-141.5 -188.5h23q18 0 38.5 -2 t35.5 -6q4 55 25.5 117.5t54.5 128.5q78 147 227 147q61 0 87 -28.5t26 -75.5q0 -27 -5.5 -52.5t-15.5 -54.5v3q-16 -53 -41.5 -105.5t-50.5 -97.5q70 57 139.5 112.5t138.5 110.5h64l-393 -317q-72 -131 -155 -260.5t-187 -237.5q-157 -157 -215 -157q-16 0 -25 12 q-7 9 -7 24q0 62 124 229q72 96 173 191.5t218 189.5q10 20 29 52q27 47 59.5 108.5t54.5 118.5q13 38 21 72q6 26 6 52v13q0 47 -51 47q-123 0 -189 -133q-62 -119 -62 -215q0 -10 1 -20q2 -4 6 -10.5t8 -10.5q2 -4 4 -5t4 -5q16 -31 16.5 -56.5t-9 -38t-25.5 -10.5t-33 27 h2q-8 8 -18 31.5t-6 56.5q-10 8 -28.5 10t-43.5 2q-31 -2 -54.5 -8t-45.5 -22h2q-2 0 -10.5 -7.5t-14.5 -11.5q-31 -23 -66.5 -45t-74.5 -39zM61 -524q8 0 53 44t119 124q59 66 114.5 143.5t117.5 183.5q-111 -94 -195 -179t-114 -136q-47 -72 -70 -118t-25 -62zM465 -29 q16 14 32.5 26.5t32.5 27.5l-24 20q-10 -20 -20.5 -38.5t-20.5 -35.5zM512 625q55 14 118.5 45.5t129.5 77.5q160 119 277.5 227t172.5 199q39 63 59.5 113t20.5 89q0 29 -16 56q-34 53 -89 53q-22 0 -46 -8q-90 -27 -156 -88q-133 -129 -238 -322q-55 -102 -96 -179 t-69 -130q-16 -35 -29.5 -60.5t-38.5 -72.5z" />
<glyph unicode="I" horiz-adv-x="966" d="M0 146q-6 23 -6 46q0 28 10 54q12 29 37 51t56.5 37.5t66.5 23t67 7.5q66 0 108 -29q30 -21 30 -59q0 -14 -4 -31q-12 -41 -67.5 -76t-141.5 -41l2 43q57 2 104 27.5t57 54.5q2 7 2 14q0 45 -95 45h-7q-135 0 -168 -80q-11 -24 -11 -46q0 -52 62 -91q55 -37 123 -37 q109 0 209 88q135 117 248 318q57 102 100 181t72 136q25 47 58.5 111.5t78.5 148.5q33 61 66 114.5t73 107.5q-29 -16 -58.5 -21.5t-49.5 0.5q-25 8 -34 24.5t-7 37t12.5 44t20.5 46.5v-2q14 29 22 52t-2 34q-5 2 -11 2q-32 0 -110 -49q-96 -61 -190 -185 q-10 -10 -22.5 -15t-20.5 -2t-8 13t16 33q120 144 222 202q76 44 120 43q15 0 27 -5q23 -12 30 -30t3.5 -38.5t-12.5 -43t-21 -42.5v2q-14 -29 -23.5 -52.5t6.5 -27.5q6 -2 14 -2q26 0 68 22q56 30 121 91h-2q123 127 264 127l-6 -39q-94 0 -178 -84q-41 -41 -83 -91.5 t-83 -109.5v2q-39 -57 -76 -119.5t-67 -122.5q-20 -41 -40 -77.5t-36 -65.5q-8 -14 -14.5 -27.5t-12.5 -25.5q-29 -57 -71.5 -137t-100.5 -185q-53 -98 -122.5 -184t-143.5 -145q-57 -45 -120.5 -66.5t-125.5 -21.5q-82 0 -151 36q-60 35 -74 87z" />
<glyph unicode="J" horiz-adv-x="935" d="M2 -575q-8 9 -8 25q0 24 18 62q29 64 105 166q72 96 176 195.5t221 196.5q10 23 28.5 53.5t30.5 52.5q6 12 9.5 19.5t11.5 23.5q-23 -4 -39 2t-23 23l3 -2q-10 21 -10 38q0 32 34 52q19 11 32 11q23 0 23 -39q0 -17 -4 -40v-2q0 4 17 12l581 1057q-31 -29 -68.5 -63.5 t-68.5 -59.5q-102 -81 -148 -81q-9 0 -16 3l2 -2q-37 12 -37 46q0 16 9 38q12 29 25.5 58.5t27.5 54.5q20 33 33.5 59.5t23.5 47.5q20 33 8 47q-5 2 -11 2q-32 0 -109 -49q-96 -61 -191 -185q-4 -4 -10 -1t-12.5 9.5t-10.5 12.5t0 10v-2q59 72 116.5 121t108 78.5t89.5 38.5 q17 3 31 3q18 0 32 -6q18 -10 19.5 -29.5t-7 -47t-26 -59.5t-35.5 -64q-16 -29 -29.5 -55.5t-25.5 -51.5q-16 -29 -4 -33q2 -1 4 -1q32 0 149 98q66 53 121 109.5t100 115.5l-2 -2q0 2 2 4l7 6q4 4 6 8l20 13q6 1 11 1q14 0 18 -9q2 -4 2 -10q0 -9 -6 -23 q-158 -293 -325 -597t-324 -597q8 6 42.5 19t72.5 28.5t72 30t42 20.5h63q-18 -18 -66 -40.5t-100.5 -45.5t-97.5 -42t-61 -30q-6 -10 -8 -15t-3 -9t-3.5 -10.5t-8.5 -16.5h64l-113 -94q-72 -131 -164 -267.5t-198 -244.5q-157 -157 -214 -157q-16 0 -24 12zM57 -524 q8 0 53 44t119 124q59 66 114.5 143.5t117.5 183.5q-111 -94 -194 -179t-115 -136q-47 -72 -70 -118t-25 -62zM461 -29q16 14 32.5 26.5t32.5 27.5l-24 20q-10 -20 -20.5 -38.5t-20.5 -35.5z" />
<glyph unicode="K" horiz-adv-x="1349" d="M-4 170q10 70 42 145.5t83 161.5q51 84 118.5 160t153.5 147q82 70 177.5 108t193.5 46q49 92 104.5 181t118.5 181q137 199 301 222h37q33 0 37 -12.5t-10 -30.5q-104 -129 -105 -181q0 -27 31 -21.5t79 36t104.5 83t105.5 120.5q4 4 18 -8.5t17 -18.5 q-100 -117 -188.5 -183.5t-149.5 -66.5q-68 0 -68 61q0 53 78 179q-115 -35 -232 -201q-68 -98 -119 -180t-92 -160q76 -4 138.5 -23.5t109.5 -60.5q70 -59 70 -149q0 -43 -16 -97q-29 -90 -98.5 -171t-170.5 -154q6 0 10 -2q25 -10 33 -26.5t6 -37t-12 -44t-22 -46.5 q-14 -29 -21.5 -51.5t2.5 -26.5q7 -3 16 -3q25 0 66 24q33 20 54.5 34.5t31.5 24.5l322 256h63l-358 -289q-73 -54 -127 -78q-32 -14 -57 -14q-17 0 -31 6q-23 10 -31 26.5t-5 37t12 43t20 45.5v-2q14 29 23 53.5t-5 28.5q-12 4 -33.5 -2.5t-44.5 -16.5q-47 -33 -97 -60.5 t-99 -53.5q-61 -31 -114.5 -50.5t-100.5 -33.5q-16 0 -22.5 21.5t22.5 31.5q72 14 178 64.5t211.5 124t193.5 163.5t123 186q16 49 16 89q0 76 -57 120q-41 37 -96 55.5t-121 22.5q-8 -14 -20.5 -37.5t-20.5 -38.5v2q-8 -16 -16 -32.5t-17 -32.5l-32 -70q-31 -61 -70 -135 t-84 -148.5t-98.5 -145t-113.5 -125t-127 -87.5t-140 -33h-3q-80 0 -80 98q0 23 5 52zM33 123q0 -60 41 -64q82 0 182 82q72 59 134.5 135t109.5 160q47 88 95 176t89 170v-2q10 25 24.5 54.5t30.5 64.5q-78 -10 -155.5 -47t-147.5 -92q-78 -66 -144.5 -139.5t-119.5 -151.5 q-49 -76 -82 -149.5t-49 -139.5q-4 -16 -6 -30.5t-2 -26.5zM1280 1487q2 0 2 2z" />
<glyph unicode="L" horiz-adv-x="1169" d="M-23 119q24 127 193 127h10q41 -2 103.5 -23.5t134.5 -50.5q78 78 144.5 180.5t121.5 202.5q-17 -1 -34 -1q-154 0 -263 101q-63 57 -63 140q0 29 7 58.5t23 61.5q35 80 101.5 126t160.5 53q6 0 8.5 -21.5t-3.5 -21.5q-160 -10 -222 -150q-23 -61 -22 -106q0 -63 41 -103 q94 -94 235 -94h27.5t30.5 4q16 31 30.5 60.5t30.5 58.5q8 16 18.5 35.5t16.5 34.5q16 31 34.5 64.5t43.5 80.5q10 18 25.5 48t27.5 52q41 80 91 156t106 145q41 49 88 88t93 65t89 40t80 14q72 0 116 -40t44 -111q0 -53 -35 -131t-113 -172q-74 -88 -182.5 -185.5 t-241.5 -195.5q-78 -53 -158.5 -93.5t-152.5 -54.5q-57 -106 -127 -219t-158 -199q80 -31 169 -57.5t181 -46.5q20 -4 36 -6t30 -2q135 0 203 145l47 -2q-82 -192 -240 -192h-2q-41 0 -76 8q-94 23 -191 54.5t-194 70.5q-66 -59 -137.5 -93t-134.5 -34h-12q-181 0 -182 104 q0 13 3 27zM23 115q-1 -6 -1 -11q0 -34 32 -54q35 -22 104 -21h12q49 0 101.5 25.5t115.5 82.5q-66 29 -118 46.5t-89 19.5h-17q-129 0 -140 -88zM788 621q63 18 128 49.5t135 81.5v-2q127 92 232.5 187t178.5 181q68 82 100.5 152.5t32.5 120.5q0 53 -30.5 82.5t-79.5 29.5 q-63 0 -146 -49.5t-161 -155.5q-49 -66 -95.5 -136t-89.5 -154q-41 -78 -74.5 -138.5t-56.5 -107.5q-18 -37 -33.5 -63.5t-40.5 -77.5z" />
<glyph unicode="M" horiz-adv-x="1882" d="M-6 158q8 61 28.5 131.5t55.5 148.5q72 156 153 285q14 23 23.5 39t19.5 33q10 14 17.5 25t13.5 22q8 10 12 20q78 111 162 204t170 175q-10 121 -39.5 180.5t-72.5 61.5h-4q-94 0 -173 -92q-80 -100 -88 -228q-1 -7 -1 -13q0 -97 143 -106q-23 -4 -24 -18t24 -20 q-98 4 -142 42q-43 37 -43 109v6q4 70 25.5 132.5t69.5 117.5q90 113 213 115h2q119 0 170 -234q86 74 175 130.5t160 82.5q32 12 60 12q122 0 172 -223q59 51 115.5 90t113.5 70q100 55 176 64q11 3 19 3q23 0 23 -23q0 -5 -1 -11q-88 -68 -88 -90q0 -16 32 -13t79 20 t100.5 46t98.5 66q16 10 27 -6q8 -11 8 -21q0 -4 -1 -8q-98 -92 -186 -247t-193 -362q-27 -49 -53 -102t-55 -106q-78 -141 -124 -256t-64 -203v2q-4 -25 -7.5 -44.5t-3.5 -33.5q0 -72 54 -72h6q102 10 235 103q72 51 146.5 106.5t148.5 116.5h64q-88 -74 -171 -138.5 t-158 -113.5t-142.5 -81t-122.5 -38q-10 -1 -19 -1q-100 0 -100 145q0 19 2 41q8 90 53 213t127 270q61 111 120.5 217.5t115 200.5t106.5 174t96 137q-108 -57 -186 -57h-10q-72 4 -72 47q0 10 6 23.5t17 27.5q-145 -53 -320 -207q6 -35 9 -76q2 -25 2 -48q0 -16 -1 -31 q-2 -43 -9 -101.5t-23 -130.5q-8 -35 -23.5 -88t-38.5 -123v-2q-20 -61 -52 -134t-67 -140q-72 -133 -167 -240q-102 -109 -226 -111h-8q-125 0 -125 108q0 14 2 30q16 127 86 280q72 156 154 285q14 23 24.5 39t18.5 33q10 14 17 25t13 22q8 10 13 20q78 111 162 204 t172 175q-10 123 -47 175t-91 52q-37 0 -82 -19t-92 -50t-96 -71t-94 -83q12 -66 12 -135v-20q-2 -43 -9 -101.5t-24 -130.5q-8 -35 -23.5 -88t-37.5 -123v-2q-20 -61 -52 -134t-67 -140q-72 -133 -168 -240q-102 -109 -225 -111h-8q-124 0 -124 114q0 11 1 24zM37 160 q-1 -11 -1 -21q0 -72 72 -72q8 0 17 1q53 4 99 29.5t87 66.5q90 102 150 225q31 61 57.5 126t44.5 134q23 68 37 122t25 95q30 142 30 257v7q0 12 1 18.5t1 11.5v11.5t-2 16.5q-74 -72 -148.5 -157t-152.5 -187q0 -4 -12 -21.5t-29 -46.5q-10 -16 -20 -32.5t-25 -36.5 q-41 -66 -78.5 -136.5t-70.5 -140.5q-35 -74 -54.5 -141.5t-27.5 -128.5zM604 160q-1 -11 -1 -20q0 -73 74 -73q8 0 17 1q51 4 98.5 29.5t86.5 66.5q88 100 151 225q31 63 56.5 128t46.5 132q23 66 37 121t24 96q31 150 31 273l1 29q0 6 -1 20q-78 -74 -153 -160t-146 -184 v-2q-8 -8 -35 -49q-10 -16 -23.5 -39t-29.5 -47q-41 -66 -78 -136.5t-72 -140.5q-33 -74 -54.5 -141.5t-29.5 -128.5z" />
<glyph unicode="N" horiz-adv-x="1310" d="M-8 158q8 61 27.5 131.5t56.5 148.5q35 80 73.5 150.5t77.5 134.5q14 23 24.5 39t20.5 33q10 14 16.5 25t12.5 22l12 20q78 111 163 204t171 175q-29 240 -115 242h-8q-95 0 -166 -90q-74 -96 -84 -226v-8q0 -107 148 -115q-2 -2 3 -18t-11 -20q-190 8 -189 157 q2 70 25.5 133.5t66.5 118.5q92 113 215 115h4q120 0 169 -236q59 49 118.5 91t108.5 71q98 53 178 64q25 4 35 -2.5t6 -28.5q-47 -35 -65.5 -57.5t-18.5 -32.5q0 -16 30.5 -13t77 19t99.5 46t98 67h-2q14 14 34 7q15 -5 14 -17q0 -3 -1 -7l-4 -6q-2 0 -8 -12 q-98 -92 -185 -247t-194 -362q-27 -49 -53.5 -102t-54.5 -106q-72 -139 -120 -255t-69 -204v2q-4 -25 -7 -44.5t-3 -33.5q0 -72 55 -72h6q100 10 234 103q68 47 143.5 103.5t153.5 119.5h63q-86 -74 -169 -138.5t-158.5 -113.5t-143 -81t-123.5 -38q-10 -1 -19 -1 q-99 0 -99 143q0 20 2 43q8 90 52 213t126 270q59 111 119.5 217.5t117 200.5t108.5 174t95 137q-111 -57 -193 -57h-6q-71 4 -71 46q0 10 6 24t16 28q-70 -27 -149.5 -78t-169.5 -129q12 -66 12 -135v-20q-2 -43 -9 -101.5t-24 -130.5q-6 -35 -22.5 -88t-38.5 -123v-2 q-20 -61 -51 -134t-68 -140q-35 -66 -78 -126.5t-90 -113.5q-98 -109 -225 -111h-4q-126 0 -126 114q0 12 1 24zM33 160q-1 -11 -1 -21q0 -72 72 -72q8 0 17 1q53 4 100 29.5t86 66.5q45 49 82 105.5t70 119.5q31 61 56.5 126t45.5 134q23 68 36 122t24 95q32 139 32 257v7 q0 12 1 18.5t1 11.5v11.5t-2 16.5q-74 -72 -148.5 -157t-152.5 -187q-2 -4 -14 -21.5t-29 -46.5q-14 -27 -43 -69q-41 -66 -78.5 -136.5t-72.5 -140.5q-66 -145 -82 -270z" />
<glyph unicode="O" horiz-adv-x="940" d="M-8 258q0 168 125 420q76 150 170 287t205 254t203.5 192.5t162.5 104.5l6 2q16 0 27.5 -13.5t-10.5 -27.5q-66 -29 -152 -101.5t-190 -185.5q-98 -111 -190.5 -248t-164.5 -278q-72 -145 -106 -260q-27 -93 -27 -163q0 -17 2 -32q16 -154 137 -154h3q131 0 305 170 q182 170 333 463q53 104 91.5 206.5t54.5 201.5q24 118 24 200v7q0 23 -2 45t-6 41q-18 4 -30.5 8t-22.5 14q-49 31 -49 60q0 18 20 36q18 13 36 13q33 0 65 -43v-2q8 -10 12 -21.5t8 -28.5q10 -2 23.5 -2h21.5q23 0 46.5 2t52.5 9q90 18 155 79q2 2 9.5 0t14.5 -6t11 -9 q3 -3 3 -5q0 -1 -1 -2q-70 -63 -146.5 -87t-142.5 -24h-37q2 -16 2 -30.5v-34.5q0 -49 -6 -107.5t-20 -124.5q-20 -94 -57 -202.5t-91 -212.5q-74 -145 -164 -271.5t-182 -212.5q-88 -78 -176 -126t-160 -48h-7q-150 0 -183 178q-6 31 -6 70zM948 1470q-3 -3 -3 -6 q0 -8 20 -18q6 -6 12 -8q-4 8 -4 12q-14 21 -22 21q-2 0 -3 -1z" />
<glyph unicode="P" horiz-adv-x="937" d="M-33 -582q96 176 198.5 364.5t199.5 362.5q-23 14 -40.5 37t-27.5 51h2q-11 25 -11 41q0 22 21 27q25 6 37 -31q12 -31 -2 -39q8 -12 20.5 -25t24.5 -22q39 72 76 141.5t76 143.5q23 43 47 87t47 85q14 27 33.5 60.5t40.5 68.5q39 68 82 149.5t79.5 164.5t61 159 t24.5 135q0 45 -14 76q-15 26 -47 26q-16 0 -37 -7q-66 -27 -126 -96.5t-89 -145.5q-6 -18 -8 -36.5t-2 -35.5q0 -16 2 -29.5t8 -29.5h-2q25 -55 125 -62q6 0 3 -20.5t-7 -20.5q-131 6 -164 84q-16 35 -16 78q0 45 14 86q16 41 39.5 82t60.5 82q72 80 148 109q33 11 59 11 q54 0 82 -46q29 -51 29 -123q0 -55 -17 -125q63 86 124 144.5t116 92.5q55 32 105 44q29 7 54 7q18 0 34 -3q92 -14 133 -121q10 -29 17 -59.5t7 -59.5q0 -49 -12 -100q-20 -80 -77.5 -167t-141.5 -174t-188.5 -173t-217 -163t-228.5 -141.5t-222 -109.5q-6 -8 -15 -21 q-10 -16 -13 -26t-21 -45q10 -4 21 -4h26q31 0 65.5 6t69.5 18.5t66.5 27.5t54.5 34q45 35 93 71.5t91 71.5h63l-217 -174q-59 -47 -145 -72.5t-152 -25.5q-16 0 -31.5 2t-27.5 6q-4 -4 -8 -14.5t-8 -14.5q-18 -33 -40 -74t-50 -94q-12 -23 -24.5 -47t-29.5 -53 q-35 -66 -81 -150t-99 -188zM532 315q131 59 260.5 143.5t286.5 200.5q166 123 285 269q121 150 139 258q4 29 7 53.5t3 46.5q0 121 -65 172q-25 23 -66 23q-76 0 -182 -92q-37 -33 -69.5 -67t-63.5 -74t-63.5 -86t-71.5 -103v2q-39 -88 -81 -168t-83 -148q-20 -33 -37 -63 t-31 -55q-41 -76 -69.5 -130.5t-50.5 -95.5q-12 -25 -20.5 -37t-12.5 -20l-7 -14t-8 -15z" />
<glyph unicode="Q" horiz-adv-x="954" d="M-8 262q0 168 127 420q154 311 375 543q111 121 204 194.5t170 104.5q2 0 5.5 -6.5t5.5 -14.5t1 -16t-6 -8l3 2q-63 -29 -148.5 -101.5t-189.5 -185.5q-96 -111 -189.5 -248t-165.5 -278q-72 -145 -106 -260q-27 -93 -27 -163q0 -17 2 -32q16 -154 134 -154h6 q131 4 307 170q86 82 172 203t159 260q53 104 91.5 208t56.5 202q10 61 16 113.5t6 93.5q0 23 -2 45t-6 41q-35 6 -55 20h2q-49 31 -49 60q0 18 20 36q19 16 36 16q9 0 17 -3q25 -11 48 -45q10 -16 20 -49q10 0 23.5 -1.5t23.5 -1.5q25 0 60 3.5t73 7.5q125 18 187 80v-2 q11 16 23 16q10 0 20 -10h-2q4 -5 4 -13q0 -10 -8 -26q-143 -137 -240 -328q-47 -94 -94 -184l-94 -180q-16 -35 -39 -75t-41 -75q-37 -70 -69 -128t-61.5 -114.5t-60 -115t-67.5 -125.5q72 59 143.5 115.5t140.5 111.5h64l-395 -317q-74 -137 -157 -291t-155 -291l-121 -68 q92 170 195.5 360.5t198.5 360.5q90 164 183 336t183 338q6 10 11.5 20.5t11.5 20.5q76 145 158.5 292.5t187.5 276.5q-55 -23 -127 -32q-27 -4 -53.5 -6.5t-48.5 -2.5h-24.5t-23.5 2q2 -14 2 -30.5v-32.5q0 -47 -6 -106.5t-20 -124.5q-23 -94 -59.5 -204t-88.5 -212 q-74 -145 -164 -271.5t-182 -212.5q-86 -78 -175 -127t-161 -49h-3q-151 0 -187 179q-6 31 -6 69zM946 1466q4 -8 15 -14q2 -2 5 -3t7 -3l8 -4q-2 4 -3 7t-3 7v-2q-18 25 -27 21v2q-4 -2 -4 -6q0 -3 2 -5z" />
<glyph unicode="R" horiz-adv-x="1208" d="M-10 158q8 61 28.5 131.5t57.5 148.5q35 80 72.5 150.5t78.5 134.5q14 23 24.5 39t18.5 33q10 14 17.5 25t13.5 22q8 10 12 20q78 111 163 204t171 175q-29 238 -115 242h-8q-95 0 -166 -90q-76 -94 -86 -226v-8q0 -107 150 -115q-29 0 -32 -15t24 -23q-98 4 -144 42 q-45 37 -45 109v6q2 70 25.5 133.5t66.5 118.5q90 113 215 115h2q119 0 171 -236q59 49 117.5 91t109.5 71q53 29 99 42t81 13q43 0 74 -17t49 -47t26.5 -70t8.5 -85q0 -57 -11.5 -117.5t-27.5 -117.5q-18 -57 -53 -112.5t-82 -110.5q-78 -92 -172 -146q50 -30 51 -89 q0 -25 -10 -56q-27 -86 -74 -201q-23 -53 -42.5 -100t-35.5 -92h2q-12 -31 -12 -50q0 -27 8 -28q9 -3 19 -3q55 0 157 91q31 29 56.5 51t51 47t52.5 54.5t61 72.5h64q-41 -49 -74 -87t-63.5 -68.5t-60.5 -57.5t-62 -55q-111 -96 -173 -96q-13 0 -24 4h2q-62 21 -62 88 q0 19 5 43q12 45 29.5 94t41.5 106q23 53 40.5 102.5t33.5 96.5q13 37 13 61q0 27 -17 35q-16 10 -53 0v2q-80 -35 -172 -37h-28.5t-24.5 2q-35 -90 -84.5 -189t-108.5 -193q-66 -102 -142.5 -157.5t-166.5 -58.5h-8q-124 0 -124 114q0 11 1 24zM33 160q-1 -11 -1 -21 q0 -72 72 -72q8 0 17 1q53 4 100 29.5t86 66.5q45 49 82 105.5t70 119.5q29 61 55.5 126t44.5 134q23 68 37 122t25 95q32 139 32 257v7v18.5v11.5v11.5v16.5q-74 -72 -148.5 -157t-152.5 -187q-2 -4 -14 -21.5t-29 -46.5q-10 -16 -20 -32.5t-23 -36.5q-43 -66 -79.5 -136.5 t-71.5 -140.5q-66 -145 -82 -270zM616 666l15 -23l6 19q-6 2 -11 2t-10 2zM637 662h35q168 0 301 133q137 133 184 270q27 78 41 142.5t14 109.5q0 102 -59 137q-25 14 -53 14q-129 0 -385 -223q6 -35 9 -76q2 -25 2 -48q0 -16 -1 -31q-2 -43 -9 -101.5t-24 -130.5 q-4 -10 -7 -22.5t-7 -24.5q-10 -31 -18.5 -68.5t-22.5 -80.5z" />
<glyph unicode="S" horiz-adv-x="735" d="M-8 158q8 61 27.5 131.5t56.5 148.5q35 80 73.5 150.5t77.5 134.5q14 23 24.5 39t20.5 33q10 14 16.5 25t12.5 22l12 20q78 111 163 204t171 175q-29 240 -115 242h-8q-95 0 -166 -90q-41 -49 -60 -104.5t-24 -119.5v-9q0 -109 148 -116q4 4 3 -11t-11 -27 q-190 8 -189 157q2 70 25.5 133.5t66.5 118.5q92 113 215 115h4q120 0 169 -236q59 49 118.5 91t108.5 71q98 53 178 64q25 4 35 -2.5t6 -28.5q-47 -35 -65.5 -57.5t-18.5 -32.5q0 -16 30.5 -13t77 19t99.5 46t98 67h-2q2 2 10.5 0t15.5 -6.5t12 -9.5q4 -4 4 -6q0 -1 -1 -1 h-2q-184 -139 -313 -141h-12q-72 0 -72 47q0 10 6 23.5t16 27.5q-70 -27 -149.5 -78t-169.5 -129q6 -35 9 -76q2 -25 2 -48q0 -16 -1 -31q-2 -43 -9 -101.5t-24 -130.5q-6 -35 -22.5 -88t-38.5 -123v-2q-20 -61 -51 -134t-68 -140q-33 -66 -77 -127.5t-91 -112.5 q-98 -106 -223 -111h-4q-126 0 -126 114q0 12 1 24zM33 160q-1 -11 -1 -21q0 -72 72 -72q8 0 17 1q53 4 100 29.5t86 66.5q45 49 82 105.5t70 119.5q31 61 56.5 126t45.5 134q23 68 36 122t24 95q32 139 32 257v7q0 12 1 18.5t1 11.5v11.5t-2 16.5q-74 -72 -148.5 -157 t-152.5 -187q-2 -4 -14 -21.5t-29 -46.5q-14 -27 -43 -69q-43 -66 -79.5 -136.5t-71.5 -140.5q-66 -145 -82 -270z" />
<glyph unicode="T" horiz-adv-x="372" d="M-6 162q-8 19 -8 35q0 33 34 51q18 11 30 11q24 0 24 -44q0 -14 -2 -33v-2q4 2 10 6q4 4 9 7.5t11 7.5l615 1132q-39 -39 -69 -64.5t-70 -60.5q-102 -81 -148 -81q-9 0 -16 3l2 -2q-40 13 -40 49q0 15 7 35q10 25 22.5 51.5t32.5 61.5q16 29 30.5 55.5t29.5 53.5 q18 35 8 45q-5 2 -11 2q-32 0 -110 -49q-96 -61 -190 -185q-10 -10 -22.5 -15t-21 -2t-8.5 13t17 33q121 142 225 200q74 41 121 42q19 0 33 -7q18 -10 19 -29.5t-7 -47t-25.5 -59.5t-36.5 -64q-16 -29 -29.5 -55.5t-25.5 -51.5q-16 -29 -4 -33q2 -1 4 -1q32 0 150 98 q66 53 121 109.5t100 115.5l-2 -2q0 2 2 4l6 6q4 4 6 8q2 2 7 5.5t16 7.5q6 1 11 1q15 -1 17 -9q1 -3 1 -7q0 -10 -9 -26q-164 -309 -324.5 -610.5t-326.5 -610.5q39 27 81 58.5t83 66.5h63q-29 -23 -62.5 -49.5t-69.5 -54t-70.5 -52t-65.5 -43.5q-18 -35 -38.5 -73.5 t-41.5 -73.5l-88 -29l72 135q-25 -6 -47.5 -3t-30.5 20z" />
<glyph unicode="U" horiz-adv-x="1308" d="M-8 240q2 70 31.5 156.5t85.5 191.5q10 23 24 47t25 45q41 80 84 159t84 154q55 96 95 181.5t68 160.5q16 53 17 78q0 27 -14.5 45.5t-42.5 22.5h-4q-61 0 -132 -66q-33 -29 -63.5 -72t-46.5 -79q-10 -29 -17.5 -53.5t-7.5 -49.5q0 -10 2 -25.5t6 -25.5q23 -66 121 -72 q12 -6 4 -19t-6 -20q-141 6 -166 101q-4 12 -6 27.5t-2 33.5q0 55 29 123q20 43 54 90t71 82q41 34 87 52q37 14 72 15q8 0 15 -1q96 -10 96 -107q0 -20 -3 -43.5t-13 -50.5v2q-27 -82 -69 -179t-99 -206q-33 -63 -68 -129t-70 -127q-20 -41 -42.5 -84t-45.5 -82 q-53 -104 -81 -178q-24 -65 -23 -109v-12q4 -86 24.5 -115.5t55.5 -33.5q8 -1 17 -1q49 0 114 48q84 57 145 125q59 72 125 156.5t129 183.5q76 117 147.5 247.5t123.5 243.5q50 113 72 195q16 57 15 97q0 18 -3 32q-14 4 -31 10t-27 10q-47 31 -47 59q0 19 21 37 q18 18 37 18q31 0 63 -50q4 -10 12 -21.5t8 -27.5q14 -1 32.5 -1t40.5 1q44 2 85 8q100 14 168 80v-2q9 17 20 17q9 0 21 -11h-2q4 -5 4 -13q0 -11 -8 -26q-98 -96 -200.5 -271.5t-215.5 -390.5q-14 -29 -38.5 -76t-41.5 -79q-74 -143 -120 -257t-64 -204q-8 -39 -8 -68 q0 -78 60 -78h3q100 10 234 103q68 47 143.5 103.5t153.5 119.5h63q-86 -74 -169 -138.5t-158.5 -113.5t-143 -81t-123.5 -38q-10 -1 -19 -1q-99 0 -99 143q0 20 2 43q8 92 51 211.5t127 271.5q131 240 243.5 430.5t204.5 308.5q-53 -23 -102 -31t-94 -8h-20.5t-20.5 2 q2 -14 2 -30q0 -104 -80 -289q-53 -117 -115.5 -234.5t-140.5 -236.5q-66 -100 -142.5 -204.5t-140.5 -178.5q-72 -84 -160 -141q-77 -48 -141 -48q-11 0 -22 1q-119 18 -119 211v6zM956 1475v2q-4 -3 -4 -7q0 -8 17 -18q6 -8 20 -12l-4 8l-4 8v-2q-16 27 -25 21z" />
<glyph unicode="V" horiz-adv-x="1075" d="M-2 18q-5 5 -5 12q0 11 11 29q104 104 207.5 285.5t232.5 431.5q12 25 25.5 49.5t28.5 51.5q92 176 142 311t50 213q0 29 -10 53q-15 26 -46 26q-16 0 -36 -7q-31 -12 -63.5 -38t-61.5 -59t-51.5 -70.5t-36.5 -74.5t-14 -76q0 -16 2 -30.5t6 -24.5q29 -55 125 -62 q4 0 2 -20.5t-6 -20.5q-133 6 -166 84q-16 35 -17 78q0 45 15 86q33 86 100 164q76 82 150 109q34 12 61 12q54 0 78 -47q20 -35 20 -99q0 -86 -45 -225t-131 -299q-131 -242 -246.5 -436.5t-201.5 -306.5q29 12 61.5 19t63.5 11t59.5 6.5t50.5 2.5h24.5t20.5 -2 q-1 12 -1 26q0 47 16 112q20 83 71 197q57 125 123 248t144 240q63 96 129.5 188t132.5 164q35 41 75.5 76t83.5 63q82 51 150 51q8 0 16 -1q119 -14 119 -215q-4 -186 -135 -445q-154 -307 -377 -543q-219 -238 -364 -295l-2 -2q-5 -1 -10 -1q-10 1 -21 5q-17 8 -12 17 q-4 -2 -5.5 -4t-5.5 -4q-20 -16 -38 -16q-32 0 -62 46q-8 16 -16 50q-16 1 -37 1t-45 -1q-50 -2 -103 -11q-119 -14 -182 -75q-19 -14 -31 -14q-8 0 -12 7zM440 147q35 -6 60 -22q46 -32 47 -61q0 -8 -4 -15q6 6 10 8q66 29 153 102.5t191 184.5q98 111 193.5 251t166.5 279 q61 125 97.5 238t40.5 191q1 17 1 33q0 123 -71 137q-6 1 -11 1q-52 0 -126 -49h2q-41 -29 -76 -60.5t-63 -61.5q-66 -72 -129.5 -158t-124.5 -184q-84 -125 -153 -248t-124 -246q-84 -190 -84 -284q0 -20 4 -36zM455 98q2 -10 8 -12l2 -2q10 -20 20 -20q3 0 7 2q3 3 3 6 q0 8 -18 18h2q-10 4 -8 4t-16 4z" />
<glyph unicode="W" horiz-adv-x="1472" d="M-8 115q0 25 10 61q16 57 45 119.5t68 128.5q39 61 82 125.5t88 124.5q45 59 75.5 97t47.5 56q31 33 64.5 66t70.5 58.5t72.5 43t70.5 21.5q119 256 119 377q0 35 -10 59q-11 27 -39 27q-18 0 -43 -11q-31 -12 -63 -36.5t-60.5 -57.5t-52 -71.5t-37.5 -75.5 q-12 -41 -13 -76q0 -16 2.5 -30.5t6.5 -24.5q27 -55 116 -62q4 -8 2 -21.5t-6 -17.5q-125 6 -157 82q-16 35 -17 78q0 45 15 86q16 41 39.5 82t60.5 82q72 80 147 108q33 11 60 11q54 0 82 -45q10 -20 16 -48t6 -57q0 -131 -102 -360q93 -23 93 -135q0 -11 -1 -23 q-10 -121 -74 -281q-35 -80 -71.5 -152.5t-79.5 -139.5q-29 -47 -53.5 -83t-47.5 -63q45 10 88 14.5t80 4.5h25.5t21.5 -2q-1 12 -1 25q0 108 87 310q57 125 123 248t144 240q63 96 130.5 188t133.5 164q35 41 76 76t81 63q80 51 146 51q10 0 20 -1q119 -14 119 -215 q-2 -92 -34.5 -204t-100.5 -241q-154 -309 -379 -545v2q-111 -121 -205 -194.5t-166 -104.5q-5 -1 -10 -1q-9 1 -17 5q-12 8 -9 19q-2 -4 -4.5 -5t-4.5 -3q-27 -20 -52 -13t-48 43q-4 10 -8 20.5t-10 29.5h-64.5t-71.5 -5q-47 -4 -87 -13t-76 -25h2q-10 -6 -20.5 13t-2.5 28 q55 39 137 165q47 72 86 143.5t68 145.5q31 76 50.5 144.5t23.5 134.5q2 18 2 34q0 78 -58 93q-12 -25 -29.5 -57.5t-27.5 -55.5q-113 -205 -212 -378t-177 -285q-59 -91 -128 -139q-55 -38 -92 -38q-9 0 -18 2q-63 27 -63 97zM43 115q0 -18 5 -32.5t22 -19.5q6 -2 13 -2 q29 0 66 33q46 41 93 113l4 6l-2 -2q72 104 144.5 238.5t158.5 293.5q16 33 32.5 64t32.5 65l50 91q-53 -20 -111.5 -65.5t-104.5 -94.5q-59 -72 -124.5 -159t-131.5 -185q-10 -12 -33.5 -53t-49 -92.5t-45 -105.5t-19.5 -93zM784 147q38 -6 58 -22q48 -32 48 -62 q0 -7 -3 -14q0 4 8 8q66 29 153 102.5t193 184.5q98 113 191.5 251t164.5 279q68 131 103 237t39 192q1 17 1 32q0 124 -73 138q-6 1 -11 1q-52 0 -124 -49h2q-43 -29 -78 -60.5t-63 -61.5q-59 -70 -128 -158t-128 -184q-84 -125 -151.5 -248t-121.5 -246q-84 -184 -84 -280 q0 -23 4 -40zM797 100q2 -4 5 -8t5 -8q12 -18 24 -18q1 1 1 3q0 3 -3 8q-4 7 -8 13q-10 6 -24 10z" />
<glyph unicode="X" horiz-adv-x="1325" d="M-8 119q0 12 2 28.5t4 30.5q16 76 66.5 170t134.5 195q170 209 415 243q33 78 59.5 168t45.5 170q24 102 24 177v6q0 23 -2 44t-6 40q-16 55 -47 79q-12 0 -18 7q-18 0 -46 -9.5t-57 -27.5q-35 -25 -65.5 -58.5t-53 -71.5t-37 -78t-14.5 -75q0 -47 31 -82t104 -39 q14 -2 19.5 -17t-27.5 -22q-96 4 -136 48.5t-40 109.5q0 41 15.5 87t41 89t60.5 81t74 67q68 43 118 43q47 0 79 -33t46 -86q6 -23 8.5 -51.5t2.5 -57.5q0 -39 -3.5 -81t-11.5 -89q-14 -82 -35.5 -163.5t-50.5 -166.5h17q20 -1 38.5 -1.5t36.5 1.5q4 8 6.5 13.5t6.5 13.5 l-2 -2l4 8t4 9q160 379 340 557q129 127 248 129h3q85 0 85 -99q0 -23 -6.5 -57.5t-16.5 -69.5q-51 -160 -207 -342q-158 -182 -413 -206q-33 -82 -59.5 -163t-42.5 -156t-24 -141q-4 -34 -4 -63q0 -28 3 -51q4 -59 28.5 -85t63.5 -26q20 0 45.5 7.5t54.5 17.5 q84 41 194.5 121t229.5 176h64q-135 -111 -255 -201t-219 -135q-68 -29 -122 -29q-59 0 -97.5 33t-52.5 109q-4 16 -6 36.5t-2 43.5q0 182 129 501h-25.5t-27.5 2q-4 2 -16.5 2.5t-22.5 0.5q-37 -94 -80 -184.5t-90 -176.5q-53 -90 -107.5 -157.5t-111.5 -116.5 q-45 -41 -94.5 -62.5t-100.5 -30.5q-9 -1 -18 -1q-78 0 -78 100zM39 172q-4 -25 -4 -44q0 -67 47 -67h6q90 10 162 82q78 72 162 219.5t176 358.5q2 4 4 9t4 9q-113 -18 -204 -74.5t-167 -148.5q-160 -203 -186 -344zM856 801q227 33 367 190q72 84 119 163t69 151 q10 35 15.5 62.5t5.5 45.5q0 62 -48 62h-2q-94 -2 -200 -115q-152 -158 -316 -539z" />
<glyph unicode="Y" horiz-adv-x="1112" d="M-2 18q-5 5 -5 12q0 12 11 29q104 104 207.5 285.5t232.5 431.5q12 25 25.5 49.5t28.5 51.5q98 188 147 331q44 128 44 204q0 9 -1 18q-4 23 -18.5 37t-34.5 12q-23 -2 -46.5 -10.5t-45.5 -26.5q-35 -25 -66 -58.5t-53.5 -72.5t-36.5 -79t-14 -75q0 -47 30.5 -80 t108.5 -37q27 -6 21.5 -23.5t-29.5 -17.5q-98 6 -139 50.5t-41 107.5q0 41 15 87t41 90t60.5 82t73.5 67q63 43 131 43h6q69 0 88 -84q4 -21 4 -48q0 -23 -3 -52q-7 -60 -29.5 -136t-59.5 -164t-86 -182q-129 -236 -243.5 -431.5t-206.5 -311.5q29 12 62.5 19t64.5 11 t59.5 6.5t50.5 2.5h24.5t20.5 -2q-1 12 -1 26q0 48 16 112q20 83 71 197q55 123 124 247t143 241q74 111 147 210t145 177q27 29 61 56.5t68.5 49t69.5 35t64 13.5q45 0 70.5 -28t25.5 -99v-30t-4 -34q-23 -135 -101 -293q-59 -121 -79 -160q-2 -4 -5.5 -9t-3.5 -7 q-47 -94 -97 -186t-99 -187q-25 -47 -44.5 -83.5t-38 -70.5t-37 -71t-42.5 -84q66 53 131.5 105.5t130.5 103.5h64l-369 -295q-74 -131 -169 -271.5t-200 -248.5q-158 -157 -217 -157q-15 0 -24 12q-8 9 -8 24q0 25 19 65q32 66 107 164q33 45 80 95.5t99.5 101.5 t108.5 100.5t112 94.5q16 29 52 94t85 164q55 104 115.5 216.5t126.5 231.5q92 170 155.5 312.5t85.5 236.5q10 47 11 74q0 41 -13.5 57.5t-36.5 16.5t-51 -12.5t-58 -33t-58.5 -46t-53.5 -50.5q-66 -72 -139.5 -166t-140.5 -204q-164 -250 -275 -494q-84 -190 -84 -284 q0 -20 4 -36q37 -6 58 -22q41 -27 47 -51.5t-21 -42.5q-20 -16 -38 -16q-32 0 -62 46q-4 10 -8 20.5t-10 29.5q-16 1 -36 1t-44 -1q-50 -2 -103 -11q-119 -14 -182 -75q-33 -20 -43 -7zM254 -524q14 0 174 170v-2q61 68 115.5 143.5t115.5 183.5q-111 -94 -193.5 -179 t-115.5 -136q-47 -72 -70.5 -118t-25.5 -62zM455 98q2 -10 8 -12l2 -2q10 -18 17 -18q3 0 5 2t2 6q0 2 -1 5q-3 7 -9 11t-7 4t-17 4z" />
<glyph unicode="Z" horiz-adv-x="608" d="M-303 -575q-8 9 -8 25q1 24 19 62q30 64 104 166q72 96 176 195.5t221 196.5q35 57 59.5 110t36.5 119v-2q4 27 7 46t3 36q0 37 -14 51h2q-15 12 -38 12q-16 0 -36 -6q-10 -2 -17 4t-7 14.5t7 18.5t26 16q10 2 27.5 3.5t27.5 1.5q33 6 68.5 25.5t68.5 49.5 q55 51 117.5 146.5t120 205t102.5 218t64 186.5q8 35 8 66q0 70 -49 75q-16 2 -33 2q-65 0 -142 -36h3q-135 -66 -218 -189q-59 -93 -59 -188v-6q4 -86 139 -93q25 -6 17 -23.5t-25 -17.5q-174 6 -180 129v12q1 50 15 100q16 56 52 110q43 66 104.5 119t135.5 90 q83 38 158 38q25 0 49 -4q89 -14 89 -123q0 -26 -5 -59q-31 -186 -160 -424q-66 -123 -132 -212t-138 -152q-33 -25 -60.5 -43.5t-58.5 -30.5q16 -16 23.5 -39t7.5 -59q0 -12 -2 -31t-6 -43q-2 -4 -1 -8t-1 -9v3q-6 -31 -10.5 -55.5t-14.5 -53.5q66 53 134.5 108.5 t133.5 106.5h64l-369 -295q-74 -131 -169 -271.5t-200 -248.5q-154 -157 -212 -157q-16 0 -25 12zM-246 -524h1q7 0 47 39q44 43 122 129q59 66 114.5 143.5t117.5 183.5q-111 -94 -194 -179t-116 -136q-93 -145 -93 -175q0 -3 1 -5z" />
<glyph unicode="[" horiz-adv-x="0" d="M-418 -2l8 57l410 330h63z" />
<glyph unicode="\" horiz-adv-x="632" d="M262 1239q0 88 12 162q25 143 136 174l12 -41q-80 -27 -94 -143q-4 -35 -6.5 -71t-2.5 -75q0 -31 1.5 -65.5t5.5 -69.5q8 -78 19 -161t28 -163q12 -55 22.5 -105t20.5 -91q4 -18 6 -33.5t6 -32.5q10 -51 24.5 -118.5t30.5 -147.5q16 -78 27.5 -162t15.5 -164 q2 -18 2 -40.5v-41.5q0 -59 -5 -113t-15 -102q-16 -66 -54 -114.5t-94 -65.5l-32 37q100 33 123 152q8 43 12 89t4 93q0 25 -1 50.5t-3 51.5q-12 162 -43 320q-16 82 -28.5 147.5t-22.5 116.5q-10 49 -23.5 116.5t-30.5 147.5q-16 82 -27.5 163t-19.5 167q-6 68 -6 133z" />
<glyph unicode="]" horiz-adv-x="251" d="M0 385l410 320v-50l-347 -270h-63z" />
<glyph unicode="^" horiz-adv-x="395" d="M184 911l355 183l53 -209q0 -4 -8.5 -6t-17.5 -3.5t-17 0t-8 3.5v-2q-12 41 -21.5 75.5t-21.5 75.5q-72 -39 -152 -80t-153 -82q4 10 6 27.5t-15 17.5zM186 864q2 0 3 1t4 1l-3 -2h-4z" />
<glyph unicode="_" horiz-adv-x="1478" d="M-4 -496h1458v-55h-1458v55z" />
<glyph unicode="`" horiz-adv-x="757" d="M897 903l49 62l66 -248l-47 -25z" />
<glyph unicode="a" horiz-adv-x="763" d="M0 385l311 240q70 59 123 63q2 0 4 -8t1 -17.5t-3 -16.5t-4 -7q-55 -4 -119 -86q-33 -41 -61.5 -92t-54.5 -111q-29 -66 -45.5 -123t-16.5 -98q0 -57 39 -57q55 0 133 84q41 45 76 96t59 108q47 106 47 185q-10 10 -18 28v-2q-18 29 -18 51.5t10 34t26.5 9.5t32.5 -21 q12 -18 15 -49v-2q0 -2 2 -2q2 -6 2 -29q16 -6 49 15q49 33 94 71l53 35l19 -18l-267 -506q70 55 138.5 112.5t136.5 112.5h63l-450 -365l-21 17l273 514q-53 -29 -90 -29q-4 -39 -17.5 -81t-34.5 -91q-63 -143 -151 -233q-92 -96 -168 -97q-86 0 -94 107q-1 11 -1 22 q0 88 54 211q14 31 28.5 58.5t30.5 56.5q-18 -16 -33.5 -26.5t-28.5 -19.5t-27.5 -19.5t-33.5 -24.5h-63z" />
<glyph unicode="b" horiz-adv-x="630" d="M0 385q31 25 57.5 46.5t53 45t53 49t61.5 60.5q66 66 111 112.5t63 73.5l-2 -2q86 162 176.5 304.5t157.5 232.5q72 88 128 143t73 55q16 0 16 -22v-5q-2 -28 -22.5 -73t-55.5 -105.5t-84 -123.5q-90 -121 -172 -224.5t-141 -167.5q-39 -72 -80 -147.5t-86 -155.5 q-43 -78 -74.5 -150.5t-48.5 -140.5q-14 -48 -14 -73.5t14 -28.5q16 -4 40 3t52 24q31 23 60 47t55 55q41 47 45 78q-18 6 -37 22q-10 8 -18 22.5t-8 27t13 17.5t44 -5q35 -14 49 -49q20 -5 37 -6q21 0 37 9q29 15 78 52h63q-43 -35 -75.5 -61.5t-47.5 -34.5q-18 -8 -43 -8 q-22 0 -49 6q-12 -53 -73 -121q-70 -78 -142 -119q-38 -17 -72 -23q-10 -2 -20 -2q-22 0 -39 9q-16 6 -23.5 23.5t-7.5 41.5q0 23 5.5 51.5t15.5 63.5q29 98 79 194.5t101 188.5q4 8 6 10t2 4l4 4q-23 -20 -45 -42.5t-47 -45.5l-25.5 -25.5t-25.5 -23.5l-32.5 -32.5 t-24 -21.5t-22.5 -16.5t-30 -19.5h-63zM569 961q55 66 98.5 122t77.5 105l19 24q66 92 98 142q29 44 29 52q0 2 -1 1q-6 0 -39 -41q-36 -45 -99 -131q-41 -53 -85 -118.5t-98 -155.5z" />
<glyph unicode="c" horiz-adv-x="423" d="M0 385l406 315q23 -88 79 -88q59 0 183 70q33 10 43 8q8 -2 8 -7q0 -2 -1 -4q-3 -9 -17.5 -21.5t-32.5 -18.5q-33 -12 -70 -30.5t-82 -37.5q-16 -6 -33.5 -10t-27.5 -4q-51 0 -80 45q-33 -61 -61.5 -114.5t-56.5 -105.5t-56.5 -105.5t-61.5 -116.5q72 53 143.5 111.5 t141.5 113.5h63l-458 -365l-23 17l279 516q-33 -27 -59.5 -47.5t-52.5 -38.5t-51.5 -37.5t-58.5 -44.5h-63zM668 639q4 2 9 4t9 6q-12 -8 -18 -10z" />
<glyph unicode="d" horiz-adv-x="569" d="M-16 -4l301 559q-33 -25 -59.5 -45.5t-52.5 -39.5t-52.5 -39.5t-57.5 -45.5h-63l391 303l23 -16l-283 -522q150 104 262.5 246.5t198.5 308.5q-47 12 -75 45.5t-42 85.5q-8 29 -11 59.5t-3 60.5q0 63 12 123v-2q20 127 88 236q35 53 76 81q38 26 82 25h6q53 -2 73.5 -42 t20.5 -101q0 -49 -12 -110.5t-31.5 -126t-42 -126t-43.5 -108.5q-4 -10 -9 -25.5t-15 -34.5q-2 -4 -2 -2v-2q53 4 104 29q10 -2 4 -12t-15 -21.5t-18.5 -19.5t-5.5 -6q12 4 4 3t-25.5 -4t-38 -7.5t-32.5 -4.5q-115 -227 -275.5 -404t-381.5 -298zM518 932q0 -23 2 -43.5 t6 -42.5q14 -86 88 -101q4 10 6.5 19.5t6.5 15.5q10 16 10 18.5t2 4.5q20 47 44 109.5t44.5 128t32.5 129t12 112.5q0 41 -11 66.5t-38 27.5q-53 0 -107 -92q-27 -47 -48 -103.5t-33 -115.5q-8 -35 -12.5 -67.5t-4.5 -65.5zM768 770l6 6h4q-4 -2 -5 -3t-5 -3z" />
<glyph unicode="e" horiz-adv-x="606" d="M-12 10l295 541q-33 -25 -59.5 -45.5t-51.5 -38.5t-51.5 -37.5t-57.5 -44.5h-63l391 303l23 -16l-103 -191q66 53 132.5 104.5t131.5 102.5l21 -16l-277 -512q72 53 146 111.5t141 113.5h66l-457 -365l-22 17l274 514q-51 -41 -101.5 -79t-101.5 -79q-45 -84 -96 -178 t-94 -178z" />
<glyph unicode="f" horiz-adv-x="421" d="M-342 -604l399 745q-4 4 -8 9.5t-6 9.5q-10 19 -10 35q0 30 33 51q39 23 53 0q49 94 96 184t98 182q-23 -20 -45 -42.5t-47 -45.5q-29 -27 -47 -44t-34.5 -32.5t-34 -30t-42.5 -32.5h-63q115 96 213 189.5t184 197.5l-2 -2q84 162 174 304.5t160 232.5q72 88 128 143 t73 55q15 0 15 -19q0 -4 -1 -10q-4 -28 -23.5 -74t-55.5 -105.5t-81 -120.5q-86 -117 -170 -223.5t-143 -168.5l-63 -118l-246 -463q16 10 35.5 21.5t46.5 27.5q41 29 88 63.5t90 69.5h63q-14 -12 -37.5 -29.5t-50 -39t-54.5 -43t-52 -40.5q-96 -68 -162 -92 q-96 -180 -193.5 -360t-193.5 -359zM569 963q59 72 105.5 134t85.5 115q66 92 100 142q29 44 29 52q0 1 -1 1q-6 0 -40 -41q-37 -45 -98 -131q-41 -53 -86.5 -118.5t-94.5 -153.5z" />
<glyph unicode="g" horiz-adv-x="768" d="M-139 -569q-7 8 -7 23q0 60 121 229q74 98 173.5 189t216.5 189q35 66 66.5 124.5t63 115.5t63.5 116.5t69 127.5q-29 -16 -50.5 -21.5t-41.5 -3.5q-6 -41 -17.5 -82t-32.5 -88q-61 -143 -151 -233q-92 -96 -168 -97q-86 0 -92 107q-1 11 -1 22q0 37 10 85q13 61 42 126 q12 27 27.5 59t29.5 54q-20 -16 -33.5 -26.5t-25.5 -19.5t-26.5 -18.5t-33.5 -23.5h-63l311 240q66 59 123 63q2 0 4 -8t1 -17.5t-3 -16.5t-4 -7q-57 -4 -119 -86q-35 -43 -63.5 -94t-54.5 -109q-25 -59 -40.5 -113.5t-19.5 -95.5q-2 -12 -2 -22q0 -47 40 -47h1q55 0 133 84 q82 88 135 204q23 53 35 98.5t12 86.5q-4 4 -11 12t-11 14q-16 27 -17 49.5t8 35t26.5 11.5t35.5 -20q4 -8 15 -49q0 -2 2 -4q0 -4 1 -12.5t1 -12.5v-6q18 -6 51 15q49 33 94 71l51 35l21 -18l-269 -506q72 55 141.5 112.5t139.5 112.5h63l-395 -317q-72 -129 -153.5 -258 t-186.5 -234q-155 -157 -212 -157q-15 0 -23 12zM-82 -518h1q7 0 46 38q43 42 121 128q59 66 113.5 142.5t115.5 180.5q-111 -94 -192.5 -178t-112.5 -135q-93 -142 -93 -171q0 -3 1 -5z" />
<glyph unicode="h" horiz-adv-x="423" d="M-483 -569q-7 9 -7 23q0 24 18 63q30 63 105 166q72 96 171.5 190t215.5 188q43 80 79 146.5t71 131t72 132.5t80 150q-23 -23 -46.5 -45.5t-54.5 -51.5t-51 -48t-36.5 -34.5t-33 -29t-37.5 -27.5h-63q35 27 62.5 49.5t52 46t50 48t58.5 57.5q125 125 180 186l-2 -2 q88 166 176.5 307.5t153.5 229.5q86 106 135 152t66 46q15 0 15 -20v-7q-3 -28 -22.5 -74t-54 -105.5t-82.5 -122.5q-43 -59 -87 -115.5t-85 -108t-77.5 -94.5t-65.5 -74q-35 -66 -70.5 -134t-70.5 -134q-29 -53 -51.5 -95t-43 -82t-43 -83t-51.5 -96q70 55 141.5 112.5 t139.5 112.5h63l-395 -317q-70 -129 -151.5 -258t-186.5 -234q-155 -157 -213 -157q-15 0 -24 12zM-426 -518l1 -1q7 0 47 39q44 42 122 128q61 66 114.5 142.5t114.5 180.5q-111 -94 -193.5 -178t-113.5 -135q-93 -140 -93 -171q0 -3 1 -5zM569 958q55 66 97.5 123.5 t78.5 106.5l19 24q66 92 99.5 141.5t29.5 53.5q-8 4 -141 -172l2 2q-6 -10 -13.5 -19.5t-13.5 -19.5q-37 -51 -76 -108.5t-82 -131.5z" />
<glyph unicode="i" horiz-adv-x="421" d="M0 385l391 303l23 -16l-277 -512q70 53 142.5 111.5t142.5 113.5h63l-454 -365l-23 17l277 516q-33 -27 -59.5 -47.5t-52.5 -38.5t-51.5 -37.5t-58.5 -44.5h-63zM559 991q12 12 18.5 30.5t14.5 33.5q10 14 17 25.5t16 15.5l-4 -2q12 12 26 12q10 0 18.5 -4t12.5 -15 q1 -4 1 -9q0 -16 -15 -40q-27 -41 -50 -63v2q-18 -20 -28.5 -29.5t-20.5 -9.5q-20 0 -20 16q0 14 14 39v-2z" />
<glyph unicode="j" horiz-adv-x="419" d="M-489 -569q-7 9 -7 23q0 24 18 63q29 63 103 166q72 96 172.5 190t216.5 188q37 68 69 126.5t63.5 116.5t63.5 118.5t69 128.5q-31 -25 -57.5 -45.5t-51.5 -38.5t-50.5 -37.5t-56.5 -44.5h-63l387 303l21 -16l-275 -512q70 53 144.5 111.5t142.5 113.5h63l-397 -317 q-70 -129 -151.5 -258t-186.5 -234q-155 -157 -213 -157q-15 0 -24 12zM-432 -518h1q7 0 47 38q44 42 122 128q59 66 113.5 142.5t115.5 180.5q-111 -94 -193.5 -178t-113.5 -135q-93 -142 -93 -171q0 -3 1 -5zM522 991q8 16 16.5 31.5t18.5 32.5v-2q14 31 31 43l-4 -2 q12 12 28 12q10 0 18.5 -4t12.5 -15q1 -4 1 -8q0 -20 -15 -41q-14 -23 -26.5 -38t-22.5 -25v2q-37 -39 -52 -39q-19 0 -19 16q0 14 13 39v-2z" />
<glyph unicode="k" horiz-adv-x="552" d="M0 385q70 53 127 107.5t106.5 113t93.5 119.5t85 131q35 57 68.5 116.5t70.5 119.5q53 92 107.5 183t111.5 189l64 58l22 -19l-231 -432q39 16 65 16q51 0 64 -47q5 -17 5 -38q0 -65 -48 -168q-61 -125 -193 -275q-66 -72 -138.5 -134.5t-158.5 -109.5q-23 -41 -39 -74.5 t-39 -76.5q10 -4 21.5 -4h23.5q80 0 174 73q45 37 95.5 77t95.5 75h63l-227 -180q-53 -43 -107.5 -68.5t-99.5 -25.5q-33 0 -63 12q-6 -16 -13.5 -26.5t-15.5 -26.5l-59 -50l-23 17l62 119q-12 10 -25.5 29.5t-19.5 39.5h2q-11 26 -11 42q0 22 21 26q23 6 37 -29 q6 -16 8 -25.5t-8 -13.5q4 -8 9 -16t11 -14q35 66 59.5 111.5t44 82.5t37 68.5t37 70.5t45 87.5t62.5 117.5q-23 -35 -43.5 -62.5t-36.5 -54.5q-25 -33 -48.5 -60.5t-50 -54t-60.5 -55t-77 -61.5h-63zM256 385q53 35 104.5 78t98.5 100q59 70 104 134.5t78 129.5 q31 59 44 107q10 36 10 64q0 9 -1 16q-4 24 -22 24h-2q-14 0 -33 -5t-41 -19z" />
<glyph unicode="l" horiz-adv-x="518" d="M0 385q31 25 57.5 46.5t53 45t53 49t61.5 60.5q66 66 111 112.5t63 73.5l-2 -2q86 162 176.5 304.5t157.5 232.5q72 88 128 143t73 55q15 0 14 -19v-10q-4 -28 -23.5 -74t-55.5 -105.5t-81 -120.5q-86 -117 -170 -223.5t-143 -168.5q-33 -61 -67.5 -125.5t-67.5 -123.5 q-82 -162 -136.5 -276t-70.5 -159q2 -6 52 27t145 104q45 35 95 77t95 77h64l-236 -188q-208 -163 -267 -163q-5 0 -9 1q-11 4 -11 25q0 85 201 450l57 104q-23 -20 -45 -43.5t-49 -46.5q-29 -27 -47 -44t-35.5 -32.5t-35 -30t-42.5 -32.5h-63zM569 961q55 66 98.5 122 t77.5 105l19 24q66 92 98 142q29 44 29 52q0 2 -1 1q-6 0 -39 -41q-36 -45 -99 -131q-41 -53 -85 -118.5t-98 -155.5z" />
<glyph unicode="m" horiz-adv-x="1085" d="M0 385l395 303l23 -16l-258 -486q141 125 281.5 252t281.5 250l22 -18l-256 -477q141 123 282.5 247.5t281.5 247.5l22 -16l-274 -512q68 53 141.5 111.5t142.5 113.5h64l-455 -365l-22 17l260 487q-141 -127 -283.5 -253t-283.5 -251l-23 19l260 485 q-141 -127 -283.5 -253t-283.5 -251l-23 19l277 514q-33 -27 -60.5 -47.5t-53 -38.5t-52.5 -37.5t-60 -44.5h-63z" />
<glyph unicode="n" horiz-adv-x="739" d="M0 385l393 303l23 -16l-254 -477q135 123 273 247.5t274 245.5l22 -18l-274 -510q68 53 140.5 111.5t141.5 113.5h64l-453 -365l-22 17l258 483q-141 -129 -276.5 -249.5t-276.5 -250.5l-23 19l277 514q-33 -27 -60.5 -47.5t-53.5 -38.5t-52.5 -37.5t-57.5 -44.5h-63z " />
<glyph unicode="o" horiz-adv-x="585" d="M0 385l311 240q66 59 123 63q2 0 3 -8t1 -17.5t-2 -16.5t-4 -7q-57 -4 -119 -86q-35 -41 -63.5 -92t-54.5 -111q-29 -66 -45.5 -123t-16.5 -98q0 -57 41 -57q35 0 81 34.5t93 94.5q-49 20 -49 104q0 55 18 111q33 86 79 148.5t91 64.5q57 0 58 -66q0 -31 -13 -69 q-14 -47 -26 -87t-21 -57q-10 -23 -17 -38t-19 -36q2 2 6 5.5t6 5.5h-2q4 4 20.5 16t36.5 29q14 10 35.5 26.5t34.5 26.5h63q-16 -14 -40.5 -33.5t-48 -39t-44 -36t-29.5 -22.5q-49 -41 -84 -53q-57 -80 -120.5 -130.5t-116.5 -50.5q-86 0 -94 107q-1 11 -1 22q0 88 54 211 q14 31 28.5 58.5t30.5 56.5l-121 -90h-63zM360 281q0 -37 15 -37h2q40 61 63 116q4 6 15.5 42t31.5 96q12 39 12 60q0 24 -16 24q-20 -10 -43.5 -58.5t-52.5 -117.5q-12 -37 -19.5 -69t-7.5 -56z" />
<glyph unicode="p" horiz-adv-x="608" d="M-510 -582q-15 10 -15 30q0 59 126 202q47 51 90 94t84 78q16 14 32.5 27.5t36.5 29.5q29 23 59.5 47.5t65.5 50.5q41 76 79 148t75 140.5t76 139t80 148.5q-33 -25 -58.5 -45.5t-50.5 -39.5t-50.5 -38.5t-56.5 -44.5h-63l385 303l21 -18l-17 -27q39 23 68.5 30t58.5 5 q37 -2 60.5 -5t39.5 -14q41 -35 41 -77q0 -80 -131 -179q-8 -6 -14 -12t-12 -10l-97 -70q-72 -53 -146.5 -104t-152.5 -101q-6 -12 -8 -14l-3 -3t-3 -5l-8 -16l526 317h64l-635 -405q-39 -70 -71 -123.5t-54 -87.5q-55 -80 -166 -193q-162 -162 -235 -162q-12 0 -21 4z M-467 -522q1 -1 3 -1q33 0 202 171q37 41 63.5 70.5t44.5 52.5q10 14 29 41.5t43 68.5q-117 -94 -189.5 -163.5t-95.5 -92.5q-103 -120 -103 -142q0 -4 3 -5zM145 182q90 57 171 120t157 128q78 72 107 121q14 25 14 43t-14 29q-13 11 -42 11q-23 0 -57 -7 q-37 -8 -70.5 -25.5t-68.5 -52.5z" />
<glyph unicode="q" horiz-adv-x="768" d="M0 385l311 240q70 59 123 63q2 0 4 -8t1 -17.5t-3 -16.5t-4 -7q-55 -4 -119 -86q-33 -41 -61.5 -92t-54.5 -111q-29 -66 -45.5 -123t-16.5 -98q0 -57 39 -57q55 0 133 84q41 45 76 96t59 108q47 106 47 185q-10 10 -18 28v-2q-18 29 -18 51.5t10 34t26.5 9.5t32.5 -21 q12 -18 15 -49v-2q0 -2 2 -2q2 -6 2 -29q16 -6 49 15q49 33 94 71l53 35l19 -18l-269 -506q72 55 142.5 112.5t138.5 112.5h63l-393 -317q-72 -135 -154.5 -288t-154.5 -288l-113 -57q41 80 87.5 164t93.5 170t93 168.5t89 160.5q35 61 65.5 116.5t60.5 109t60.5 107.5 t63.5 118q-53 -27 -90 -27q-4 -39 -17.5 -81t-34.5 -91q-63 -143 -151 -233q-92 -96 -168 -97q-86 0 -94 107q-1 11 -1 22q0 88 54 211q14 31 28.5 58.5t30.5 56.5q-18 -16 -33.5 -26.5t-28.5 -19.5t-27.5 -19.5t-33.5 -24.5h-63z" />
<glyph unicode="r" horiz-adv-x="677" d="M0 385l389 301l21 -16l-271 -510q34 21 62 21q11 0 20 -3q10 61 41 132t84 147v-2q115 170 283 233q37 0 28 -24q-51 -113 -78.5 -192t-31.5 -126q-1 -23 18 -23q31 0 113 62h63q-119 -102 -187 -102q-26 0 -44 14q-19 15 -19 51q0 84 103 283q-33 -23 -84 -77 t-101.5 -121.5t-90 -141.5t-52.5 -137q8 -10 21 -33q16 -31 16 -55t-9 -38q-8 -12 -21 -12h-5q-16 2 -32 27h2q-25 27 -25 73v13q-23 10 -59.5 -11.5t-71.5 -49.5l-53 -41l-21 16l275 508q-33 -27 -58.5 -46.5t-51.5 -37.5t-51.5 -37.5t-58.5 -44.5h-63z" />
<glyph unicode="s" horiz-adv-x="428" d="M-342 -575l702 1288q-16 -29 -33.5 -51.5t-33.5 -45.5q-25 -33 -47.5 -60.5t-48 -54t-58.5 -55t-76 -61.5h-63q72 55 129 110.5t106.5 113t92.5 118.5t86 131q63 106 127.5 218t132.5 229q23 39 47 79.5t47 79.5l63 58l23 -19l-717 -1343q70 53 146.5 112.5t144.5 112.5 h64l-404 -317q-74 -135 -156 -288t-153 -288z" />
<glyph unicode="t" horiz-adv-x="548" d="M0 385q70 51 127 103.5t106.5 108.5t92.5 117.5t84 133.5q86 147 176 299.5t184 316.5l66 58l22 -19l-717 -1337q25 -6 49 -6q80 0 175 73q43 37 92 77t92 75h63l-221 -180q-53 -43 -107.5 -68.5t-99.5 -25.5q-33 0 -63 12q-8 -16 -15.5 -26.5t-15.5 -26.5l-59 -50 l-23 17l64 119q-16 14 -27.5 35.5t-17.5 35.5q-14 23 -13.5 43.5t10 29.5t21.5 2t23 -40l-2 -20q6 -14 12 -25.5t16 -21.5q35 66 59.5 111.5t44 82.5t37 68.5t37 70.5t45 87.5t62.5 117.5q-23 -35 -43.5 -62.5t-36.5 -54.5q-25 -33 -48.5 -60.5t-50 -54t-60.5 -55t-77 -61.5 h-63z" />
<glyph unicode="u" horiz-adv-x="743" d="M0 385l393 303l23 -16l-254 -477q135 123 273 247.5t274 245.5l22 -18l-274 -510q68 53 142.5 111.5t143.5 113.5h64l-457 -365l-22 17l258 483q-141 -129 -276.5 -249.5t-276.5 -250.5l-23 19l277 514q-33 -27 -60.5 -47.5t-53.5 -38.5t-52.5 -37.5t-57.5 -44.5h-63z M463 758q0 59 20 123l76 57q-25 -68 -35 -111t-10 -65q0 -20 8 -34.5t19 -29.5q4 -8 43 27t123 125l-5 -10q44 25 44 7q0 -13 -21 -32q-140 -159 -202 -159q-14 0 -23 8q-16 10 -26.5 34.5t-10.5 59.5zM725 815q2 2 3 4t5 6v-2z" />
<glyph unicode="v" horiz-adv-x="755" d="M0 385l389 301l23 -16l-275 -510q32 20 62 20q8 0 16 -2q6 84 51 182q29 68 68 128.5t82 103.5q92 96 170 96q84 0 92 -106q1 -11 1 -23q1 -39 -9 -83q-12 -58 -43 -126q-14 -31 -30.5 -62.5t-33.5 -58.5q49 41 97.5 80t95.5 76h63l-379 -299q-63 -59 -121 -63 q4 4 8.5 23.5t0.5 23.5q51 10 108 86q35 41 64.5 93t56.5 111t41 111.5t16 95.5q2 13 2 23q0 49 -38 49q-57 0 -136 -84q-39 -41 -71.5 -93t-61.5 -112q-47 -110 -47 -188v-6q6 -8 14.5 -18.5t12.5 -16.5q14 -31 14 -55t-9 -38q-8 -12 -21 -12h-5q-16 2 -32 27h2 q-23 29 -23 78v8q-23 8 -60.5 -13.5t-70.5 -47.5l-53 -41l-23 16l277 508q-33 -27 -59.5 -46.5t-52.5 -37.5t-52.5 -37.5t-57.5 -44.5h-63z" />
<glyph unicode="w" horiz-adv-x="1079" d="M0 385l395 303l23 -16l-254 -477q135 123 273 247.5t274 245.5l22 -18l-274 -510q23 12 40 17t38 1q4 41 17 88t36 94q31 68 68.5 127.5t78.5 104.5q92 96 170 96q84 0 92 -106q1 -14 2 -29q0 -87 -51 -203q-16 -31 -31.5 -62.5t-31.5 -58.5q49 41 97 80t95 76h64 l-381 -299q-63 -59 -121 -63q4 4 4 22t4 25q49 8 111 86q33 41 62.5 93t58.5 111q51 125 57 207q2 12 2 22q0 50 -41 50q-55 0 -135 -84q-39 -41 -72 -93t-61 -112q-47 -110 -47 -186v-6q10 -8 14 -17.5t12 -19.5q14 -31 15 -55.5t-9 -38t-25.5 -11.5t-31.5 27h2 q-8 8 -18.5 32.5t-7.5 53.5q-23 8 -60 -13.5t-69 -47.5q-14 -12 -39 -34t-35 -32l2 43l256 477q-139 -127 -278.5 -252t-276.5 -250l-23 19l277 514q-33 -27 -60.5 -47.5t-53 -38.5t-52.5 -37.5t-60 -44.5h-63z" />
<glyph unicode="x" horiz-adv-x="565" d="M0 385l311 240q66 59 123 63q4 0 4 -21.5t-4 -27.5q-31 -4 -61.5 -27.5t-61 -61.5t-60.5 -90t-56 -110q-23 -53 -36.5 -99t-13.5 -85q0 -23 5.5 -42.5t19.5 -29.5q41 104 88 198.5t96 168.5q16 27 46 63.5t71 85.5q52 61 93 61q24 0 44 -22q31 -41 31 -94q0 -16 -2 -29.5 t-6 -29.5q-8 -41 -19.5 -76t-25.5 -70q-43 -100 -146 -219q-93 -111 -214 -111h-9q-47 -123 -72.5 -239.5t-25.5 -194.5t20 -78q14 0 45 31q119 147 154 260q16 55 21.5 91t-5.5 57q-10 25 -43 -6q-45 -45 -78 -226l-55 19q20 80 43 131t44.5 81.5t41 43t35.5 12.5h5 q54 0 54 -92q0 -33 -6 -70q-12 -78 -59 -163t-125 -171q-49 -55 -88 -55q-33 0 -49.5 37t-16.5 102q0 86 24.5 206t70.5 243q-59 39 -64 135v16q0 41 8 81q10 48 29 89q14 35 27.5 60.5t23.5 46.5q-18 -16 -31.5 -25.5t-24.5 -17.5t-23.5 -16.5t-30.5 -22.5h-66zM233 70 q9 -1 18 -1q75 0 155 87q96 113 141 204v2q16 37 43 134q12 39 12 63q0 43 -24 55h2q-4 3 -10 3q-29 0 -95 -93q-47 -66 -71.5 -103.5t-30.5 -51.5q-35 -61 -73 -142.5t-67 -156.5z" />
<glyph unicode="y" horiz-adv-x="796" d="M-109 -569q-8 9 -8 25q0 23 17 61q30 63 106 166q72 96 172.5 190t216.5 188l105 195q12 23 32.5 63.5t40 87t34 93.5t14.5 84q0 23 -10.5 39t-32.5 16q-55 0 -136 -86q-41 -43 -74.5 -95t-60.5 -108q-20 -53 -32.5 -105t-12.5 -91q4 -4 8 -11.5t9 -11.5q2 -4 4 -5t2 -5 q14 -29 14 -51.5t-9 -33.5t-24.5 -10t-29.5 19q-23 36 -23 79v7q-20 10 -57 -12.5t-72 -50.5l-55 -41l-21 16l268 502q-61 -47 -107 -80t-103 -80h-66l389 301l23 -16l-275 -510q32 19 64 19l14 -1q4 35 16.5 84t34.5 98q29 68 67 128.5t81 103.5q96 96 172 96 q53 0 73.5 -27.5t20.5 -74.5q0 -39 -12.5 -85t-29.5 -91t-36.5 -85t-34.5 -67l-55 -98q70 53 142.5 111.5t142.5 113.5h63l-393 -317q-72 -129 -154 -258t-186 -234q-155 -157 -212 -157q-16 0 -24 12zM-51 -518h1q7 0 46 38q43 42 121 128q59 66 113.5 142.5t115.5 180.5 q-111 -94 -192.5 -178t-114.5 -135q-92 -137 -92 -169q0 -5 2 -7z" />
<glyph unicode="z" horiz-adv-x="649" d="M-258 -569q-8 9 -8 24q0 23 18 62q30 63 105 166q70 92 175 191t216 187q10 29 17 60t3 57q-6 51 -116 92q-10 4 -6 23.5t20 19.5q16 -4 32.5 -6t28.5 -2q57 0 109 35v-2q74 51 106 121q30 60 30 111q0 9 -1 18q-4 51 -43 51q-76 0 -205 -117q-33 -31 -54.5 -50 t-38.5 -34.5t-33.5 -27t-35.5 -25.5h-61q33 25 81 66t120 106q74 69 133 101q55 30 97 30h5q41 -2 65.5 -22.5t28.5 -61.5q2 -16 2 -32q0 -21 -3 -43q-5 -40 -25 -80q-45 -84 -121 -140q-27 -16 -55.5 -27.5t-57.5 -15.5q66 -45 66 -114q0 -6 1 -8l1 -1v-1t-2 -9 q78 61 156.5 127t156.5 125h64l-396 -317q-72 -129 -153.5 -258t-186.5 -234q-155 -157 -212 -157q-15 0 -23 12zM-201 -518l1 -1q7 0 46 39q43 42 121 128q59 66 113.5 142.5t116.5 180.5q-111 -94 -193 -178t-115 -135q-91 -141 -91 -171q0 -3 1 -5z" />
<glyph unicode="{" horiz-adv-x="471" d="M-8 -350q-4 123 13.5 252t57.5 272q31 111 43 168q6 51 -22 66h-57l20 59q16 -8 20.5 -9t8.5 -1h24q18 4 38 20.5t42 48.5q16 23 31.5 48.5t30.5 52.5v-2q20 41 39.5 82t42.5 79q59 111 119.5 210.5t115.5 179.5q59 86 116.5 158.5t106.5 124.5t87 82t61 34q6 0 6 -21.5 t-4 -27.5q-16 -4 -46 -27.5t-73 -75.5q-92 -106 -205.5 -275t-228.5 -386q-16 -29 -31.5 -58.5t-30.5 -58.5v2q-35 -90 -92 -153q-20 -23 -40.5 -41.5t-39.5 -28.5q20 -27 23 -72q0 -76 -41 -198v2q-76 -270 -70 -498q8 -285 49 -285q63 0 156 105l29 -31 q-115 -123 -193 -123q-92 0 -106 326z" />
<glyph unicode="|" horiz-adv-x="718" d="M-6 -504q109 29 205 154q47 63 91 134t87 153q43 84 81 163.5t66 157.5q23 53 37 94q41 94 68 170q33 78 71 187q8 18 14.5 36.5t14.5 40.5q57 150 145 330q84 162 183 293q104 137 235 168l-8 -43q-98 -27 -186 -152h2q-88 -125 -168 -282q-43 -86 -79 -166t-65 -158 q-33 -82 -57 -147.5t-45 -114.5q-8 -23 -18.5 -46.5t-20.5 -51.5q-16 -39 -30.5 -80t-32.5 -88q-29 -78 -70 -166t-78 -160q-41 -76 -91 -153.5t-101 -139.5q-53 -66 -115.5 -111.5t-134.5 -64.5v43z" />
<glyph unicode="}" horiz-adv-x="471" d="M2 -654.5q0 21.5 4 27.5q14 4 45 28t74 75q92 106 204.5 275t229.5 386q16 29 30.5 58.5t31.5 58.5v-2q33 88 92 154q20 23 40.5 41t37.5 28q-18 29 -21 70q0 78 41 200v-2q37 137 55.5 260t14.5 238q-8 285 -50 285q-63 0 -155 -105l-29 31q111 123 193 123 q92 0 106 -328q4 -121 -13.5 -250t-58.5 -272q-16 -53 -26 -95t-17 -73q-6 -51 21 -65h27q6 2 14 1t18 -1l-16 -50q-10 -4 -18.5 -4h-16.5q-12 0 -24 4q-18 -6 -39 -23.5t-41 -47.5q-16 -18 -30.5 -44t-29.5 -55v2q-20 -41 -39.5 -81.5t-42.5 -79.5q-61 -111 -120.5 -209.5 t-116.5 -179.5v2q-57 -84 -113.5 -156t-105.5 -125t-88 -85t-62 -36q-6 0 -6 21.5z" />
<glyph unicode="~" horiz-adv-x="614" d="M145 739q215 193 295 154q25 -12 32 -32.5t4 -43t-12 -45t-18 -39.5h3q-2 -4 -3.5 -6t-5.5 -12v2q-6 -16 -12 -29.5t-14 -11.5q61 -25 215 125l51 -43q-190 -174 -268 -152q-33 10 -45.5 28.5t-12.5 39.5q0 23 9.5 49.5t21.5 48.5q10 20 17.5 39.5t3.5 28.5 q-23 0 -66 -24.5t-100 -76.5h-95z" />
<glyph unicode="&#xa8;" horiz-adv-x="757" d="M670 680l118 233l64 39l20 -20l-139 -219zM776 680l123 233l64 39l18 -20l-139 -219z" />
<glyph unicode="&#xad;" d="M125 356q-31 57 37 78q23 8 51.5 15.5t60.5 11.5q55 8 115 28q45 16 39 50l27 10q41 -70 -21 -98q-47 -25 -115 -33q-33 -4 -62.5 -9.5t-59.5 -11.5q-45 -10 -43 -30zM166 461q-31 55 35 78q27 6 54.5 13t61.5 11q57 10 115 31q43 16 35 49l31 10q39 -66 -23 -98 q-25 -10 -54.5 -18.5t-60.5 -14.5q-33 -4 -63.5 -10t-58.5 -12q-18 -4 -31.5 -12.5t-11.5 -16.5z" />
<glyph unicode="&#xb0;" horiz-adv-x="317" d="M-14 860q0 33 10 70q10 35 28.5 66.5t41 56t48 39t50.5 14.5q41 0 61.5 -33t20.5 -82q0 -16 -2 -33.5t-6 -33.5q-20 -76 -69.5 -126t-98.5 -50q-39 0 -61.5 30.5t-22.5 81.5zM43 844q0 -51 35 -51q29 0 63.5 38.5t51.5 98.5q4 16 6 30.5t2 26.5q0 33 -11.5 52.5 t-31.5 19.5q-29 0 -56.5 -41t-44.5 -94q-6 -23 -10 -43.5t-4 -36.5z" />
<glyph unicode="&#xb4;" horiz-adv-x="763" d="M627 721l164 192l69 31l14 -22l-190 -197z" />
<glyph unicode="&#xb6;" horiz-adv-x="997" d="M106 29q20 18 82 55q35 20 89.5 90t111.5 162q6 12 48 87t118 210q29 53 64.5 111.5t78.5 117.5q37 55 86 94q-14 2 -27.5 2h-27.5q-139 0 -246 -38q-115 -47 -153 -129q-14 -37 -11 -74q4 -72 68 -72q55 0 105 49q47 51 63 117v27l41 -4v-29q4 -14 -2 -23v-12t-2 -10 q-10 -49 -68 -105q-55 -57 -100 -57h-74q-33 0 -65 49q-25 39 -27 71t4 66q23 109 136.5 169.5t293.5 60.5q84 0 162 -15q6 4 14.5 8.5t12.5 6.5l22 -21q43 -6 84 -16t82 -23l-4 -30q-4 0 -20.5 -20.5t-38.5 -55.5q-25 -35 -41.5 -62.5t-26.5 -48.5v2q-41 -86 -83 -173 t-83 -173q-109 -209 -231 -303l-179 -90l-20 25q10 10 28.5 21t43.5 28q4 2 5 3t5 3q74 41 199 250q8 12 49 85.5t116 213.5q18 31 66.5 102.5t134.5 190.5q-29 10 -59.5 17t-69.5 11q-47 -41 -87 -93t-71 -114v2q-41 -86 -82.5 -173t-84.5 -175q-109 -207 -230 -303 l-178 -90z" />
<glyph unicode="&#xc0;" horiz-adv-x="991" d="M0 385q72 53 129 106.5t106.5 110.5t92.5 119.5t86 134.5q88 147 179 303t185 322l68 57l20 -20l-639 -1192q23 -8 49 -9q74 1 160 62q123 94 227.5 213t188.5 264q88 147 179 303t188 322l65 57l23 -20l-725 -1350q12 -4 24 -6t27 -2q78 0 174 78q43 35 92 73.5t92 73.5 h64l-219 -178q-55 -45 -109.5 -69.5t-99.5 -24.5q-35 0 -66 12q-6 -16 -14 -27.5t-17 -27.5l-61 -50l-20 19l63 117q-16 16 -27.5 37.5t-19.5 37.5q-12 20 -12 32.5t6 19t16 6.5t19 -6l12 -39q14 -33 29 -47q51 98 81.5 156.5t58 108.5t60.5 111.5t88 165.5 q-25 -35 -45 -62.5t-37 -51.5q-104 -133 -262 -263q-117 -94 -209 -94q-33 0 -63 13q-29 -51 -58.5 -104.5t-58.5 -106.5l-59 -50l-23 21l150 272q-12 12 -27.5 32t-21.5 40q-4 10 7 28.5t21 10.5l13 -23q12 -29 26 -47q41 76 61.5 115t39 70.5t41 74.5t67.5 127 q-23 -33 -44.5 -63.5t-39.5 -52.5q-16 -23 -49 -58t-70 -71.5t-69.5 -67.5t-49.5 -43h-63z" />
<glyph unicode="&#xc3;" horiz-adv-x="851" d="M-61 -575q-20 23 10.5 87t105.5 166q72 98 173.5 193.5t220.5 189.5q43 80 78.5 147.5t70.5 133.5t72 134.5t82 150.5q-23 -23 -47.5 -45.5t-53.5 -51.5q-63 -59 -113.5 -104t-84.5 -74l-422 -332l-23 19l281 520q-33 -27 -60.5 -47t-53 -39.5t-52.5 -40t-60 -47.5h-63 l397 311l23 -18l-279 -518q66 53 139.5 110.5t139.5 110.5q47 41 107.5 93t125.5 118q63 63 107.5 109.5t73.5 78.5l-3 -2q90 170 178.5 312.5t155.5 228.5q86 111 136.5 157t66.5 46q18 0 16 -28t-22.5 -75t-55 -107.5t-81.5 -123.5q-88 -119 -174 -225.5t-146 -169.5 q-35 -66 -71.5 -135.5t-71.5 -135.5q-29 -53 -51.5 -96t-44 -83t-44 -83t-51.5 -98q72 57 141.5 112.5t139.5 110.5h63l-395 -317q-72 -131 -154.5 -260.5t-187.5 -237.5q-199 -199 -239 -145zM-4 -524q4 -4 49 39t123 129q59 66 113.5 143.5t115.5 183.5 q-111 -94 -193.5 -179t-113.5 -136q-106 -158 -94 -180zM1001 969q55 66 98.5 124t80.5 109l18 23q66 92 100.5 142t30.5 54q-10 6 -143 -174l2 2q-6 -10 -13.5 -19.5t-13.5 -19.5q-37 -51 -77 -108.5t-83 -132.5z" />
<glyph unicode="&#xc4;" horiz-adv-x="1927" d="M-6 262q0 162 127 420q156 311 375 543q219 236 374 299q2 0 5.5 -6.5t5.5 -14.5t1 -16t-5 -8l2 2q-129 -55 -336 -287q-102 -113 -194.5 -248t-164.5 -278q-68 -141 -101.5 -258t-27.5 -197q8 -76 44 -116t96 -38q131 4 307 170q88 82 174 203t160 260q53 104 90 208 t55 202q25 123 25 207q0 23 -2.5 45t-6.5 41q-37 6 -57 20h2q-80 51 -27 96q25 23 50.5 12.5t50.5 -44.5q12 -18 18 -49q10 0 23.5 -1.5t23.5 -1.5q27 0 61 3.5t75 7.5q123 18 186 80v-2q18 29 41 6h-2q10 -12 -4 -39q-98 -96 -200.5 -271.5t-213.5 -390.5q-16 -29 -41 -76 t-41 -79q-74 -143 -120 -257t-64 -204q-8 -39 -8 -68q0 -82 65 -78q47 4 106.5 31t125.5 72q27 18 80 60t128 106q90 72 207 168t256 206l23 -18l-103 -190q66 53 133.5 104t133.5 104l22 -18l-278 -520q70 57 139.5 112.5t138.5 108.5h64l-451 -358l-22 18l280 518 q-53 -41 -103 -80t-102 -80q-47 -86 -98 -181t-94 -177l-88 -29l299 549q-76 -59 -138.5 -111.5t-123.5 -105.5q-94 -78 -165 -136t-112 -87q-137 -98 -260 -111q-133 -16 -117 185q6 74 36 168t87 206q-66 -115 -141.5 -213t-149.5 -170q-88 -78 -177 -127t-161 -49 q-154 -2 -190 179q-6 31 -6 69zM893 715q123 219 234.5 406.5t197.5 301.5q-29 -12 -62.5 -20t-66.5 -12q-29 -4 -54.5 -6.5t-47.5 -2.5h-26.5t-23.5 2q2 -14 2.5 -30.5t0.5 -32.5q0 -47 -6.5 -106t-18.5 -125q-20 -86 -53 -184.5t-76 -190.5zM948 1465.5q4 -7.5 15 -13.5 q2 -2 5 -3t7 -3l8 -4q-2 4 -3 7t-3 7v-2q-18 25 -27 21v2q-6 -4 -2 -11.5z" />
<glyph unicode="&#xc6;" horiz-adv-x="1943" d="M-6 262q0 162 127 420q156 311 375 543q219 236 374 299q2 0 5.5 -6.5t5.5 -14.5t1 -16t-5 -8l2 2q-129 -55 -336 -287q-102 -113 -194.5 -248t-164.5 -278q-68 -141 -101.5 -258t-27.5 -197q8 -76 44 -116t96 -38q131 4 307 170q88 82 174 203t160 260q53 104 90 208 t55 202q25 123 25 207q0 23 -2.5 45t-6.5 41q-37 6 -57 20h2q-80 51 -27 96q25 23 50.5 12.5t50.5 -44.5q10 -16 20 -49q8 0 21.5 -1.5t23.5 -1.5q27 0 61 3.5t75 7.5q123 18 186 80v-2q18 29 41 6h-2q10 -12 -4 -39q-98 -96 -200.5 -271.5t-213.5 -390.5q-16 -29 -41 -76 t-41 -79q-74 -143 -120 -257t-64 -204q-8 -39 -8 -68q0 -82 65 -78q98 8 232 103q35 23 121.5 90t213.5 170q78 61 172.5 136t192.5 153l22 -19l-104 -190q66 53 133.5 104t132.5 105l23 -19l-281 -522q66 53 136.5 109.5t134.5 105.5h63l-438 -350l-23 16l277 520 q-51 -41 -101.5 -79.5t-103.5 -79.5q-45 -86 -96.5 -181.5t-96.5 -179.5l-88 -26l297 542q-16 -12 -24 -20q-86 -70 -169 -136.5t-155 -123t-127 -99.5t-86 -63q-137 -98 -260 -111q-133 -16 -117 185q12 152 123 374q-66 -115 -141.5 -213t-149.5 -170q-88 -78 -177 -127 t-161 -49q-154 -2 -190 179q-6 31 -6 69zM893 715q123 219 234.5 406.5t199.5 301.5q-31 -12 -64.5 -20t-66.5 -12q-29 -4 -54.5 -6.5t-47.5 -2.5h-26.5t-23.5 2q2 -14 2.5 -30.5t0.5 -32.5q0 -47 -6.5 -106t-18.5 -125q-20 -86 -53 -184.5t-76 -190.5zM948 1465.5 q4 -7.5 15 -13.5q2 -2 5 -3t7 -3l8 -4q-2 4 -3 7t-3 7v-2q-18 25 -27 21v2q-6 -4 -2 -11.5z" />
<glyph unicode="&#xc8;" horiz-adv-x="1089" d="M-2 385l399 311l23 -18l-262 -490q143 127 285.5 255t283.5 253l23 -20l-258 -481q141 125 284.5 250.5t284.5 250.5l22 -18l-276 -518q70 57 141.5 113.5t141.5 111.5h63l-455 -365l-22 19l262 491q-141 -129 -286.5 -256t-286.5 -254l-23 21l264 489 q-141 -129 -286.5 -256t-286.5 -254l-23 21l279 518q-33 -27 -60.5 -47t-53 -39.5t-52.5 -40t-60 -47.5h-65zM266 713q-4 10 31 45l4 2q33 23 76 35t94 14h623q6 0 6 -21.5t-8 -21.5h-629q-29 0 -66 -11.5t-80 -31.5q-47 -20 -51 -10z" />
<glyph unicode="&#xc9;" horiz-adv-x="741" d="M0 385l395 311l23 -18l-258 -481q137 123 277.5 249.5t277.5 249.5l20 -20l-276 -516q70 57 141.5 113.5t140.5 111.5h64l-455 -365l-20 19l260 487q-143 -133 -279.5 -254.5t-279.5 -251.5l-23 21l279 518q-33 -27 -59.5 -47t-52 -39.5t-52.5 -40t-60 -47.5h-63z M225 714.5q-8 14.5 27 43.5v2q70 49 172 49h340q8 0 8 -21.5t-8 -21.5h-348q-31 0 -67 -11.5t-81 -31.5h2q-37 -23 -45 -8.5z" />
<glyph unicode="&#xd6;" horiz-adv-x="1316" d="M-8 258q0 168 125 420q76 150 170 287t205 254t203.5 192.5t162.5 104.5l6 2q16 0 27.5 -13.5t-10.5 -27.5q-66 -29 -152 -101.5t-190 -185.5q-98 -111 -190.5 -248t-164.5 -278q-72 -145 -105.5 -260t-25.5 -195q16 -156 140 -154q131 0 305 170q182 170 333 463 q53 104 91.5 206.5t54.5 201.5q25 123 24 207q0 23 -2 45t-6 41q-18 4 -30.5 8t-22.5 14q-78 49 -29 96q51 37 101 -30v-2q8 -10 12 -21.5t8 -28.5q10 -2 23.5 -2h21.5q23 0 46.5 2t52.5 9q90 18 155 79q2 2 9.5 0t14.5 -6t11 -9t2 -7q-70 -63 -146.5 -87t-142.5 -24h-37 q2 -16 2 -30.5v-34.5q0 -49 -6 -107.5t-20 -124.5q-20 -94 -57 -203.5t-91 -211.5q-47 -90 -92 -167t-94 -143q104 86 209.5 170t210.5 168l20 -18l-102 -191q66 53 133.5 104.5t132.5 104.5l23 -18l-279 -518q72 57 143.5 113.5t141.5 111.5h63l-454 -365l-23 19l277 518 q-51 -41 -101.5 -80t-103.5 -80q-45 -86 -96.5 -181t-96.5 -177l-88 -29l297 545q-143 -115 -287.5 -230.5t-285.5 -230.5h2q-8 -8 -23 -8q-113 -76 -209 -76q-156 -4 -190 178q-6 31 -6 70zM948 1470q-10 -10 17 -24q4 -4 12 -8q-2 4 -2 12q-20 27 -27 20z" />
<glyph unicode="&#xd9;" horiz-adv-x="911" d="M-8 158q8 61 27.5 131.5t56.5 148.5q35 80 73.5 150.5t77.5 134.5q14 23 24.5 39t20.5 33q10 14 16.5 25t12.5 22l12 20q78 111 163 204t171 175q-29 240 -115 242q-100 4 -174 -90q-41 -49 -60 -104.5t-24 -121.5q-6 -115 148 -123q6 -2 6 -8t-3 -12t-7 -11t-4 -7 q-190 8 -189 157q2 70 25.5 133.5t66.5 118.5q92 113 215 115q123 4 173 -236q59 49 118.5 91t108.5 71q98 53 178 64q25 4 35 -2.5t6 -28.5q-102 -80 -88 -88q18 -2 53 3t72 17q27 8 55.5 21.5t53 27t44 28.5t29.5 28q2 2 10.5 -1t15.5 -9.5t12 -12.5t3 -8t-5 -4t-7 -10 q-166 -311 -326 -610.5t-325 -610.5q37 27 79.5 58.5t83.5 66.5h64q-29 -23 -62.5 -49.5t-68.5 -54t-71 -52t-66 -43.5q-18 -35 -39 -73.5t-41 -73.5l-88 -29l71 135q-25 -6 -47 -3t-31 20q-25 59 27 86q68 43 49 -66v-2q4 2 10 6q4 4 10.5 7.5t12.5 7.5l664 1224 q-133 -74 -224 -71q-68 2 -67 45q0 23 20 55q-143 -53 -319 -209q6 -35 9 -76t1 -79q-2 -43 -9 -101.5t-24 -130.5q-6 -35 -22.5 -88t-38.5 -123v-2q-20 -61 -51 -134t-68 -140q-33 -66 -77 -127.5t-91 -112.5q-98 -106 -223 -111q-143 -2 -129 138zM33 160q-12 -102 88 -92 q53 4 100 29.5t86 66.5q45 49 82 105.5t70 119.5q31 61 56.5 126t45.5 134q23 68 36 122t24 95q33 143 32 264q0 12 1 18.5t1 11.5v11.5t-2 16.5q-74 -72 -148.5 -157t-152.5 -187q-2 -4 -14 -21.5t-29 -46.5q-14 -27 -43 -69q-43 -66 -79.5 -136.5t-71.5 -140.5 q-66 -145 -82 -270z" />
<glyph unicode="&#xdc;" horiz-adv-x="1921" d="M-6 240q2 70 32.5 156.5t84.5 191.5q10 23 25.5 47t25.5 45q41 80 83 159t85 154q53 96 93 181.5t69 160.5q18 49 18 78q0 57 -59 68q-68 0 -134 -66q-35 -29 -64.5 -72t-47.5 -79q-10 -29 -17.5 -53.5t-7.5 -49.5q0 -10 2 -25.5t6 -25.5q23 -66 123 -72q16 -8 12 -21 t-16 -18q-139 6 -164 101q-4 12 -6 27.5t-2 33.5q0 55 29 123q18 43 53 90t70 82q41 35 87 52.5t87 13.5q96 -8 96 -107q0 -45 -14 -94v2q-27 -82 -69 -179t-101 -206q-31 -63 -67 -129t-68 -127q-23 -41 -45.5 -84t-42.5 -82q-111 -205 -105 -299q4 -86 23.5 -115.5 t56.5 -33.5q53 -8 131 47q43 29 79 60.5t64 64.5q59 72 125 156.5t129 183.5q76 117 147.5 247.5t125.5 243.5q49 113 71.5 195t12.5 129q-14 4 -31.5 10t-28.5 10q-76 51 -24 96q49 49 100 -32q4 -10 11 -21.5t7 -27.5q31 -2 74 0t86 8q98 14 166 80v-2q20 29 43 6h-2 q10 -12 -4 -39q-98 -96 -201.5 -271.5t-214.5 -390.5q-16 -29 -39.5 -76t-40.5 -79q-74 -143 -121 -257t-63 -204q-8 -39 -8 -68q0 -82 61 -78q102 10 236 103q68 47 141.5 101t151.5 118l399 315l23 -18l-105 -191q66 53 134.5 104.5t133.5 104.5l21 -18l-279 -518 q72 57 143.5 113.5t141.5 111.5h64l-455 -365l-21 19l277 518q-53 -41 -103.5 -80t-101.5 -80q-47 -86 -98 -181t-94 -177l-89 -29l299 547q-70 -53 -132 -101t-130 -104q-84 -70 -158.5 -127t-138.5 -100q-137 -98 -260 -111q-133 -16 -116 185q16 182 178 483 q133 240 244.5 430.5t205.5 308.5q-53 -23 -103 -31t-93 -8h-21.5t-21.5 2q14 -106 -78 -319q-51 -117 -113.5 -234.5t-140.5 -236.5q-66 -100 -142.5 -204.5t-140.5 -178.5q-37 -41 -75.5 -77t-86.5 -64q-86 -57 -163 -47q-121 18 -119 217zM958 1475v2q-12 -10 13 -25 q6 -8 22 -12l-4 8l-4 8v-2q-18 25 -27 21z" />
<glyph unicode="&#xdf;" horiz-adv-x="643" d="M-348 -575l702 1288q-16 -29 -33.5 -51.5t-33.5 -45.5q-25 -33 -46.5 -60.5t-46 -54t-56.5 -55t-75 -61.5h-63q72 55 128 110.5t104.5 113t90.5 118.5t85 131q63 106 127.5 218t134.5 229q23 39 46 79.5t46 79.5l63 58l23 -19l-326 -608q47 33 86 52.5t68 19.5 q86 -2 98 -88q10 -76 -31 -154q-20 -41 -49.5 -76t-70.5 -63q-51 -39 -117 -45q29 -25 46 -56.5t17 -68.5q0 -47 -26 -99q-68 -129 -144.5 -246.5t-177.5 -220.5q-197 -197 -239 -143q-20 23 11.5 87.5t104.5 164.5q70 90 175.5 188.5t213.5 190.5q10 29 17.5 58.5t3.5 58.5 q-7 53 -113 90q-39 12 -45 28l-577 -1081zM37 -242q14 0 174 166v-2q59 66 111.5 139.5t113.5 182.5q-111 -96 -190.5 -178t-112.5 -132q-47 -72 -70.5 -116.5t-25.5 -59.5zM358 588q14 6 50 4q16 -4 31.5 -6t29.5 -2q53 0 106 32v-2q35 27 63 56.5t44 64.5q37 70 31 129 q-4 53 -43 54q-35 0 -87.5 -33t-105.5 -78z" />
<glyph unicode="&#xe0;" horiz-adv-x="849" d="M-57 -569q-20 23 10.5 86t103.5 166q72 96 172.5 190t216.5 188q43 80 78 146.5t70 131t71.5 132.5t82.5 150q-23 -23 -47.5 -45.5t-53.5 -51.5q-63 -59 -112.5 -102t-83.5 -72l-416 -330l-23 17l279 516q-33 -27 -60.5 -47.5t-54 -38.5t-53.5 -37.5t-57 -44.5h-66 l397 303l23 -16l-277 -512q66 51 138.5 107.5t138.5 109.5q47 39 105.5 91t123.5 118q63 63 107.5 109t70.5 77l-2 -2q88 166 176.5 307.5t155.5 229.5q84 106 133 152t68 46q18 0 15 -27.5t-22.5 -73.5t-54 -105.5t-82.5 -122.5q-43 -59 -87 -115.5t-85 -108t-77.5 -94.5 t-65.5 -74q-35 -66 -70.5 -134t-72.5 -134q-29 -53 -50.5 -95t-43 -82t-44 -83t-51.5 -96q72 55 142.5 112.5t140.5 112.5h63l-395 -317q-70 -129 -152.5 -258t-187.5 -234q-195 -199 -235 -145zM0 -518q4 -4 48 38t122 128q59 66 112.5 142.5t114.5 180.5 q-111 -94 -192.5 -178t-112.5 -135q-104 -158 -92 -176zM995 958q53 66 96.5 123.5t79.5 106.5l19 24q66 92 99.5 141.5t29.5 53.5q-10 6 -141 -172l2 2q-6 -10 -13.5 -19.5t-13.5 -19.5q-37 -51 -76 -108.5t-82 -131.5z" />
<glyph unicode="&#xe1;" horiz-adv-x="972" d="M0 385l397 303l21 -16l-275 -512l275 217q123 96 227.5 218t188.5 261q35 57 68.5 116.5t70.5 119.5q53 92 107.5 183t111.5 189l63 58l23 -19l-229 -432q37 16 65 16q47 0 64 -47q10 -37 -0.5 -87t-44.5 -119q-61 -125 -193 -275q-63 -72 -137 -134.5t-160 -109.5 q-23 -41 -39 -74.5t-39 -76.5q10 -4 21.5 -4h23.5q80 0 174 73q45 37 94.5 77t94.5 75h63l-225 -180q-53 -43 -106.5 -68.5t-100.5 -25.5q-33 0 -63 12q-6 -16 -13.5 -26.5t-15.5 -26.5l-59 -50l-23 17l62 119q-12 10 -25.5 29.5t-20.5 39.5h3q-27 61 10 68q23 6 37 -29 q6 -16 8 -25.5t-8 -13.5q4 -8 9 -16t11 -14q35 66 59.5 111.5t44 82.5t37 68.5t37 70.5t45 87.5t62.5 117.5q-23 -35 -43.5 -62.5t-36.5 -54.5q-96 -131 -268 -264q-104 -82 -209 -166t-209 -166l-21 17l275 516q-33 -27 -59.5 -47.5t-52 -38.5t-52.5 -37.5t-59 -44.5h-66z M678 385q53 35 104.5 78t98.5 100q59 70 104 134.5t78 129.5q31 59 44 106.5t9 80.5q0 25 -24 24q-14 0 -32 -5t-42 -19z" />
<glyph unicode="&#xe4;" horiz-adv-x="765" d="M0 385l311 240q70 59 123 63q2 0 4 -8t1 -17.5t-3 -16.5t-4 -7q-55 -4 -119 -86q-33 -41 -61.5 -92t-54.5 -111q-29 -66 -45.5 -123t-16.5 -98q0 -57 39 -57q55 0 133 84q41 45 76 96t59 108q47 106 47 185q-10 10 -18 28v-2q-18 29 -18 51.5t10 34t26.5 9.5t32.5 -21 q12 -18 15 -49v-2q0 -2 2 -2q2 -6 2 -29q16 -6 49 15q49 33 94 71l53 35l19 -18l-267 -506q70 55 139.5 112.5t137.5 112.5h63l-452 -365l-21 17l273 514q-53 -29 -90 -29q-4 -39 -17.5 -81t-34.5 -91q-63 -143 -151 -233q-92 -96 -168 -97q-86 0 -94 107q-8 94 53 233 q14 31 28.5 58.5t30.5 56.5q-18 -16 -32.5 -26.5t-27.5 -19.5t-27.5 -19.5t-32.5 -24.5h-66zM371 698l118 232l64 41l20 -21l-139 -219zM479 698l123 232l62 41l18 -21l-137 -219z" />
<glyph unicode="&#xe5;" horiz-adv-x="765" d="M0 385l311 240q70 59 123 63q2 0 4 -8t1 -17.5t-3 -16.5t-4 -7q-55 -4 -119 -86q-33 -41 -61.5 -92t-54.5 -111q-29 -66 -45.5 -123t-16.5 -98q0 -57 39 -57q55 0 133 84q41 45 76 96t59 108q47 106 47 185q-10 10 -18 28v-2q-18 29 -18 51.5t10 34t26.5 9.5t32.5 -21 q12 -18 15 -49v-2q0 -2 2 -2q2 -6 2 -29q16 -6 49 15q49 33 94 71l53 35l19 -18l-267 -506q70 55 139.5 112.5t137.5 112.5h63l-452 -365l-21 17l273 514q-53 -29 -90 -29q-4 -39 -17.5 -81t-34.5 -91q-63 -143 -151 -233q-92 -96 -168 -97q-86 0 -94 107q-8 94 53 233 q14 31 28.5 58.5t30.5 56.5q-18 -16 -32.5 -26.5t-27.5 -19.5t-27.5 -19.5t-32.5 -24.5h-66zM397 860q0 33 11 70q8 35 27.5 66.5t42 56t47.5 39t50 14.5q39 0 60.5 -33t21.5 -82q0 -16 -2 -33.5t-6 -33.5q-23 -76 -71 -126t-97 -50q-41 0 -62.5 30.5t-21.5 81.5zM455 844 q0 -51 34 -51q29 0 64 38.5t51 98.5q4 16 6 30.5t2 26.5q0 33 -11.5 52.5t-31.5 19.5q-29 0 -56.5 -41t-43.5 -94q-6 -23 -10 -43.5t-4 -36.5z" />
<glyph unicode="&#xe6;" horiz-adv-x="956" d="M0 385l313 240q33 29 66 45t57 18q2 0 4 -8t1 -17.5t-3 -16.5t-4 -7q-57 -4 -119 -86q-33 -41 -62.5 -92t-53.5 -111q-29 -66 -45.5 -123t-16.5 -98q0 -57 39 -57q55 0 133 84q82 88 135 204q23 53 35.5 98.5t12.5 86.5q-12 10 -19 28v-2q-18 29 -19 51.5t9 34t27.5 9.5 t33.5 -21q4 -8 8.5 -20.5t4.5 -28.5v-2q0 -2 2 -2q2 -6 2 -29q18 -6 51 15q27 18 48.5 34.5t41.5 32.5l57 43l23 -16l-103 -193q66 53 133.5 105.5t131.5 103.5l22 -16l-276 -512q70 53 143.5 111.5t142.5 113.5h64l-457 -365l-22 17l274 514q-51 -41 -101 -79t-102 -79 q-45 -84 -96 -178t-94 -178l-84 -27l291 539q-53 -27 -90 -27q-2 -39 -15.5 -81t-36.5 -91q-59 -141 -149 -233q-92 -96 -170 -97q-84 0 -92 107q-8 94 53 233q14 31 28.5 58.5t30.5 56.5q-18 -16 -32.5 -26.5t-28.5 -19.5t-28.5 -19.5t-32.5 -24.5h-66z" />
<glyph unicode="&#xe8;" horiz-adv-x="716" d="M-338 -604l512 952q-4 4 -9 8t-7 11v-2q-29 55 24 88q16 10 29.5 11t19.5 -9q23 39 44.5 79.5t43.5 81.5l-45 -45t-49 -47q-29 -27 -48 -45t-37.5 -33.5t-36 -29t-40.5 -31.5h-63q115 94 215 187.5t186 199.5l-2 -2q86 162 176.5 304.5t157.5 232.5q72 88 128.5 143 t72.5 55q18 0 14 -28.5t-23.5 -74.5t-55 -105.5t-81.5 -120.5q-86 -117 -169.5 -223.5t-143.5 -168.5l-63 -118l-138 -260q53 20 106.5 57t106.5 86q70 68 121 122t92 101l-2 -2q88 166 176.5 307.5t155.5 229.5q86 109 135 153.5t66 44.5q18 0 15 -28.5t-23.5 -74.5 t-56.5 -105.5t-81 -120.5q-86 -117 -171 -223.5t-142 -168.5q-14 -29 -32.5 -60.5t-30.5 -57.5l-248 -463q16 10 36.5 21.5t45.5 27.5q41 29 86 63.5t88 69.5h63q-41 -41 -74.5 -67.5t-68.5 -51.5q-12 -8 -23.5 -16t-25.5 -19q-47 -35 -86 -56t-72 -34q-96 -180 -192.5 -360 t-192.5 -359l-86 -26l401 743q-10 6 -16 17q-27 57 25 90q37 23 49 2q49 94 98 183t98 181q-29 -29 -59.5 -58.5t-62.5 -57.5q-59 -53 -123 -90t-123 -58q-125 -233 -250 -463.5t-248 -462.5zM573 963q59 72 105.5 134t87.5 115q66 92 98.5 141.5t28.5 53.5t-40 -41 t-99 -131q-39 -53 -84 -118.5t-97 -153.5zM866 961q55 66 98.5 122t77.5 105l19 24q66 92 98.5 141.5t28.5 53.5t-40 -41t-99 -131q-41 -53 -85 -118.5t-98 -155.5z" />
<glyph unicode="&#xe9;" horiz-adv-x="733" d="M-340 -604l477 889q-10 4 -16 20q-25 51 24 84h-2q45 31 54 4q29 55 59.5 111.5t60.5 109.5q-23 -20 -45 -43.5t-49 -46.5q-29 -27 -48 -45t-36.5 -33.5t-35 -29t-40.5 -31.5h-63q115 94 214 187.5t185 199.5l-2 -2q86 162 176.5 304.5t157.5 232.5q72 88 128 143t73 55 q18 0 14 -28.5t-23.5 -74.5t-55.5 -105.5t-81 -120.5q-86 -117 -170 -223.5t-143 -168.5l-63 -118l-174 -322q92 37 213 139q152 137 253 207l21 -18l-274 -512q70 53 143.5 111.5t140.5 113.5h64l-455 -365l-20 17l276 518q-41 -31 -78 -62.5t-82 -70.5q-59 -49 -115.5 -84 t-115.5 -51q-115 -217 -230.5 -432t-230.5 -433zM571 963q59 72 105.5 134t87.5 115q66 92 98.5 141.5t28.5 53.5t-40 -41t-99 -131q-39 -53 -84 -118.5t-97 -153.5zM853.5 953.5q2.5 15.5 18.5 45.5l2 5q6 12 12.5 24t14.5 27q16 27 29 39t31 12q8 0 16 -4t12 -15 q0 -29 -16 -51v2q-10 -20 -22.5 -35.5t-24.5 -27.5q-37 -37 -52 -37q-23 0 -20.5 15.5z" />
<glyph unicode="&#xeb;" horiz-adv-x="608" d="M-12 10l295 541q-33 -25 -59.5 -45.5t-51.5 -38.5t-51.5 -37.5t-57.5 -44.5h-63l391 303l23 -16l-103 -191q66 53 132.5 104.5t131.5 102.5l21 -16l-274 -512q70 53 144.5 111.5t141.5 113.5h64l-457 -365l-20 17l272 514q-51 -41 -101.5 -79t-101.5 -79 q-45 -84 -95 -178t-95 -178zM406 711l118 231l64 39l20 -18l-139 -222zM485 666l123 231l62 39l20 -18l-139 -222z" />
<glyph unicode="&#xec;" horiz-adv-x="819" d="M-340 -604l510 946q-12 6 -18 18q-27 57 24 89q37 23 51 2q12 23 24.5 44t22.5 44q12 25 15.5 29.5t3.5 5.5t3 6.5t17 29.5l-42 -42t-48 -44q-29 -27 -47 -44t-35.5 -32.5t-35 -30t-42.5 -32.5h-63q115 96 214 189.5t185 197.5l-2 -2q86 162 176.5 304.5t157.5 232.5 q72 88 128 143t73 55q18 0 16 -27.5t-22.5 -72.5t-55 -105.5t-84.5 -123.5q-90 -121 -173 -225.5t-142 -168.5l2 2l-147 -276l-58 -107q115 45 217 148q121 121 217 223l-2 -2q88 166 176.5 307.5t153.5 229.5q86 106 135 152t66 46q18 0 16 -27.5t-21.5 -73.5t-54 -105.5 t-81.5 -122.5q-88 -117 -173.5 -223.5t-142.5 -168.5q-33 -61 -67.5 -125.5t-65.5 -123.5q-84 -162 -138 -276t-71 -159q2 -6 52.5 27t144.5 104q43 35 95 77t95 77h64l-236 -188q-225 -176 -276 -160q-12 6 -6 41t30.5 96.5t66.5 146.5t99 189q12 27 18.5 38t11.5 20.5 t12 20.5t22 40q-33 -33 -65 -66t-66 -67q-111 -104 -256 -152q-123 -229 -247 -460.5t-245 -461.5zM571 963q59 72 105.5 134t87.5 115q66 92 98.5 141.5t28.5 53.5t-40 -41t-99 -131q-39 -53 -84 -118.5t-97 -153.5zM868 958q55 66 97.5 123.5t78.5 106.5l19 24 q66 92 99.5 141.5t29.5 53.5q-8 4 -141 -172l2 2q-6 -10 -13.5 -19.5t-11.5 -19.5q-39 -51 -78 -108.5t-82 -131.5z" />
<glyph unicode="&#xed;" horiz-adv-x="856" d="M-340 -604l471 883q-4 4 -9 8t-7 10v-2q-25 57 24 88q41 23 51 0q33 59 64 115.5t61 115.5l-43.5 -43.5t-48.5 -46.5q-29 -27 -47 -44t-35.5 -32.5t-35 -30t-42.5 -32.5h-63q113 96 213 189.5t186 197.5l-2 -2q84 162 174.5 304.5t159.5 232.5q70 88 127 143t74 55 q18 0 14 -28.5t-23.5 -74.5t-55.5 -105.5t-81 -120.5q-86 -117 -170 -223.5t-143 -168.5q-14 -29 -31.5 -60.5t-31.5 -57.5l-174 -326q16 10 35.5 21.5t43.5 27.5q8 4 14.5 8t10.5 9q111 88 205 198.5t172 243.5q86 147 176 299.5t184 316.5l66 58l22 -19l-716 -1337 q25 -6 49 -6q78 0 174 73q43 35 92 76t92 76h64l-222 -180q-53 -43 -106 -68.5t-98 -25.5q-37 0 -64 12q-8 -16 -16 -26.5t-17 -26.5l-59 -50l-23 17l64 119q-16 16 -27.5 36.5t-17.5 34.5q-20 43 -12 67.5t23 29t28.5 -14t5.5 -63.5l-6 -4q14 -33 28 -47q35 66 59.5 111.5 t44 82.5t37 68.5t38 70.5t46 87.5t62.5 117.5q-25 -35 -45 -62.5t-37 -54.5q-41 -53 -96 -110t-121 -111l-20 -18q-102 -76 -168 -98q-113 -213 -228.5 -428.5t-228.5 -428.5zM569 963q59 72 106.5 134t86.5 115q66 92 98.5 141.5t28.5 53.5t-40 -41t-97 -131 q-41 -53 -86 -118.5t-97 -153.5z" />
<glyph unicode="&#xf2;" horiz-adv-x="755" d="M-338 -575l703 1288q-18 -29 -36 -51.5t-32 -45.5q-25 -33 -47.5 -60.5t-49 -54t-60.5 -55t-77 -61.5h-63q72 55 130 110.5t107.5 113t92.5 118.5t86 131q63 106 127.5 218t134.5 229q23 39 46.5 79.5t45.5 79.5l64 58l22 -19l-577 -1077q70 63 161 156q66 68 111 114.5 t65 71.5l-2 -2q84 162 174.5 304t157.5 233q72 88 128 144t73 56q18 0 15 -28.5t-22.5 -74.5t-55 -106.5t-80.5 -122.5q-88 -117 -172 -222t-144 -169q-33 -61 -67.5 -125.5t-65.5 -124.5q-86 -168 -140.5 -280.5t-68.5 -153.5q-10 -29 199 131l94 78t94 76h68l-240 -188 q-227 -178 -276 -160q-59 18 190 473l57 104q-23 -20 -45 -43.5t-49 -46.5q-102 -102 -196 -172q-4 -4 -3 -5t-3 -1q-113 -213 -229 -425t-226 -425zM784 956q55 66 98.5 123.5t78.5 104.5l18 24q66 92 98.5 141.5t28.5 53.5t-40 -41t-99 -131q-41 -53 -85 -118.5 t-98 -156.5z" />
<glyph unicode="&#xf3;" horiz-adv-x="894" d="M-270 -588q78 145 156.5 294t157.5 294t153.5 283.5t142.5 263.5q0 8 2 12q0 23 -39 6q-59 -18 -100 -59q-10 -10 -21.5 -20.5t-27 -23.5t-37 -31.5t-54.5 -45.5h-63l158 137q135 121 217 103l2 -2l4 -2q37 70 72.5 135t70.5 131q51 94 103.5 188t99.5 182v-2 q23 43 56.5 88.5t74.5 83.5q92 82 203 80q59 0 93 -34.5t30 -106.5q-4 -68 -14.5 -96.5t-14.5 -42.5l-575 -1075q72 55 145.5 114.5t144.5 114.5h66l-406 -322q-72 -135 -154.5 -287.5t-154.5 -287.5l-119 -68l875 1606q31 55 61.5 112.5t59.5 112.5v-2q10 16 19 53t9 78 q0 35 -14 62.5t-55 25.5q-27 -4 -51.5 -12t-44.5 -18q-41 -29 -87.5 -70t-91.5 -123q-104 -197 -185 -351.5t-155.5 -294.5t-149.5 -280.5t-167 -310.5q-57 -104 -127 -234t-156 -290z" />
<glyph unicode="&#xf6;" horiz-adv-x="581" d="M-43 668l4 4l23 -4h-27zM-16 668h6l2 -2zM0 385l311 240q66 59 123 63q2 0 3 -8t1 -17.5t-2 -16.5t-4 -7q-57 -4 -119 -86q-35 -41 -63.5 -92t-54.5 -111q-29 -66 -45.5 -123t-16.5 -98q0 -57 41 -57q35 0 81 34.5t93 94.5q-49 20 -49 104q0 55 18 111q33 86 79 148.5 t91 64.5q57 0 58 -66q0 -31 -13 -69q-14 -47 -26 -87t-21 -57q-10 -23 -17 -38t-19 -36q2 2 6 5.5t6 5.5h-2q4 4 20.5 16t36.5 29q14 10 33.5 26.5t32.5 26.5h63q-16 -14 -39.5 -33.5l-47 -39t-43 -36t-28.5 -22.5q-49 -41 -84 -53q-57 -80 -120.5 -130.5t-116.5 -50.5 q-86 0 -94 107q-8 94 53 233q14 31 28.5 58.5t30.5 56.5l-121 -90h-63zM274 686l119 234l64 38l20 -20l-139 -219zM360 281q0 -37 15 -37h2q40 61 63 116q4 6 15.5 42t31.5 96q25 84 -4 84q-20 -10 -43.5 -58.5t-52.5 -117.5q-12 -37 -19.5 -69t-7.5 -56zM381 686l123 234 l63 38l19 -20l-140 -219z" />
<glyph unicode="&#xf8;" horiz-adv-x="583" d="M-70 174l160 98q8 20 16.5 43t18.5 45q14 31 29.5 58.5t31.5 56.5l-123 -90h-63l311 240q66 59 123 63q2 0 4 -8t1 -17.5t-3 -16.5t-4 -7q-57 -4 -119 -86q-35 -41 -63.5 -92t-54.5 -111q-4 -10 -5.5 -11t-1.5 1v-8q35 23 69 45t69 43h-2q-2 0 -3.5 -1t-3.5 -1 q33 88 78 148.5t92 62.5q66 0 58 -72q14 10 26.5 18.5t26.5 16.5q31 18 51.5 21t29.5 -3t5 -19t-22 -28l-136 -88q-14 -41 -20 -67q-4 -14 -7 -25.5t-14 -32.5q-10 -23 -17 -38t-19 -36q2 2 6 5.5t6 5.5h-2q4 4 20.5 16t36.5 29q14 10 34.5 26.5t33.5 26.5h63 q-16 -14 -40.5 -33.5t-48 -39t-43 -36t-28.5 -22.5q-49 -41 -84 -53q-57 -80 -120.5 -130.5t-116.5 -50.5q-84 0 -94 107q-2 10 -2 23.5v23.5q-10 -8 -18.5 -13t-18.5 -11zM133 141q-10 -70 41 -69q35 0 80 33.5t92 93.5q-33 10 -45 65q-4 16 -5 28.5t1 29.5 q-35 -25 -73 -47.5t-74 -47.5q-8 -25 -11.5 -46.5t-5.5 -39.5zM358 281q0 -37 17 -37q4 0 2 -1t2 1q20 33 35.5 61t27.5 55q2 6 3 9.5t2.5 9.5t5.5 18.5t12 36.5q-18 -14 -42 -29.5t-44 -29.5q-10 -29 -14.5 -52.5t-6.5 -41.5zM418 479q20 12 38.5 24.5t41.5 26.5 q10 51 -15 52q-10 -4 -19 -17.5t-20 -32.5q-8 -14 -12 -20t-14 -33z" />
<glyph unicode="&#xf9;" horiz-adv-x="886" d="M-248 -543q156 293 303.5 565.5t284.5 524.5q0 8 2 12q0 23 -39 6q-59 -18 -100 -59q-10 -10 -21.5 -20.5t-27 -23.5t-37 -31.5t-54.5 -45.5h-63q25 23 45.5 39t40.5 35q18 16 36.5 32.5t35.5 30.5q135 121 217 103l2 -2l4 -2q37 70 72.5 135t70.5 131q51 94 103.5 188 t99.5 182v-2q23 43 56.5 88.5t74.5 83.5q92 82 213 82q70 0 70 -63q0 -29 -20.5 -78t-59.5 -115l-584 -1087q25 -6 49 -6q80 0 174 73q45 37 93.5 77t93.5 75h63l-223 -180q-53 -43 -107.5 -68.5t-99.5 -25.5q-33 0 -63 12q-6 -16 -14.5 -26.5t-16.5 -26.5l-59 -50l-23 17 l64 119q-16 12 -27.5 32.5t-18.5 38.5q-18 59 -14 86t17.5 28t30 -21.5t20.5 -61.5l-15 -16q6 -14 11.5 -24.5t15.5 -20.5q143 268 287.5 535t285.5 536q43 80 66 125t23 63q0 10 -33 8q-27 -4 -51.5 -12t-44.5 -18q-43 -29 -88.5 -70t-90.5 -123q-231 -436 -473.5 -873.5 t-468.5 -883.5l-67 -45z" />
<glyph unicode="&#xfa;" horiz-adv-x="821" d="M-84 -569q-18 23 11.5 86t105.5 166q68 92 174 191t217 187q10 29 16 60t2 57q-6 53 -114 92q-12 4 -7 23.5t21 19.5q16 -4 32.5 -6t28.5 -2q57 0 107 33q35 25 63.5 55.5t44.5 65.5q35 70 29 129q-4 51 -43 51q-20 0 -53 -15.5t-76 -41.5q-47 -29 -91 -61t-87 -64 q-47 -94 -101.5 -193.5t-103.5 -193.5l-59 -50l-23 17l35 69v-2q10 23 15.5 46.5t5.5 48.5q0 44 -25 69q-27 0 -18.5 14.5t31 34t50 38t39.5 28.5q20 18 43 35.5t47 38.5q31 57 44.5 81.5t23.5 44t26.5 50.5t51.5 98q-23 -35 -43.5 -62.5t-38.5 -52.5q-25 -33 -47.5 -60.5 t-49 -54t-60.5 -55t-77 -61.5h-63q70 51 127 103.5t106.5 108.5t91.5 117.5t85 133.5q78 129 156.5 265t164.5 280l41 71l64 58l22 -19l-512 -958q68 51 125 86q88 57 141 57q84 -4 95 -84q4 -35 -1.5 -75t-25.5 -80q-23 -41 -52.5 -76t-70.5 -64q-53 -33 -113 -43 q66 -43 66 -114q0 -6 1 -7.5t2 -1.5t0 -1t-3 -9q78 61 156.5 127t154.5 125h66l-395 -317q-70 -129 -152 -258t-186 -234q-197 -199 -238 -145zM-25 -518q2 -4 46 38t122 128q59 66 113.5 142.5t114.5 180.5q-109 -94 -192 -178t-113 -135q-104 -156 -91 -176zM82 283 q18 -27 24 -60q10 18 17.5 32.5t15.5 29t17.5 31.5t21.5 42q-31 -25 -54.5 -44t-41.5 -31z" />
<glyph unicode="&#xfc;" horiz-adv-x="737" d="M0 385l393 303l23 -16l-254 -477q135 123 273 247.5t274 245.5l22 -18l-274 -510q68 53 139.5 111.5t140.5 113.5h64l-451 -365l-22 17l258 483q-141 -129 -276.5 -249.5t-276.5 -250.5l-23 19l277 514q-33 -27 -60.5 -47.5t-53.5 -38.5t-52.5 -37.5t-57.5 -44.5h-63z M438 680l119 233l64 39l20 -20l-139 -219zM545 680l125 233l61 39l19 -20l-140 -219z" />
<glyph unicode="&#x152;" horiz-adv-x="1249" d="M-8 258q0 168 125 420q76 150 170 287t205 254t205 193.5t165 105.5q16 0 28.5 -13.5t-9.5 -27.5q-66 -29 -152 -101.5t-190 -185.5q-98 -111 -190.5 -248t-164.5 -278q-72 -145 -105.5 -260t-25.5 -195q16 -156 140 -154q131 0 305 170q76 72 137 150h-2l10 10 q47 59 94 137t94 166q53 104 91.5 206.5t54.5 201.5q25 123 24 207q0 23 -2 45t-6 41q-18 4 -30.5 8t-22.5 14q-80 51 -29 96q51 37 101 -30v-2q8 -10 12 -21.5t8 -28.5q10 -2 23.5 -2h21.5q23 0 46.5 2t52.5 9q90 18 155 79q2 2 9.5 0t14.5 -6t11 -9t2 -7 q-70 -63 -146.5 -87t-142.5 -24h-37q2 -16 2 -30.5v-34.5q0 -49 -6 -107.5t-20 -124.5q-20 -94 -57 -203.5t-91 -211.5q-27 -49 -52 -95.5t-50 -87.5q66 51 136.5 106.5t131.5 104.5l23 -18l-105 -191q66 53 133.5 104.5t133.5 104.5l22 -18l-278 -518q72 57 143.5 113.5 t140.5 111.5h64l-455 -365l-22 19l276 518q-51 -41 -102.5 -80t-102.5 -80q-45 -86 -96 -181t-96 -177l-88 -29l299 547q-55 -43 -116.5 -90t-119.5 -94q-76 -104 -166 -189q-88 -78 -176 -126t-160 -48q-156 -4 -190 178q-6 31 -6 70zM948 1470q-10 -10 17 -24q6 -6 12 -8 q-4 8 -4 12q-18 27 -25 20z" />
<glyph unicode="&#x153;" horiz-adv-x="1007" d="M-39 668l4 4l21 -4h-25zM-14 668h6l2 -2zM0 385l313 240q70 59 123 63q2 0 4 -8t1 -17.5t-3 -16.5t-4 -7q-55 -4 -119 -86q-33 -41 -62.5 -92t-53.5 -111q-29 -66 -45.5 -123t-16.5 -98q0 -57 39 -57q37 0 83 34.5t93 94.5q-51 23 -51 104q0 57 21 111q31 86 76.5 148.5 t90.5 64.5q59 0 60 -66q0 -31 -12 -69q-14 -47 -27.5 -87t-22.5 -57q-6 -14 -7 -21t-3 -13.5t-7 -13.5t-15 -23q4 2 4 4t4 4q8 6 30.5 23.5t51.5 39.5l55 43q31 57 61.5 114.5t63.5 115.5l68 65l22 -18l-100 -189q66 53 132 104.5t132 102.5l20 -16l-274 -512 q70 53 142.5 111.5t140.5 113.5h63l-453 -365l-20 17l272 514q-49 -41 -99 -79t-101 -79q-45 -84 -96.5 -178t-94.5 -178l-86 -27l160 295l-2 -4q-20 -14 -35.5 -26.5t-23.5 -18.5q-25 -23 -46.5 -36t-37.5 -19q-57 -80 -122 -130.5t-118 -50.5q-84 0 -92 107q-8 94 53 233 q14 31 28.5 58.5t30.5 56.5l-127 -90h-61zM362 281q0 -37 15 -37q4 0 2 -1t2 1q23 33 37 61t26 55q8 14 45 138q29 84 -4 84q-18 -10 -42.5 -58.5t-51.5 -117.5q-29 -76 -29 -125z" />
<glyph unicode="&#x2c6;" horiz-adv-x="403" d="M-78 1260v2q4 4 8 6q-4 -2 -4 -4t-4 -4zM-70 1268q100 123 182.5 180t143.5 55q68 0 68 -59q0 -53 -93 -193q10 14 -6 15h-2q-14 -4 -28.5 -10.5t-20.5 -12.5t-3 -10t22 -6q-63 4 -23 45v-2q53 68 77.5 111.5t24.5 66.5q0 20 -30 14q-47 -8 -126 -63.5t-149 -153.5 q10 16 -4 26.5t-33 -3.5zM-37 1241l4 4z" />
<glyph unicode="&#x2dc;" horiz-adv-x="468" d="M-39 1366q190 166 268 135q20 -10 27.5 -27.5t4.5 -38t-12 -43t-20 -42.5v2q-14 -29 -22 -53.5t6 -28.5q57 -25 215 127l33 -27q-180 -168 -264 -139q-25 8 -34 23.5t-7 36t11 43t21 44.5v-2q12 31 21.5 54.5t-2.5 31.5h2q-45 20 -189 -96h-59z" />
<glyph unicode="&#x2000;" horiz-adv-x="788" />
<glyph unicode="&#x2001;" horiz-adv-x="1577" />
<glyph unicode="&#x2002;" horiz-adv-x="788" />
<glyph unicode="&#x2003;" horiz-adv-x="1577" />
<glyph unicode="&#x2004;" horiz-adv-x="525" />
<glyph unicode="&#x2005;" horiz-adv-x="394" />
<glyph unicode="&#x2006;" horiz-adv-x="262" />
<glyph unicode="&#x2007;" horiz-adv-x="262" />
<glyph unicode="&#x2008;" horiz-adv-x="197" />
<glyph unicode="&#x2009;" horiz-adv-x="315" />
<glyph unicode="&#x200a;" horiz-adv-x="87" />
<glyph unicode="&#x2010;" d="M125 356q-31 57 37 78q23 8 51.5 15.5t60.5 11.5q55 8 115 28q45 16 39 50l27 10q41 -70 -21 -98q-47 -25 -115 -33q-33 -4 -62.5 -9.5t-59.5 -11.5q-45 -10 -43 -30zM166 461q-31 55 35 78q27 6 54.5 13t61.5 11q57 10 115 31q43 16 35 49l31 10q39 -66 -23 -98 q-25 -10 -54.5 -18.5t-60.5 -14.5q-33 -4 -63.5 -10t-58.5 -12q-18 -4 -31.5 -12.5t-11.5 -16.5z" />
<glyph unicode="&#x2011;" d="M125 356q-31 57 37 78q23 8 51.5 15.5t60.5 11.5q55 8 115 28q45 16 39 50l27 10q41 -70 -21 -98q-47 -25 -115 -33q-33 -4 -62.5 -9.5t-59.5 -11.5q-45 -10 -43 -30zM166 461q-31 55 35 78q27 6 54.5 13t61.5 11q57 10 115 31q43 16 35 49l31 10q39 -66 -23 -98 q-25 -10 -54.5 -18.5t-60.5 -14.5q-33 -4 -63.5 -10t-58.5 -12q-18 -4 -31.5 -12.5t-11.5 -16.5z" />
<glyph unicode="&#x2012;" d="M125 356q-31 57 37 78q23 8 51.5 15.5t60.5 11.5q55 8 115 28q45 16 39 50l27 10q41 -70 -21 -98q-47 -25 -115 -33q-33 -4 -62.5 -9.5t-59.5 -11.5q-45 -10 -43 -30zM166 461q-31 55 35 78q27 6 54.5 13t61.5 11q57 10 115 31q43 16 35 49l31 10q39 -66 -23 -98 q-25 -10 -54.5 -18.5t-60.5 -14.5q-33 -4 -63.5 -10t-58.5 -12q-18 -4 -31.5 -12.5t-11.5 -16.5z" />
<glyph unicode="&#x2013;" horiz-adv-x="759" d="M178 583.5q-8 14.5 27 43.5v2q68 47 170 47h336q8 0 8 -20.5t-8 -20.5h-344q-31 0 -67 -11.5t-79 -31.5h2q-37 -23 -45 -8.5z" />
<glyph unicode="&#x2014;" horiz-adv-x="1112" d="M244 592q-4 10 30 45l5 2q66 43 167 47h617q4 0 4 -20.5t-6 -20.5h-623q-29 0 -64.5 -11t-78.5 -32q-47 -20 -51 -10z" />
<glyph unicode="&#x2018;" horiz-adv-x="241" d="M176 1272q10 45 37 91t68 93l5 5t9 14q8 8 16 17t15.5 14t15.5 3t16 -16q0 -10 -6 -20.5t-14 -18.5q-4 -4 -6 -4h-2q-41 -53 -67.5 -104.5t-26.5 -108.5q0 -35 -19.5 -47t-34.5 10v-2q-18 29 -6 74z" />
<glyph unicode="&#x2019;" horiz-adv-x="262" d="M184 1206q0 4 8.5 15.5t16.5 21.5l4 4t6 8q35 49 60.5 98.5t25.5 104.5q6 94 53 41q18 -23 9 -76q-25 -100 -105 -186q-4 -4 -5 -4t-3 -2t-4 -2q-10 -12 -20.5 -23.5t-19.5 -16.5t-16.5 -2t-9.5 19z" />
<glyph unicode="&#x201a;" horiz-adv-x="249" d="M-14 -35q0 10 10 23.5t18 23.5q35 49 63.5 100.5t28.5 106.5q0 29 18.5 41t33.5 -4q16 -20 8 -74q-14 -49 -39 -96t-64 -88l-12 -12q-23 -23 -40 -39.5t-25 18.5z" />
<glyph unicode="&#x201c;" horiz-adv-x="284" d="M225 1274q18 90 105 182l5 5t9 14q8 8 16.5 17t15.5 14t15 3t17 -16q0 -10 -6.5 -20.5t-14.5 -18.5q-4 -4 -6 -4h-2q-41 -53 -66.5 -104.5t-25.5 -108.5v-2q-4 -35 -22.5 -46t-33.5 11q-10 23 -6 74zM356 1272q10 45 37 91t68 93l5 5t9 14q8 8 16.5 17t15.5 14t15 3 t17 -16q0 -10 -6.5 -20.5t-14.5 -18.5q-4 -4 -6 -4h-2q-41 -53 -67.5 -104.5t-26.5 -108.5q0 -35 -19.5 -47t-34.5 10v-2q-16 29 -6 74z" />
<glyph unicode="&#x201d;" horiz-adv-x="206" d="M190 1206q0 4 8.5 15.5t14.5 21.5l4 4t6 8q35 49 61.5 98.5t26.5 104.5q0 33 18.5 44t32.5 -1q20 -33 9 -78q-25 -98 -103 -186q-4 -4 -5 -4t-3 -2t-4 -2q-23 -25 -41 -40t-25 17zM322 1206q0 4 8 15.5t14 21.5l4 4t6 8q35 49 61.5 98.5t26.5 104.5q6 96 52 41 q20 -23 10 -76q-14 -51 -39 -97t-66 -89q-4 -4 -5 -4t-3 -2t-4 -2q-23 -25 -41 -40t-24 17z" />
<glyph unicode="&#x201e;" horiz-adv-x="313" d="M-14 -35q0 10 10 23.5t20 23.5q35 49 62.5 100.5t27.5 106.5q0 29 19.5 41t34.5 -4q14 -20 8 -74q-29 -102 -105 -184l-12 -12q-10 -10 -20.5 -21.5t-19.5 -17.5t-15 -3t-10 21zM117 -35q0 10 10 23.5t20 23.5q35 49 63 100.5t28 106.5q0 29 19 41t34 -4v2q16 -25 8 -76 q-20 -98 -104 -184l-13 -12q-10 -10 -20 -21.5t-19.5 -17.5t-15.5 -3t-10 21z" />
<glyph unicode="&#x2026;" horiz-adv-x="878" d="M-121 53q10 12 17.5 29.5t15.5 32.5q10 16 17.5 27.5t15.5 15.5l-4 -2q6 4 11 7t15 3t18.5 -3t12.5 -13q6 -18 -14 -52q-14 -20 -26.5 -36.5t-23.5 -26.5v2q-37 -37 -49 -37q-37 0 -6 55v-2zM162 53q12 12 19 29.5t16 32.5q18 35 30 43l-4 -2q15 10 29 10q23 0 29 -16 q6 -18 -13 -52q-29 -41 -51 -63v2q-35 -37 -49 -37q-37 0 -6 55v-2zM446 53q6 14 14.5 29.5t18.5 32.5q10 16 17.5 27.5t15.5 15.5l-4 -2q15 10 27 10q10 0 18 -3t12 -13q6 -18 -14 -52q-14 -20 -26.5 -36.5t-22.5 -26.5v2q-37 -37 -49 -37q-37 0 -7 55v-2z" />
<glyph unicode="&#x202f;" horiz-adv-x="315" />
<glyph unicode="&#x205f;" horiz-adv-x="394" />
<glyph unicode="&#x20ac;" horiz-adv-x="696" />
<glyph unicode="&#x25fc;" horiz-adv-x="686" d="M0 0v686h686v-686h-686z" />
<glyph unicode="&#xfb01;" horiz-adv-x="731" d="M-342 -604l477 889q-10 4 -16 20q-25 51 24 84h-2q45 31 54 4q29 55 59.5 111.5t60.5 109.5q-23 -20 -45 -43.5t-49 -46.5q-29 -27 -47 -44t-34.5 -32.5t-34 -30t-42.5 -32.5h-63q115 96 213 189.5t184 197.5l-2 -2q86 162 176.5 304.5t157.5 232.5q72 88 128 143t73 55 q18 0 14 -28.5t-23.5 -74.5t-55.5 -105.5t-81 -120.5q-86 -117 -170 -223.5t-143 -168.5l-63 -118l-175 -322q92 37 213 139q152 137 254 207l21 -18l-275 -512q70 53 144 111.5t141 113.5h64l-455 -365l-21 17l277 518q-41 -31 -78 -62.5t-82 -70.5q-59 -49 -115.5 -84 t-115.5 -51q-115 -217 -230.5 -432t-230.5 -433zM569 963q59 72 105.5 134t87.5 115q66 92 98.5 141.5t28.5 53.5t-40 -41t-99 -131q-39 -53 -84 -118.5t-97 -153.5zM851.5 953.5q2.5 15.5 18.5 45.5l2 5q6 12 12.5 24t14.5 27q16 27 29 39q12 12 30 12q8 0 16.5 -4 t12.5 -15q0 -29 -16 -51v2q-10 -20 -22.5 -35.5t-24.5 -27.5q-37 -37 -52 -37q-23 0 -20.5 15.5z" />
<glyph unicode="&#xfb02;" horiz-adv-x="813" d="M-340 -604l510 946q-12 6 -18 18q-27 57 24 89q37 23 51 2q12 23 24.5 44t22.5 44q12 25 15.5 29.5t3.5 5.5t3 6.5t17 29.5l-42 -42t-48 -44q-29 -27 -47 -44t-35.5 -32.5t-35 -30t-42.5 -32.5h-63q115 96 214 189.5t185 197.5l-2 -2q86 162 176.5 304.5t157.5 232.5 q72 88 128 143t73 55q18 0 16 -27.5t-22.5 -72.5t-55 -105.5t-84.5 -123.5q-90 -121 -173 -225.5t-142 -168.5l2 2l-147 -276l-58 -107q115 45 217 148q121 121 217 223l-2 -2q88 166 176.5 307.5t153.5 229.5q86 106 135 152t66 46q18 0 16 -27.5t-21.5 -73.5t-54 -105.5 t-81.5 -122.5q-88 -117 -173.5 -223.5t-142.5 -168.5q-33 -61 -67.5 -125.5t-65.5 -123.5q-84 -162 -138 -276t-71 -159q2 -6 52.5 27t144.5 104q43 35 92 77t92 77h64l-230 -188q-225 -176 -276 -160q-12 6 -6 41t30.5 96.5t66.5 146.5t99 189q12 27 18.5 38t11.5 20.5 t12 20.5t22 40q-33 -33 -65 -66t-66 -67q-111 -104 -256 -152q-123 -229 -247 -460.5t-245 -461.5zM571 963q59 72 105.5 134t87.5 115q66 92 98.5 141.5t28.5 53.5t-40 -41t-99 -131q-39 -53 -84 -118.5t-97 -153.5zM868 958q55 66 97.5 123.5t78.5 106.5l19 24 q66 92 99.5 141.5t29.5 53.5q-8 4 -141 -172l2 2q-6 -10 -13.5 -19.5t-11.5 -19.5q-39 -51 -78 -108.5t-82 -131.5z" />
</font>
</defs>
</svg>
