<svg viewBox="0 0 224 188" xmlns="http://www.w3.org/2000/svg"><g style="fill:none;fill-rule:evenodd"><path d="M.06.8H223.2V188H.06V.8" style="fill:#fff"/><path d="M4 134.8H220V185.3H4V134.8" style="stroke:#9d1535;stroke-linecap:square;stroke-width:1.67"/><g style="fill:#9d1535"><path d="M53.59 149.3C60.3 149.3 62.74 153.4 62.74 161.4V173.3H59.85V160.8C59.85 155.1 58.3 152.2 53.3 152.2 50.61 152.2 48.5 153.3 47.3 155.4 46.3 157.1 46.3 159.2 46.3 161.9V173.3H43.48V160.1C43.48 154.8 41.4 152.2 36.78 152.2 34 152.2 31.93 153.3 30.75 155.4 29.74 157.1 29.74 159.2 29.74 161.9V173.3H26.76V149.8H29.74V152.5C31.53 150.4 33.99 149.3 37 149.3 40.68 149.3 43.79 151 45.3 153.5 47.2 150.8 50.1 149.3 53.59 149.3"/><path d="M78.2 152C73.7 152 70.2 155 69.5 159.9H87.3C86.2 154.7 83.1 152 78.2 152M69.4 162.5C69.79 167.7 73.6 171.1 78.4 171.1 81.9 171.1 84.9 169.2 86.5 165.9H89.9C87.7 171.1 83.6 174 78.5 174 71.5 174 66.3 168.1 66.3 161.5 66.3 154.5 71.3 149.1 78.6 149.1 85.6 149.1 90.6 154.4 90.6 162.3V162.5H69.4"/><path d="M120.9 149.3C127.6 149.3 130 153.4 130 161.4V173.3H127.1V160.8C127.1 155.1 125.6 152.2 120.6 152.2 117.9 152.2 115.8 153.3 114.6 155.4 113.6 157.1 113.6 159.2 113.6 161.9V173.3H110.8V160.1C110.8 154.8 108.7 152.2 104.1 152.2 101.3 152.2 99.2 153.3 98 155.4 97 157.1 97 159.2 97 161.9V173.3H94V149.8H97V152.5C98.8 150.4 101.3 149.3 104.3 149.3 107.9 149.3 111.1 151 112.5 153.5 114.5 150.8 117.4 149.3 120.9 149.3"/><path d="M146.5 171.1C151.3 171.1 155.6 167.1 155.6 161.4 155.6 156 151.3 152.1 146.6 152.1 141.8 152.1 137.7 156.3 137.7 161.8 137.7 166.9 142 171.1 146.5 171.1M137.7 153.7C140.3 150.7 143.2 149.3 146.9 149.3 153.6 149.3 158.8 154.8 158.8 161.5 158.8 168.4 153.6 173.9 146.5 173.9 143 173.9 140.1 172.6 137.7 169.8V173.3H134.7V142.2H137.7V153.7"/><path d="M173 152C168.6 152 165.1 155 164.3 159.9H182.1C181 154.7 177.9 152 173 152M164.2 162.5C164.6 167.7 168.4 171.1 173.3 171.1 176.7 171.1 179.7 169.2 181.3 165.9H184.7C182.5 171.1 178.5 174 173.3 174 166.3 174 161.1 168.1 161.1 161.5 161.1 154.5 166.1 149.1 173.5 149.1 180.4 149.1 185.5 154.4 185.5 162.3V162.5H164.2"/><path d="M188.9 173.3V149.8H191.7V152.5C193.3 150.4 195 149.5 197.2 149.4V152.7C193.1 153.1 191.9 155.2 191.9 159.1V173.3H188.9"/><path d="M4 4.28H220V128.7H4V4.28"/></g><path d="M4 4.28H220V128.7H4V4.28" style="stroke:#9d1535;stroke-linecap:square;stroke-width:1.9"/><g style="fill:#fff"><path d="M58.1 60.6V50.75C51.5 52.83 47.1 54.7 45 56.3 41.56 58.78 39.84 62.3 39.84 66.89 39.84 69.4 40.48 71.5 41.77 73.2 43.1 74.87 44.85 75.7 47.1 75.7 50.4 75.7 53 74.4 55.1 71.78 57.1 69.2 58.1 65.5 58.1 60.6M80.2 79.7L60.2 83.9C58.8 81.5 58.1 78.4 58.1 74.7L49.2 80.9C46.3 82.9 42.88 83.9 39.1 83.9 35.2 83.9 31.98 82.5 29.39 79.7 26.81 76.99 25.52 73.4 25.52 68.94 25.52 64.1 27.1 60.4 30.2 57.64 32.54 55.6 36.72 53.5 42.69 51.5L58.1 46.3C58.1 36.3 55.1 31.3 49.1 31.3 44.88 31.3 41 35.1 37.49 42.79 37.2 43.72 36.56 44 35.55 43.65L30.3 41.93C29.33 41.4 28.97 40.64 29.2 39.78L30.58 34.72C31.1 32.64 32.3 31.3 34.1 30.63 39.94 28.55 45.5 27.51 50.81 27.51 65.2 27.51 72.4 33.82 72.4 46.4V66.78C72.4 73.3 74 76.6 77.3 76.6 78.1 76.6 78.93 76.4 79.9 76.1L80.2 79.7"/><path d="M97.2 53.2V74.85C100.1 78.5 103.7 80.3 107.8 80.3 113 80.3 116.9 77.8 119.5 72.6 121.8 68.1 123 62.3 123 55.2 123 48.56 121.6 43.3 118.9 39.45 116.4 35.79 113.2 33.97 109.3 33.97 104.7 33.97 101.3 36.2 99.4 40.64 97.9 44 97.2 48.2 97.2 53.2M97.2 81.8V96.9C97.2 100 97.3 102.2 97.6 103.5 97.9 105 101.1 105.9 107 106.3V109.6H74.6V106.3C79.5 105.8 82.1 104.9 82.4 103.6 82.7 102.2 82.8 100 82.8 96.9V41.51C82.8 38.85 82.1 37.1 80.5 36.2 79.4 35.65 77.4 35.4 74.6 35.4V32C84.2 31.89 91.7 30.38 96.9 27.51L97.2 27.72V36.65C102.3 30.56 108.8 27.51 116.7 27.51 123.1 27.51 128.1 29.73 132 34.2 136.1 38.99 138.2 45.69 138.2 54.3 138.2 62.4 135.6 69.3 130.4 75.1 125 80.95 118.1 83.9 110 83.9 105.2 83.9 100.9 83.2 97.2 81.8"/><path d="M163.1 30.41C160 30.56 157.6 32.2 156 35.3 154.6 37.77 153.9 40.64 153.9 43.86 153.9 48.53 154.7 52.4 156.3 55.6 158.2 59.5 161.1 61.4 164.9 61.2 167.9 61 170.1 59.4 171.6 56.3 172.6 54 173.2 51.3 173.2 48.2 173.2 43.1 172.3 38.85 170.6 35.47 168.7 31.96 166.1 30.3 163.1 30.41M166.1 84.2L154.7 81.8C150.1 85.5 147.8 89.2 147.8 92.9 147.8 96.6 149.3 99.6 152.3 101.8 155.3 104 159.2 105.1 164.1 105.1 168.4 105.1 172.1 104.1 175 102.2 178 100.2 179.5 97.7 179.5 94.6 179.5 91.1 178 88.6 175.1 86.9 173.5 86.1 170.4 85.2 166.1 84.2M193.5 34.3H182C184.9 37.51 186.4 41.68 186.4 46.77 186.4 51.65 184.2 55.79 179.8 59.2 175.5 62.6 170.1 64.3 163.8 64.3 162.1 64.3 160.4 64.2 158.6 63.98 157.2 65.3 156.5 66.4 156.5 67.4 156.5 68.5 157.3 69.3 159 69.81 161.5 70.3 164 70.81 166.5 71.3L178.2 73.91C182.5 74.84 185.8 76.7 188.1 79.5 190.5 82.2 191.7 85.4 191.7 89.1 191.7 95.2 188.8 100.2 183.2 104.1 177.8 107.8 171.1 109.6 163.1 109.6 156.2 109.6 150.1 107.9 145 104.5 139.3 100.9 136.5 96.2 136.5 90.6 136.5 87.9 137 86.3 138.1 85.8L149.2 80.8V80.6C145 79.8 142.9 77.8 142.9 74.5 142.9 73.6 143.1 72.6 143.5 71.6L154.3 63.1C149.2 60.98 145.6 58.5 143.4 55.74 141.2 52.94 140.1 49.4 140.1 45.1 140.1 39.69 142.6 35.3 147.7 32 152.3 29 157.7 27.51 163.9 27.51 168.8 27.51 172.7 28.1 175.6 29.34 183.3 29.34 189.7 28.73 194.9 27.51L196.1 29.2 193.5 34.3"/><path d="M203.2 31.1V33.2H203.7C204 33.2 204.2 33.2 204.4 33.2 204.6 33.1 204.7 33.1 204.8 33 205 32.93 205.1 32.8 205.2 32.64 205.3 32.47 205.3 32.3 205.3 32.1 205.3 31.82 205.3 31.61 205.1 31.45 205 31.3 204.9 31.2 204.7 31.1 204.5 31.1 204.2 31.1 203.7 31.1H203.2M202.6 36.47V30.55H204C204.3 30.55 204.5 30.57 204.7 30.6 205 30.65 205.2 30.74 205.4 30.86 205.5 30.99 205.7 31.2 205.8 31.36 205.9 31.56 205.9 31.8 205.9 32.1 205.9 32.47 205.8 32.8 205.6 33 205.3 33.3 205 33.46 204.6 33.52 204.7 33.54 204.9 33.59 205 33.65 205.1 33.72 205.1 33.8 205.2 33.89 205.2 33.94 205.3 34.1 205.4 34.4L206.4 36.47H205.7L204.8 34.3C204.7 34.1 204.6 33.97 204.4 33.88 204.3 33.79 204.1 33.75 203.7 33.75H203.2V36.47H202.6"/></g><path d="M208.6 33.79C208.6 36.2 206.7 38.2 204.3 38.2 201.8 38.2 199.9 36.2 199.9 33.79 199.9 31.36 201.8 29.39 204.3 29.39 206.7 29.39 208.6 31.36 208.6 33.79" style="stroke:#fff;stroke-width:.68"/></g></svg>