<svg viewBox="0 0 1782 2264" xmlns="http://www.w3.org/2000/svg"><g id="0" style="fill:none;fill-rule:evenodd"><path fill="#41C84B" d="M725.7 1721.3C942.5 1691.9 1202.6 1607.2 1341.7 1407.5 1605.8 1028.4 1367.9 487.8 1776.7 33.59 1872.2-72.5 664.4 68.91 204 620.1-135.6 1026.6 36.73 1480.1 107 1569.6 156.4 1632.5 218.5 1677.8 305.3 1704.8V1205.2C231 1173 179 1099.2 179 1013.1 179 897.6 272.6 804 388.1 804 503.5 804 597.1 897.6 597.1 1013.1 597.1 1099.2 545.1 1173 470.8 1205.2V1562.8C546.1 1508.8 635.2 1480.9 711.8 1456.9 869.6 1407.6 979.1 1373.2 998.9 1203.6 926.4 1170.7 875.9 1097.8 875.9 1013.1 875.9 897.6 969.5 804 1084.9 804 1200.4 804 1294 897.6 1294 1013.1 1294 1100.3 1240.7 1174.9 1164.9 1206.3 1138 1497.1 921.8 1564.8 761.2 1615 658.2 1647.1 575.8 1672.9 525.4 1734.2 525.4 1734.2 525.3 1734.3 525.2 1734.3 525.1 1734.4 525.1 1734.4 525 1734.5 479.2 1794.8 434.3 2036.9 425.6 2196.4 421.6 2270.3 607.6 2297 615.7 2208.3 638.5 1955.2 719 1738.8 725.7 1721.3" id="1" /></g></svg>