<?xml version="1.0" encoding="UTF-8" standalone="no"?>
<svg width="1796px" height="1229px" viewBox="0 0 1796 1229" version="1.1" xmlns="http://www.w3.org/2000/svg" xmlns:xlink="http://www.w3.org/1999/xlink" xmlns:sketch="http://www.bohemiancoding.com/sketch/ns">
    <!-- Generator: Sketch 3.0.4 (8053) - http://www.bohemiancoding.com/sketch -->
    <title>Untitled 6</title>
    <desc>Created with Sketch.</desc>
    <defs></defs>
    <g id="Page-1" stroke="none" stroke-width="1" fill="none" fill-rule="evenodd" sketch:type="MSPage">
        <g id="Group" sketch:type="MSLayerGroup" transform="translate(898.100000, 614.400000) scale(1, -1) translate(-898.100000, -614.400000) translate(0.100000, -0.100000)" fill="#FFFFFF">
            <path d="M352.4,1226.3 C229.5,1217 26.3,1200.1 21.5,1198.8 C16.3,1197.4 10,1194.3 7.1,1191.5 C0.1,1185.2 -1.8,1172.7 1.8,1157.4 C5.2,1143.2 9.8,1133 128.9,874.9 C297,510.6 383.3,325 387,319.2 C392.3,311.1 404.9,299.2 412.4,295.2 C423.2,289.5 432.6,287.4 447.4,287.5 C457.8,287.5 462.7,288.1 471.9,290.2 C495.2,295.7 601.6,323 762.5,365 C808.8,377 847.1,386.9 847.7,386.9 C848.3,386.9 850.4,384.1 852.3,380.6 C964.6,177.7 1026.6,68.4 1047.6,36.6 C1058.6,19.9 1068.8,9.5 1079.5,4.3 C1086.8,0.7 1087.9,0.4 1097.9,0.1 C1115.6,-0.6 1129.4,3.4 1217.4,34.4 C1351.4,81.6 1699.4,206.8 1729,218.5 C1739.9,222.8 1749.1,227.2 1753.2,230.2 C1760.7,235.8 1761.9,243.8 1756.6,254 C1752.5,262.1 1722.3,303.1 1586,485.8 C1556.7,525 1532.6,557.6 1532.3,558.3 C1532,559 1572,570.1 1650.1,590.8 C1715.2,608.1 1772.5,623.5 1777.4,625 C1792.1,629.6 1797.9,636.2 1795,645.1 C1794.4,646.9 1790,653.1 1785.3,658.9 C1775.6,670.6 1724.3,734.2 1649.4,827.4 C1575,919.9 1574.7,920.3 1563.2,928.6 C1555.5,934.1 1547.7,936.9 1540,936.9 C1534.7,936.9 1276.1,894.4 1265.1,891.7 C1247.3,887.4 1239.4,878.7 1243.2,867.5 C1244.2,864.7 1279.2,814.2 1335.8,733.9 C1385.9,663 1426.9,604.6 1426.9,604.2 C1426.9,603.3 885.2,473.3 884.5,474 C884.3,474.2 786.8,637.1 667.9,835.9 C549,1034.7 449.4,1200.7 446.7,1204.7 C436,1220 430.4,1224.6 418.9,1227.3 C409.8,1229.5 390,1229.2 352.4,1226.3 L352.4,1226.3 Z M809.4,456.2 L457.8,374.4 L77.7,1146.3 C77.7,1146.3 392.8,1177.9 394.4,1176.3 L809.4,456.2 Z M1713.04973,671.720721 L1487.2,617.9 L1325.7,848.3 L1542.35892,888.833716 L1713.04973,671.720721 Z M1663.84929,269.383769 L1116.4088,90.8407694 L924.7,407 C924.7,407 1469,545.4 1471.9,543.9 L1663.84929,269.383769 Z" id="Shape" sketch:type="MSShapeGroup"></path>
        </g>
    </g>
</svg>