<?xml version="1.0" standalone="no"?>
<!DOCTYPE svg PUBLIC "-//W3C//DTD SVG 1.1//EN" "http://www.w3.org/Graphics/SVG/1.1/DTD/svg11.dtd" >
<svg xmlns="http://www.w3.org/2000/svg">
<metadata></metadata>
<defs>
<font id="schwabacherregular" horiz-adv-x="1024" >
<font-face units-per-em="2048" ascent="1638" descent="-410" />
<missing-glyph horiz-adv-x="694" />
<glyph horiz-adv-x="0" />
<glyph horiz-adv-x="682" />
<glyph horiz-adv-x="960" d="M57 829q0 -25 17 -73q16 -43 20 -68q12 -111 19.5 -178.5t9.5 -89.5q-4 -59 6 -90l-4 -168q47 -324 55 -463q16 -10 25 -10q8 0 12 4q8 68 12 109.5t4 58.5q0 41 -16 53q37 37 35 92l-4 105q0 6 4 17t8 24.5t8 24.5t4 18q6 174 35 266q2 10 1 32.5t-3 55.5q0 2 2 12 t5 20.5t5 19.5t2 11q0 68 -2 70q18 27 104.5 39t100.5 29v16q43 -2 64 -33q-20 -27 -21 -88v-35q2 -14 3 -23t1 -14q0 -47 -18 -73v-226q23 -115 33 -131q2 -4 10 -16t24 -29q14 -12 21.5 -21t11.5 -14q0 -25 -45 -63q14 -10 19 -25q37 0 51 21q76 100 176 178q51 39 51 62 q0 6 -16 28q-4 0 -35 -18q-29 -18 -37 -19q-29 0 -55 62q-25 51 -25 88q0 6 8 37q10 37 11 43q-2 -18 -3 4t-1 88q2 8 6 47q2 8 1 21.5t-3 29.5q35 121 61 119q4 23 12 35q12 10 21.5 17t17.5 11q6 12 13.5 26.5t9.5 16.5l-23 31q-20 -20 -47 -20q-31 0 -76 30 q-43 29 -57 60q-12 49 -18 59l-35 -31q-23 -18 -19 -40q-12 -23 -61 -74q-25 -27 -41 -45.5t-25 -30.5q-29 10 -56.5 16.5t-53.5 10.5q-66 10 -98 69q-53 88 -62 99v110q10 4 47 49q27 33 53 33q27 0 97 -29q59 -27 100 -26q57 0 100 47q63 70 80 80q8 20 2 26q-25 6 -100 7 q-29 0 -92.5 32.5t-91.5 32.5q-53 0 -95 -39q-47 -41 -76.5 -71.5t-39.5 -47.5q-59 -127 -86 -196q-2 -41 -3 -58.5t-1 -9.5q0 -25 -27 -70t-27 -47z" />
<glyph horiz-adv-x="1007" d="M-23 829q0 -27 15 -69q8 -27 11 -44.5t5 -27.5q10 -98 17.5 -163.5t11.5 -104.5q0 -59 6 -90l-4 -168q23 -154 36 -268.5t17 -194.5q27 -10 29 -10q8 0 12 4q8 68 12.5 109.5t4.5 58.5q0 41 -17 53q35 35 33 92l-2 105q0 6 3 18t8 25.5t8 24.5t3 16q8 182 37 266 q2 10 1 32.5t-3 55.5q0 2 2 12t4 20.5t4 19.5t2 11v70q20 31 107 41q51 2 55 6q37 -41 47 -113q2 -90 7 -122l4 -201q2 -29 5 -72t11 -100q18 -29 33.5 -51.5t25.5 -38.5q0 4 1 -11.5t3 -50.5q31 16 75 53t104 91q119 111 141 141q-16 10 -23 10q-6 0 -45 -31 q-41 -31 -65 -30q-66 0 -88 84q-10 76 -25 153q4 53 6 103.5t2 99.5q0 72 -8 80q4 27 19 82q10 16 118 92q293 201 293 299q0 63 -43 119q-43 57 -104 57q-66 0 -189 -80q-111 -74 -159 -135q-80 -98 -88 -254q-4 -29 -7 -41q-18 -72 -18 -76q-29 37 -135 52q-66 8 -100 69 q-53 96 -60 99v110q10 4 47 49q27 33 53 33q25 0 93 -29q66 -27 104 -26q51 0 98 47q70 72 82 80l3 12l1 4q0 6 -4 10q-29 6 -100 7q-25 0 -92.5 32.5t-89.5 32.5q-53 0 -95 -39q-109 -96 -118 -119q-33 -68 -53.5 -117t-30.5 -79q-8 -25 -8 -66q0 -23 -23 -71 q-10 -23 -16 -35zM594 1006q0 88 29 151q4 10 0 29q117 86 157 86q37 0 94 -45q58 -43 58 -78q0 -4 -23 -23q-29 -23 -30.5 -24.5t4.5 -20.5q-41 -59 -258 -174q-31 14 -31 99z" />
<glyph horiz-adv-x="1417" d="M-39 492l51 -91l213 123v-135q0 -20 14.5 -71.5t14.5 -71.5q0 -35 -55 -80q-29 -14 -45 -16q-29 -25 -29 -62q0 -35 37 -35q27 0 90 88q70 100 80 107q39 37 74 55q39 57 51 133q-2 37 -4 61.5t-4 37.5v12q0 12 2 32.5t3 37t1 26.5v14l67 37q0 -66 -1 -117t-3 -90 q16 -43 25 -100l-178 -186q-115 -121 -136 -195l43 -6q129 139 162 139q72 0 76 -4l78 -37l157 -67q104 -43 164 -43q96 0 142 39q41 35 75.5 68.5t67.5 66.5q10 27 74 100q55 70 57 113q-2 2 -16 2q-16 0 -33 -23q-20 -37 -29 -39q-123 -90 -141 -98q-78 -31 -139 -31 q-35 0 -90 27q-61 29 -82 49q-18 10 -41 20.5t-52 20.5q-141 33 -141 174q0 -18 3 11.5t7 95.5q-10 31 -10 43q0 14 6 26q2 23 3 36t1 18v16l213 123q0 -18 2 -21q-25 -61 -24 -86q0 -70 47 -139q51 -76 121 -76q23 0 69 19q63 27 64 67q0 25 -41 41q0 -10 -11.5 -20 t-27.5 -19.5t-33.5 -15.5t-29.5 -6q-39 0 -75 33.5t-36 72.5q0 61 55 127q55 68 115 68q-2 0 15.5 -1t56.5 -3t56 -3t15 -1q90 0 168 86q14 16 44 62t77 122q10 23 6 35q10 12 17 16q0 4 2 21.5t5 30t3 14.5q0 4 -5 24.5t-5 22.5q4 109 -148 272q-27 31 -98 66 q-63 33 -107 33q-72 0 -80 -7q-76 -16 -137 -29.5t-112 -23.5q-23 -4 -63 -16.5t-95 -34.5q-63 -39 -96 -66q-12 -25 -13 -36l-79 -56q-66 -90 -93 -129q-88 -197 -88 -356v-289zM457 778q2 43 2 72v47q4 139 0 158q20 12 20 26q0 150 17 199q29 80 159 186q4 -16 -24 -57 q-33 -45 -37 -57q-4 -14 -13.5 -48t-21.5 -87q-10 -45 -16 -79t-11 -57q-2 -16 -6 -26l4 -4q-2 -41 -4 -63.5t-4 -29.5l-6 -8q-8 -8 -8 -18q0 -4 8 -19q2 -27 2 -51v-47zM520 1071q0 -26 6 -16q-6 6 -6 16zM557 838v24h6q6 8 6 17q0 14 -8 22q51 348 68 408q10 39 86 133 q78 96 104 96q76 0 129 -84q18 -23 19 -43q0 -119 -82 -119q-2 0 -21.5 3t-23.5 3q-6 0 -18.5 -11t-12.5 -19q35 -53 76 -54q74 0 127 103q10 25 10 47q0 18 -10 55q-10 23 -22.5 44.5t-22.5 39.5q-37 63 -37 74q0 18 39 33q31 14 53 14q113 0 197 -68q154 -123 153 -278 q0 -57 -55 -131t-113 -74q-27 0 -69 6q-29 4 -46.5 6t-23.5 2q-43 0 -117 -30q-29 -10 -48 -22.5t-34 -22.5l-2 2z" />
<glyph horiz-adv-x="704" d="M-43 377l51 -90l146 84l2 -84q2 -29 5 -72t11 -100q16 -23 30.5 -44.5t28.5 -43.5q0 4 1 -11.5t4 -50.5q29 16 72.5 51t103.5 88q100 92 143 144q-16 10 -23 10q-6 0 -45 -31q-41 -31 -65 -30q-68 0 -88 86q-10 76 -25 153l2 25l197 114l-51 95l-140 -82v49q0 72 -8 80 q4 27 19 82q10 16 118 92q293 201 293 299q0 61 -43 121q-43 57 -104 57q-66 0 -189 -80q-111 -74 -159 -135q-80 -98 -88 -254q-4 -29 -6 -41q-18 -72 -19 -78l-35 -51q51 -51 56 -237zM297 1001q0 84 29 152q4 10 0 27q113 88 157 88q37 0 95 -45q57 -43 57 -78 q0 -8 -20.5 -22.5t-32.5 -26.5q-2 -2 4 -21q-41 -59 -258 -174q-31 18 -31 100z" />
<glyph horiz-adv-x="1241" d="M23 952q43 -43 86 -55q8 -8 92 -27q117 37 143 64q10 10 39 98q27 86 27 115q0 20 -11 37q-29 33 -47 54.5t-28 33.5q-68 76 -68 88q0 6 12 22q0 35 17 91q16 33 86 65q70 37 106 37q74 0 117 -16q59 -43 72 -58q182 -145 182 -321q0 33 -29 -86q-12 -49 -98 -138 q-82 -88 -131 -110q-100 -47 -207 -91t-219 -89q6 -41 47 -54q47 25 72.5 38.5t29.5 15.5q88 43 117 43q102 0 186 -86q72 -76 103 -183l-14 -8q-43 -25 -79 -44t-65 -34q-16 -8 -35.5 -22.5t-44.5 -36.5q-47 -41 -75 -57q-137 -76 -160 -170q-18 -80 -19 -115q0 -47 60 -82 q53 -29 104 -29q8 0 23.5 2t32 5.5t32 5.5t25.5 2q61 0 165.5 47t151.5 96q109 109 121 141q37 156 43 193q4 27 -8 76q-12 51 -12 71q0 31 30 54q6 2 20.5 9t37.5 19q20 12 55 74q35 66 35 90q0 41 -21 104q-20 68 -20 107q0 41 57 80q44 31 60 47q-16 18 -33 18 q-68 0 -133 -77q-63 -76 -64 -148q0 -55 31 -119q16 -37 16 -61q0 -37 -22.5 -65.5t-52.5 -28.5q-33 0 -187 215q-61 39 -76 69q41 29 79 59.5t71 63.5q16 16 41.5 46t64.5 77q37 72 50 121q10 41 -5 55q23 57 23 74q-6 4 -39 100q-8 25 -106 123q-115 115 -168 115 q-57 0 -248 -72q-115 -45 -150 -61q-94 -49 -116 -109q-59 -160 -60 -162q0 -20 39 -135q76 -61 123 -92q16 -16 16 -49q0 -35 -40 -61.5t-83 -26.5q-37 0 -81 27l-50 22q-18 0 -36 -31zM297 2q0 4 9 19.5t9 17.5q10 37 13 63q100 160 411 269q12 -35 23.5 -66.5t21.5 -62.5 q0 -201 -151 -297q-12 -12 -70 -21q-29 -4 -50 -7t-34 -3q-2 0 -10 -1t-24.5 -3t-24.5 -3t-12 -1q-41 0 -76 30.5t-35 65.5zM397 1935q82 -51 149.5 -102t123.5 -102l299 313l-33 33l-178 -181q-47 47 -107.5 93.5t-134.5 87.5z" />
<glyph horiz-adv-x="591" d="M57 340q0 -6 5.5 -27.5t5.5 -23.5q31 -20 51 -33.5t31 -22.5q68 -49 67 -73q0 -25 -65 -90q-29 -57 -46.5 -91t-23.5 -45q-10 -41 -10 -90q0 -2 1 -10t3 -17.5t3 -17.5l1 -8q-6 -57 29 -129q43 -86 86 -86q25 0 51 10q84 53 153 183q72 131 72 229q0 29 -29 104 q-27 72 -26 113q0 33 26 47q61 39 80 57q-16 12 -24 27q-76 -51 -86 -51q-23 0 -31 20q-29 47 -55.5 90.5t-51.5 81.5q2 6 33 37l31 45q35 29 63.5 53.5t51.5 41.5q47 47 47 86q0 27 -20.5 69.5t-20.5 67.5q0 78 76 127l-7 41q-31 -10 -70.5 -29.5t-86.5 -48.5l-148 -98 q-18 -18 -18 -54q0 -33 28 -108q29 -74 29 -107q0 -39 -78 -121l-96 -98q-31 -41 -31 -51zM88 1321q82 -51 149.5 -102.5t122.5 -102.5l299 314l-32 32l-178 -180q-47 47 -107.5 93t-134.5 87zM113 -96q0 29 53 100q51 74 80 74q8 0 49 -37q41 -35 41 -41q0 -2 -4 -20.5 t-6 -32.5q20 -21 20 -33q0 -10 -6 -10h-6v-125q0 -6 -29 -47l-26 -51q-23 -31 -64 -31q-33 23 -58.5 42t-43.5 40v172z" />
<glyph unicode=" "  horiz-adv-x="694" />
<glyph unicode="&#x09;" horiz-adv-x="694" />
<glyph unicode="&#xa0;" horiz-adv-x="694" />
<glyph unicode="!" horiz-adv-x="514" d="M68 1178q66 -129 106.5 -319.5t56.5 -448.5h50q33 514 163 768q-111 74 -188 190q-74 -113 -188 -190zM70 158q109 -86 186 -185q72 92 186 185q-57 47 -104 92t-82 92q-39 -51 -86 -97t-100 -87z" />
<glyph unicode="&#x22;" d="M279 1255q-1 -208 69 -448q72 276 72 455q0 115 -70 114q-72 0 -71 -121zM606 1255q0 -208 70 -448q72 276 72 455q0 115 -70 114q-72 0 -72 -121z" />
<glyph unicode="#" horiz-adv-x="618" d="M-41 850q0 -2 25 -45q23 -37 26 -66q2 -78 2 -153v-154q2 -186 35 -301l-2 -8t-3 -18.5t-3 -20.5t-2 -12q2 -45 3 -68.5t1 -9.5q0 -39 12 -113q14 -72 15 -110q4 -6 14 -11q41 0 43 15q6 47 9 76.5t5 44.5q-4 39 -6 61q2 14 6 44t13 77q12 82 10 92q0 29 4 70t12 94 q18 106 19 164q0 6 -1 21.5t-3 39.5q14 43 4 92q-10 37 -7 41q27 37 31 53q4 20 4 64q0 55 -10 80q-70 152 -70 182q0 8 15 35q16 78 35 90q78 53 120 53q33 0 105 -41q70 -39 82 -39q31 0 47 19l24 37q10 4 25.5 13t38.5 19q25 23 29 52q-66 29 -95 30q-143 66 -163 66 q-66 0 -199 -121q-131 -117 -158 -182q-6 -33 -14 -68t-27 -51q-2 -2 -2 -41q0 -12 -8 -25.5t-17.5 -26.5t-16.5 -23.5t-7 -16.5z" />
<glyph unicode="$" d="M27 297q0 -129 104 -215q106 -86 262 -86h27q14 0 24 2v-258l48 35v225q106 8 190 55q129 70 201.5 185.5t72.5 246.5q0 102 -58 188.5t-153 121.5q-80 29 -213 28h-40v340q10 -4 19 -7t13 -7q98 -39 201 -53q53 76 96 131t72 90h-27q-98 0 -164 16q-53 14 -106 22.5 t-104 10.5v207l-48 -31v-180q-154 -23 -266 -158q-111 -139 -110 -303q0 -231 219 -297q23 -8 62.5 -11t94.5 -5v-535q-47 -8 -90 -8q-53 0 -99 13.5t-81 37t-54.5 54t-19.5 67.5q0 66 43 64q57 -4 95 27.5t38 80.5q0 43 -31.5 75t-74.5 32q-31 0 -56.5 -16.5t-45 -44 t-30.5 -63.5t-11 -77zM160 1028q0 37 12 69.5t33.5 59.5t48.5 42t57 15q35 0 133 -32v-357q-129 6 -206.5 61.5t-77.5 141.5zM492 63v525q102 0 131 -6q57 -14 93 -68.5t36 -128.5q0 -131 -103 -238q-57 -57 -157 -84z" />
<glyph unicode="%" horiz-adv-x="1005" d="M41 1024q0 -121 96 -213l127 -123l152 143q98 92 98 213q0 100 -115 216l-104 104l-137 -121q-117 -102 -117 -219zM53 20l33 -20l866 1341l-30 23zM135 1083q0 86 88 160q195 -152 195 -268q0 -80 -92 -172q-190 141 -191 280zM494 330q0 -121 96 -213l127 -121l151 141 q98 92 99 213q0 100 -115 215l-104 103l-138 -119q-117 -102 -116 -219zM588 389q0 86 88 160q195 -152 194 -270q0 -82 -92 -170q-190 143 -190 280z" />
<glyph unicode="&#x26;" horiz-adv-x="1425" d="M82 459q0 -45 86 -183q88 -139 178 -239q45 -49 74 -49q88 0 313 317q8 -10 14.5 -17t10.5 -12l94 -126q45 -57 75.5 -97.5t49.5 -62.5q51 47 95 86t81 69l152 127l-23 33l-156 -123l-266 336q23 43 40.5 76t29.5 55q74 -12 194 -12q4 0 20.5 1t45.5 3q31 76 110 190 l72 105l-37 22l-53 -69q-74 -23 -131 -23q-29 0 -71 3t-99 8l-8 -21q-6 -16 -12.5 -29.5t-12.5 -27.5q-94 -205 -100 -213q-4 -10 -8 -16.5t-9 -10.5q-41 47 -90 118t-108 165l57 35q63 39 107.5 72.5t71 67.5t38 67.5t11.5 74.5q0 123 -125 223q-92 -33 -158 -62.5 t-109 -55.5q-106 -66 -149 -127.5t-43 -143.5q0 -80 41 -151l41 -70q-186 -123 -238 -170q-96 -90 -96 -143zM301 559q0 84 121 162q8 6 20 10q16 -25 29.5 -43t22.5 -31l77 -118q47 -70 81 -117t55 -76q-90 -147 -146 -147q-25 0 -55 32q-29 29 -46.5 48.5t-25.5 29.5 q-133 170 -133 250zM502 1120q0 91 121 144q109 -131 108 -215q0 -104 -121 -166q-109 164 -108 237z" />
<glyph unicode="'" d="M442 1255q0 -208 70 -448q72 276 72 455q0 115 -70 114q-72 0 -72 -121z" />
<glyph unicode="(" horiz-adv-x="583" d="M76 504q0 -111 25.5 -225.5t74.5 -226t121 -218t164 -203.5l35 29q-53 88 -90 155.5t-58 118.5q-92 227 -92 570q0 342 92 573q41 98 148 275l-35 28q-92 -98 -164 -205.5t-121 -219t-74.5 -226.5t-25.5 -225z" />
<glyph unicode=")" horiz-adv-x="583" d="M88 -340l35 -29q184 197 284.5 423.5t100.5 449.5q0 111 -25.5 226.5t-75 227t-121 219t-163.5 203.5l-35 -28q106 -170 148 -275q92 -227 92 -573t-92 -570q-41 -98 -148 -274z" />
<glyph unicode="*" horiz-adv-x="868" d="M45 1120q68 -43 127 -129q59 27 98 27q35 0 80 -33q-43 -104 -131 -104h-16v-19q0 -55 -29 -160q70 51 164 80q-2 10 -3 22.5t-1 22.5q0 72 63 123q68 -59 68 -112q0 -31 -14 -60q23 -4 63.5 -24.5t97.5 -59.5q-27 82 -26 158v25q-63 12 -88 32.5t-39 71.5q51 37 82 37 q39 0 84 -35q23 41 129 127q-86 -4 -179 31q-33 -57 -61.5 -78t-85.5 -23q-4 23 -7 39.5t-3 26.5q0 57 67 104q-20 25 -40.5 65t-41.5 97q-14 -41 -34.5 -82t-49.5 -80q59 -66 60 -110q0 -14 -10 -60q-63 4 -95 27t-51 82q-55 -23 -178 -29z" />
<glyph unicode="+" d="M109 608h321v-329h164v329h321v150h-321v329h-164v-329h-321v-150z" />
<glyph unicode="," horiz-adv-x="512" d="M102 -348q102 156 179 340q80 184 79 266q0 76 -69 76q-78 0 -121 -154q-41 -151 -68 -528z" />
<glyph unicode="-" horiz-adv-x="315" d="M0 297l315 94v107l-315 -90v-111zM0 530l315 95v106l-315 -90v-111z" />
<glyph unicode="." horiz-adv-x="514" d="M72 158q109 -86 186 -185q82 100 186 185q-108 86 -186 184q-39 -49 -86 -95t-100 -89z" />
<glyph unicode="/" horiz-adv-x="634" d="M-59 -383l61 8l633 1776l-64 -25z" />
<glyph unicode="0" d="M51 604q0 -125 55 -223q57 -98 197 -219q160 -139 197 -185q35 35 69.5 70t71.5 70q154 145 221 231q113 145 113 332q0 152 -72 272q-45 74 -192 193q-74 59 -126 108t-85 86q-37 -53 -84 -111.5t-105 -121.5q-66 -72 -108.5 -122t-59.5 -79q-92 -145 -92 -301zM213 766 q0 166 158 342q106 -68 209 -154q63 -55 108 -105t74 -97t41 -95.5t12 -103.5q0 -190 -162 -360q-205 117 -322.5 268t-117.5 305z" />
<glyph unicode="1" d="M172 -57l23 -35l51 35q326 219 536 233l-57 27q-59 35 -78 76q-16 37 -20 141l-17 571v13q0 225 166 315l-16 41l-195 -70q-147 -53 -258 -57q55 -49 74 -107q10 -29 15 -69.5t7 -98.5l15 -538l2 -25q8 -96 -27 -198q-41 -115 -172 -215z" />
<glyph unicode="2" d="M16 918l33 -29q156 117 332 117q127 0 215 -76q92 -78 92 -178q0 -86 -168 -217q-315 -244 -493 -584l30 -23q199 119 353 119q164 0 364 -108q14 47 58.5 132t121.5 210l56 90l-37 20l-66 -94q-53 -74 -143 -74q-35 0 -90 15q-145 35 -254 34q-68 0 -129 -20 q51 86 348 285q150 100 207 170q59 72 59 153q0 223 -375 369q-74 27 -96 47q-20 18 -55 78q-121 -170 -240 -301z" />
<glyph unicode="3" d="M117 1034l24 -33q150 113 232 113q92 0 154.5 -62.5t62.5 -154.5q0 -88 -111 -170q-57 -43 -153 -94l-109 -58l19 -34q113 55 192 55q92 0 162 -82q72 -84 72 -184q0 -90 -68 -197q-74 -117 -160 -117q-51 0 -65 37q-12 39 -17 43q-27 33 -67 33q-39 0 -65.5 -29.5 t-26.5 -72.5q0 -47 32.5 -79t81.5 -32q188 0 377 174q170 158 170 356q0 231 -240 353q39 43 66 73.5t42 58t21.5 52.5t6.5 55q0 86 -91 176q-94 94 -260 125q-100 -156 -282 -305z" />
<glyph unicode="4" d="M0 494l588 6v-142q0 -152 -6.5 -184.5t-38.5 -83.5q-61 -90 -183 -145l17 -39q41 16 95 45t120 67q92 53 183 87t188 45q-94 39 -134 94q-35 57 -34 168v88h159q-2 14 -2 30v35q0 41 3 92.5t8 116.5q-76 -100 -168 -104l-9 327v15q0 111 33 174t129 135l-368 -6zM160 651 l411 580l11 -576z" />
<glyph unicode="5" d="M229 750q156 -51 240 -103q158 -96 158 -270q0 -264 -340 -377l12 -37q129 29 223 80q61 37 112.5 86t88.5 106.5t56.5 121t19.5 128.5q0 74 -27 136.5t-72 114.5t-107.5 94t-131.5 73q-102 43 -111 49q-41 25 -41 68q0 59 64 80q33 6 55 6l346 4l76 264l-39 10l-25 -61 l-421 -6q-59 -121 -99 -287q-41 -166 -37 -280z" />
<glyph unicode="6" d="M92 287q0 -193 162 -281q68 -35 172 -59l297 268q168 154 168 299q0 238 -283 365q-63 -63 -168 -150l-116 -96l24 -29l111 76q129 -27 202.5 -100.5t73.5 -178.5q0 -100 -63 -170q-61 -70 -148 -69q-109 0 -190.5 88t-81.5 207q0 211 223 477q63 76 109 121 q20 20 77.5 70.5t151.5 136.5l-123 100q-84 -152 -215 -338q-106 -154 -181 -269.5t-118 -197.5q-84 -164 -84 -270z" />
<glyph unicode="7" d="M94 887l39 -15q63 111 105 140q39 27 137 30l465 7l-23 -37q-322 -524 -418 -1028l217 8q2 133 19.5 261t50.5 255q55 213 100 315q20 47 77 158t149 291l-602 -6l-35 -2q-76 -2 -139 79q-8 -59 -31 -136t-58 -175z" />
<glyph unicode="8" d="M66 373q0 -170 221 -269q172 -78 227 -131q45 86 227 213q74 49 115 88q100 92 100 228q0 115 -88 188q-45 35 -217 101q119 72 164 124t45 113q0 137 -203 211q-172 64 -221 117q-16 -23 -45 -49.5t-69 -59.5q-117 -90 -154 -129q-78 -90 -78 -192q0 -178 174 -271 q-41 -35 -70.5 -59.5t-46.5 -40.5q-82 -80 -81 -182zM188 1026q0 78 88 135q35 -14 66 -23.5t57 -15.5q166 -43 232.5 -85t66.5 -101q0 -57 -94 -133q-29 8 -53.5 13t-40.5 9q-57 10 -101 22.5t-77 22.5q-143 51 -144 156zM205 463q0 92 100 174q14 -4 197 -49 q59 -14 107 -28.5t85 -31.5q123 -53 123 -133q0 -94 -137 -198q-61 23 -110.5 38t-86.5 25q-45 14 -79.5 25.5t-59.5 21.5q-139 61 -139 156z" />
<glyph unicode="9" d="M125 770q0 -207 307 -338l24.5 24.5t18.5 16.5q80 74 98 96l125 111l-26 31l-99 -78q-135 27 -210.5 101.5t-75.5 174.5q0 86 61.5 151.5t143.5 65.5q115 0 209 -94t94 -209q0 -164 -201 -426q-35 -47 -63.5 -81.5t-51.5 -59.5q-18 -20 -71.5 -76.5t-143.5 -148.5l98 -72 q4 8 8.5 14.5t8.5 10.5l92 141q39 59 67.5 102t49.5 72q199 291 276 442q76 150 76 252t-69.5 178t-256.5 177l-206 -179q-141 -123 -162 -143q-121 -131 -121 -256z" />
<glyph unicode=":" horiz-adv-x="514" d="M72 158q57 -47 104 -93.5t82 -91.5q72 92 186 185q-57 47 -104 92t-82 92q-76 -96 -186 -184zM72 645q115 -96 186 -186q35 45 81 92t105 94q-57 47 -104 92t-82 92q-76 -96 -186 -184z" />
<glyph unicode=";" horiz-adv-x="514" d="M51 135q88 -10 131 -33q106 -55 107 -161q0 -127 -166 -209l24 -41q315 131 316 354q0 178 -211 297q-80 -96 -201 -207zM70 645q111 -88 186 -186q78 96 186 186q-104 84 -186 184q-39 -51 -86 -97t-100 -87z" />
<glyph unicode="&#x3c;" horiz-adv-x="1257" d="M61 655q0 -6 11.5 -27.5t11.5 -23.5q-4 -117 -3 -195.5t7 -121.5q45 -74 154 -183l30 -24q14 -12 15 -27q0 -6 -7.5 -28.5t-7.5 -24.5t4 -6q23 0 64 47q39 47 58.5 69.5t21.5 24.5q35 33 57.5 52.5t32.5 27.5q39 0 49 -22l4 -31q16 -16 29.5 -27.5t21.5 -15.5 q31 -59 31 -76q-16 -49 -12 -55q29 16 49 53q20 39 55 82t84 92q113 113 178 113q10 0 21 -13v-32q0 -12 -55.5 -92t-67.5 -89q-33 -8 -106.5 -88t-73.5 -110q0 -12 7 -26.5t18.5 -28t23.5 -21.5t25 -8q4 0 20 3t18 3q43 0 89 45q12 18 16 41q59 47 67 47q39 0 74 -37 q-8 -14 -8 -31q2 -4 2 -8t2 -8q55 25 55 53q0 74 -61 74q-63 0 -127 -33q-31 -37 -35 -53q-43 -53 -55 -53q-20 0 -44 27.5t-24 48.5q0 29 107 120q37 33 64.5 56.5t43.5 38.5q39 47 67 83.5t46 61.5q8 10 17.5 38t23.5 75q27 92 27 123q0 29 -27 120v58q-4 35 -39 75 q-8 10 -22.5 25.5t-36.5 38.5q-57 72 -66 90q0 14 137 121q74 58 74 111q0 37 -41 106.5t-74 91.5q-59 37 -106 41q4 -2 -107 -2q-35 0 -159 -108q-102 -90 -117 -117q-41 -96 -49 -144q-2 -2 -2 -47v-16q0 -92 -31 -98q2 2 -31 2q-115 0 -121 69q-20 4 -102 -78 q-35 -35 -62.5 -61.5t-43.5 -42.5q-88 -82 -89 -115zM225 451q6 0 8 8q-4 92 0 239q14 14 23 50q10 23 37 22q2 0 37 -22q33 -20 49 -21q20 0 123 84l37 -4q-8 0 -4 -29q-2 -18 -3.5 -27.5t-1.5 -7.5q1 -1 11 -38q-10 -59 -6 -78q-2 -100 -4.5 -166t-6.5 -94 q-43 -59 -67 -84q6 -6 47 10q-8 -57 -78 -57q-49 0 -164 102q-8 82 -37 113zM688 379v201l14 12q2 117 0 162q-8 57 68 57q49 0 133 -96q57 -68 90 -129q2 -10 19 -74q14 -50 14 -66q0 -47 -25 -67q-164 -135 -202 -135q-53 0 -111 135zM696 938q0 66 4.5 133.5t12.5 138.5 q33 61 63 99q51 25 62 24q49 0 102 -43q8 -8 15.5 -14t11.5 -10l55 -56q33 -55 41 -84v-59q-61 -55 -90 -94q-20 -18 -115 -64q-94 -43 -110 -39h-35q-10 16 -11 23q4 29 0 35q-4 4 -6 10z" />
<glyph unicode="=" d="M109 438h804v152h-804v-152zM109 778h804v150h-804v-150z" />
<glyph unicode="&#x3e;" horiz-adv-x="1036" d="M-121 594q0 -10 2 -23q2 -33 2 -59v-41q2 -207 25 -246q20 -35 78 -92q10 -8 32.5 -26.5t57.5 -47.5q2 -51 3 -70.5t1 -8.5q41 6 86 51l78 78q47 47 57 84q92 70 92 122q0 31 -37 31q-6 0 -51 -45t-76 -45q-39 0 -127 123q-4 88 -7 138t-1 67q-31 190 -31 170q0 14 33 77 q29 -12 56.5 -24t52.5 -23q68 -29 92 -28q33 0 49 10q14 12 27.5 24.5t25.5 24.5q95 94 95 119q0 39 -35 39q-2 0 -11.5 -3t-20.5 -7.5t-21.5 -7.5t-12.5 -3q-10 0 -74 47l-59 45q-47 0 -186 -131q-41 -27 -66.5 -40t-34.5 -17q-82 -37 -88 -61q-12 -76 -6 -183v-18z M346 739q76 -27 76 -61q-4 -8 -12 -21q-4 -90 0 -112v-29q0 -25 -2 -78l-9 -112q-6 -78 -6 -62q0 -74 111 -184q27 -63 28 -74q18 14 43 35.5t58 50.5q27 27 51.5 52.5t48.5 52.5q76 82 86 110q-27 4 -69 -22q-45 -25 -66 -27q-53 -6 -82 96q-18 70 -18 148l8 6q0 182 2 176 q35 41 147 41q45 0 82 27.5t37 64.5q0 41 -47 41q-2 0 -11 -1t-19.5 -3t-20.5 -3t-12 -1q-31 0 -45 18q217 117 217 176q0 39 -25 71t-55 32q-57 0 -226 -100q-20 25 -24 34q14 14 24 82q10 70 19 84q20 43 55 92q29 39 101 86q76 51 114 52q158 0 189 -97l6 -67 q8 -41 30 -45q31 24 31 90q0 37 -31 102q2 6 0 15q-23 23 -55 32q-129 35 -131 35q-125 0 -305 -184q-170 -170 -190 -277q-10 -70 -18.5 -123t-12.5 -88q-29 -55 -46.5 -87.5t-25.5 -43.5zM584 944q0 41 37.5 69.5t83.5 28.5q63 0 63 -51q0 -41 -68 -78q-47 -27 -73 -26 q-43 0 -43 57z" />
<glyph unicode="?" horiz-adv-x="925" d="M41 936l31 -31q162 152 309 152q51 0 96 -16.5t78 -44t51.5 -65.5t18.5 -81q0 -86 -58 -158q-119 -152 -139 -282l35 -11q51 109 164 203q125 104 180 189q51 78 51 174q0 98 -63.5 177t-163.5 105q-49 14 -83 27.5t-56.5 27t-37 31t-26.5 41.5q-139 -176 -184 -221z M262 158q53 -43 100.5 -89t88.5 -96q76 96 186 185q-108 84 -186 184q-82 -98 -189 -184z" />
<glyph unicode="@" horiz-adv-x="1554" d="M84 682q0 -96 23.5 -185t68.5 -168t108.5 -144.5t143.5 -112.5q170 -96 395 -97q156 0 273 45q98 92 171.5 159t123.5 114q-225 -141 -332 -182q-109 -43 -246 -43q-272 0 -446 174q-176 176 -177 440q0 260 179 436q180 178 442 178q246 0 403 -147q156 -143 156 -381 q0 -168 -76 -283q-74 -115 -182 -114q-63 0 -117 78q-51 78 -51 180q0 180 172 295q-104 41 -254 166l-67 -50l-43 -30q-178 -127 -250 -219q-72 -90 -72 -195q0 -188 223 -350q55 43 176 178q66 -111 105 -145q45 -35 113 -35q133 0 260 129q166 168 166 407 q0 262 -189 439q-186 174 -473 174q-307 0 -518 -205q-209 -207 -209 -506zM551 682q0 147 186 272l215 -143l-8 -16l-22 -54q-18 -55 -25 -79q-49 -168 -145 -265q-111 78 -156 142.5t-45 142.5z" />
<glyph unicode="A" horiz-adv-x="1273" d="M0 436q0 -45 59 -45q6 0 29 4t25 4q74 0 151 -84q80 -86 82 -155q18 -29 19 -47q0 -2 -1.5 -12.5t-3.5 -28.5q-2 -16 -3 -27.5t-1 -15.5q0 -44 41 -44q5 0 11 1q20 27 57 102q16 31 31.5 58.5t31.5 50.5q31 41 77 88t110 100q29 23 63 25q10 -41 16.5 -66t10.5 -35 q-2 -10 -1 -26.5t4 -33t6 -31.5t3 -21q16 -61 29.5 -106.5t23.5 -74.5q37 -16 45 -14q17 6 17 37q0 29 -33 96q-31 74 -31 109l-45 465q4 10 9.5 31.5t13.5 54.5q0 35 -6 53q8 92 12 152.5t4 95.5q0 63 -2 71q27 100 27 174q0 61 -27 195q-37 193 -76 193q-47 0 -47 -50 q0 -10 17 -32q18 -100 39.5 -178t21.5 -107q0 -12 -10 -39q-150 158 -240 205q-16 4 -51 4q-74 0 -123 -25q-78 -39 -122 -59.5t-54 -24.5q-78 -29 -127 -116q-45 -78 -45 -168q0 -102 31 -135q18 -18 135 -66q133 -53 133 -80q0 -49 -43 -63q-25 -10 -100 -19 q-66 -10 -97 -18q20 -51 99 -51q135 0 211 94q49 61 49 133q0 23 -31 131q-78 76 -117 92q-135 51 -135 111q0 14 10.5 28.5t27.5 26.5t36.5 19.5t38.5 7.5q100 0 196.5 -65.5t118.5 -162.5q59 -115 59 -180q0 -154 -155 -297q-152 -141 -309 -151q-2 0 -22.5 -8.5 t-25.5 -8.5q-2 0 -11 1t-19.5 2t-19.5 2t-11 1q-25 0 -55.5 -15t-30.5 -32zM440 528q229 147 297 236h37q-10 -16 -10 -51q0 -23 6 -65.5t6 -65.5q0 -68 -14 -95q-18 -18 -39 -26q-59 -39 -102 -69t-72 -52q-45 76 -71.5 122t-37.5 66zM874 733q0 -350 58 -477 q18 -12 35 -84q18 -84 26 -94q72 24 72 64q0 6 -2 12q20 6 31 18q10 14 17 24.5l11 16.5l70 63q63 57 63 82q0 47 -43 48q-4 0 -51 -21q-26 19 -26 98v6q-39 102 -39 148v399q0 18 10 15q20 178 30.5 271t14.5 108q23 41 54.5 94t70.5 116q0 29 -47 29q-37 0 -137 -110 q-29 -23 -48.5 -35.5t-29.5 -16.5q-33 -14 -66 -24q-35 -23 -37 -78q-10 -147 -24 -205q2 -78 3 -124t-1 -56l-8 -174q-5 -115 -7 -115v2z" />
<glyph unicode="B" horiz-adv-x="1820" d="M68 1057q0 -2 10 -33v-92q16 -92 82 -168q76 -88 159 -88q211 0 211 184q0 37 -43 129q-41 94 -41 103q0 27 27 51t55 24q115 0 115 -100l-6 -37q-4 -23 0 -37l25 8q37 63 36 80q0 53 -57 109q-57 57 -113 57q-147 0 -147 -170q0 -45 92 -229q-27 -49 -41 -72l-96 -22 q-72 0 -135 86q-53 76 -54 131q0 18 3 24l-15 21q0 147 158 287q152 133 303 133l43 -17q37 -14 55 -14q66 -53 105 -87t53 -48q36 -134 36 -183q0 -7 -1 -12q0 -10 2 -24.5t5 -28.5t6 -26.5t3 -16.5q0 -63 -51 -164q-18 -18 -31 -20q-68 -121 -147 -172q-141 -90 -205 -113 q-98 -33 -169 -58.5t-118 -45.5q-27 -12 -65 -58q-37 -43 -37 -69q0 -16 17.5 -31t35.5 -15q10 0 88 97q63 51 139 51q45 0 123 -31q55 -35 78 -57q47 -29 81 -52.5t56 -43.5q59 -53 106.5 -97.5t82.5 -76.5q14 -14 47 -15q12 0 34.5 2l45 4l45 4t35.5 2q31 0 92 -6t92 -6 q98 0 207 35q57 18 141 100q51 47 76 105q8 16 14 40.5t15 59.5q22 108 22 133q0 12 -24 47q2 4 2 27q0 74 -86 197q-35 45 -69 88t-69 88q18 18 82 53q106 55 123 76q41 47 41 123q0 66 -78 131q-43 29 -76.5 52t-56.5 40q-26 17 -26 58q0 15 14 52t14 50q0 35 -31 34 q-39 0 -120 -81q-12 -12 -26.5 -25.5t-27 -26l-21.5 -21.5l-11 -11q-96 -59 -154 -74l-31 -21q-20 0 -86 84q-23 31 -44 58.5t-38 52.5q-43 35 -129 72q-88 36 -136 36h-3q-100 0 -244 -77q-123 -66 -211 -154q-29 -29 -96 -174t-67 -178zM651 502q16 29 84 67 q29 14 54.5 25.5t46.5 21.5q295 137 352 138q72 0 110.5 -18.5t85.5 -69.5q104 -111 121 -168q23 -84 23 -158q0 -45 -33 -109q-60 -118 -154 -118h-2h-51q-76 0 -151 30q-20 16 -33.5 27.5t-22.5 19.5q-27 14 -48 25.5t-38 20.5q-63 57 -148 123.5t-196 142.5zM1081 805 q55 229 74 276q-4 55 -5 92t-3 56q-4 23 49 57q51 37 76 37q31 0 74 -63q45 -63 131 -115q18 -35 18 -84q0 -82 -195 -178q-166 -78 -219 -78z" />
<glyph unicode="C" horiz-adv-x="1464" d="M-78 244q8 -16 13.5 -28.5t9.5 -20.5q4 -6 15 -17.5t25.5 -22t28 -17.5t23.5 -7h37q23 0 26 2h15q2 0 37 11l34 10q29 0 101 -41q41 -25 65.5 -37.5t28.5 -14.5q172 -63 303 -63h16t33 2h51q59 0 154 57q156 59 260 158q25 23 47.5 42t44.5 36q8 2 10 20l3 15 q57 51 57 67q0 14 -19 33q-43 -10 -53 -22q-12 -49 -18 -60q-23 -41 -62 -61q-94 -55 -151 -103q-99 -28 -175 -28h-5q-92 0 -252 53q-174 57 -187 131q86 82 138.5 137t74.5 84q78 106 78 230v6q0 2 7 21.5t7 25.5q0 47 -36 229q6 88 6 137q0 47 -6 52q33 81 60 81h1 q61 0 115 -71q8 -10 21.5 -40t29.5 -77q27 -86 45 -92q33 45 33 61q0 29 -64 129q-27 41 -43 68t-26 41q-18 18 -30.5 31.5t-19.5 21.5q0 23 48 39q33 12 63 12q51 0 94 -18q27 -6 117 -96t90 -113q0 -8 -49 -66q-40 -50 -40 -76q0 -4 1 -8h6q51 0 154 93q233 174 233 213 q0 27 -30 43l-43 -23q-27 0 -109 78q-47 45 -75.5 69.5t-39.5 32.5q-78 37 -162 37q-31 0 -122 -33q-47 -16 -78 -28.5t-47 -20.5q-35 -23 -65 -44t-52 -38q-61 -12 -99 -12h-10q-55 -8 -114.5 -35.5t-108.5 -50.5q-115 -55 -213 -164q-104 -113 -135 -229 q-43 -170 -43 -287q0 -90 29 -201q41 -143 127 -260q0 -37 -78 -37q-59 0 -78 27q-23 57 -31 86q-4 6 -37 6zM205 852q0 4 1 11t3 18l6 30q4 20 6 32.5t4 17.5q18 137 146 274q133 139 268 139h4q3 -12 3 -17q0 -2 -1 -3q-70 -98 -86 -131q-23 -53 -37 -146q-18 -41 -20 -43 q-4 -45 -6 -108.5t-2 -147.5l-5 -12q-8 -8 -8 -23q0 -31 19 -81q18 -53 18 -80q0 -51 -31 -119q-41 -86 -96 -86q-18 0 -33 24q-47 82 -76.5 139.5t-43.5 92.5q-33 86 -33 219z" />
<glyph unicode="D" horiz-adv-x="2056" d="M57 1354q0 -35 64 -35q43 0 101.5 5t133.5 15q98 2 166 2t103 -4q123 8 197.5 13.5t105.5 7.5q111 8 138.5 12t-26.5 4q31 0 78 -24q-109 -121 -129 -156q-170 -119 -221 -180v-25l72 15q24 -62 24 -85q0 -7 -2 -10q31 -74 31 -123t-23 -81q-59 -84 -61 -93 q-75 -45 -75 -76q0 -3 1 -6l408 310h1q20 0 66 -74q16 -29 29.5 -54.5t22.5 -47.5q86 33 133 51t61 22q16 10 17 39q0 6 -25 35q-20 27 -25 35q-14 76 -18 119q-188 -82 -225 -82q-45 0 -64 75q-6 23 -12 50.5t-10 56.5q-10 63 -16.5 95t-6.5 36l25 41q12 43 27.5 70.5 t40 45t59 23.5t84.5 6q117 0 188 -49q96 -29 119 -45q20 -29 31 -43q104 -92 118 -129q37 -88 59.5 -142t32.5 -75q25 -78 25 -217q0 -55 -35 -178q-16 -59 -32.5 -102.5t-32.5 -67.5q-115 -178 -361 -178h-30q-82 0 -381 157q-295 160 -324 160q-86 0 -149 -24 q-41 -16 -138 -78q-155 -99 -155 -129q0 -2 3 -16.5t3 -18.5q41 20 67 39q84 47 146 47q119 0 174 -27q68 -35 117 -59.5t79 -40.5q39 -20 99.5 -47t146.5 -62q215 -84 291 -84q92 0 225 86q104 72 185 164q51 63 110 191q59 129 74 211q37 204 37 231q0 47 -19 139 q-18 94 -18 142q-12 16 -39 90q-16 45 -47 82q-150 170 -309 233q-134 52 -327 52q-26 0 -54 -1l-529 -18l-213 6q-45 2 -73 2q-27 0 -41.5 2t-10.5 2h25q-16 0 -47 10v37q0 8 24.5 45t24.5 43q0 16 -18 35q-90 -133 -101 -151l-53 -84q-27 -37 -44 -61.5t-28 -37.5 q-45 -57 -45 -69z" />
<glyph unicode="E" horiz-adv-x="1699" d="M-6 -1061l6 -26h6l-6 30zM49 297q14 -43 43 -43q4 2 8 2t9 2q111 16 204 86q104 76 123 176l2 8q2 9 5 20t4.5 21.5t1.5 16.5q0 12 14 41q14 31 14 37q-2 4 -6 8l-8 8q-14 14 -14 104v109q0 4 -1.5 30.5t-3.5 76t-3 76t-1 30.5q0 2 -7 22.5t-7 26.5q0 43 63 156 q23 39 38.5 66.5t25.5 43.5q14 6 21.5 9.5t11.5 5.5q23 12 96 102q76 89 76 109q0 12 -19 22q-41 -4 -82 -53q-27 -31 -42 -48.5t-19 -21.5q-51 -35 -77.5 -53t-31.5 -23q-80 -68 -118 -116q-31 -16 -78 -74q-47 -55 -55 -92q-25 -92 -25 -172l57 -518q0 -170 -157 -170 q-27 0 -54 6q0 -2 -4 -17.5t-4 -19.5zM100 74q0 -43 35 -43q63 88 105 114q53 39 149 39q47 0 289 -75q23 -10 43 -21.5t39 -26.5q223 -63 252 -63h16t35 2h49q6 0 23.5 10t19.5 10q96 20 272 162q86 70 154 124t119 95q8 32 12 50q-47 0 -51 -2q-281 -256 -463 -256 q6 0 -22.5 3t-94.5 7q-41 2 -102 45q-16 4 -28.5 8t-18.5 6q-57 25 -95 41t-59 25q-16 16 -116 41q-102 20 -134 41q123 94 187 133q203 127 225 176q8 18 12 98q4 55 23 62q74 -10 168 -37q125 -37 125 -78q-10 -16 -18.5 -31.5t-18.5 -32.5q-35 -63 -33 -75h2q42 0 100 94 q10 12 21.5 24.5t26.5 26.5q2 4 2 25q225 238 268 266q8 20 12 31q-2 10 -4 17t-6 15q-29 -6 -104.5 -69.5t-81.5 -63.5q-45 0 -93 21q-59 25 -59 61q0 8 98 76q100 68 113 88q25 39 25 72q-2 4 -2 10t-3 14q-27 51 -49 90t-41 68q0 14 21 43q10 16 15 26.5t7 14.5l-12 4 q-16 4 -35 4l-428 -215q-33 14 -41 33v31q0 51 76 102q73 49 125 49h4v55q-43 18 -57 19q-12 0 -205 -131q-102 -70 -174 -118t-115 -75q-8 -25 -4 -35q20 -12 35 -12q4 0 20.5 3t18.5 3q14 0 33 -63v-287q1 -2 1 -5q0 -27 -59 -60q-61 -37 -59 -62q18 0 54 7t52 7l11 -106 q-23 -94 -25 -96q-57 -90 -207 -209q-72 -57 -121 -95t-73 -59q-180 -137 -181 -190zM950 1087l19 191q100 82 184 82q51 0 90 -37t39 -88q0 -35 -63 -123q-188 -86 -228 -86q-41 0 -41 61z" />
<glyph unicode="F" horiz-adv-x="1609" d="M102 872q68 -43 144 -43q125 0 125 95q0 2 -6 30q-10 -10 -60 -43q-36 -24 -61 -24h-2q-137 0 -138 143q0 29 66 76t98 47q31 0 58 -10q123 -53 151 -96q29 -92 31 -138q6 -10 11 -20t9 -19q-10 -20 -23 -40.5t-28 -43.5q-18 -29 -42.5 -74.5t-57.5 -109.5 q-20 -27 -49 -41l-64 -33q-43 -23 -65 -39q-40 -26 -62 -26h-2q-35 0 -45 -10q10 -53 64 -54q2 0 12 1t20.5 3.5t19.5 3.5t11 1q14 0 69.5 -80t71.5 -90q6 -20 -10 -52q-23 -41 -31 -67q45 20 146 112q57 51 94 83t57 44q70 55 123 99q23 0 27 -35q2 -33 3 -56.5t1 -39.5 q12 -65 12 -106q0 -15 -2 -27q8 -8 8 -17q0 -33 -16 -88q2 -8 2 -16q0 -26 -18 -62l-68 29q-121 31 -164 31q-106 0 -145 -33l-74 -57q-45 -37 -55 -72q-4 -10 -7 -19.5t-5 -13.5q-12 -31 -13 -39q0 -66 86 -117q82 -47 148 -47q166 0 266 119q23 20 51.5 42t61.5 44 q41 -20 79.5 -40.5t77.5 -43.5q80 -35 129 -35h99q109 0 219 52q143 63 143 167q0 25 -14 46v65q0 43 -17 72q-72 98 -141 98q-244 0 -244 -117q0 -33 21.5 -66.5t46.5 -33.5q47 0 47 33q0 2 -1 11t-2 19.5t-2 19.5t-1 11q0 51 88 51q154 0 154 -139q0 -72 -58 -131 q-57 -61 -129 -66q-10 0 -49 -12q-37 -12 -45 -12h-125q-43 0 -129 35q-80 33 -104 67q14 33 22 53.5t12 30.5q10 10 18.5 20.5t16.5 18.5q27 91 36 199q6 74 6 160q0 38 -1 77q-4 74 -6 95q-1 12 -1 23q0 39 11 63q8 23 43 57q33 33 49 33q37 0 115 -25q73 -24 114 -24h3 q27 0 45 24q164 223 164 238q0 18 -23 24q-172 -47 -205 -47l-34 10q-31 12 -37 13q-39 0 -90 -62q-37 -41 -74 -77.5t-74 -65.5q-29 51 -31 74q8 37 10.5 62.5t0.5 41.5q-8 66 -25 107q-4 33 -7 50t-3 21q0 18 5 53t5 52v49q0 43 27 94q27 55 63 55q20 0 103 -106 q29 -39 50 -60.5t32 -29.5q47 -29 112 -29q35 0 137 84q100 82 111 121q-20 20 -37 20q-12 0 -55 -14q-43 -12 -55 -12q-47 0 -117 82t-70 129q0 8 23 37q25 27 24 32q0 43 -43 43q-8 0 -157 -108q-61 -45 -104.5 -78t-69.5 -55q-193 -162 -193 -373q0 -80 20 -119 q-10 -10 -15 -14t-7 -6q-16 12 -18 20q-23 117 -119 223q-109 117 -217 117q-109 0 -228 -115q-114 -114 -114 -221q0 -76 75 -121zM334 -53q41 41 67 53q45 18 111 18q70 0 215 -69q10 -17 10 -33q0 -14 -32 -59q-92 -127 -234 -127q-4 0 -41 6q-35 6 -41 6q-43 0 -70 51 q-24 41 -24 85q0 30 39 69zM379 530q0 16 102 109l129 117q51 78 80 127t37 65q18 -59 39 -80v-288q0 -20 -104 -115q-100 -94 -123 -94q-16 0 -88 71.5t-72 87.5z" />
<glyph unicode="G" horiz-adv-x="1691" d="M72 786q0 -39 6 -84t16 -98q29 -129 58 -172q109 -160 225 -268q49 -33 86 -55.5t61 -34.5q14 -8 47 -17.5t84 -23.5q104 -25 136 -25h108q16 8 23 12q113 8 153 13q168 14 350 178q121 109 144 199q51 69 51 202v15q0 10 -2 26q-2 18 -2 29v12q-8 41 -23 70 q-37 57 -51 102q-92 111 -149 131q-61 25 -66 35q14 18 23 21q23 31 44 56.5t38 47.5q41 53 41 103q0 39 -33 110q-35 78 -37 113q35 27 63.5 49t49.5 43q-27 45 -66 45q-96 0 -203 -88q-104 -90 -104 -182q0 -31 47 -115q16 -29 28.5 -50.5t20.5 -31.5q4 -23 6 -41t2 -31 q0 -47 -121 -180q-121 -135 -165 -137q-23 168 -80 311q-16 39 -16 80q0 11 1 21q-39 33 -39 49q0 14 21 41q-23 23 -23 34q0 20 33 60q8 23 16.5 49.5t24.5 26.5q25 0 49.5 -31t24.5 -55q0 -14 -14.5 -49t-14.5 -46q0 -4 4 -23.5t4 -21.5h41q63 94 64 140q0 18 -84 145 q10 10 69 45q47 29 60 47q-8 33 -55 33q-35 0 -107 -39q-70 -39 -100 -39q-16 0 -39 3t-51 7q-59 12 -86 13q-33 0 -195 -74q-4 -10 -16 -18q-70 0 -199 -181l-92 -129q-55 -80 -64 -143q-14 -94 -20 -152.5t-6 -81.5zM305 784v191q0 23 27 84q24 57 24 84v6q49 57 50 119 q47 68 96 110q25 20 116 62q94 41 119 41q6 0 31 -5.5t29 -5.5v-38q0 2 -1 2q-9 0 -69 -98q-70 -115 -70 -183q0 -4 -1 -15.5t-3 -29.5t-2 -29v-12q0 -51 23 -129q16 -57 26.5 -88t12.5 -37q4 -20 37 -90q35 -74 34 -78q0 -61 -45 -131q-29 -45 -47 -76.5t-28 -52.5 q8 -18 20 -18q31 0 102 92q25 35 41.5 57.5t26.5 36.5q51 53 89 94t67 68q23 10 40 17t31 11q20 14 33.5 22.5t22.5 12.5q45 10 80 10q33 0 55 -18q41 -35 68.5 -57.5t41.5 -36.5q29 -47 29 -133q0 -201 -145 -316q-131 -106 -338 -106q-98 0 -303 86q-10 33 -50 59 q-53 33 -61 49q-8 23 -13 37.5t-9 24.5q-23 29 -46.5 57.5t-48.5 54.5q-49 119 -61 173q-29 119 -31 122z" />
<glyph unicode="H" horiz-adv-x="1447" d="M39 135q0 -31 37 -31q162 98 252 99q41 0 127 -29q90 -29 125 -29q27 0 141 140q109 133 127 176q-16 16 -33 16q-8 0 -78 -59q-66 -57 -88 -64q-45 10 -73.5 16.5t-43.5 10.5q-63 27 -63 82q0 68 141 246q12 16 54.5 30.5t72.5 14.5q270 0 336 -111l35 -35 q12 -10 18.5 -16t8.5 -8q79 -137 79 -194q0 -13 -8 -30q-2 -2 0 -51q0 -18 -28 -116q-12 -41 -64 -99l-82 -94q-23 -31 -76 -74q-61 -49 -90 -49h-37q-45 0 -112 29q-72 31 -92 67q10 16 77 52q68 36 85 36h1q8 0 50 -24q39 -25 51 -25t25.5 14.5t13.5 26.5q0 31 -32 58.5 t-62 27.5q-8 0 -91 -30q-80 -27 -90 -37q-18 -16 -31.5 -26.5t-21.5 -18.5q-10 -6 -53 -7q-27 0 -66 13q-101 28 -122 28h-1q-133 0 -163 -30q-76 -76 -76 -144q0 -49 69 -94q70 -49 119 -49q39 0 104.5 45t73.5 45q33 0 136 -45q66 -14 135 -14q8 4 32 -11l8 4q7 3 15 7 t16.5 6t10.5 2q78 4 204 121q49 47 89 88t69 80q31 35 54.5 60.5t39.5 41.5q61 72 82 139q14 43 15 160q0 39 -43 184q-18 63 -56 119l-69 107q-133 74 -209 92q-98 24 -216 24h-10q-94 0 -167 -141q-92 -176 -160 -215l-4 121q16 137 18 180q8 63 12.5 105.5t8.5 64.5 q10 86 16 133t10 60q-2 2 -2 22q0 76 70 76q84 0 110 -33q10 -20 19.5 -35.5t13.5 -25.5q25 -47 25 -49q0 -47 -51 -68q-68 -31 -76 -45q14 -37 33 -37q2 0 10 -3l16 -6t16 -5l7 -2q35 0 71 69q35 63 35 101q0 25 -43 108q-18 35 -76 62q-53 27 -69 57q20 12 39 12 q33 0 125 -39q27 -16 43 -30q74 -18 153 -76q35 -23 94 -23q4 0 21.5 6.5t19.5 6.5q51 0 166 65.5t115 112.5q0 16 -20.5 35.5t-36.5 19.5q-18 0 -57.5 -20.5t-55.5 -20.5q-43 0 -289 72q-172 51 -172 67q0 6 31 7q-102 0 -121 -9q-35 -16 -129 -92q-14 -25 -18 -41 q-47 -31 -92.5 -59.5t-88.5 -54.5q-115 -72 -168 -125q-35 -35 -43 -111q-16 -43 -28 -217q-4 -57 -6 -112.5t-2 -110.5q0 -59 -3.5 -104.5t-7.5 -78.5q10 -82 14 -138q3 -39 4 -66q0 -12 -1 -21q-2 -14 -11.5 -43t-29.5 -72q-37 -86 -37 -98zM203 -92q0 37 30 59 q29 16 58 17q18 0 77.5 -35t59.5 -51q0 -31 -47 -56q-39 -20 -74 -20h1q0 3 -83 31q-23 35 -22 55zM236 307q-1 3 0 6q0 20 30 56q49 51 51 63q18 51 19 111q0 68 -14 112v355q0 4 7 24.5t7 22.5q10 55 15 101t7 83q55 80 80 123l11 -53q-41 -158 -50 -246q4 -14 6.5 -22.5 t4.5 -12.5q2 -14 -2.5 -56t-14.5 -114v-178q0 -16 1 -36.5t3 -49.5q6 -66 6 -86q0 -104 -79 -156z" />
<glyph unicode="I" horiz-adv-x="1611" d="M53 221q0 -49 64 -88q57 -35 108 -35q18 0 264 66q190 -96 218 -105q125 -59 235 -59h68q4 0 67 23q172 45 266 139q131 131 162 246q8 16 17.5 33.5t19.5 35.5q6 57 10.5 91t6.5 44l-197 658q8 31 8 71q31 76 51 109q2 8 62 68q61 57 61 75t-37 41q-33 20 -57 21 q-37 -25 -51 -35q-131 -84 -262 -84q-111 0 -193 29q-295 106 -383 106q-115 0 -252 -92q-149 -99 -149 -206q0 -32 9 -66.5t25.5 -67.5t38 -60.5t46.5 -43.5q49 -16 78.5 -27.5t39.5 -15.5q100 -37 101 -82q0 -18 -11.5 -35t-28 -31t-39 -22.5t-42.5 -8.5q-35 0 -68 45.5 t-43 45.5q-12 0 -35.5 -16.5t-23.5 -26.5q0 -43 59 -84q49 -30 88 -30q9 0 17 1q61 12 157 55q25 10 54 74q28 66 28 94q0 6 -47 76t-51 72q-119 72 -227 90q-41 23 -41 51q0 31 13 56.5t36.5 45t53.5 30.5t61 11l167 -28q53 -20 88 -32.5t52 -21.5q143 -53 186 -53h64h-1 q0 5 318 84q-4 -23 -49 -68q-23 -23 -36 -38t-17 -23q-14 -31 -15 -129q0 -12 3 -45t8 -86q23 -18 34 -39q2 -20 0 -29q6 -57 35 -131q2 -4 55 -123q102 -227 103 -274l-4 -16q-4 -12 0 -35q0 -25 -17 -25q-92 213 -342 408q-12 14 -16 26l100 109q33 33 33 96q0 23 -10 74 q-20 20 -38.5 37.5t-35.5 34.5l-12 12t-14 12q-63 51 -125 51q-102 0 -162 -77q-35 -47 -76 -179q2 -10 -4 -41q-6 -35 -6 -43q0 -14 16 -63q16 -45 17 -62q0 -8 -11 -18q-2 0 -11 -1t-19 -1t-20.5 -1t-12.5 -1q-45 0 -133 16q-96 18 -131 19q-39 0 -133 -56 q-91 -49 -91 -86q0 -4 -4 0q-2 -2 -2 -4q0 -100 25 -139q35 -53 125 -53q145 0 141 90q-23 18 -39 18q-14 0 -49 -20.5t-47 -20.5q-55 0 -70 37q4 10 -24 58q0 57 104 92q71 22 140 22h6q43 0 116.5 -20.5t116.5 -20.5q4 0 25.5 3t23.5 3q109 0 207 -108q76 -47 131 -83 t92 -58q25 -16 62 -82q37 -68 37 -95q0 -72 -68 -110q-53 -33 -131 -33q-166 0 -217 70q-96 35 -117 65q45 39 143 39q12 0 29 -3t32 -8t26.5 -11t15.5 -13q-47 -29 -47 -45q0 -33 30 -41q25 0 70 35q45 33 45 62q0 86 -192 86q-117 0 -199 -31q-33 -12 -35 -14 q-86 29 -142 46t-85 25q-188 0 -246 -28q-29 -16 -74 -68q-47 -53 -47 -78zM123 227q0 14 10 25l37 31q37 14 84 14q18 0 84 -27q64 -27 82 -37q-6 -12 -27 -24q-57 -39 -147 -39q-123 0 -123 57zM791 1044q0 25 14 68q14 12 26.5 21.5t22.5 17.5q47 29 59 29q57 0 117 -50 q57 -45 57 -106q0 -35 -45 -92q-43 -59 -73 -60q-27 0 -90 52q-88 70 -88 120z" />
<glyph unicode="J" horiz-adv-x="1611" d="M53 -16q0 -55 58 -99q57 -45 114 -45q37 0 264 76l168 -94q168 -94 287 -94h68q4 0 13 3t20.5 7t20.5 8t11 6q178 53 266 160q135 160 162 283q25 57 39 77q4 61 8.5 101.5t6.5 56.5l-197 768q4 29 6 49.5t4 30.5q29 86 49 127q4 10 66 78q59 66 59 90q0 12 -10 23.5 t-24.5 21.5t-31 16t-28.5 6q-10 0 -49 -32q-119 -100 -266 -101q-119 0 -193 29q-301 125 -383 125q-123 0 -262 -114.5t-139 -233.5q0 -70 33 -148q37 -88 86 -125q98 -45 120 -51q98 -47 99 -98q0 -18 -11.5 -37.5t-30 -35t-40 -25t-39.5 -9.5q-33 0 -66 52q-31 53 -43 53 q-6 0 -16 -6t-20.5 -14.5t-17.5 -17.5t-7 -15q0 -51 57 -97q46 -37 86 -37q11 0 21 3q78 20 157 65q23 12 54 90q28 72 28 103q0 10 -43 88q-20 39 -33.5 60.5t-19.5 27.5q-55 43 -108 65q-37 16 -121 37q-41 25 -41 59q0 70 48 117t118 47h-1q0 -2 166 -30q53 -23 88 -38.5 t52 -23.5q137 -61 186 -61h64l317 94q-2 -33 -47 -74q-43 -53 -55 -71q-14 -31 -15 -154q0 -12 2 -33.5t3 -44t3.5 -43t2.5 -33.5q23 -14 38 -41q4 -25 -4 -32q4 -45 14.5 -88t26.5 -84q49 -127 80 -203q74 -188 74 -242l-4 -18q-2 -2 -2 -19q0 -18 2 -22q-2 -27 -19 -27 q-92 244 -342 471q-12 18 -16 35q133 152 133 236q0 14 -4 42.5t-4 43.5q-59 68 -98 110q-61 63 -129 64q-104 0 -162 -93q-37 -57 -76 -206q4 -18 -2 -50q-8 -35 -8 -51q0 -20 16 -76q18 -53 19 -67q0 -12 -13 -21q-2 0 -11 -1t-19.5 -3t-19.5 -3t-11 -1q-49 0 -133 21 q-82 20 -131 20q-47 0 -138 -63q-88 -65 -88 -99q0 -6 -4 -2q-2 2 -2 -6q0 -104 23 -153q33 -70 127 -70q143 0 141 106q-18 20 -39 21q-6 0 -20 -8l-27 -17q-41 -23 -47 -22q-55 0 -70 45q0 4 -4 14t-8 20.5t-8 19.5t-4 13q0 61 96 103q76 31 152 31q39 0 116 -25 q76 -25 117 -25q4 0 25.5 2.5t23.5 2.5q86 0 158 -66q27 -31 51 -57q92 -68 146.5 -109t76.5 -55q10 -10 25.5 -36t36.5 -65q39 -76 39 -104q0 -70 -68 -119q-59 -43 -135 -43q-57 0 -119 21q-78 25 -98 61q-94 33 -117 70q53 47 143 47q12 0 29 -4t32 -11.5t26.5 -15.5 t15.5 -16q-47 -23 -47 -39q0 -37 30 -49q25 0 70 39t45 63q0 102 -192 103q-119 0 -199 -39q-33 -16 -35 -19q-70 25 -126 46.5t-101 37.5q-195 0 -246 -31q-27 -14 -74 -77.5t-47 -83.5zM123 -10q0 10 12 20l35 37q55 16 84 16q14 0 82 -28q29 -12 50.5 -21.5t33.5 -15.5 q-18 -31 -70.5 -52.5t-103.5 -21.5q-123 0 -123 66zM795 934q0 37 12 78q2 14 49 49q45 33 62 33q61 0 114 -62q55 -62 55 -123q0 -35 -45 -104q-43 -72 -73 -72q-23 0 -90 62q-84 78 -84 139z" />
<glyph unicode="K" horiz-adv-x="1267" d="M20 139q0 -31 33 -82q33 -49 62 -49q10 0 20 10l10 9q10 20 15.5 32.5t7.5 20.5q4 18 55 33q51 18 76 18q49 0 199 -88q39 0 108 82q45 53 76 85t47 42l41 33q35 -55 58.5 -91t33.5 -53q69 -110 156 -110h2q43 0 113 119q63 104 77 165q-8 8 -22 9q-4 0 -43 -25 q-41 -23 -62 -23q-55 0 -108 115q-35 76 -45 129q-16 84 -58 135q-84 100 -96 121q-12 23 -90 53q-76 33 -84 52q12 23 92 77q46 34 46 66q0 5 -1 10q14 14 15 27q0 6 -5.5 21.5t-12.5 31.5t-16 31.5t-15 21.5q-33 33 -33 99v67q-29 -18 -178 -159q-94 -88 -146 -91 q-14 43 -14 82q0 145 51 230q39 68 143.5 141.5t178.5 73.5q88 0 129 -11q14 -8 21 -11t9 -5q51 -2 78 -10q55 -14 120.5 -80t92.5 -121q0 -47 12 -123l11 -63q0 -88 -45 -152q-51 -76 -134 -76q-2 0 -38 11q-35 12 -39 12q-16 0 -33 -10q4 -72 80 -72h41q117 0 182 105 q53 90 53 215q0 74 -28 165q-35 104 -84 138q-29 76 -154 116q-96 31 -197 31q-150 0 -213 -20q-109 -35 -215 -131q-94 -80 -137 -113q-39 -39 -84 -137q-4 -33 -9 -65t-13 -66q-9 -69 -11 -169q-1 -55 -1 -121q0 -52 1 -110l-45 -73q-31 -53 -30 -68h55q16 0 22 -12 q-4 -74 -6 -107q8 -63 12.5 -98t4.5 -39q0 -14 -23 -82q-31 -43 -51 -63q-20 -33 -21 -56zM221 272q16 29 29.5 56.5t25.5 50.5q29 55 37 94q8 78 11.5 136.5t5.5 99.5q31 82 159 82q53 0 111 -46q49 -57 82 -110l72 -277q-16 -4 -78 -47q-66 -43 -72 -43q-8 0 -78 39 q-72 41 -116 41q-33 0 -105 -39q-67 -37 -82 -37h-2zM326 922q0 51 35.5 91t84.5 40q23 0 60 -25t37 -45q0 -43 -84 -92l-131 -62q-2 -2 -2 93z" />
<glyph unicode="L" horiz-adv-x="1259" d="M-27 88q0 -35 35 -35q27 0 90 88q70 100 80 107q39 37 74 55q39 57 51 133q-2 37 -4 61.5t-4 37.5v12q0 12 2 32.5t3 37t1 26.5q2 94 3 156.5t1 97.5q2 70 2 109.5t-2 48.5q20 12 21 26q0 150 16 199q29 80 160 186q4 -16 -25 -57q-33 -45 -37 -57q-4 -14 -13 -48 t-21 -87q-10 -45 -16.5 -79t-10.5 -57q-4 -25 -10 -28q-2 2 -2 18q0 -10 6 -16l4 -4q-2 -41 -4 -63.5t-4 -29.5l-7 -8q-8 -8 -8 -18q0 -4 8 -19q4 -152 6 -257v-54q0 -68 -3 -115q16 -43 24 -100l-178 -186q-115 -121 -135 -195l43 -6q129 139 162 139q72 0 75 -4l78 -37 l158 -67q104 -43 164 -43q96 0 141 39q41 35 76 68.5t67 66.5q10 27 74 100q55 70 57 113q-2 2 -16 2q-16 0 -33 -23q-20 -37 -28 -39q-123 -90 -142 -98q-78 -31 -139 -31q-35 0 -90 27q-61 29 -82 49q-18 10 -40.5 20.5t-51.5 20.5q-141 33 -141 174q0 -18 3 11.5t7 95.5 q-10 31 -10 43q0 14 6 26q2 23 3 36t1 18q0 12 -2 33.5t-5 44t-5.5 44t-2.5 33.5h7q6 8 6 17q0 14 -8 22q51 348 67 408q10 39 86 133q78 96 105 96q76 0 129 -84q18 -23 18 -43q0 -119 -82 -119q-2 0 -21.5 3t-23.5 3q-6 0 -18.5 -11t-12.5 -19q35 -53 76 -54q74 0 127 103 q10 25 10 47q0 18 -10 55q-10 23 -22.5 44.5t-22.5 39.5q-37 63 -37 74q0 18 39 33q31 14 53 14q113 0 197 -68q154 -123 154 -278q0 -57 -55.5 -131t-112.5 -74q-27 0 -70 6q-29 4 -46 6t-24 2q-43 0 -118 -30q-82 -33 -99 -66q-2 -4 -9 -20.5t-19 -48.5q-16 -41 -35 -64 q0 -31 2 -33q-25 -61 -25 -86q0 -70 47 -139q51 -76 121 -76q23 0 70 19q63 27 63 67q0 25 -41 41q0 -10 -11 -20t-27.5 -19.5t-34 -15.5t-29.5 -6q-39 0 -75 33.5t-36 72.5q0 61 56 127q55 68 114 68q-2 0 15.5 -1t56.5 -3t56.5 -3t15.5 -1q90 0 168 86q14 16 43.5 62 t76.5 122q10 23 7 35q10 12 16 16q0 4 2 21.5t5 30t3 14.5q0 4 -5 24.5t-5 22.5v6q0 108 -147 266q-27 31 -99 66q-63 33 -106 33q-72 0 -80 -7q-76 -16 -137.5 -29.5t-112.5 -23.5q-23 -4 -62.5 -16.5t-95.5 -34.5q-63 -39 -96 -66q-12 -25 -12 -36l-80 -56 q-66 -90 -92 -129q-88 -197 -88 -356v-545q0 -20 14 -71.5t14 -71.5q0 -35 -55 -80q-29 -14 -45 -16q-27 -25 -27 -62z" />
<glyph unicode="M" horiz-adv-x="2234" d="M-72 1098q0 -43 31 -144q29 -102 29 -147q0 -14 -17 -74q-10 -35 -15 -54.5t-7 -23.5h5q57 0 136 82q82 88 82 150q0 74 -20 157q-41 180 -41 216q0 35 26 94q6 14 64 61q57 49 67 49l37 -10q25 -8 35 -8l39 10q55 0 168 -143q106 -131 117 -168q34 -108 34 -157 q0 -36 -61 -204q-45 -127 -143 -225q-35 -35 -77 -76t-91 -88q-4 -4 -29 -22.5t-72 -46.5q-72 -45 -82 -80q20 -14 35 -15q43 8 80 11.5t70 3.5q23 0 123 -76q104 -76 120 -98q8 -16 11.5 -27.5t5.5 -15.5q12 -20 26 -21q8 0 11 2q20 121 206 283q-12 27 -12 55 q-27 -2 -53 -2q-19 0 -38 1q-44 3 -85 18q-102 31 -139 102l151 151q47 47 81 80t52 52q51 51 111 239q8 23 8 96q0 52 -4 129q-10 35 -10 52q0 61 51 112q53 53 111 54q88 0 172 -177q29 -63 48 -115.5t28 -97.5q24 -125 26 -125v1q0 -59 -45 -213q-23 -78 -37 -124 t-20 -59q-57 -121 -211 -184q-43 -18 -43 -53q0 -12 5 -26.5t14 -26t20.5 -16.5t23.5 -1q49 -10 68 -18q6 -4 27.5 -30t58.5 -73q66 -84 88 -84q35 0 88 53q78 92 109 121l-9 54q-18 4 -31.5 5t-21.5 3q-8 12 -90 92q-70 63 -70 84q0 25 66 160q27 53 44 90t28 55 q113 221 114 262q10 94 23.5 161t27.5 105q53 139 168 140q119 0 189 -168q20 -45 24 -53q0 -16 -22 -58q-33 -63 -78 -74q-55 -66 -86 -92q-45 -94 -53 -123q0 -51 -25 -151q-24 -98 -24 -148q0 -12 12 -88q18 -70 33 -86q8 -45 12 -68.5t4 -27.5q8 -94 156 -195 q16 -10 51 -10q-14 0 6.5 3t71.5 7q29 6 96 78q68 74 68 101l-3 11q-2 11 -6 34q-10 -4 -73 -62q-66 -59 -90 -59h-39q-43 0 -70 80q-23 68 -23 98v481l48 97q33 96 122 204q90 111 179 170q31 6 59.5 13.5t48.5 44.5q-10 49 -55 50q-4 0 -15.5 -1.5t-29.5 -3.5 q-16 -2 -26.5 -3t-12.5 -1q-74 0 -123 57q-33 49 -50.5 75.5t-19.5 31.5q-49 55 -108 55q-168 0 -273 -182q-10 -23 -22 -46.5t-25 -46.5q-41 -74 -59 -73q-29 59 -48.5 100t-29.5 64q-43 86 -131 116q-49 23 -45 23q-84 0 -182 -45q-49 -35 -80 -57.5t-41 -32.5 q-2 -2 -9 -10.5t-18 -24.5q-14 -20 -37 -21q-39 0 -51 27q-23 47 -39 61q-18 14 -110 55.5t-115 41.5q-10 0 -30.5 -3.5t-53.5 -7.5q-20 -4 -40.5 -7t-43.5 -7q-123 -4 -344 -195q-23 -10 -33 -12q-20 -20 -51 -110q-33 -86 -33 -123z" />
<glyph unicode="N" horiz-adv-x="1775" d="M8 1073q0 -18 10 -18q4 -31 6 -47l3 -15q16 -29 84 -84q8 -8 69 -18q123 -16 123 -111q0 -16 -41 -57t-57 -41q-29 0 -150 76q-20 0 -39 -19q0 -39 51.5 -75.5t92.5 -36.5q20 0 75.5 12t65.5 23q35 41 56.5 64.5t29.5 31.5q47 66 47 119q0 129 -164 219q-47 10 -77.5 16 t-45.5 10q-77 29 -77 75q0 38 32 89q72 115 220 115q137 0 239 -127q94 -119 94 -260q-2 -16 -10 -35q1 -14 1 -27q0 -88 -44 -184q-53 -111 -133 -174q-61 -47 -209 -107q-23 -8 -108 -88q-90 -84 -91 -120q0 -31 29 -31q102 78 125 78q84 0 158 -84q76 -82 76 -168 q0 -6 -13 -33q-10 -31 -10 -35q20 -12 31 -12l164 125q74 57 133 101t104 77q0 12 -10 43l-154 -76q-27 0 -43 23q-29 41 -48 69.5t-30 44.5q-8 20 -12 32.5t-8 19.5q-20 16 -35.5 31.5t-30.5 29.5q43 55 179 113q41 16 70.5 34.5t50 35t43 44t44.5 66.5q2 18 3.5 27.5 t1.5 11.5q0 16 -9 24q16 76 25.5 126.5t9.5 78.5q0 57 -6 82q-33 125 -33 123q0 49 40 81t95 32q39 0 136 -86q27 -23 56.5 -44.5t63.5 -41.5q10 -4 40 -19.5t81 -42.5l43 6q27 4 39 -2q-33 -59 -65.5 -100t-67.5 -62q-145 -85 -145 -212q0 -16 2 -33q2 -4 -4 -22.5 t-6 -20.5q0 -18 6 -56.5t6 -56.5q14 -170 59 -287q4 -10 20.5 -36.5t45.5 -67.5q57 -82 57 -88q0 -8 -47 -92q47 -10 45 -11q174 162 271.5 252t119.5 111q4 23 5 37t3 22l-57 11q-16 -33 -51 -41q-4 -2 -21.5 -4.5t-48.5 -6.5q-86 53 -102 64q-23 82 -36 131t-17 70 q-25 92 -25 122q0 84 45 187q39 94 98 166q135 166 136 233q0 14 -21 76q-23 68 -29 76h-43q-16 -10 -16 -39v-29q2 -14 3 -21.5t1 -4.5q0 -68 -70 -68q-31 0 -180 119q-144 118 -210 118h-1q-94 0 -243 -153l-54 -53q-86 59 -139 95t-76 48q-47 10 -90 15t-80 5 q-18 12 -35 13q-43 0 -98 -17q-23 -18 -42 -34.5t-34 -30.5q-55 -25 -57 -27q-41 -23 -80 -141q-23 -66 -55 -191q-12 -45 -17 -45q-2 2 -2 21q-10 -57 -10 -31z" />
<glyph unicode="O" horiz-adv-x="1585" d="M39 625q0 -16 20 -90q31 -117 68 -170q14 -53 46 -102.5t73 -91.5t91 -72.5t103 -47.5q246 -74 285 -74h82q90 0 123 23q88 72 149 141q86 63 148.5 114.5t103.5 90.5q150 139 189 270q0 4 12 33q12 27 12 37q0 35 -12 102.5t-12 102.5q-18 29 -41 66.5t-52 84.5 q-35 33 -62.5 62t-49.5 55q-84 70 -98 86q-53 59 -54 115q0 25 37 78q20 27 31.5 46t15.5 29q-43 31 -49 31q-12 0 -92 -94q-35 -41 -59.5 -71.5t-38.5 -47.5q-29 -33 -64 -65.5t-78 -67.5q-18 31 -18 80q0 113 29 154q4 10 84 55q84 49 83 59q0 39 -71 39q-14 0 -338 -194 q-121 -72 -218.5 -133.5t-172.5 -112.5q-80 -53 -121 -139q-84 -172 -84 -381zM256 805q0 55 86 215q-4 16 2 24q45 63 125 123l162 121q6 0 17 -1t21.5 -3t15.5 -3t-1 -1q-31 -45 -33 -133q-2 -53 -2 -90v-53q-1 -37 -1 -68v-30q1 -42 3 -70l-10 -131q-16 -84 -72 -152 q-25 -31 -86 -80q-72 -55 -96 -55q-25 0 -63 55q-35 51 -41 80q-27 74 -27 252zM426 356q0 37 100 105q51 35 80 54.5t33 23.5q45 37 133 114q70 45 135 45q41 0 72 -51q31 -49 31 -94q0 -35 -52 -61q-35 -18 -61 -19q-31 0 -39 6q-23 10 -51 60h-3q-36 0 -36 -50 q0 -79 98 -79h2q190 0 191 163q0 162 -219 203v264l24 68q74 82 99 82q23 0 167 -197q23 -20 38.5 -30.5t19.5 -14.5q49 -55 76.5 -90t35.5 -49q8 -25 13.5 -43t7.5 -29q27 -27 27 -35q-16 -37 -17 -38q0 2 1 -5.5t3 -21.5q-2 -20 -6 -27q2 -6 6 -14q-29 -127 -139 -248 q-121 -135 -240 -135l-9 -3t-20.5 -6t-21.5 -5t-12 -2q-6 0 -39 -7q-35 -6 -39 -6q-51 0 -233 60q-16 8 -41 22.5t-60 36.5q-55 37 -55 53z" />
<glyph unicode="P" horiz-adv-x="1658" d="M29 1124q0 -82 28 -155q14 -14 24.5 -23.5t18.5 -17.5q45 -18 73 -30.5t42 -16.5q109 -53 109 -101q0 -68 -88 -106q-43 -18 -72 -30t-43 -19q-8 -2 -8 -23l39 -16q109 0 184 82q80 82 80 190q0 2 -2 11.5t-3 18.5t-3 17l-2 8q0 61 -58 101q-35 23 -61.5 38t-44.5 25 q-80 45 -80 56q0 41 3 74.5t7 62.5q10 53 84 114q76 68 125 68q68 0 154 -68q43 -35 55 -43q2 -18 3 -42.5t1 -53.5v-51q0 -27 -2 -61q0 -29 24 -86q2 -211 3.5 -318.5t1.5 -116.5q-2 -23 -4.5 -38t-4.5 -25q-8 -39 -26 -51q-86 -35 -135 -49q-84 -47 -146 -134 q-67 -95 -67 -180q0 -47 47 -76q12 18 12 54l-1 13t-3 40l24 78q25 37 60 51q76 31 117 31q70 0 96 -11q43 -18 51 -92q0 -23 6 -77t21 -146v-37t-2 -55.5t-2 -54.5v-39q0 -12 12 -25.5t26 -13.5q16 23 23 67q4 35 9 67t9 58q14 72 26.5 136.5t27.5 119.5q8 14 13 21.5 t9 11.5q240 -113 236 -113h30q8 0 58 23q23 10 38 16t19 8q111 33 242 140q155 124 155 232q0 30 -12 54q12 18 12 25l-20 35q-12 25 -21 49q-4 23 -20 72t-43 127q-51 145 -51 161q0 20 7 46t17.5 50.5t24.5 46t31 34.5q108 90 108 188q0 14 -17.5 35.5t-33.5 21.5l-41 -32 q-41 -31 -78 -31q-27 0 -145.5 88t-200.5 88q-55 0 -309 -180q-25 0 -90 71q-31 33 -129 56q-80 18 -144 18q-76 0 -209 -88q-23 -14 -40 -30.5t-29 -32.5q-10 -23 -12 -41q-18 -23 -31 -31l-74 -137q-18 -59 -18 -101zM829 991q8 8 9 66q0 41 -2 82t-7 86q41 207 160 207 q61 0 195 -72q131 -70 149 -70q59 0 109 6l12 -14q-45 -45 -79 -78t-56 -55q-47 -66 -47 -170q0 -96 39 -188q27 -63 44 -112.5t27 -86.5q10 -33 31 -60q-10 -10 -14 -22q-2 -8 0 -23l4 -20q0 -31 -65.5 -90.5t-96.5 -59.5h-55q-82 0 -135 41q-88 68 -127 82q-59 39 -64 41 q-4 20 -5 86v49q0 54 1 127v34q0 57 -5 105q-7 62 -22 109z" />
<glyph unicode="Q" horiz-adv-x="1701" d="M35 739l10 -61q6 -37 6 -88q0 -43 -2 -41q27 -94 29 -113q10 -23 31 -45q115 -172 206 -229q33 -31 52 -51q27 -10 55.5 -18.5t56.5 -14.5q113 -61 156 -62q41 0 260 115q217 117 250 117q2 0 98 -59.5t137 -59.5q10 0 37 -8q33 -6 37 -6q213 72 213 133q0 10 -18 28 q-16 -4 -31.5 -8t-30.5 -8q-41 -12 -61 -12q-41 0 -109 49q-67 50 -67 89q0 5 84 83q45 43 70.5 67.5t31.5 32.5q51 82 51 133q0 18 -8 56.5t-8 56.5q-6 63 -62 160q-86 106 -142 177t-87 105q-78 96 -78 158q0 16 35 62q37 47 57 55q-18 33 -34 33q-31 0 -93 -70 q-35 -33 -55 -39q-53 -78 -123 -135q-51 -41 -87 -69.5t-56 -45.5q-25 20 -27 64q2 -18 3 0t1 73q0 4 -4 21.5t-4 19.5q0 37 23 78q12 23 98 84q72 51 82 88q-23 10 -34 16l-11 7q-33 0 -207 -141q-23 -10 -41 -15.5t-29 -9.5q-23 -16 -41 -30.5t-34 -28.5 q-143 -59 -177 -99q-256 -127 -344 -286q-6 -14 -12 -27.5t-10 -26.5q-43 -121 -43 -254zM209 858q2 14 3 22l1 7q2 20 0 35q14 33 20 41q20 102 58 141q150 156 340 256q-4 -31 -7 -49.5t-1 -24.5q-14 -41 -15 -37q0 -8 10 -18v-453q0 -20 -10 -55q-31 -94 -147 -158 q-78 -43 -107 -43q-8 0 -20 7.5t-24.5 18.5t-23 22.5t-12.5 21.5q-45 121 -45 131q-20 55 -20 135zM406 442q0 27 18 37q61 27 160 103l153 116q102 78 129 78q76 0 107 -26.5t31 -94.5q0 -25 -24 -50t-50 -25q-31 0 -115 47q-12 0 -24.5 -12.5t-12.5 -24.5q0 -68 107 -68 q184 0 184 156q0 51 -29.5 94t-72.5 53q-29 6 -48.5 9.5t-29.5 5.5q-45 18 -45 57q0 12 2 32.5t5 42t5 42t2 33.5q0 86 8 92q45 37 76 62.5t51 39.5q57 -92 90 -144.5t41 -66.5q27 -35 64 -80t86 -98q23 -23 39 -38t26 -26q31 -53 31 -106q0 -31 -29 -113q-37 -102 -94 -102 q-2 0 -11 2t-19.5 5t-20.5 5t-12 2q-72 0 -135 -12q-113 -20 -113 -72q0 -10 10 -20q92 -10 115 -33q-10 -8 -33.5 -22.5t-64.5 -36.5q-80 -43 -93 -43q-6 0 -16 -2t-22.5 -5.5t-21.5 -5.5t-11 -2q-14 0 -127 25q-51 10 -78 17t-31 10q-51 41 -88 72.5t-59 54.5 q-10 6 -10 36z" />
<glyph unicode="R" horiz-adv-x="1622" d="M8 733q90 -90 211 -90q102 0 174 68q74 70 74 172q0 63 -10 94q-14 39 -64 70l-61 36q-74 27 -101 29q-16 2 -53 39q-35 35 -35 53q2 6 4.5 12.5t4.5 14.5q-2 33 0 41q27 68 73 102q76 45 109 45q215 0 336 -239q12 -25 12 -72v-74l10 -24q0 -72 -16 -127 q-20 -47 -33.5 -76t-17.5 -39q-18 -59 -21 -61q-20 -35 -47 -71t-59 -71q-76 -84 -136 -106q-72 -66 -110 -92q-20 -14 -78 -97q-57 -78 -57 -98q0 -33 33 -33q39 0 55 56q6 20 33.5 40.5t48.5 20.5q76 0 78 -2q33 -10 96 -55q66 -47 88 -76q18 -18 18 -39q0 -8 -26 -47 q-25 -41 -25 -49q0 -41 43 -41q18 0 31 16q31 49 49 84q23 43 158 197q37 43 112 96q51 37 49 57h-8q-57 0 -121 -53q-39 -33 -66.5 -56.5t-45.5 -39.5q-82 190 -258 225q76 94 190 154q59 29 105 41q23 14 47 43.5t47 76.5q-2 2 -2 19q0 12 10 29q35 47 92 47q37 0 51 -21 q70 -72 117 -170q29 -63 51.5 -109t36.5 -79q18 -72 19 -109q6 -18 14 -39.5t10 -31.5q0 -82 -14 -154q-2 -2 -7 -10t-16 -23q-18 -29 -18 -35q0 -35 35 -34q12 0 90 59q39 31 59.5 50.5t24.5 27.5q27 6 102 65q27 23 51.5 43.5t49.5 42.5q6 19 6 30q0 6 -2 9l-41 11 q-70 -57 -86 -58q-20 0 -47 62q2 6 2 28q0 129 -101 293q-78 135 -192 250q0 35 131 104q45 23 72.5 41.5t42.5 30.5q43 39 43 119q0 45 -39 84l-148 113q-84 66 -84 137q0 29 2 35h-39l-86 -66q-12 -10 -21 -15t-13 -10q-16 -68 -35 -71q-33 0 -41 -6q-68 -78 -99 -78 q-35 0 -84 86q-49 55 -104 84q-98 47 -145 47q-78 0 -234 -123q-154 -121 -151 -197q-8 -8 -15 -8q0 -23 -10 -63l-14 -35q0 -16 14 -14l2 -150q82 -74 141 -104q92 -35 95 -39q45 -25 45 -82q0 -41 -58 -72q-55 -31 -100 -31q-18 0 -86 33t-84 33q-18 0 -33 -31zM848 1327 q0 20 43 62q45 43 65 43q-4 0 123 -99q63 -27 97 -37q12 -12 34 -49q25 -41 25 -51q0 -106 -193 -199q-51 -23 -81.5 -41t-45.5 -28h-38q1 6 1 27q0 58 -8 229q0 23 -12 69q-10 51 -10 74z" />
<glyph unicode="S" horiz-adv-x="1617" d="M10 829l13 -102q8 -59 24 -113q8 -23 21 -100q8 -66 24 -98q23 -51 47.5 -88t46.5 -62q111 -117 201 -151q10 -10 17.5 -20.5t15.5 -20.5q27 -16 41 -23.5t18 -9.5q134 -66 274 -66h23q16 -4 24 -7l9 -3h213q88 0 143 21q35 16 66 43q147 78 254 225q25 33 31 147 q0 2 9 16.5t9 18.5q0 2 -6 37q-2 16 -3 28.5t-1 16.5q1 14 1 28q0 113 -87 242q-96 141 -221 170q-57 14 -89 17l-534 -82q-250 53 -250 172q0 82 53 129q4 4 74 29q66 26 77 26h1q12 0 29.5 -7t35 -19.5t30.5 -26.5t20 -27q14 -82 43 -88q18 25 18 37q0 66 -63 127 q-63 63 -132 64q-104 0 -180 -82q-78 -82 -78 -185q0 -18 6.5 -54t6.5 -50q4 -43 47 -86q84 -88 108 -121q27 -33 47 -35q37 -4 71 -7t67 -3l467 49q92 0 149 -33q45 -31 80 -55t59 -45q18 -31 31 -61q31 -61 31 -84q0 -29 -21 -117q-18 -92 -28 -102q-51 -41 -83 -64.5 t-48 -32.5q-16 -18 -80 -55q-63 -35 -84 -35h-2l-105 8q-27 2 -54.5 3t-55.5 1q-2 0 -45 19q-276 53 -396 221q-18 27 -78 86q-57 55 -77 90q-145 219 -187 391q-8 32 -8 64t8 65l-10 11h6q0 57 -2 61l19 25q16 -78 25 -129.5t9 -77.5q47 -81 84 -81q3 0 7 1q-66 66 -66 258 q0 92 45 143q104 313 420 314q10 0 27.5 -3t42 -7.5t43 -6.5t28.5 -2q84 -10 197 -106q14 -12 56 -58.5t114 -123.5q25 -29 40 -46.5t23 -27.5q0 -10 -45 -56q-43 -47 -43 -53q0 -23 19 -41l471 406q-23 43 -64 43q-33 0 -90 -47q-51 -45 -74 -45q-27 0 -39 12 q-127 139 -204 184q-143 88 -301 88h-29q-14 0 -29 -2l-14 -2h-76q-2 0 -19.5 7.5t-21.5 7.5q-10 -2 -34.5 -14.5t-30.5 -12.5q-195 -33 -396 -264l-2 39q8 14 9 32q-53 -33 -119 -196q-51 -131 -64 -230v-170z" />
<glyph unicode="T" horiz-adv-x="1427" d="M-31 612q45 -43 92 -43q18 0 72 17q25 8 42.5 15t27.5 13q31 20 59 131q23 96 23 127q0 16 -21 66q-16 49 -20 72q-8 10 -35 33.5t-74 62.5q-63 51 -63 102q0 10 20 43q23 39 29 45q35 86 123 138q90 53 188 53q51 0 303 -109q20 -10 25 -30q-131 -143 -203 -220t-84 -88 q-31 -27 -55.5 -45t-40.5 -30v-263q0 -162 -19 -200q-43 -94 -215 -162q-69 -27 -69 -77v-7q41 8 70.5 14t52.5 13q8 -10 4 -15q-106 -86 -107 -135q0 -12 17 -29h41q94 137 225 138q92 0 305 -113t272 -113h47q84 0 187 54q27 14 74 47t116 86q86 63 86 90q0 14 -39 35 q-143 -94 -174 -95q-6 0 -39 -6q-35 -6 -43 -6q-18 0 -67 6q-35 4 -57.5 8.5t-32.5 8.5q-53 23 -113.5 52.5t-130.5 68.5q-59 35 -97 54t-55 27q-18 0 -69 -9t-137 -29q23 41 102 106q70 57 88 88q23 38 23 87q0 13 -2 28q-10 88 -11 166q0 78 15 143q8 43 13 67.5t9 32.5 q23 59 60 80q84 102 110 103q14 0 137 -59.5t154 -59.5l28 10q27 10 81 33q16 4 31.5 7t29.5 7q41 10 55 21q131 104 131 157q0 25 -45 50q-20 -23 -34.5 -40.5t-24.5 -29.5q-41 -47 -70 -47q-59 0 -301 137q-244 139 -321 139q-31 0 -144 -18q-68 -10 -120 -23.5t-89 -27.5 q-100 -39 -190 -131q-131 -137 -131 -322v-16l-8 -11q0 -92 24 -137q49 -47 99 -86q81 -67 81 -116q0 -44 -30.5 -82.5t-67.5 -38.5q-14 0 -53 20l-39 23q-16 0 -31 -15v-41z" />
<glyph unicode="U" horiz-adv-x="1138" d="M12 1106q0 -100 103 -309q18 -37 40.5 -78t51.5 -86l72 -154q20 -43 37.5 -86t33.5 -84q80 -88 88 -176q10 -10 19 -14q-8 -57 -12.5 -76.5t-4.5 -1.5q0 -39 29 -39t35 25q23 63 67 125l86 122q16 29 34 64t36 74q41 63 68.5 104t40.5 57q94 143 122 172q6 20 7 33 q66 51 114 172q47 117 47 205q0 6 -3 19.5t-6 28t-6 27.5t-3 21q1 6 1 14q0 59 -69 199q-61 68 -106 68q-61 49 -72 53q-115 31 -174 31q-14 0 -86 -41q-139 -49 -229 -234q-78 -162 -78 -327v-37q0 -16 2 -27q-14 -27 -25 -26q-35 55 -39 67l-38 146q-22 74 -22 124 q0 8 1 15q-12 0 -12 12q0 29 14 43q10 57 17.5 103.5t13.5 83.5q27 57 37 86q92 92 96 94l-2 35l-41 6q-18 0 -66 -45q-49 -49 -59 -68q-84 -190 -84 -274q-57 -119 -65 -148q-10 -37 -11 -98zM387 864v66q0 170 23 289q16 31 30.5 53t26.5 37l-6 12q20 33 35.5 55.5 t25.5 38.5q51 80 82 80q70 0 148 -55q76 -55 110 -121q14 -51 24.5 -94t16.5 -82q10 -29 17.5 -47.5t11.5 -28.5q-2 -6 4 -49q6 -37 6 -39q0 -25 -24 -100q-23 -78 -37 -105q-57 -111 -118 -206t-126 -177q-37 0 -51 25q-29 49 -56.5 95t-52.5 89q-80 141 -88 229 q-2 10 -2 35z" />
<glyph unicode="V" horiz-adv-x="1619" d="M55 1126q0 -45 39 -114q41 -72 76 -84q51 -18 83 -30.5t48 -16.5q31 -10 54.5 -41t23.5 -60q0 -18 -22.5 -35.5t-43.5 -17.5h-51q-6 0 -55 25q-47 25 -64 28l-10 -57q29 -23 37 -41q43 -25 104 -25q86 0 134 72q41 63 41 152l-19 41q-2 27 4 43q-10 37 -51 75 q-16 12 -76 58q-45 14 -82 18q-78 29 -78 103q0 27 14.5 51t37 42.5t53.5 30t63 11.5q100 0 228 -72q47 -29 65 -74l25 -96q0 -20 6 -72q6 -39 6 -60v-9q0 -16 -2 -34.5t-2 -23.5q0 -14 -3 -40.5t-11 -65.5q-16 -86 -25 -100q-43 -70 -139 -142q-16 -14 -58.5 -41.5 t-107.5 -72.5q-31 -20 -66 -82q-36 -59 -36 -91q0 -33 24 -71q37 10 41 16q47 145 176 146q92 0 205 -64q111 -139 111 -172q0 -14 -27 -41q2 -4 -8 -53q0 -29 20 -31q43 2 78 25q88 70 133 104.5t49 38.5q233 160 301 203q96 63 146 125q119 143 119 389q0 4 -5.5 23.5 t-5.5 21.5q-2 31 -2 72v96q-10 49 -18 70q-2 43 0 63q-78 227 -326 358q-70 39 -92 39q-31 0 -186 -118q-92 -119 -133 -119q-6 0 -181 94q-170 94 -241 94q-59 0 -250 -244q-41 -53 -55 -118q2 -10 -7 -49q-6 -37 -6 -50zM549 586q82 47 147.5 83t112.5 60q16 10 37 51 q-8 25 -8 68q0 66 26 117v182q0 18 -14 67.5t-14 65.5q0 41 49 82q51 41 92 41q90 0 190 -82q158 -127 158 -336v-127q12 -25 12 -31q0 -240 -151 -428q-66 -51 -118 -89t-87 -64q-2 -2 -20 -2q-27 0 -54 45q-14 23 -23.5 40t-15.5 27q-106 178 -315 193z" />
<glyph unicode="W" horiz-adv-x="1691" d="M68 1200q31 -59 54 -102t40 -72q20 -35 20 -45q0 -31 -51 -113q-10 -10 -20.5 -22t-22.5 -25q-53 -78 -53 -184q0 -25 9 -49.5t24.5 -43t35 -30.5t39.5 -12q18 0 37 11t33 28.5t23.5 39t9.5 40.5q0 14 -15 30l-16 21q-4 0 -30.5 -20.5t-30.5 -20.5q-20 0 -42 21.5 t-22 41.5q80 203 131 203q25 0 80 -111q57 -109 57 -145q0 -53 -20 -96q-10 -27 -17.5 -46.5t-9.5 -31.5l-47 -51q-10 -12 -23.5 -23.5t-27.5 -21.5q-43 -16 -77 -27.5t-56 -17.5q-39 -20 -39 -43q0 -35 35 -35q23 0 72 18.5t71 18.5q37 0 123 -41q94 -45 94 -103l-6 -30 q-4 -18 0 -29q88 29 96 68q35 18 60.5 31.5t42.5 23.5q94 51 145 51q125 0 223 -182q4 -43 -4 -54q14 -18 27 -18q12 0 72 47q20 16 35.5 28.5t25.5 22.5q279 154 356 215q125 100 125 244q0 47 -75 197q-74 154 -74 215q0 94 26 114q35 33 59.5 55.5t37.5 33.5 q39 37 39 143q0 45 -56 45q-37 0 -39 -33q-6 -59 -8 -61q-14 -33 -76 -33q-55 0 -221 92q-164 92 -184 92q-66 0 -158 -92l-92 -92q-25 0 -65 72q-37 74 -37 104q0 16 7 48t7 46l70 74q43 45 106 45t227 -96q162 -96 234 -98q12 0 31 -7q35 -6 55 -13t12 -7q47 0 125 53 t78 98q0 33 -28.5 65t-61.5 32q-29 0 -74 -31q16 -74 35 -98q-33 -27 -76 -27q-45 0 -231 117q-188 117 -269 117q-84 0 -172 -68q-98 -74 -135 -176q-12 -53 -24.5 -105.5t-26.5 -105.5q-8 -33 -12 -51.5t-4 -26.5q0 -76 51 -186q23 -45 43 -90.5t43 -90.5q2 -4 14.5 -26.5 t36.5 -67.5q37 -68 37 -88q0 -2 -4 -22q12 -16 12 -31q0 -80 -45 -172q-29 -29 -49 -43q-84 -59 -135 -60q-12 0 -80 49.5t-92 49.5q-2 0 -12.5 -1t-22.5 -2t-23.5 -2t-13.5 -1q-6 8 -6 20q0 18 55 86q29 35 45.5 55.5t22.5 28.5q80 111 80 166q0 59 -123 287l-12 28 q-10 31 -11 33q0 -2 45 43q29 39 46.5 63.5t25.5 34.5q35 56 35 109v6q0 2 2 10.5t3 17.5t3 17l2 8q0 12 -14 54q-12 32 -12 54q0 5 1 9q-31 39 -43 64q-35 43 -55 49q-61 31 -86 31q-53 0 -135 -48q-80 -45 -100 -94q-16 -23 -28.5 -39t-23.5 -24q-32 -55 -32 -133 q0 -73 39 -148zM225 1450q0 25 9.5 49.5t25.5 44t35.5 31.5t42.5 12q170 0 170 -215q0 -41 -123 -215q-41 10 -100 125q-59 119 -60 168zM748 346l120 150q123 150 123 209q0 14 -8 61l-10 55q-8 20 -16.5 36.5t-18.5 29.5q0 25 2 26q-31 43 -39 91q-10 12 -20.5 31.5 t-17.5 41t-12 42t-5 36.5l16 29l6 10q16 27 27 37q51 18 96 18q18 0 135 -73.5t164 -73.5q8 0 28.5 4t55.5 12q70 19 80 25q-16 -55 -92 -160q-61 -84 -62 -147q0 -61 39 -138q18 -29 31 -43q31 -94 33 -96q23 -37 34 -56.5t13 -23.5q0 -43 -25.5 -98t-58.5 -86 q-10 -8 -26.5 -16.5t-36 -15.5t-39 -11t-31.5 -4q-20 0 -37 4q-35 8 -61 37q-78 37 -129.5 61.5t-79.5 38.5q-2 0 -41 -18q-90 -23 -137 -25z" />
<glyph unicode="X" horiz-adv-x="1298" d="M-70 870q33 -23 56 -24l268 293l-45 213q16 33 26.5 55.5t14.5 34.5q25 35 76 35q106 0 159 -136q39 -96 39 -225q0 -16 -3 -40.5t-7 -59.5q-12 -74 -22 -92q-113 -4 -183 -68q-37 -35 -121 -164q-12 -18 -94 -106q-74 -82 -76 -97q-4 -70 -7 -115.5t-3 -70.5 q-45 -40 -45 -73q0 -6 2 -13l47 -12q203 119 207 129q20 12 21 72q0 25 -3.5 71.5t-3.5 71.5q0 137 99 137q150 0 178 -24v-230q-53 -104 -72 -137q-41 -80 -64.5 -128t-31.5 -65q-61 -121 -61 -186q0 -86 51 -168q57 -92 137 -92q84 0 266 104q186 102 279 103 q123 0 123 -80q0 -20 -15 -51q-14 -35 -14 -51q6 -2 13 -2q22 0 48 26q37 31 37 59q0 53 -51 107q-49 55 -98 55q-143 0 -213 -30q-29 -12 -90.5 -53.5t-159.5 -110.5q-18 -14 -53 -19l-76 -10q-74 47 -90 84q-12 27 -13 125q0 33 58 178q63 172 115 172q74 0 143.5 -63.5 t69.5 -135.5q0 -14 -19 -47q-18 -35 -18 -41q0 -23 18 -36l365 380q0 14 -17 31q-121 -82 -116 -82q-53 0 -132 76q-78 78 -77 125q0 127 6 143q18 45 121 45q12 0 135 -67q8 0 73 166q33 84 52.5 137t29.5 78q-113 -57 -122 -58q-188 0 -236 41q-51 45 -51 230q0 82 37 178 q45 123 139 123q41 0 112.5 -59.5t71.5 -96.5q0 -12 -12 -43q-23 -61 -25 -65l291 374h-4q-19 0 -88 -26q-152 127 -240 127q-94 0 -157 -92q-88 -127 -148 -168q-39 98 -119 170q-88 82 -186 82q-16 0 -432 -385q-16 -16 -20 -68q2 14 2 -2v-64q0 -20 4 -59t4 -59 q0 -109 -60 -181z" />
<glyph unicode="Y" horiz-adv-x="1558" d="M86 766q2 -39 51 -72q44 -30 89 -30h3q43 0 117 34q70 37 86 78q12 31 12 117q0 10 -4 32.5t-12 57.5q-16 70 -25 80q-18 16 -45.5 32.5t-64.5 32.5q-131 57 -131 109q0 100 16 154q10 25 55 51q45 31 72 31q45 0 154 -76q109 -74 135 -115q8 -23 11 -36t5 -17 q8 -39 13.5 -69t9.5 -52q-2 -2 -2 -41v-68t2 -45q-59 -174 -60 -174q-31 -49 -57 -75q-41 -43 -94 -90.5t-119 -100.5q-10 -10 -74 -37q-45 -20 -59 -51q8 -25 33 -25q150 86 243 86q84 0 195 -147q-14 -14 -16 -55v-11q0 -32 10 -57q53 31 65 59q27 59 99 132 q61 59 95 91.5t42 41.5q14 8 26.5 16t24.5 16q37 25 37 39q0 8 -6 19q-45 -10 -107 -60q-61 -47 -98 -63q-49 72 -57 96q-27 37 -111 53q-31 6 -52.5 10.5t-35.5 6.5q27 45 107 96l149 98q29 278 31 278v-1q-16 37 -17 51q0 14 7 33q-31 68 -31 112q0 37 43 90.5t80 53.5 q66 0 161 -66q94 -66 117 -129t37 -105t23 -63q8 -39 12 -94t4 -129q0 -190 -31 -309q-39 -82 -51 -98q-33 -66 -151 -185q-23 -23 -68 -63.5t-111 -100.5q-96 -86 -125 -86q-43 0 -131 31q-86 33 -123 33q-238 0 -237 -121l6 -27q6 -35 4 -41q69 -67 181 -67h3q49 0 222 61 q112 39 112 54q0 6 -24 6q27 0 172 -74q145 -76 237 -76q86 0 146 17q70 23 121 100q31 45 30 94q0 63 -35.5 115.5t-91.5 68.5q-23 4 -35 6.5t-16 4.5q-55 0 -102 -45q-49 -43 -49 -95q0 -16 26.5 -55t38.5 -39q27 0 39 31q-49 63 -49 80q0 12 10 24.5t24.5 22.5t32 17 t29.5 7q14 0 57 -24q43 -20 58 -35q0 -8 6 -51q8 -39 8 -51q0 -16 -55 -72q-53 -55 -74 -55q-14 0 -16 2h-15q-16 0 -38.5 -2t-51 -6.5t-51 -7.5t-39.5 -3q-16 0 -264 142q8 20 14 26q51 33 97.5 68t91.5 74l174 149q59 51 91 79t38 34q43 25 67 37q14 14 21 55q4 23 6 65 q45 176 45 221v7q-2 14 16 61v277q0 33 -59 198q-6 25 -45 74q-35 53 -39 74q-238 164 -317 164q-33 0 -131 -131q-98 -129 -115 -129l-148 102q-150 102 -161 102q-61 0 -117 -30q-12 -14 -21.5 -24.5t-13.5 -14.5q-131 -68 -172 -183q-25 -72 -25 -192q0 -111 27 -146 q45 -68 178 -116q76 -27 76 -109q0 -49 -57 -76q-45 -24 -95 -24h-4q-6 0 -59 28.5t-55 28.5q-14 0 -31 -10zM362 39q39 39 58 39q76 0 137 -21l117 -37q-31 -49 -74 -67q-90 -39 -129 -39q-2 0 -21.5 4t-23.5 4q-23 0 -64 23q-38 19 -38 42q0 15 38 52z" />
<glyph unicode="Z" horiz-adv-x="1241" d="M23 952q43 -43 86 -55q8 -8 92 -27q117 37 143 64q10 10 39 98q27 86 27 115q0 20 -11 37q-29 33 -47 54.5t-28 33.5q-68 76 -68 88q0 6 12 22q0 35 17 91q16 33 86 65q70 37 106 37q74 0 117 -16q59 -43 72 -58q182 -145 182 -321q0 7 -1 7q-5 0 -28 -93 q-12 -49 -98 -138q-82 -88 -131 -110q-100 -47 -207 -91t-219 -89q6 -41 47 -54q47 25 72.5 38.5t29.5 15.5q88 43 117 43q102 0 186 -86q72 -76 103 -183l-12 -8q-43 -25 -80 -44t-66 -34q-16 -8 -35.5 -22.5t-44.5 -36.5q-47 -41 -75 -57q-137 -76 -160 -170 q-18 -80 -19 -115q0 -47 60 -82q53 -29 104 -29q8 0 23.5 2t32 5.5t32 5.5t25.5 2q61 0 165.5 47t151.5 96q109 109 121 141q37 156 43 193q1 7 1 15q0 24 -9 61q-12 51 -12 71q0 31 30 54q6 2 20.5 9t37.5 19q20 12 55 74q35 66 35 90q0 41 -21 104q-20 68 -20 107 q0 41 57 80q44 31 60 47q-16 18 -33 18q-68 0 -133 -77q-63 -76 -64 -148q0 -55 31 -119q16 -37 16 -61q0 -37 -22.5 -65.5t-52.5 -28.5q-33 0 -187 215q-61 39 -76 69q41 29 79 59.5t71 63.5q16 16 41.5 46t64.5 77q37 72 50 121q10 41 -5 55q23 57 23 74q-6 4 -39 100 q-8 25 -106 123q-115 115 -168 115q-57 0 -248 -72q-115 -45 -150 -61q-94 -49 -116 -109q-59 -160 -60 -162q0 -20 39 -135q76 -61 123 -92q16 -16 16 -49q0 -35 -40 -61.5t-83 -26.5q-37 0 -81 27l-50 22q-18 0 -36 -31zM297 2q0 4 9 19.5t9 17.5q10 37 13 63 q100 160 411 269q12 -35 23.5 -66.5t21.5 -62.5q0 -201 -151 -297q-12 -12 -70 -21q-29 -4 -50 -7t-34 -3q-2 0 -10 -1t-24.5 -3t-24.5 -3t-12 -1q-41 0 -76 30.5t-35 65.5z" />
<glyph unicode="[" horiz-adv-x="583" d="M174 -352h354v41h-204v1636h204v41h-354v-1718z" />
<glyph unicode="\" horiz-adv-x="618" d="M-41 850q0 -2 25 -45q23 -37 26 -66q2 -78 2 -153v-154q2 -186 35 -301l-2 -8t-3 -18.5t-3 -20.5t-2 -12q2 -45 3 -68.5t1 -9.5q0 -39 12 -113q14 -72 15 -110q4 -6 14 -11q41 0 43 15q6 47 9 76.5t5 44.5q-4 39 -6 61q2 14 6 44t13 77q12 82 10 92q0 29 4 70t12 94 q18 106 19 164q0 6 -1 21.5t-3 39.5q14 43 4 92q-10 37 -7 41q27 37 31 53q4 20 4 64q0 55 -10 80q-70 152 -70 182q0 8 15 35q16 78 35 90q78 53 120 53q33 0 105 -41q70 -39 82 -39q31 0 47 19l24 37q10 4 25.5 13t38.5 19q25 23 29 52q-66 29 -95 30q-143 66 -163 66 q-66 0 -199 -121q-131 -117 -158 -182q-6 -33 -14 -68t-27 -51q-2 -2 -2 -41q0 -12 -8 -25.5t-17.5 -26.5t-16.5 -23.5t-7 -16.5z" />
<glyph unicode="]" horiz-adv-x="583" d="M63 -311v-41h355v1718h-355v-41h205v-1636h-205z" />
<glyph unicode="^" d="M35 723h207l268 494l270 -494h209l-350 647h-256z" />
<glyph unicode="_" d="M0 -117v-176h1024v176h-1024z" />
<glyph unicode="`" horiz-adv-x="823" d="M-37 1434q63 -203 356 -318l56 21q-100 55 -161.5 129.5t-61.5 140.5q0 25 10 55z" />
<glyph unicode="a" horiz-adv-x="823" d="M45 332q18 -47 16 -49q49 -84 77 -131.5t36 -61.5q57 -51 117 -51q55 0 94 76q49 94 76 112q76 -150 76 -159q0 -8 -14.5 -35t-14.5 -31t18 -22q215 131 250 262h-3q-88 0 -134 131q-31 94 -31 207q0 72 72 219q31 49 53 82q-8 29 -37 32q-29 2 -73 31q-51 31 -52 55 q18 51 13 58h-43q-18 0 -156 -107q-86 -66 -137 -115t-68 -77q-45 -84 -70.5 -131t-29.5 -62q-35 -92 -35 -166v-67zM213 549q0 10 6 14l2 6v72q0 51 53 121q50 69 103 69h2q16 0 88 -43q70 -39 70 -59q-2 -8 -41 -57q-39 -45 -41 -56q-12 -111 -25 -196q-25 -178 -86 -178 q-10 0 -26.5 22.5t-22.5 34.5q-68 78 -74 213q0 2 -4 17.5t-4 19.5z" />
<glyph unicode="b" horiz-adv-x="817" d="M72 193q0 -20 18 -41q-2 0 29 10t33 10q16 0 69 -78l53 -78q4 0 64 50q59 51 78 53q12 33 69 80l86 73q53 76 86 122t45 63q2 16 7.5 41.5t15.5 62.5q18 64 18 103q0 100 -55 196q-2 10 -104 180q8 8 8 27q0 68 -51 68q-14 -14 -28.5 -26.5t-29.5 -23.5 q-106 -180 -149 -184q-10 53 -16 81l-5 28q0 6 15 37q0 131 8 149q-2 6 -2 31q0 80 67 164q29 29 52.5 52t44.5 42q-28 22 -44 22h-1q-14 0 -61.5 -28.5t-55.5 -36.5q-125 -131 -197 -279q-2 -22 -2 -37q0 -23 4 -30q0 -8 -9 -38t-9 -42q0 -25 18 -33q-4 -31 -6 -52.5 t-4 -31.5q0 -6 -10 -47t-10 -47l10 -82q0 -2 9 -16.5t9 -18.5q0 -2 -5 -20.5t-5 -22.5q-4 -16 -5 -62v-34q0 -37 1 -88v-45q0 -86 -6 -142q-12 -23 -23.5 -41t-21.5 -28q-2 -2 -2 -12zM328 541l16 239q0 8 8 19.5t19.5 23t24 18.5t20.5 7q33 0 90 -100q72 -123 72 -209 q0 -18 -3 -35q15 -21 15 -27q0 -18 -49 -92q-47 -72 -68 -92q-6 -1 -11 -1q-29 0 -63 16q-41 20 -49 48q-23 89 -23 155q0 16 1 30z" />
<glyph unicode="c" horiz-adv-x="722" d="M78 612q0 -4 1 -37.5t3 -99.5q2 -53 3 -88t1 -51q4 -72 25 -115q14 -29 75 -88q12 -4 95 -74q2 -53 6 -79q39 6 84 51q121 127 137 162q92 70 92 122q0 31 -37 31q-6 0 -53 -45q-45 -45 -76 -45q-35 0 -127 123q-4 88 -7 138q-2 30 -2 48q0 12 1 19q-28 172 -31 172v-2 q0 14 33 77q29 -12 56.5 -24t52.5 -23q66 -28 90 -28h2q33 0 47 10q27 20 55 49q94 94 94 119q0 39 -36 39q-2 0 -11.5 -3t-19.5 -7.5t-19.5 -7.5t-11.5 -3q-12 0 -135 92q-29 0 -186 -131q-35 -23 -62 -36t-43 -21q-80 -35 -86 -61q-4 -27 -7 -72t-3 -111z" />
<glyph unicode="d" horiz-adv-x="786" d="M66 401q0 -41 20 -96q31 -90 57 -98q2 -29 60 -86l92 -92q-20 -8 -37 -39l12 -41h4q31 0 56 31q39 49 157 170q53 53 90 96t60 73q70 94 72 173q2 20 2 49v71q4 23 5 28l5 15q0 27 -21 107q-23 88 -30 96q-66 84 -174 162q-25 10 -43.5 19.5t-28.5 13.5 q-14 16 -34.5 33.5t-49.5 37.5q-111 82 -111 113q0 33 15 53q63 55 104 72q0 41 -39 41q-47 0 -133 -98q-86 -96 -86 -146q0 -6 3 -23.5t7 -45.5q8 -53 21 -66q6 -8 27.5 -25.5t58.5 -46.5q57 -43 57 -53q0 -23 -90 -135q-45 -55 -66 -83l-22 -28q-10 -111 -15 -173t-5 -79z M244 623q0 92 14 143q12 14 20.5 22.5l12.5 12.5q2 10 3 17t1 11q23 23 41 23q10 0 61 -23q86 -41 115 -133q41 -139 41 -166q0 -18 -12 -32v-78q-10 -66 -33 -115q-33 -70 -76 -72q-16 0 -55 31q-39 33 -47 49q-47 86 -56 123q-10 39 -17 67.5t-11 49.5q-2 4 -2 70z" />
<glyph unicode="e" horiz-adv-x="628" d="M39 449q0 -2 1 -12.5t3 -28.5q6 -35 6 -41q33 -84 33 -131q14 -23 37.5 -46.5t56.5 -52.5q57 -49 68 -61q32 -34 32 -75q0 -16 -4 -21q2 0 19 -7l170 172q102 107 127 164q-16 4 -26 6l-9 2q-56 -75 -101 -75h-1q-37 0 -138 55q-84 139 -84 174q0 43 84 109q47 37 72 55 l25 18q70 68 91 107t21 78q0 31 -16 73q-10 16 -17.5 26.5t-11.5 18.5q-16 84 -18 138q-82 -47 -130 -76t-65 -39q-47 -35 -79.5 -67.5t-53.5 -65.5q-14 -23 -31.5 -66t-38.5 -104q-10 -66 -16 -123t-6 -104zM201 698q0 68 24 123q4 10 -4 17l39 39h37q4 -14 49 -84 q31 -49 31 -84q0 -47 -137 -129q-25 20 -35 45q-4 16 -4 73z" />
<glyph unicode="f" horiz-adv-x="602" d="M-14 829q0 -27 14 -69q8 -27 11 -44.5t5 -27.5q10 -98 17.5 -163.5t11.5 -104.5q0 -59 6 -90l-4 -168q23 -154 36 -268.5t17 -194.5q27 -10 29 -10q8 0 12 4q8 68 12.5 109.5t4.5 58.5q0 41 -17 53q33 33 33 86v6l-2 105q0 6 3 18t8 25.5t8.5 24.5t3.5 16q8 182 36 266 q2 10 1 32.5t-3 55.5q0 2 2 12t4.5 20.5t4.5 19.5t2 11v70q14 23 104 39t98 29v5q0 64 -143 83q-66 8 -100 69q-51 94 -60 99v110q10 4 47 49q27 33 54 33q25 0 92 -29q64 -26 101 -26h3q51 0 99 47q69 72 81 80q2 8 4 12l1 4q0 6 -5 10q-29 6 -100 7q-25 0 -92.5 32.5 t-89.5 32.5q-53 0 -94 -39q-109 -96 -119 -119q-33 -68 -53.5 -117t-30.5 -79q-8 -25 -8 -66q0 -18 -22.5 -67.5t-22.5 -51.5z" />
<glyph unicode="g" horiz-adv-x="804" d="M-129 -324q39 0 53 9q81 73 134 73h1q14 0 95 -22q63 -33 96 -60q77 -22 98 -22h2q150 0 277 160q115 145 114 260l-53 188q-53 190 -53 205q0 37 20 57q3 63 3 85q0 11 -1 12q18 25 43 16q23 2 58 47q33 41 33 70q0 20 -72 45q-12 6 -12 16q0 20 45 131l-43 10 q-25 -29 -50.5 -56.5t-40.5 -27.5q-20 0 -83 39q-16 16 -29.5 30.5t-24.5 27.5q10 14 17.5 22t11.5 13q-15 24 -34 24h-1q-172 -141 -266 -221t-115 -100q4 -33 6 -45q2 -18 -6 -52l-2 -8q-12 -47 -22.5 -74.5t-10.5 -21.5l2 -10q2 -9 4.5 -20t3.5 -21.5t1 -12.5 q0 -4 -8.5 -22.5t-8.5 -20.5q0 -14 -1 -33.5t-3 -43.5q2 -2 0 -5q-6 0 -6 -10q0 -20 18 -57q16 -23 29.5 -43.5t28.5 -40.5q59 -84 59 -94l-6 -29q-8 -37 -6 -39h3q29 0 85 80q27 2 41 14q143 131 180 133q160 -219 160 -268q0 -57 -43 -113q-41 -55 -98 -55q-45 0 -205 60 q-143 53 -135 53q-45 0 -166 -96q-123 -96 -117 -136zM193 395q0 10 6 21l8 10q4 43 7 78t3 63q0 2 -2 10.5t-3 17.5t-3 16l-2 7q0 37 26 105q33 92 76 92q25 0 121 -55q51 -29 100 -64q-20 -61 -34.5 -104t-22.5 -66q-25 -78 -25 -141q0 -14 1 -27q-20 -131 -111 -131 q-33 0 -59 31q-51 57 -60 72l-14 30q-12 27 -12 35z" />
<glyph unicode="h" horiz-adv-x="862" d="M61 -348q27 -14 37 -14q80 0 586 501q-4 35 12 47q105 88 105 344q0 4 -6.5 21.5t-6.5 19.5q1 16 1 31q0 97 -33 182q-14 33 -24.5 53.5t-16.5 30.5q-47 47 -47 64q0 6 34 59v45q-16 -10 -62 -45t-122 -94q-115 -90 -129 -90q-29 -6 -31 45q29 80 29 134v13v8q0 22 -6 85 q-1 7 -1 16q0 34 13 86q16 72 17 98q31 37 65.5 71t73.5 67l-10 30q-2 14 -25 15q-39 0 -78 -39q-51 -47 -89 -86t-64 -72q-41 -31 -72 -52.5t-47 -31.5q-10 -10 -10 -49q0 -27 6 -33q10 -23 12 -88q2 -33 4 -55.5t4 -34.5q0 -12 -4 -33l8 2q6 0 6 -10t-14 -47 q-14 -35 -14 -49l28 -121q-2 -66 -3 -94.5t-1 -18.5q0 -39 4 -43q-2 -12 -6 -84q-4 -57 -14 -82q-10 -39 -17.5 -60.5t-9.5 -25.5q-59 -66 -59 -73q0 2 4 -19q45 -12 68 -12q80 -47 123 -80q-23 -25 -31 -68l26 -8q33 14 43 19q16 27 42 57.5t63 69.5q82 82 110 122 q-10 4 -47 -6q-35 -6 -47 -6q-39 0 -69 25q-4 57 -7.5 84.5t-3.5 13.5q0 8 2 10q2 0 7 -6q-1 31 -1 73v45q1 71 3 167q0 41 38.5 71.5t84.5 30.5q12 0 102 -90q10 -86 16 -132t6 -56q0 -25 -8 -71t-8 -71q0 -39 6 -69q-20 -35 -26 -64q-2 -98 -123 -219l-211 -207 q-12 -12 -103 -69q-72 -45 -82 -78z" />
<glyph unicode="i" horiz-adv-x="544" d="M57 774q6 -6 56 -8q39 -6 57 -33q-20 -27 -20 -88v-35q2 -6 2 -37q0 -45 -17 -73v-226q18 -113 31 -131q18 -25 35 -41q33 -33 32 -39q0 -23 -40 -63q4 -8 8 -14t6 -11q37 0 51 21q74 98 178 178q51 39 51 62q0 10 -18 28q-4 0 -35 -18.5t-35 -18.5q-29 0 -55 62 q-27 53 -27 88q0 6 9 37q10 37 10 43q-2 -6 -2 92q2 20 3 31.5t1 15.5q2 10 1 22.5t-3 28.5q8 27 13 43.5t7 26.5q19 49 39 49h2q4 23 13 35q12 10 21 17t18 11q14 27 24 43q-16 20 -24 31q-20 -20 -48 -20q-16 0 -35.5 8t-39 21.5t-36 29.5t-22.5 31q-6 23 -10 37t-6 22 l-37 -31q-23 -18 -18 -40q-27 -29 -45.5 -49.5t-32.5 -34.5q-59 -66 -62 -103zM76 1294q0 -2 53 -34q41 -27 61 -58q2 -2 19 -51q12 -39 39 -41q35 59 71.5 110.5t77.5 96.5q-96 39 -116 67q-37 66 -48 107q-18 -14 -26 -33q2 -6 2 -31q0 -29 -41 -51q-59 -35 -92 -82z" />
<glyph unicode="j" horiz-adv-x="540" d="M57 774q6 -6 56 -8q39 -6 57 -33q-14 -20 -20 -88l-33 -424l12 -227q18 -113 31 -131q18 -25 35 -41q33 -33 32 -39q0 -23 -41 -64q4 -8 8.5 -15t6.5 -11q37 0 51 20q72 98 178 181q51 39 51 61q0 10 -18 29q-4 0 -35 -18.5t-35 -18.5q-27 0 -55 59q-14 29 -14 92 q0 2 2 32t6 89.5t6 91t2 35.5q6 309 6 303q4 25 7 41.5t3 26.5q19 49 39 49h2q4 23 13 35q12 10 21 17t18 11q14 27 24 43q-16 20 -24 31q-20 -20 -48 -20q-16 0 -35.5 8t-39 21.5t-36 29.5t-22.5 31q-6 23 -10 37t-6 22l-37 -31q-23 -18 -18 -40q-27 -29 -45.5 -49.5 t-32.5 -34.5q-59 -66 -62 -103zM82 1294q88 -51 119 -92q6 -23 9 -35t5 -16q12 -39 39 -41q29 53 67 104.5t85 102.5q-96 39 -119 67q-35 68 -43 107q-18 -14 -31 -33q2 -16 3 -24.5t1 -6.5q0 -29 -41 -51q-57 -33 -94 -82z" />
<glyph unicode="k" horiz-adv-x="737" d="M92 733q76 -27 76 -61q-4 -8 -12 -21q-2 -45 -2 -73t2 -39v-29q0 -25 -2 -78q0 -31 -7 -113q-4 -70 -6 -70v9q0 -31 41 -96q16 -29 32.5 -50.5t33.5 -37.5q27 -63 28 -74q18 14 43 35.5t58 50.5q27 27 51.5 52.5t48.5 51.5q76 82 86 111q-4 1 -7 1q-25 0 -62 -23 q-45 -25 -66 -27h-6q-49 0 -76 96q-18 70 -18 148l8 6q0 182 2 176q37 41 149 41q43 0 80 27.5t37 64.5q0 41 -49 41q-2 0 -11 -1t-19.5 -3t-19.5 -3t-11 -1q-31 0 -45 18q47 29 77.5 46.5t46.5 25.5q92 55 93 104q0 41 -22.5 72t-57.5 31q-57 0 -226 -101q-20 25 -24 35 q14 14 24 82q10 70 19 84q20 43 57 92q25 35 101 86q72 51 110 51q160 0 191 -96q10 -109 39 -112q30 24 30 90q0 37 -30 102q2 6 0 14q-25 23 -58 33q-129 35 -131 35q-115 0 -293 -172q-180 -174 -200 -289q-6 -27 -13 -106q-4 -59 -18 -105q-43 -90 -72 -131zM328 938 q0 41 37.5 69.5t83.5 28.5q63 0 63 -51q0 -37 -51 -70q-52 -34 -88 -34h-2q-43 0 -43 57z" />
<glyph unicode="l" horiz-adv-x="548" d="M-25 729q51 -57 54 -240l4 -202q2 -29 5 -72t11 -100q16 -23 30.5 -44.5t29.5 -43.5q0 4 1 -11.5t3 -50.5q29 16 72.5 51t103.5 88q100 92 143 144q-16 10 -22 10t-45 -31q-40 -30 -64 -30h-2q-68 0 -88 86q-10 76 -25 153q4 53 6.5 103.5t2.5 97.5q0 72 -9 80 q4 27 19 82q10 16 119 92q292 201 292 299q0 61 -43 121q-43 57 -104 57q-66 0 -188 -80q-111 -74 -160 -135q-80 -98 -88 -254q-4 -29 -6 -41q-18 -72 -19 -78zM174 1001q0 84 29 152q4 10 0 27q113 88 157 88q37 0 95 -45q57 -43 57 -78q0 -8 -20.5 -22.5t-32.5 -26.5 q-2 -2 4 -21q-41 -59 -258 -174q-31 18 -31 100z" />
<glyph unicode="m" horiz-adv-x="1320" d="M41 797q14 0 31 -17q14 14 28 15q45 0 66 -52q4 -8 10 -30.5t17 -57.5q0 -31 -7 -49q4 -10 5.5 -16t3.5 -10q0 -29 -7 -93q-4 -52 -4 -81v-17q2 -2 2 -12q0 -29 -67 -135q27 -2 61 -41q8 -8 18.5 -24.5t26.5 -41.5q6 -59 21 -76q43 4 71 54l41 71q4 8 31 35t27 37 q0 4 -25 33q-20 27 -24 39q-8 25 -9 69q-8 20 -11 29l-3 10q0 10 2 30.5t6 53.5t6 52.5t2 29.5v41q10 57 35 96q12 25 49 62t58 37q68 0 82 -101q4 -39 7 -65.5t5 -40.5v-199q-8 -35 -13 -64.5t-10 -52.5q-74 -68 -73 -88q0 -23 75 -61q16 -20 32 -36.5t28 -31.5 q35 -41 41 -41q16 0 51 43q2 8 6 21q70 66 105.5 98.5t38.5 34.5q2 8 -11 20q-20 -4 -33.5 -8t-23.5 -8q-31 0 -64 70v30q0 14 9 50q6 31 2 45q10 16 12 28q-2 10 -2 82q0 287 84 287q80 0 104 -64q4 -27 10.5 -55.5t14.5 -56.5q-5 -4 -5 -40q0 -12 1 -28l4 -186 q-18 -35 -18 -72q0 -51 36 -149q39 -92 39 -131q0 -23 -2 -25q23 0 51 29q16 23 27 49q12 12 37 32.5t59 49.5q62 49 72 69q-2 2 -61 2q-12 0 -33 11.5t-23 21.5q-31 80 -37 125q4 18 6.5 30.5t4.5 18.5q-12 43 -13 54l3 27t1 11q2 20 1 35q0 23 -3 35q10 20 19 29 q-6 27 -6 57q0 96 69 184l-59 -12q-29 0 -76 45q-47 47 -47 74q0 10 37 45q-10 16 -15 25l-4 8q-16 -4 -25 -7.5t-13 -5.5q-177 -198 -222 -198q-25 0 -75 74q-55 78 -58 102q-8 -8 -29.5 -30.5t-56.5 -63.5q-55 -61 -92 -90q-16 -23 -27 -39q-35 -53 -69 -54q-10 10 -31 76 q-10 35 -16 52l-6 16q-57 57 -58 69q0 8 1 18.5t3 24.5q2 12 4 26.5t2 16.5z" />
<glyph unicode="n" horiz-adv-x="919" d="M51 858q2 -6 3 -14t5 -19q57 0 66 -8q6 -4 13 -14t15.5 -22.5t13.5 -26t5 -21.5t-10 -18q-4 -35 -7 -76t-3 -86v-115q0 -14 -6.5 -55t-16.5 -111q-35 -23 -35 -28v-54l123 -90q2 -67 36 -67h1l15 6l10 4q8 10 17 25.5t19.5 32t40.5 44.5q33 31 33 52q0 10 -27 30 q-23 23 -26 31q-16 37 -17 121q0 12 3.5 52t7.5 110q8 137 16 151q2 27 67.5 86.5t94.5 59.5q39 0 78 -82v-154q-14 -29 -21 -92l-6 -98l-8 -74q0 -20 2 -25v-20q0 -20 57 -123q66 -121 99 -121q29 0 55 14l104 175q0 14 -16 36q-14 -6 -22.5 -10t-12.5 -6q-14 0 -45 35 q-31 37 -33 51q-2 18 -3 30.5t-1 16.5v35l15 117q8 53 11 97t5 79q2 88 72 129l10 31q0 10 -10 20q-20 -4 -35 -10t-23 -10l-63 82q-37 70 -41 110q-14 -8 -45 -57t-58 -49q-86 -72 -136 -114t-68 -56q-14 0 -15 6q-59 188 -61 205q0 6 16.5 34.5t16.5 32.5l-17 19 q-33 -6 -67 -41q-47 -74 -60 -86q-37 -45 -84 -61.5t-47 -45.5z" />
<glyph unicode="o" horiz-adv-x="710" d="M43 512q0 -10 6 -18l2 -13q2 -18 6 -49t15 -72q8 -12 13 -21t9 -15q16 -14 27.5 -24.5t17.5 -16.5q16 -33 32.5 -64t35.5 -63q61 -78 61 -93q0 -18 -2 -22q-2 -14 0 -21q8 -14 19 -20q29 0 51 23q14 18 27.5 36.5t27.5 34.5q160 121 203 195q74 118 74 233 q0 125 -109 264q-72 94 -72 138q0 12 13 53q14 37 14 47q0 6 -33 39q-39 -33 -68.5 -58.5t-52.5 -43.5q-25 -33 -43 -52q-236 -166 -254 -323l-10 -37q-10 -35 -10 -37zM197 647q0 43 32 96q33 57 70 58q14 0 86 -105q63 -94 84 -131q59 -108 59 -139q0 -10 -14 -37 q6 -27 4 -55q-6 -23 -61 -92q-10 -10 -37 -11q-20 0 -101 107q-25 16 -63 72q-59 147 -59 237z" />
<glyph unicode="p" horiz-adv-x="864" d="M53 852q92 -29 150 -104l8 -148q1 -30 1 -66.5t-1 -80.5q0 -2 2 -10.5t5 -17.5t6 -17l3 -7q0 -16 -32 -73q-31 -59 -31 -72q0 -20 27.5 -39.5t39.5 -32.5q25 -35 25 -96v-149q0 -43 4 -107.5t12 -153.5q-6 -41 -8 -43q2 -29 43 -36q18 16 25 41q2 12 6 47q10 106 10 155 q0 21 -2 31q16 12 43 39q-12 25 -12 88q0 150 41 150l49 -23t53 -23q25 0 55 31l101 98q62 62 62 98q0 5 -1 9q57 51 58 106q0 10 -7 15q4 66 7.5 105.5t3.5 56.5q12 14 12 22q0 14 -4 35.5t-12 54.5q-14 61 -29 86q-23 35 -43.5 66t-40.5 57q-86 111 -113 111 q-20 0 -88 -68q-65 -65 -89 -65h-1q-41 0 -80 61q-35 57 -35 100h-40l-107 -112q-53 -57 -76 -119zM397 770q0 6 2 8t0 29v8q8 31 39 31q39 0 103 -53q63 -51 80 -95q43 -115 43 -219q0 -96 -33 -170q-23 -35 -80 -35q-29 0 -84 23q-61 27 -61 51v49v25q0 10 2 20v195 q-2 6 -2 45v74q-8 0 -9 14z" />
<glyph unicode="q" horiz-adv-x="821" d="M47 477q0 -31 35 -119q18 -41 32.5 -70.5t24.5 -45.5q20 -35 46 -72t57 -78q8 -14 2 -49q-2 -4 -2 -31q0 -12 2 -14q10 2 16 2h16q10 41 90 104.5t119 77.5q45 -63 45 -209v-211q0 -70 6.5 -133t20.5 -121q15 -22 30 -22h1q37 27 41 51q10 106 16 239.5t10 295.5 q16 31 15 43q-4 23 -6 34l-2 11q2 18 3 27.5t1 7.5q0 18 24 71q25 51 25 53q0 10 -23 46q-20 33 -20 47q0 59 18 112q-6 55 -6 101q0 137 33 200q4 12 28 37q27 29 27 39t-18 29q-8 -8 -39 -8q-82 0 -162 98l10 37q0 29 -35 35q-53 -66 -200 -191q-70 -57 -119 -105t-78 -87 q-84 -113 -84 -232zM215 610q0 82 8 92q84 127 146 127q35 0 100 -59q4 -10 6 -18.5t6 -16.5q14 -27 15 -41q-2 -14 -4.5 -32.5t-4.5 -45.5q-1 -9 -1 -16q0 -38 16 -59v-244q0 -14 -64 -59q-59 6 -112 77l-86 117q6 14 2 41q-27 88 -27 137z" />
<glyph unicode="r" horiz-adv-x="768" d="M31 817q25 -27 30 -26q6 0 25.5 8t22.5 8q92 0 92 -141v-162q12 2 12 -12q0 -49 -6 -95.5t-17 -91.5q0 -6 -8 -14t-17 -17.5t-17.5 -16.5t-10.5 -11v-35q25 -6 39 -9t19 -5q33 -16 69 -54q41 -47 41 -73q0 -20 -18 -58q4 -4 9 -8l5 -4q18 0 45 33l37 47q125 106 197 166 q-14 33 -31 33q-4 0 -15.5 -3.5t-24.5 -8.5t-27.5 -8t-22.5 -3q-35 0 -47 51q-4 10 -13 82q-35 115 -57 131q41 31 41 125v47q0 27 -2 43.5t-2 1.5q0 70 39 70l8 -1t25 -5q-2 8 -7 20q0 -2 5 15q45 -16 77.5 -67.5t57.5 -66.5q47 41 84.5 78t66.5 72q-27 23 -44 37t-27 22 q-49 45 -50 99q16 53 17 63q-27 -20 -43.5 -32.5t-20.5 -16.5q-14 -8 -27.5 -16.5t-29.5 -18.5q-6 -16 -9 -24.5t-5 -12.5q-10 -8 -27.5 -22.5t-40.5 -36.5q-35 -31 -39 -31q-23 0 -76 60q-51 57 -51 84q0 6 12 41q12 33 13 38q-25 0 -27 -2q-29 -53 -115 -137 q-45 -43 -72.5 -74.5t-41.5 -54.5z" />
<glyph unicode="s" horiz-adv-x="757" d="M72 774q33 -35 53 -201q8 -53 11 -95t3 -70q0 -18 -49 -162q35 -16 60.5 -29.5t42.5 -23.5q53 -37 53 -113l-10 -37q-8 -27 -9 -37h37q14 0 53 39t52 43q156 86 221 160q96 109 96 246q0 35 -26.5 106.5t-49.5 87.5q-68 39 -67 57q0 41 82 123q16 16 16 35q0 41 -23 70 q-57 53 -88 74q-31 40 -31 109q0 13 1 28q-41 -57 -98.5 -116.5t-129.5 -119.5q-78 -66 -128 -109.5t-72 -64.5zM221 420q0 57 51 123q50 67 103 67h2q70 0 110 -71q33 -58 33 -138q0 -55 -18 -116q-25 -84 -64 -84q-16 0 -18 2q-35 68 -55 90q-4 4 -23.5 20.5t-54.5 46.5 q-66 55 -66 60zM287 778v133q27 70 59 70q39 0 168 -203q0 -14 -82 -78q-78 -63 -96 -63q-23 0 -37 68q-10 37 -12 73z" />
<glyph unicode="t" horiz-adv-x="602" d="M53 836q45 -14 75 -22.5t46 -12.5q-8 -16 -27 -170q-8 -76 -12 -118t-2 -52l2 -35q2 -35 3 -49.5t1 -5.5q20 -68 25 -105q29 -51 46 -79.5t23 -34.5q4 -10 27 -37q27 -27 27 -31q-2 -10 -2 -18t-2 -13q-4 -18 0 -35q4 0 17 4.5t15 4.5q39 55 63.5 93t39.5 60 q94 137 94 166q-4 4 -9 12.5t-14 18.5q-35 -49 -61 -49q-47 0 -80 112q-24 77 -24 129q0 35 14 56v92q0 59 33 80q72 23 118 24q18 4 39 31t21 47q0 29 -80 70q-78 43 -78 86q0 18 8 59q4 23 6.5 38t2.5 22q0 23 -2 26q-25 -10 -66 -72q-47 -72 -72 -86q-55 -49 -92 -94 q-27 -16 -46 -27.5t-30 -17.5q-47 -35 -47 -67z" />
<glyph unicode="u" horiz-adv-x="970" d="M57 764q0 -10 11 -21h34q4 0 15.5 7.5t13.5 7.5q53 0 62 -70v-84q12 -16 12 -22q-12 -53 -12 -86v-9q4 -63 5 -105v-16q0 -31 -3 -49q-6 -31 -13 -55l-43 -55q-29 -37 -24 -47q6 0 30.5 3t28.5 3l66 -66q68 -68 75 -73l275 237l24 -6q0 -76 91 -166q-18 -25 -19 -45 q0 -20 8 -29l168 168q39 39 51 86q-39 -20 -67 -20q-74 0 -76 143l-4 6q-6 2 -6 15v170q0 8 18 123q20 35 39 64.5t35 55.5q0 16 -6 27q-7 -1 -14 -1q-46 0 -84 35q-43 40 -43 95q0 -2 1 -2q4 0 27 61q-8 0 -26 9q-121 -121 -234 -176q-2 -31 -6 -41l74 -11q20 -6 43 -65 q22 -58 22 -84q0 -22 -10 -12q2 -23 0 -43q-2 -8 -2 -37q0 -121 -12 -258q0 -20 -62 -76q-59 -55 -82 -55q-66 0 -88 120q6 23 4 31l-8 12q0 66 23 197q-2 23 -4.5 37t-4.5 20q14 14 15 21q0 43 -13 121q-16 88 -18 118q-14 25 -31 46q-20 27 -24 40q0 8 20.5 43t20.5 50 q0 14 -6 14q-43 -8 -52 -21q-23 -59 -34 -71q-29 -27 -45.5 -41t-20.5 -19q-115 -127 -115 -149z" />
<glyph unicode="v" horiz-adv-x="837" d="M59 907q10 -20 19.5 -40.5t19.5 -41.5l35 -71q27 -92 27 -162q0 -4 -6 -35q-2 -16 -3 -24.5t-1 -12.5q0 -229 -9 -246l-28 -38q-20 -27 -15 -41q5 1 10 1q39 0 91 -40q57 -41 75 -86q-6 -12 -6 -27q0 -23 19 -41q100 66 170.5 113t115.5 75q177 124 177 260v7q0 14 14 45 t14 37q0 18 -12 61q-10 51 -10 68q-10 27 -25.5 60.5t-38.5 76.5q-57 113 -59 133q-18 14 -19 25q0 31 58 69q0 4 -4 21.5t-4 19.5q-47 -6 -95 -61q-129 -74 -174 -111q-8 -8 -15 -16t-13 -17q-20 -20 -29 -20q-43 0 -82 82q-35 74 -35 104q0 35 84 150q-10 22 -31 22h-2 q-20 -20 -49.5 -55t-68.5 -86q-94 -119 -95 -158zM299 350q0 10 8 19l10 10l-3 61.5t-1 22.5q0 47 11 92q12 131 12 194v17q0 16 43 59q45 43 63 43t47 -80q41 -59 64 -137l37 -143q24 -49 24 -51q0 -8 -2 -11l-6 -4q-10 -66 -15 -100.5t-7 -38.5q-4 -31 -21 -45 q-53 -51 -94 -51q-43 0 -106.5 51t-63.5 92z" />
<glyph unicode="w" horiz-adv-x="1200" d="M68 942q0 -57 8 -72q104 -195 104 -188q16 -82 24.5 -139.5t8.5 -91.5q0 -4 -1 -19.5t-3 -40.5q12 0 12 -14l-10 -37q-10 -35 -6 -43q-74 -84 -74 -117q0 -14 8 -20l33 4q31 0 67.5 -27.5t43.5 -58.5q4 -29 7 -48.5t5 -29.5q8 4 36.5 29.5t76.5 72.5q70 70 120 70 q41 0 111 -51q10 -14 20.5 -27.5t20.5 -30.5q-23 -23 -21 -53q35 -10 33 -10q39 76 162 195q74 72 120 119.5t66 74.5q90 121 90 248q0 -18 -4 7.5t-10 80.5q-2 20 -3 38.5t-1 35.5q-6 41 -49 125q-45 49 -64 65q-88 63 -88 82q0 6 21 35q-8 8 -25 8q-18 -16 -40.5 -39.5 t-49.5 -52.5q-76 -82 -96 -82q-16 0 -74 57q-59 59 -59 74q2 10 5 23.5t3 17.5q0 6 -4 10q-27 -10 -143 -108l-121 -103q-35 0 -82 60q-45 59 -45 100q0 25 51 78q23 23 37 36t24 21q43 39 43 62q0 12 -18 22q-68 -12 -174 -174q-96 -145 -96 -174zM362 637v223q59 59 66 60 q37 0 78 -60q18 -16 30.5 -26.5t20.5 -16.5q37 -61 37 -112q0 -4 -5 -19.5t-5 -17.5q0 -197 -6 -252q2 -6 2 -16q0 -27 -11 -85q-8 -10 -21 -21t-32 -26q-40 -32 -58 -32h-1q-23 0 -72 51l-6 159q-2 27 -2 66v92q-2 20 -15 33zM727 559q27 0 27 57q0 27 -6 58q8 14 11 22.5 t5 12.5q0 31 -29 59q23 10 23 33q0 4 -2 23.5t-2 21.5q0 22 26 22h2q14 0 80 -47q68 -47 68 -55q27 -63 27 -112q0 -11 -1 -21q-2 -12 -3 -25.5t-5 -27.5q21 -27 21 -39q0 -14 -3 -39t-8 -60q-37 -84 -59 -118q-4 -18 -28.5 -43t-43.5 -25q-90 0 -90 180q0 106 -10 123z" />
<glyph unicode="x" horiz-adv-x="741" d="M0 668q29 10 53.5 19t44.5 20q12 0 28.5 -21.5t18.5 -40.5q8 -70 25 -125q-4 -14 -7 -26.5t-1 -26.5q2 -20 3 -31.5t1 -13.5q-4 -51 -4 -69v-9q0 -6 3 -18.5t6 -26.5t6 -26.5t3 -18.5q-8 -16 -16 -35.5t-19 -42.5l-24 -65q-12 -23 -12 -62q0 -31 22 -86v-6q-1 -27 17 -57 q20 -32 42 -33q20 0 37 35l-43 67q-33 47 -32 60q0 18 22 73q20 51 39 70q55 -10 106 -51q56 -45 56 -96v-5l12 -10q31 16 60.5 61.5t50.5 80.5q104 131 104 163q0 23 -10 33h-37l-25 -29q-29 -25 -47 -24q-31 0 -76 45t-51 76v176q6 35 9.5 60.5t5.5 43.5q0 18 32 52 q33 37 50 36q8 0 49 -28.5t47 -28.5q75 0 194 174q-37 16 -61.5 28.5t-38.5 18.5q-61 61 -80 62q-6 0 -108 -97q-96 -94 -107 -94q-61 0 -61 64v26q2 4 2 23q0 43 -33 43q-6 0 -115 -109l-129 -129q-12 -41 -12 -69z" />
<glyph unicode="y" horiz-adv-x="925" d="M59 807q14 -12 33 -12q6 0 30.5 6t27.5 6q31 0 71 -86q35 -80 35 -117v-188q-10 -39 -16.5 -60.5t-8.5 -27.5q-10 -18 -19 -33.5t-19 -30.5q-29 -41 -29 -57h65q37 0 107 -88q6 -70 22 -80q29 16 56 72q33 74 43 84q31 29 50 46t30 25q47 47 53 80q-29 23 -41 23 q-53 -41 -68 -41q-10 0 -20 10t-19.5 25.5t-15.5 33t-6 29.5q0 29 24 137q2 63 3.5 93t1.5 26q6 33 10 56.5t6 39.5q14 33 43 33q4 0 37 -17l33 -16q43 -10 65 -84l41 -139q5 -15 5 -50t-5 -89q-2 -25 10 -47q-12 -25 -12 -31q0 -23 8 -41q-23 -35 -36 -61.5t-21 -42.5 q-33 -33 -49 -39q-29 -31 -48.5 -51.5t-29.5 -30.5l-144 -164q-126 -149 -126 -231q0 -21 18 -45.5t37 -24.5q55 0 55 51q-2 4 -2 16t-2 35q-8 20 -4 41q16 35 26 52l9 18q125 172 166 203q98 76 276 294q49 166 49 258q0 127 -24 205q-37 57 -66 80q-51 72 -67 109 q-16 -6 -36 10t-20 35q0 2 6.5 12t6.5 14q0 12 -15 33q-33 -8 -119 -110q-86 -100 -100 -101q-23 0 -133 144q2 14 2 28q0 23 -6 47h-47q-59 -76 -106.5 -143.5t-80.5 -130.5z" />
<glyph unicode="z" horiz-adv-x="591" d="M57 340q0 -6 5.5 -27.5t5.5 -23.5q31 -20 51 -33.5t31 -22.5q68 -49 67 -73q0 -25 -65 -90q-29 -57 -46.5 -91t-23.5 -45q-10 -41 -10 -90q0 -2 1 -10t3 -17.5t3 -17.5l1 -8q-1 -8 -1 -17q0 -51 30 -112q43 -86 86 -86q25 0 51 10q84 53 153 183q72 131 72 229 q0 29 -29 104q-26 69 -26 110q0 36 26 50q61 39 80 57q-16 12 -24 27q-76 -51 -86 -51q-23 0 -31 20q-29 47 -55.5 90.5t-51.5 81.5q2 6 33 37l31 45q53 45 82 69t33 26q47 53 47 86q0 27 -20.5 69.5t-20.5 67.5q0 78 76 127l-7 41q-59 -18 -155 -78q-20 -12 -57 -37 t-93 -61q-18 -18 -18 -54q0 -33 28 -108q29 -74 29 -107q0 -39 -78 -121l-96 -98q-31 -41 -31 -51zM113 -96q0 29 53 100q51 74 80 74q8 0 49 -37q41 -35 41 -41q0 -2 -4 -20.5t-6 -32.5q20 -21 20 -33q0 -10 -6 -10h-6v-125q0 -6 -29 -47l-26 -51q-23 -31 -64 -31 q-33 23 -58.5 42t-43.5 40v172z" />
<glyph unicode="{" horiz-adv-x="655" d="M113 467q117 -25 116 -143v-402q0 -150 43 -217q51 -86 197 -86h106v47h-22q-88 0 -129 33q-51 39 -51 160v393q0 100 -31 153.5t-106 86.5q76 33 106.5 86t30.5 153v395q0 109 42 151t146 42h14v47h-106q-145 0 -197 -86q-43 -72 -43 -217v-404q0 -66 -25.5 -97.5 t-90.5 -45.5v-49z" />
<glyph unicode="|" d="M414 -340h194v1706h-194v-1706z" />
<glyph unicode="}" horiz-adv-x="655" d="M86 -334v-47h107q143 0 196 86q43 68 43 217v402q0 66 25.5 97.5t91.5 45.5v49q-117 25 -117 143v404q0 145 -43 217q-53 86 -196 86h-107v-47h23q88 0 129 -33q51 -39 51 -160v-395q0 -100 30.5 -153.5t106.5 -85.5q-76 -33 -106.5 -86.5t-30.5 -153.5v-393 q0 -109 -42 -151t-147 -42h-14z" />
<glyph unicode="~" horiz-adv-x="1366" d="M188 1247l111 -71q74 141 166 141q43 0 113 -29q221 -94 290 -94q94 0 176 59q70 51 134 187l-115 67q-43 -74 -79 -100.5t-91 -26.5q-49 0 -191 60q-147 63 -223 63q-127 0 -213 -112q-14 -16 -32.5 -53.5t-45.5 -90.5z" />
<glyph unicode="&#xa1;" horiz-adv-x="514" d="M68 -205q109 -72 188 -190q78 117 188 190q-29 53 -54 134t-48 190q-47 215 -61 442h-50q-16 -225 -61 -440q-23 -109 -48.5 -190t-53.5 -136zM70 815q53 -45 100 -91t86 -95q74 94 186 186q-117 92 -186 184q-39 -49 -86 -95t-100 -89z" />
<glyph unicode="&#xa2;" d="M227 666q0 -330 260 -478q14 14 35 34t49 44v-207l39 27v211q66 47 118 84t89 61l-24 35q-115 -80 -183 -82v549l105 -65l139 157q-193 96 -244 135v101l-39 -27v-90l-155 -113q-90 -66 -127 -120q-61 -96 -62 -256zM424 776q0 53 5 103.5t15 97.5q10 39 27 55l100 -61 v-568q-63 33 -106 140q-41 111 -41 233z" />
<glyph unicode="&#xa3;" d="M-137 -8l26 -33q186 147 349 147q96 0 268 -75q119 -49 182 -49q106 0 266 135q100 86 168 180l-35 25q-104 -135 -210 -136q-49 0 -175 39q-86 27 -136 41.5t-70 18.5q-33 8 -90 8q-72 0 -170 -29l167 166q25 25 39.5 41t22.5 29.5t11 27t3 31.5h230l51 172h-305 l-43 137q-57 178 -58 269q0 37 13.5 68.5t36 55t52 37t64.5 13.5q39 0 73 -18.5t58.5 -50.5t39 -75t14.5 -92q0 -57 -21 -153l234 168q14 45 14 73q0 88 -92 148q-92 61 -230 61q-172 0 -303 -129q-156 -150 -155 -319q0 -57 45 -199h-72l-53 -166h170q20 -63 20 -113 q0 -113 -153 -249q-57 -53 -119 -104.5t-127 -100.5z" />
<glyph unicode="&#xa4;" d="M31 1057l174 -174q-113 -119 -113 -279q0 -139 105 -274l-148 -148l35 -35l152 152q29 -20 59.5 -37.5t62.5 -34.5q92 -47 127 -88q20 20 75.5 63.5t148.5 108.5q10 6 20 13.5t21 15.5l174 -174l34 35l-167 168q141 125 141 284q0 147 -88 254l133 131l-37 37l-135 -137 q-27 20 -56.5 37.5t-62.5 34.5q-100 49 -106 55q-14 8 -28.5 19.5t-31.5 27.5q-74 -80 -203 -156l-30 -18q-20 -12 -31 -18l-10 -7l-180 179zM217 758q0 72 48 113.5t130 41.5q129 0 266.5 -137t137.5 -266q0 -74 -49.5 -121t-124.5 -47q-139 0 -275 135q-133 139 -133 281z " />
<glyph unicode="&#xa5;" d="M-201 1178l19 -29q59 16 100 16q117 0 196 -85t101 -238h-135l-45 -152h194q2 -20 2 -59v-90h-178l-45 -152h223v-516q-80 -96 -129 -153.5t-67 -77.5l31 -25q170 174 280.5 293t163.5 182q106 125 203 297h205l43 152h-173q35 94 50 149h106l43 152h-119q4 33 6.5 61.5 t2.5 54.5q0 270 -271 392q-80 -76 -176 -148l-92 -67q-100 154 -275 215q-78 -61 -264 -172zM356 1102q70 55 136 55q43 0 78.5 -20.5t61 -57.5t41 -86t15.5 -106v-25q0 -10 -2 -20h-264q-14 162 -66 260zM408 115q8 117 12 184.5t6 89.5h135q-35 -76 -73.5 -143.5 t-79.5 -130.5zM426 690h238q-23 -94 -43 -149h-193v96t-2 53z" />
<glyph unicode="&#xa6;" d="M414 313v-653h194v653h-194zM414 672h194v694h-194v-694z" />
<glyph unicode="&#xa7;" horiz-adv-x="1226" d="M152 47q0 -70 52 -141.5t138 -116.5q113 -59 258 -59q195 0 313 100q121 98 121 258q0 122 -100 231q115 109 115 250q0 125 -82 205q-66 66 -281 154q-78 33 -131 61.5t-86 55t-47 54t-14 58.5q0 37 20.5 71t55 58.5t80.5 38.5t100 14q92 0 161 -39q74 -37 74 -81 q0 -25 -33 -27q-59 -10 -86 -33q-43 -37 -43 -90q0 -27 12.5 -51.5t33 -44t47 -30.5t55.5 -11q31 0 58.5 12t49 33.5t33.5 48.5t12 57q0 115 -123 199q-121 84 -284 84q-168 0 -280.5 -92t-112.5 -232q0 -70 26.5 -120t97.5 -113q-90 -70 -125.5 -130.5t-35.5 -139.5 q0 -102 73 -179q80 -86 291 -151q160 -49 222.5 -99.5t62.5 -125.5q0 -49 -21.5 -90t-58.5 -72t-89 -47.5t-114 -16.5q-137 0 -227 66q-55 39 -55 74q0 29 37 28q57 6 79 19q49 27 50 94q0 63 -42 106t-106 43q-61 0 -106 -42t-45 -99zM307 662q0 61 74 129 q29 -16 53.5 -28.5t40.5 -21.5q154 -66 244 -105.5t119 -51.5q129 -61 129 -142q0 -45 -58 -108q-37 25 -67.5 42t-53 27.5t-58.5 24.5t-83 33q-137 55 -208.5 86t-80.5 35q-51 37 -51 80z" />
<glyph unicode="&#xa8;" horiz-adv-x="628" d="M-25 1352q2 -2 14.5 -10.5t35.5 -24.5q41 -27 61 -57q2 -2 18 -52q12 -39 39 -41q35 59 72 110.5t78 96.5q-96 39 -117 68q-37 66 -47 106q-18 -14 -27 -32q2 -6 2 -31q0 -29 -41 -51q-61 -37 -88 -82zM334 1352q14 -10 28.5 -18.5t28.5 -16.5q37 -27 60 -57 q6 -16 10 -28.5t6 -23.5q12 -39 39 -41q65 115 151 207q-96 39 -118 68q-33 59 -45 106q-12 -8 -29 -32q2 -6 2 -31q0 -29 -41 -51q-59 -35 -92 -82z" />
<glyph unicode="&#xa9;" horiz-adv-x="1638" d="M106 682q0 -295 209 -504q213 -207 504 -207q293 0 504 207q209 209 209 504q0 291 -209 504q-205 211 -494 211q-303 0 -514 -209q-209 -207 -209 -506zM193 682q0 266 184 451q184 186 450 186q254 0 436.5 -188.5t182.5 -446.5q0 -264 -184 -451q-180 -186 -443 -186 q-258 0 -442 186.5t-184 448.5zM475 651q0 -160 106.5 -266t270.5 -106q160 0 244 108q37 45 65 156q-86 -115 -256 -115q-117 0 -192 51l127 78q2 33 3 62.5t1 56.5v248q57 -6 86 -6q47 0 102 16q31 25 49 82l29 86q-92 -33 -174 -33q-55 0 -117 18q-188 -100 -268 -198 q-76 -94 -76 -238zM575 756q0 127 115 211v-359q0 -82 -10 -106q-104 80 -105 254z" />
<glyph unicode="&#xaa;" horiz-adv-x="681" d="M49 614h572l30 68h-573zM102 1049q0 -135 160 -248q43 33 123 125q23 -39 46.5 -72t49.5 -59l66.5 66.5t48.5 45.5q-57 12 -93 58.5t-36 111.5q0 117 121 203q-67 23 -180 117l-78 -58q-61 -47 -105.5 -83.5t-71 -70.5t-39 -67t-12.5 -69zM193 1108q0 102 129 186 l141 -94l-8 -16l-13 -33q-45 -168 -112 -238q-137 98 -137 195z" />
<glyph unicode="&#xab;" horiz-adv-x="911" d="M55 508l330 -324l123 117l-289 289l281 231l-29 31zM389 508l330 -324l125 117l-291 289l281 231l-29 31z" />
<glyph unicode="&#xac;" d="M68 365h692v-365h194v547h-886v-182z" />
<glyph unicode="&#xad;" horiz-adv-x="315" d="M0 297l315 94v107l-315 -90v-111zM0 530l315 95v106l-315 -90v-111z" />
<glyph unicode="&#xae;" horiz-adv-x="1638" d="M106 682q0 -295 209 -504q213 -207 504 -207q293 0 504 207q209 209 209 504q0 291 -209 504q-205 211 -494 211q-303 0 -514 -209q-209 -207 -209 -506zM193 682q0 266 184 451q184 186 450 186q254 0 436.5 -188.5t182.5 -446.5q0 -264 -184 -451q-180 -186 -443 -186 q-258 0 -442 186.5t-184 448.5zM381 940l22 -31q45 23 80 23q92 0 164 -66q74 -66 74 -149q0 -154 -242 -242q113 -49 211 -192q41 29 71 50t46 32l143 100l-22 29l-129 -88l-80 79q-14 14 -27.5 26.5t-25.5 23.5q135 76 176 188q45 2 69 -47q14 -23 32 -76t40 -139 q16 -66 28.5 -110t20.5 -66q39 23 94.5 50t130.5 60l-14 37q-27 -14 -41 -14q-33 0 -53 43q-61 127 -109 340q100 74 101 145q0 96 -168 146q-98 -98 -162 -148q-90 117 -272 146q-20 -23 -59.5 -61t-98.5 -89zM831 905q33 25 80 25q45 0 76 -19.5t31 -48.5q0 -39 -48 -68.5 t-118 -31.5q2 10 2 37q0 51 -23 106z" />
<glyph unicode="&#xaf;" d="M219 1112h526l60 145h-529z" />
<glyph unicode="&#xb0;" horiz-adv-x="677" d="M55 1008q0 -119 82 -201t203 -82q119 0 201 82q84 84 84 199q0 113 -84 196q-82 82 -201 82t-201 -82q-84 -84 -84 -194zM152 1008q0 37 14 70.5t39.5 58t60.5 39t74 14.5t74 -14.5t60.5 -40t39.5 -59.5t14 -70q0 -39 -14 -73t-39.5 -59.5t-60.5 -40t-74 -14.5t-74 14.5 t-60.5 40t-39.5 59.5t-14 75z" />
<glyph unicode="&#xb1;" d="M109 125h804v149h-804v-149zM109 737h321v-276h162v276h321v152h-321v280h-162v-280h-321v-152z" />
<glyph unicode="&#xb2;" horiz-adv-x="690" d="M18 1094l31 -25q100 70 211 70q39 0 74 -11.5t60.5 -32t41 -46t15.5 -54.5q0 -47 -105 -121q-205 -145 -319 -354l28 -18q125 74 228 73q104 0 235 -69q14 55 117 209l39 59l-35 19l-45 -60q-31 -41 -88 -41q-20 0 -55 8q-94 20 -164 21q-31 0 -66 -8q63 63 209 151 q174 106 174 197q0 135 -244 225q-25 10 -40 17.5l-23 11.5q-12 8 -37 49q-35 -47 -74 -93t-84 -91z" />
<glyph unicode="&#xb3;" horiz-adv-x="690" d="M82 1163l24 -26l21 12q92 55 129 55q53 0 92 -35.5t39 -85.5q0 -76 -166 -151l-74 -35l17 -33q74 33 127 33q27 0 52.5 -12.5t46 -33t31.5 -47t11 -56.5q0 -61 -47 -121q-45 -57 -92 -58q-27 0 -41 33q-12 35 -53 35q-66 0 -66 -68q0 -31 23.5 -52t56.5 -21q59 0 135 34 q221 106 221 287q0 133 -147 211q82 80 82 137q0 63 -64.5 115.5t-169.5 71.5q-61 -90 -188 -189z" />
<glyph unicode="&#xb4;" horiz-adv-x="823" d="M565 1141l62 -25q358 156 358 361l-199 -47q2 -74 -57 -153t-164 -136z" />
<glyph unicode="&#xb6;" horiz-adv-x="1366" d="M168 891q0 -180 53 -264q51 -82 234 -181q76 82 143 144q10 -393 25.5 -637t33.5 -344q55 416 50 954l-2 619q27 -6 70.5 -11.5t107.5 -9.5v-442q0 -100 3 -227t11 -285q20 -428 49 -598q27 217 39 453.5t8 500.5l-2 594h137q0 121 91 180q-432 29 -650 80l-211 -139 q-117 -78 -151 -131q-39 -63 -39 -256z" />
<glyph unicode="&#xb7;" d="M326 508q104 -84 186 -184q35 45 82 91t104 93q-59 51 -106 97t-80 87q-82 -100 -186 -184z" />
<glyph unicode="&#xb8;" d="M383 -385q55 8 102 32.5t83 59.5t55.5 77t19.5 89q0 51 -37 98l-155 -133q39 -33 38 -76q0 -84 -106 -147z" />
<glyph unicode="&#xb9;" horiz-adv-x="690" d="M119 520l22 -33l37 25q201 133 367 141l-60 27q-37 16 -47 38.5t-12 82.5l-10 338v6q0 131 108 184l-16 35l-129 -43q-111 -35 -182 -35q45 -33 58 -65.5t15 -102.5l9 -317l2 -15q8 -55 -17 -114q-14 -33 -40.5 -65t-67.5 -60z" />
<glyph unicode="&#xba;" horiz-adv-x="681" d="M41 614h571l31 68h-573zM88 1090q0 -145 166 -240q55 -31 74 -55q25 27 51 49q35 29 61.5 49t44.5 35q31 25 33 26q78 66 78 162q0 145 -156 227q-29 16 -44 24.5t-17 10.5q-8 6 -33 31q-27 -29 -54.5 -53.5t-60.5 -44.5q-143 -92 -143 -221zM170 1176q0 94 106 94 q76 0 154 -80q80 -78 80 -154q0 -45 -28.5 -72.5t-73.5 -27.5q-82 0 -160 78q-78 82 -78 162z" />
<glyph unicode="&#xbb;" horiz-adv-x="911" d="M68 735l290 -289l-282 -231l28 -31l418 344l-329 324zM401 735l291 -289l-280 -231l28 -31l416 344l-330 324z" />
<glyph unicode="&#xbc;" horiz-adv-x="1624" d="M119 520l22 -33l37 25q201 133 367 141l-60 27q-37 16 -47 38.5t-12 82.5l-10 338v6q0 131 108 184l-16 35l-129 -43q-111 -35 -182 -35q45 -33 58 -65.5t15 -102.5l9 -317l2 -15q8 -55 -17 -114q-14 -33 -40.5 -65t-67.5 -60zM362 20l33 -20l867 1341l-31 23zM940 291 l383 4v-78q0 -45 -1 -70.5t-3 -35.5q-4 -23 -23 -48q-37 -51 -120 -86l14 -32q63 23 145 67q111 63 262 80q-41 12 -65.5 25.5t-38.5 32t-19.5 42t-5.5 58.5v45h103v43q0 23 6 145q-51 -68 -109 -73l-4 186v8q0 76 25 111q14 25 94 78l-262 -2zM1069 397l244 318l6 -314z " />
<glyph unicode="&#xbd;" horiz-adv-x="1624" d="M119 520l22 -33l37 25q201 133 367 141l-60 27q-37 16 -47 38.5t-12 82.5l-10 338v6q0 131 108 184l-16 35l-129 -43q-111 -35 -182 -35q45 -33 58 -65.5t15 -102.5l9 -317l2 -15q8 -55 -17 -114q-14 -33 -40.5 -65t-67.5 -60zM362 20l33 -20l867 1341l-31 23zM952 547 l31 -25q100 70 211 70q39 0 74 -11.5t60.5 -32t40.5 -46t15 -53.5q0 -45 -104 -121q-207 -147 -319 -353l28 -18q127 72 230 72q100 0 233 -68q16 53 117 207l39 59l-35 19l-45 -60q-31 -41 -86 -41q-23 0 -58 9q-94 20 -161 20q-33 0 -68 -8q61 61 209 151q174 106 174 197 q0 135 -244 225q-25 8 -40 15.5l-23 11.5q-6 6 -15.5 18.5t-19.5 32.5q-80 -102 -160 -184z" />
<glyph unicode="&#xbe;" horiz-adv-x="1624" d="M82 1163l24 -26l21 12q92 55 129 55q53 0 92 -35.5t39 -85.5q0 -76 -166 -151l-74 -35l17 -33q74 33 127 33q27 0 52.5 -12.5t46 -33t31.5 -47t11 -56.5q0 -61 -47 -121q-45 -57 -92 -58q-27 0 -41 33q-12 35 -53 35q-66 0 -66 -68q0 -31 23.5 -52t56.5 -21q59 0 135 34 q221 106 221 287q0 133 -147 211q82 80 82 137q0 63 -64.5 115.5t-169.5 71.5q-61 -90 -188 -189zM362 20l33 -20l867 1341l-31 23zM940 291l383 4v-78q0 -45 -1 -70.5t-3 -35.5q-4 -23 -23 -48q-37 -51 -120 -86l14 -32q63 23 145 67q111 63 262 80q-41 12 -65.5 25.5 t-38.5 32t-19.5 42t-5.5 58.5v45h103v43q0 23 6 145q-51 -68 -109 -73l-4 186v8q0 76 25 111q14 25 94 78l-262 -2zM1069 397l244 318l6 -314z" />
<glyph unicode="&#xbf;" horiz-adv-x="925" d="M68 14q0 -98 62.5 -177t166.5 -107q49 -12 82 -24.5t55.5 -27t36.5 -32t27 -41.5q137 174 184 221l203 215l-31 31q-158 -147 -309 -148q-53 0 -97.5 15.5t-77 43t-51 65.5t-18.5 81q0 88 57 158q119 145 140 282l-35 11q-55 -115 -164 -205q-66 -53 -111 -100.5 t-71 -88.5q-49 -78 -49 -172zM289 819q53 -41 100 -87t88 -97q39 51 86 97t101 87q-111 88 -187 187q-41 -49 -88 -95.5t-100 -91.5z" />
<glyph unicode="&#xc0;" horiz-adv-x="1273" d="M0 436q0 -45 59 -45q6 0 29 4t25 4q74 0 151 -84q80 -86 82 -155q18 -29 19 -47q0 -2 -1.5 -12.5t-3.5 -28.5q-2 -16 -3 -27.5t-1 -15.5q0 -49 52 -43q20 27 57 102q16 31 31.5 58.5t31.5 50.5q31 41 77 88t110 100q29 23 63 25q10 -41 16.5 -66t10.5 -35 q-2 -10 -1 -26.5t4 -33t6 -31.5t3 -21q16 -61 29.5 -106.5t23.5 -74.5q37 -16 45 -14q17 6 17 37q0 29 -33 96q-31 74 -31 109l-45 465q4 10 9.5 31.5t13.5 54.5q0 35 -6 53q8 92 12 152.5t4 95.5q0 63 -2 71q27 100 27 174q0 61 -27 195q-37 193 -76 193q-47 0 -47 -50 q0 -10 17 -32q18 -100 39.5 -178t21.5 -107q0 -12 -10 -39q-150 158 -240 205q-16 4 -51 4q-74 0 -123 -25q-78 -39 -122 -59.5t-54 -24.5q-78 -29 -127 -116q-45 -78 -45 -168q0 -102 31 -135q18 -18 135 -66q133 -53 133 -80q0 -49 -43 -63q-25 -10 -100 -19 q-66 -10 -97 -18q20 -51 99 -51q135 0 211 94q49 61 49 133q0 23 -31 131q-78 76 -117 92q-135 51 -135 111q0 14 10.5 28.5t27.5 26.5t36.5 19.5t38.5 7.5q100 0 196.5 -65.5t118.5 -162.5q59 -115 59 -180q0 -154 -155 -297q-152 -141 -309 -151q-2 0 -22.5 -8.5 t-25.5 -8.5q-2 0 -11 1t-19.5 2t-19.5 2t-11 1q-25 0 -55.5 -15t-30.5 -32zM291 2048q63 -203 358 -317l56 20q-100 55 -162 130t-62 140q0 25 11 56zM440 528q229 147 297 236h37q-10 -16 -10 -51q0 -23 6 -65.5t6 -65.5q0 -68 -14 -95q-18 -18 -39 -26q-59 -39 -102 -69 t-72 -52q-45 76 -71.5 122t-37.5 66zM874 733q0 -350 58 -477q18 -12 35 -84q18 -84 26 -94q82 27 70 76q20 6 31 18q10 14 17 24.5l11 16.5l70 63q63 57 63 82q0 47 -43 48q-4 0 -51 -21q-27 20 -26 104q-39 102 -39 148v399q0 18 10 15q20 178 30.5 271t14.5 108 q23 41 54.5 94t70.5 116q0 29 -47 29q-37 0 -137 -110q-29 -23 -48.5 -35.5t-29.5 -16.5q-33 -14 -66 -24q-35 -23 -37 -78q-10 -147 -24 -205q2 -78 3 -124t-1 -56l-8 -174q-6 -129 -7 -113z" />
<glyph unicode="&#xc1;" horiz-adv-x="1273" d="M0 436q0 -45 59 -45q6 0 29 4t25 4q74 0 151 -84q80 -86 82 -155q18 -29 19 -47q0 -2 -1.5 -12.5t-3.5 -28.5q-2 -16 -3 -27.5t-1 -15.5q0 -49 52 -43q20 27 57 102q16 31 31.5 58.5t31.5 50.5q31 41 77 88t110 100q29 23 63 25q10 -41 16.5 -66t10.5 -35 q-2 -10 -1 -26.5t4 -33t6 -31.5t3 -21q16 -61 29.5 -106.5t23.5 -74.5q37 -16 45 -14q17 6 17 37q0 29 -33 96q-31 74 -31 109l-45 465q4 10 9.5 31.5t13.5 54.5q0 35 -6 53q8 92 12 152.5t4 95.5q0 63 -2 71q27 100 27 174q0 61 -27 195q-37 193 -76 193q-47 0 -47 -50 q0 -10 17 -32q18 -100 39.5 -178t21.5 -107q0 -12 -10 -39q-150 158 -240 205q-16 4 -51 4q-74 0 -123 -25q-78 -39 -122 -59.5t-54 -24.5q-78 -29 -127 -116q-45 -78 -45 -168q0 -102 31 -135q18 -18 135 -66q133 -53 133 -80q0 -49 -43 -63q-25 -10 -100 -19 q-66 -10 -97 -18q20 -51 99 -51q135 0 211 94q49 61 49 133q0 23 -31 131q-78 76 -117 92q-135 51 -135 111q0 14 10.5 28.5t27.5 26.5t36.5 19.5t38.5 7.5q100 0 196.5 -65.5t118.5 -162.5q59 -115 59 -180q0 -154 -155 -297q-152 -141 -309 -151q-2 0 -22.5 -8.5 t-25.5 -8.5q-2 0 -11 1t-19.5 2t-19.5 2t-11 1q-25 0 -55.5 -15t-30.5 -32zM440 528q229 147 297 236h37q-10 -16 -10 -51q0 -23 6 -65.5t6 -65.5q0 -68 -14 -95q-18 -18 -39 -26q-59 -39 -102 -69t-72 -52q-45 76 -71.5 122t-37.5 66zM874 733q0 -350 58 -477 q18 -12 35 -84q18 -84 26 -94q82 27 70 76q20 6 31 18q10 14 17 24.5l11 16.5l70 63q63 57 63 82q0 47 -43 48q-4 0 -51 -21q-27 20 -26 104q-39 102 -39 148v399q0 18 10 15q20 178 30.5 271t14.5 108q23 41 54.5 94t70.5 116q0 29 -47 29q-37 0 -137 -110 q-29 -23 -48.5 -35.5t-29.5 -16.5q-33 -14 -66 -24q-35 -23 -37 -78q-10 -147 -24 -205q2 -78 3 -124t-1 -56l-8 -174q-6 -129 -7 -113zM874 1755l62 -24q358 156 358 360l-198 -47q2 -74 -57.5 -153t-164.5 -136z" />
<glyph unicode="&#xc2;" horiz-adv-x="1273" d="M0 436q0 -45 59 -45q6 0 29 4t25 4q74 0 151 -84q80 -86 82 -155q18 -29 19 -47q0 -2 -1.5 -12.5t-3.5 -28.5q-2 -16 -3 -27.5t-1 -15.5q0 -49 52 -43q20 27 57 102q16 31 31.5 58.5t31.5 50.5q31 41 77 88t110 100q29 23 63 25q10 -41 16.5 -66t10.5 -35 q-2 -10 -1 -26.5t4 -33t6 -31.5t3 -21q16 -61 29.5 -106.5t23.5 -74.5q37 -16 45 -14q17 6 17 37q0 29 -33 96q-31 74 -31 109l-45 465q4 10 9.5 31.5t13.5 54.5q0 35 -6 53q8 92 12 152.5t4 95.5q0 63 -2 71q27 100 27 174q0 61 -27 195q-37 193 -76 193q-47 0 -47 -50 q0 -10 17 -32q18 -100 39.5 -178t21.5 -107q0 -12 -10 -39q-150 158 -240 205q-16 4 -51 4q-74 0 -123 -25q-78 -39 -122 -59.5t-54 -24.5q-78 -29 -127 -116q-45 -78 -45 -168q0 -102 31 -135q18 -18 135 -66q133 -53 133 -80q0 -49 -43 -63q-25 -10 -100 -19 q-66 -10 -97 -18q20 -51 99 -51q135 0 211 94q49 61 49 133q0 23 -31 131q-78 76 -117 92q-135 51 -135 111q0 14 10.5 28.5t27.5 26.5t36.5 19.5t38.5 7.5q100 0 196.5 -65.5t118.5 -162.5q59 -115 59 -180q0 -154 -155 -297q-152 -141 -309 -151q-2 0 -22.5 -8.5 t-25.5 -8.5q-2 0 -11 1t-19.5 2t-19.5 2t-11 1q-25 0 -55.5 -15t-30.5 -32zM440 528q229 147 297 236h37q-10 -16 -10 -51q0 -23 6 -65.5t6 -65.5q0 -68 -14 -95q-18 -18 -39 -26q-59 -39 -102 -69t-72 -52q-45 76 -71.5 122t-37.5 66zM549 1763l33 -32l178 180 q47 -47 107.5 -93t133.5 -87l119 141q-82 51 -149.5 102t-122.5 103zM874 733q0 -350 58 -477q18 -12 35 -84q18 -84 26 -94q82 27 70 76q20 6 31 18q10 14 17 24.5l11 16.5l70 63q63 57 63 82q0 47 -43 48q-4 0 -51 -21q-27 20 -26 104q-39 102 -39 148v399q0 18 10 15 q20 178 30.5 271t14.5 108q23 41 54.5 94t70.5 116q0 29 -47 29q-37 0 -137 -110q-29 -23 -48.5 -35.5t-29.5 -16.5q-33 -14 -66 -24q-35 -23 -37 -78q-10 -147 -24 -205q2 -78 3 -124t-1 -56l-8 -174q-6 -129 -7 -113z" />
<glyph unicode="&#xc3;" horiz-adv-x="1273" d="M0 436q0 -45 59 -45q6 0 29 4t25 4q74 0 151 -84q80 -86 82 -155q18 -29 19 -47q0 -2 -1.5 -12.5t-3.5 -28.5q-2 -16 -3 -27.5t-1 -15.5q0 -49 52 -43q20 27 57 102q16 31 31.5 58.5t31.5 50.5q31 41 77 88t110 100q29 23 63 25q10 -41 16.5 -66t10.5 -35 q-2 -10 -1 -26.5t4 -33t6 -31.5t3 -21q16 -61 29.5 -106.5t23.5 -74.5q37 -16 45 -14q17 6 17 37q0 29 -33 96q-31 74 -31 109l-45 465q4 10 9.5 31.5t13.5 54.5q0 35 -6 53q8 92 12 152.5t4 95.5q0 63 -2 71q27 100 27 174q0 61 -27 195q-37 193 -76 193q-47 0 -47 -50 q0 -10 17 -32q18 -100 39.5 -178t21.5 -107q0 -12 -10 -39q-150 158 -240 205q-16 4 -51 4q-74 0 -123 -25q-78 -39 -122 -59.5t-54 -24.5q-78 -29 -127 -116q-45 -78 -45 -168q0 -102 31 -135q18 -18 135 -66q133 -53 133 -80q0 -49 -43 -63q-25 -10 -100 -19 q-66 -10 -97 -18q20 -51 99 -51q135 0 211 94q49 61 49 133q0 23 -31 131q-78 76 -117 92q-135 51 -135 111q0 14 10.5 28.5t27.5 26.5t36.5 19.5t38.5 7.5q100 0 196.5 -65.5t118.5 -162.5q59 -115 59 -180q0 -154 -155 -297q-152 -141 -309 -151q-2 0 -22.5 -8.5 t-25.5 -8.5q-2 0 -11 1t-19.5 2t-19.5 2t-11 1q-25 0 -55.5 -15t-30.5 -32zM440 528q229 147 297 236h37q-10 -16 -10 -51q0 -23 6 -65.5t6 -65.5q0 -68 -14 -95q-18 -18 -39 -26q-59 -39 -102 -69t-72 -52q-45 76 -71.5 122t-37.5 66zM524 1765l31 -20l80 94 q31 -8 76 -25.5t104 -44.5q84 -39 115 -38q47 0 102 84l84 129l-33 22l-69 -90q-78 20 -160 61q-92 45 -133 45q-53 0 -115 -92zM874 733q0 -350 58 -477q18 -12 35 -84q18 -84 26 -94q82 27 70 76q20 6 31 18q10 14 17 24.5l11 16.5l70 63q63 57 63 82q0 47 -43 48 q-4 0 -51 -21q-27 20 -26 104q-39 102 -39 148v399q0 18 10 15q20 178 30.5 271t14.5 108q23 41 54.5 94t70.5 116q0 29 -47 29q-37 0 -137 -110q-29 -23 -48.5 -35.5t-29.5 -16.5q-33 -14 -66 -24q-35 -23 -37 -78q-10 -147 -24 -205q2 -78 3 -124t-1 -56l-8 -174 q-6 -129 -7 -113z" />
<glyph unicode="&#xc4;" horiz-adv-x="1273" d="M0 436q0 -45 59 -45q6 0 29 4t25 4q74 0 151 -84q80 -86 82 -155q18 -29 19 -47q0 -2 -1.5 -12.5t-3.5 -28.5q-2 -16 -3 -27.5t-1 -15.5q0 -49 52 -43q20 27 57 102q16 31 31.5 58.5t31.5 50.5q31 41 77 88t110 100q29 23 63 25q10 -41 16.5 -66t10.5 -35 q-2 -10 -1 -26.5t4 -33t6 -31.5t3 -21q16 -61 29.5 -106.5t23.5 -74.5q37 -16 45 -14q17 6 17 37q0 29 -33 96q-31 74 -31 109l-45 465q4 10 9.5 31.5t13.5 54.5q0 35 -6 53q8 92 12 152.5t4 95.5q0 63 -2 71q27 100 27 174q0 61 -27 195q-37 193 -76 193q-47 0 -47 -50 q0 -10 17 -32q18 -100 39.5 -178t21.5 -107q0 -12 -10 -39q-150 158 -240 205q-16 4 -51 4q-74 0 -123 -25q-78 -39 -122 -59.5t-54 -24.5q-78 -29 -127 -116q-45 -78 -45 -168q0 -102 31 -135q18 -18 135 -66q133 -53 133 -80q0 -49 -43 -63q-25 -10 -100 -19 q-66 -10 -97 -18q20 -51 99 -51q135 0 211 94q49 61 49 133q0 23 -31 131q-78 76 -117 92q-135 51 -135 111q0 14 10.5 28.5t27.5 26.5t36.5 19.5t38.5 7.5q100 0 196.5 -65.5t118.5 -162.5q59 -115 59 -180q0 -154 -155 -297q-152 -141 -309 -151q-2 0 -22.5 -8.5 t-25.5 -8.5q-2 0 -11 1t-19.5 2t-19.5 2t-11 1q-25 0 -55.5 -15t-30.5 -32zM428 1905q12 -16 55 -37q35 -23 60 -56q2 -2 18 -51q12 -39 39 -41q35 59 72 110.5t78 96.5q-96 39 -117 66q-18 35 -30.5 61.5t-16.5 46.5q-20 -18 -27 -33q2 -6 2 -30q0 -29 -41 -51 q-57 -31 -92 -82zM440 528q229 147 297 236h37q-10 -16 -10 -51q0 -23 6 -65.5t6 -65.5q0 -68 -14 -95q-18 -18 -39 -26q-59 -39 -102 -69t-72 -52q-45 76 -71.5 122t-37.5 66zM791 1905q14 -14 57 -37q33 -23 59 -56l10.5 -28t6.5 -23q12 -39 39 -41q65 115 151 207 q-98 41 -119 66q-37 70 -45 108q-20 -18 -28 -33q2 -6 2 -30q0 -29 -41 -51q-57 -31 -92 -82zM874 733q0 -350 58 -477q18 -12 35 -84q18 -84 26 -94q82 27 70 76q20 6 31 18q10 14 17 24.5l11 16.5l70 63q63 57 63 82q0 47 -43 48q-4 0 -51 -21q-27 20 -26 104 q-39 102 -39 148v399q0 18 10 15q20 178 30.5 271t14.5 108q23 41 54.5 94t70.5 116q0 29 -47 29q-37 0 -137 -110q-29 -23 -48.5 -35.5t-29.5 -16.5q-33 -14 -66 -24q-35 -23 -37 -78q-10 -147 -24 -205q2 -78 3 -124t-1 -56l-8 -174q-6 -129 -7 -113z" />
<glyph unicode="&#xc5;" horiz-adv-x="1273" d="M0 436q0 -45 59 -45q6 0 29 4t25 4q74 0 151 -84q80 -86 82 -155q18 -29 19 -47q0 -2 -1.5 -12.5t-3.5 -28.5q-2 -16 -3 -27.5t-1 -15.5q0 -49 52 -43q20 27 57 102q16 31 31.5 58.5t31.5 50.5q31 41 77 88t110 100q29 23 63 25q10 -41 16.5 -66t10.5 -35 q-2 -10 -1 -26.5t4 -33t6 -31.5t3 -21q16 -61 29.5 -106.5t23.5 -74.5q37 -16 45 -14q16 6 17 37q0 29 -33 96q-31 74 -31 109l-45 465q4 10 9.5 31.5t13.5 54.5q0 35 -6 53q8 92 12 152.5t4 95.5q0 63 -2 71q27 100 27 174q0 61 -27 195q-10 53 -20.5 93t-20.5 63 q90 68 96 75q45 45 45 113q0 78 -84 150l-92 77q-55 -41 -67 -49q-68 -47 -95 -80q-43 -55 -43 -108q0 -86 93 -150l65 -45q4 -14 17 -28q18 -100 39.5 -178t21.5 -107q0 -12 -10 -39q-150 158 -240 205q-16 4 -51 4q-74 0 -123 -25q-78 -39 -122 -59.5t-54 -24.5 q-78 -29 -127 -116q-45 -78 -45 -168q0 -102 31 -135q18 -18 135 -66q133 -53 133 -80q0 -49 -43 -63q-25 -10 -100 -19q-66 -10 -97 -18q20 -51 99 -51q135 0 211 94q49 61 49 133q0 23 -31 131q-78 76 -117 92q-135 51 -135 111q0 14 10.5 28.5t27.5 26.5t36.5 19.5 t38.5 7.5q100 0 196.5 -65.5t118.5 -162.5q59 -115 59 -180q0 -154 -155 -297q-152 -141 -309 -151q-2 0 -22.5 -8.5t-25.5 -8.5q-2 0 -11 1t-19.5 2t-19.5 2t-11 1q-25 0 -55.5 -15t-30.5 -32zM440 528q229 147 297 236h37q-10 -16 -10 -51q0 -23 6 -65.5t6 -65.5 q0 -68 -14 -95q-18 -18 -39 -26q-59 -39 -102 -69t-72 -52q-45 76 -71.5 122t-37.5 66zM666 1903q0 55 65 114l45 -32q80 -59 80 -142q0 -61 -55 -106l-51 35q-84 59 -84 131zM874 733q0 -350 58 -477q18 -12 35 -84q18 -84 26 -94q82 27 70 76q20 6 31 18q10 14 17 24.5 l11 16.5l70 63q63 57 63 82q0 47 -43 48q-4 0 -51 -21q-27 20 -26 104q-39 102 -39 148v399q0 18 10 15q20 178 30.5 271t14.5 108q23 41 54.5 94t70.5 116q0 29 -47 29q-37 0 -137 -110q-29 -23 -48.5 -35.5t-29.5 -16.5q-33 -14 -66 -24q-35 -23 -37 -78 q-10 -147 -24 -205q2 -78 3 -124t-1 -56l-8 -174q-6 -129 -7 -113z" />
<glyph unicode="&#xc6;" horiz-adv-x="1988" d="M14 436q0 -45 62 -45q6 0 28.5 4t24.5 4q74 0 152 -84q80 -86 81 -155q18 -29 19 -47q0 -2 -1 -12.5t-3 -28.5q-2 -16 -3 -27.5t-1 -15.5q0 -49 51 -43q20 27 57 102q16 31 31.5 58.5t32.5 50.5q31 41 77 88t109 100q29 23 64 25q10 -41 16 -66t10 -35q-2 -10 -1 -26.5 t4 -33t6.5 -31.5t3.5 -21q16 -61 29.5 -106.5t23.5 -74.5q37 -16 45 -14q16 6 16 37q0 29 -33 96q-31 74 -30 109l-45 465q4 10 9 31.5t13 54.5q0 35 -6 53q8 92 12 152.5t4 95.5q0 63 -2 71q27 100 27 174q0 61 -27 195q-37 193 -75 193q-47 0 -47 -50q0 -10 16 -32 q18 -100 39.5 -178t21.5 -107q0 -12 -10 -39q-150 158 -240 205q-16 4 -51 4q-74 0 -123 -25q-78 -39 -121.5 -59.5t-54.5 -24.5q-78 -29 -127 -116q-45 -78 -45 -168q0 -102 31 -135q18 -18 135 -66q133 -53 133 -80q0 -49 -43 -63q-25 -10 -100 -19q-66 -10 -96 -18 q20 -51 98 -51q135 0 211 94q49 61 49 133q0 23 -31 131q-78 76 -116 92q-135 51 -136 111q0 14 10.5 28.5t28 26.5t37 19.5t37.5 7.5q100 0 196.5 -65.5t118.5 -162.5q59 -115 60 -180q0 -154 -156 -297q-152 -141 -309 -151q-2 0 -22.5 -8.5t-24.5 -8.5q-2 0 -11.5 1 t-19.5 2t-19.5 2t-11.5 1q-25 0 -56.5 -15t-31.5 -32zM457 528q229 147 297 236h37q-10 -16 -11 -51q0 -23 6.5 -65.5t6.5 -65.5q0 -68 -15 -95q-18 -18 -39 -26q-59 -39 -102 -69t-72 -52q-45 76 -71.5 122t-36.5 66zM891 733q0 -350 57 -477q18 -12 35 -84q18 -84 27 -94 q80 25 69 72q94 -98 207 -119l66 -19q43 -12 65 -12h88q100 0 246 129q135 119 174 225q45 88 47 92q0 31 -30 31q-12 0 -33 -55l-4 -8q-29 -68 -31 -74q-47 -66 -135 -125q-92 -61 -168 -61q-14 0 -43 6t-43 6q-49 0 -148 45q-51 20 -94 102q29 35 29 45q0 47 -43 48 l-27 -11l-39 82q-20 41 -20 53q0 18 26.5 31.5t53.5 13.5q57 0 94 -30q25 -23 57.5 -41.5t67.5 -32.5t69.5 -22.5t65.5 -8.5q74 0 186 162q68 94 105 168q-25 25 -33 25q-27 -35 -44 -57.5t-28 -35.5q-55 -70 -102 -69q-51 0 -113 22q-29 23 -48 37.5t-30 22.5l-55 10 q-41 10 -41 29q43 43 90 57q41 14 94.5 37.5t119 58.5t113.5 67t79 60q31 27 31 101q0 63 -52 147q-35 63 -54 98t-23 43q-8 8 -5 70q4 41 -16 45q-201 -158 -201 -188q0 -14 35 -68q16 -27 26.5 -43t12.5 -22q25 -53 25 -115q0 -109 -121 -205q-23 -18 -76 -52t-139 -85 q-14 -8 -31.5 -16.5t-38.5 -16.5q-72 -72 -94 -74q-33 68 -33 209q0 61 21 109q53 123 55 143q35 41 59 49q76 94 207 191q63 45 64 67q0 16 -17 33q-231 -125 -366 -254q20 215 28 230q20 39 52 91t73 119q0 29 -47 29q-37 0 -137 -110q-29 -23 -48.5 -35.5t-29.5 -16.5 q-33 -14 -65 -24q-35 -23 -37 -78q-10 -147 -25 -205q2 -78 3 -124t-1 -56l-8 -174q-6 -129 -6 -113z" />
<glyph unicode="&#xc7;" horiz-adv-x="1464" d="M-78 244q8 -16 13.5 -28.5t9.5 -20.5q4 -6 15 -17.5t25.5 -22t28 -17.5t23.5 -7h37q23 0 26 2h15q2 0 37 11l34 10q29 0 101 -41q41 -25 65.5 -37.5t28.5 -14.5q59 -23 114.5 -37t104.5 -22q4 -76 -29 -131q-39 -70 -112 -70q-29 0 -56 9q82 -86 177 -86q121 0 188 139 q33 67 35 139q51 6 135 55q164 68 260 158q25 23 47.5 42t44.5 36q8 2 10 20l3 15q57 51 57 67q0 14 -19 33q-43 -10 -53 -22q-12 -49 -18 -60q-23 -41 -62 -61q-94 -55 -151 -103q-102 -29 -180 -28q-92 0 -252 53q-174 57 -187 131q86 82 138.5 137t74.5 84q80 109 78 236 q0 2 7 21.5t7 25.5q0 47 -36 229q6 88 6 137q0 47 -6 52q33 82 61 81q61 0 115 -71q8 -10 21.5 -40t29.5 -77q27 -86 45 -92q33 45 33 61q0 29 -64 129q-27 41 -43 68t-26 41q-18 18 -30.5 31.5t-19.5 21.5q0 23 48 39q33 12 63 12q51 0 94 -18q27 -6 117 -96t90 -113 q0 -8 -49 -66q-47 -59 -39 -84q51 -6 160 93q233 174 233 213q0 27 -30 43l-43 -23q-27 0 -109 78q-47 45 -75.5 69.5t-39.5 32.5q-78 37 -162 37q-31 0 -122 -33l-13 -4q-41 -14 -68.5 -25.5t-43.5 -19.5q-35 -23 -65 -44t-52 -38q-70 -14 -109 -12q-55 -8 -114.5 -35.5 t-108.5 -50.5q-115 -55 -213 -164q-104 -113 -135 -229q-43 -170 -43 -287q0 -90 29 -201q41 -143 127 -260q0 -37 -78 -37q-59 0 -78 27q-23 57 -31 86q-4 6 -37 6zM205 852q0 4 1 11t3 18l6 30q4 20 6 32.5t4 17.5q18 137 146 274q135 141 272 139q4 -18 2 -20 q-70 -98 -86 -131q-23 -53 -37 -146q-18 -41 -20 -43q-4 -45 -6 -108.5t-2 -147.5l-5 -12q-8 -8 -8 -23q0 -31 19 -81q18 -53 18 -80q0 -51 -31 -119q-41 -86 -96 -86q-18 0 -33 24q-47 82 -76.5 139.5t-43.5 92.5q-33 86 -33 219z" />
<glyph unicode="&#xc8;" horiz-adv-x="1699" d="M-6 -1061l6 -26h6l-6 30zM49 297q14 -43 43 -43q4 2 8 2t9 2q111 16 204 86q104 76 123 176l2 8q2 9 5 20t4.5 21.5t1.5 16.5q0 12 14 41q14 31 14 37q-2 4 -6 8l-8 8q-14 14 -14 104v109q0 4 -1.5 30.5t-3.5 76t-3 76t-1 30.5q0 2 -7 22.5t-7 26.5q0 43 63 156 q23 39 38.5 66.5t25.5 43.5q14 6 21.5 9.5t11.5 5.5q23 12 96 102q76 89 76 109q0 12 -19 22q-41 -4 -82 -53q-27 -31 -42 -48.5t-19 -21.5q-51 -35 -77.5 -53t-31.5 -23q-80 -68 -118 -116q-31 -16 -78 -74q-47 -55 -55 -92q-25 -92 -25 -172l57 -518q0 -170 -157 -170 q-27 0 -54 6q0 -2 -4 -17.5t-4 -19.5zM100 74q0 -43 35 -43q63 88 105 114q53 39 149 39q47 0 289 -75q23 -10 43 -21.5t39 -26.5q223 -63 252 -63h16t35 2h49q6 0 23.5 10t19.5 10q96 20 272 162q86 70 154 124t119 95q8 32 12 50q-47 0 -51 -2q-281 -256 -463 -256 q6 0 -22.5 3t-94.5 7q-41 2 -102 45q-16 4 -28.5 8t-18.5 6q-57 25 -95 41t-59 25q-16 16 -116 41q-102 20 -134 41q123 94 187 133q203 127 225 176q8 18 12 98q4 55 23 62q74 -10 168 -37q125 -37 125 -78q-10 -16 -18.5 -31.5t-18.5 -32.5q-35 -63 -33 -75q43 -2 102 94 q10 12 21.5 24.5t26.5 26.5q2 4 2 25q225 238 268 266q8 20 12 31q-2 10 -4 17t-6 15q-29 -6 -104.5 -69.5t-81.5 -63.5q-45 0 -93 21q-59 25 -59 61q0 8 98 76q100 68 113 88q25 39 25 72q-2 4 -2 10t-3 14q-27 51 -49 90t-41 68q0 14 21 43q10 16 15 26.5t7 14.5l-12 4 q-16 4 -35 4l-428 -215q-33 14 -41 33v31q0 51 76 102t129 49v55q-43 18 -57 19q-12 0 -205 -131q-102 -70 -174 -118t-115 -75q-8 -25 -4 -35q20 -12 35 -12q4 0 20.5 3t18.5 3q14 0 33 -63v-287q6 -29 -58 -65q-61 -37 -59 -62q18 0 54 7t52 7l11 -106q-23 -94 -25 -96 q-57 -90 -207 -209q-72 -57 -121 -95t-73 -59q-180 -137 -181 -190zM537 2048q63 -203 358 -317l55 20q-100 55 -161.5 130t-61.5 140q0 25 10 56zM950 1087l19 191q100 82 184 82q51 0 90 -37t39 -88q0 -35 -63 -123q-188 -86 -228 -86q-41 0 -41 61z" />
<glyph unicode="&#xc9;" horiz-adv-x="1699" d="M-6 -1061l6 -26h6l-6 30zM49 297q14 -43 43 -43q4 2 8 2t9 2q111 16 204 86q104 76 123 176l2 8q2 9 5 20t4.5 21.5t1.5 16.5q0 12 14 41q14 31 14 37q-2 4 -6 8l-8 8q-14 14 -14 104v109q0 4 -1.5 30.5t-3.5 76t-3 76t-1 30.5q0 2 -7 22.5t-7 26.5q0 43 63 156 q23 39 38.5 66.5t25.5 43.5q14 6 21.5 9.5t11.5 5.5q23 12 96 102q76 89 76 109q0 12 -19 22q-41 -4 -82 -53q-27 -31 -42 -48.5t-19 -21.5q-51 -35 -77.5 -53t-31.5 -23q-80 -68 -118 -116q-31 -16 -78 -74q-47 -55 -55 -92q-25 -92 -25 -172l57 -518q0 -170 -157 -170 q-27 0 -54 6q0 -2 -4 -17.5t-4 -19.5zM100 74q0 -43 35 -43q63 88 105 114q53 39 149 39q47 0 289 -75q23 -10 43 -21.5t39 -26.5q223 -63 252 -63h16t35 2h49q6 0 23.5 10t19.5 10q96 20 272 162q86 70 154 124t119 95q8 32 12 50q-47 0 -51 -2q-281 -256 -463 -256 q6 0 -22.5 3t-94.5 7q-41 2 -102 45q-16 4 -28.5 8t-18.5 6q-57 25 -95 41t-59 25q-16 16 -116 41q-102 20 -134 41q123 94 187 133q203 127 225 176q8 18 12 98q4 55 23 62q74 -10 168 -37q125 -37 125 -78q-10 -16 -18.5 -31.5t-18.5 -32.5q-35 -63 -33 -75q43 -2 102 94 q10 12 21.5 24.5t26.5 26.5q2 4 2 25q225 238 268 266q8 20 12 31q-2 10 -4 17t-6 15q-29 -6 -104.5 -69.5t-81.5 -63.5q-45 0 -93 21q-59 25 -59 61q0 8 98 76q100 68 113 88q25 39 25 72q-2 4 -2 10t-3 14q-27 51 -49 90t-41 68q0 14 21 43q10 16 15 26.5t7 14.5l-12 4 q-16 4 -35 4l-428 -215q-33 14 -41 33v31q0 51 76 102t129 49v55q-43 18 -57 19q-12 0 -205 -131q-102 -70 -174 -118t-115 -75q-8 -25 -4 -35q20 -12 35 -12q4 0 20.5 3t18.5 3q14 0 33 -63v-287q6 -29 -58 -65q-61 -37 -59 -62q18 0 54 7t52 7l11 -106q-23 -94 -25 -96 q-57 -90 -207 -209q-72 -57 -121 -95t-73 -59q-180 -137 -181 -190zM950 1087l19 191q100 82 184 82q51 0 90 -37t39 -88q0 -35 -63 -123q-188 -86 -228 -86q-41 0 -41 61zM997 1755l62 -24q358 156 358 360l-198 -47q2 -74 -57.5 -153t-164.5 -136z" />
<glyph unicode="&#xca;" horiz-adv-x="1699" d="M-6 -1061l6 -26h6l-6 30zM49 297q14 -43 43 -43q4 2 8 2t9 2q111 16 204 86q104 76 123 176l2 8q2 9 5 20t4.5 21.5t1.5 16.5q0 12 14 41q14 31 14 37q-2 4 -6 8l-8 8q-14 14 -14 104v109q0 4 -1.5 30.5t-3.5 76t-3 76t-1 30.5q0 2 -7 22.5t-7 26.5q0 43 63 156 q23 39 38.5 66.5t25.5 43.5q14 6 21.5 9.5t11.5 5.5q23 12 96 102q76 89 76 109q0 12 -19 22q-41 -4 -82 -53q-27 -31 -42 -48.5t-19 -21.5q-51 -35 -77.5 -53t-31.5 -23q-80 -68 -118 -116q-31 -16 -78 -74q-47 -55 -55 -92q-25 -92 -25 -172l57 -518q0 -170 -157 -170 q-27 0 -54 6q0 -2 -4 -17.5t-4 -19.5zM100 74q0 -43 35 -43q63 88 105 114q53 39 149 39q47 0 289 -75q23 -10 43 -21.5t39 -26.5q223 -63 252 -63h16t35 2h49q6 0 23.5 10t19.5 10q96 20 272 162q86 70 154 124t119 95q8 32 12 50q-47 0 -51 -2q-281 -256 -463 -256 q6 0 -22.5 3t-94.5 7q-41 2 -102 45q-16 4 -28.5 8t-18.5 6q-57 25 -95 41t-59 25q-16 16 -116 41q-102 20 -134 41q123 94 187 133q203 127 225 176q8 18 12 98q4 55 23 62q74 -10 168 -37q125 -37 125 -78q-10 -16 -18.5 -31.5t-18.5 -32.5q-35 -63 -33 -75q43 -2 102 94 q10 12 21.5 24.5t26.5 26.5q2 4 2 25q225 238 268 266q8 20 12 31q-2 10 -4 17t-6 15q-29 -6 -104.5 -69.5t-81.5 -63.5q-45 0 -93 21q-59 25 -59 61q0 8 98 76q100 68 113 88q25 39 25 72q-2 4 -2 10t-3 14q-27 51 -49 90t-41 68q0 14 21 43q10 16 15 26.5t7 14.5l-12 4 q-16 4 -35 4l-428 -215q-33 14 -41 33v31q0 51 76 102t129 49v55q-43 18 -57 19q-12 0 -205 -131q-102 -70 -174 -118t-115 -75q-8 -25 -4 -35q20 -12 35 -12q4 0 20.5 3t18.5 3q14 0 33 -63v-287q6 -29 -58 -65q-61 -37 -59 -62q18 0 54 7t52 7l11 -106q-23 -94 -25 -96 q-57 -90 -207 -209q-72 -57 -121 -95t-73 -59q-180 -137 -181 -190zM733 1763l33 -32l178 180q47 -47 107.5 -93t134.5 -87l119 141q-82 51 -150 102t-123 103zM950 1087l19 191q100 82 184 82q51 0 90 -37t39 -88q0 -35 -63 -123q-188 -86 -228 -86q-41 0 -41 61z" />
<glyph unicode="&#xcb;" horiz-adv-x="1699" d="M-6 -1061l6 -26h6l-6 30zM49 297q14 -43 43 -43q4 2 8 2t9 2q111 16 204 86q104 76 123 176l2 8q2 9 5 20t4.5 21.5t1.5 16.5q0 12 14 41q14 31 14 37q-2 4 -6 8l-8 8q-14 14 -14 104v109q0 4 -1.5 30.5t-3.5 76t-3 76t-1 30.5q0 2 -7 22.5t-7 26.5q0 43 63 156 q23 39 38.5 66.5t25.5 43.5q14 6 21.5 9.5t11.5 5.5q23 12 96 102q76 89 76 109q0 12 -19 22q-41 -4 -82 -53q-27 -31 -42 -48.5t-19 -21.5q-51 -35 -77.5 -53t-31.5 -23q-80 -68 -118 -116q-31 -16 -78 -74q-47 -55 -55 -92q-25 -92 -25 -172l57 -518q0 -170 -157 -170 q-27 0 -54 6q0 -2 -4 -17.5t-4 -19.5zM100 74q0 -43 35 -43q63 88 105 114q53 39 149 39q47 0 289 -75q23 -10 43 -21.5t39 -26.5q223 -63 252 -63h16t35 2h49q6 0 23.5 10t19.5 10q96 20 272 162q86 70 154 124t119 95q8 32 12 50q-47 0 -51 -2q-281 -256 -463 -256 q6 0 -22.5 3t-94.5 7q-41 2 -102 45q-16 4 -28.5 8t-18.5 6q-57 25 -95 41t-59 25q-16 16 -116 41q-102 20 -134 41q123 94 187 133q203 127 225 176q8 18 12 98q4 55 23 62q74 -10 168 -37q125 -37 125 -78q-10 -16 -18.5 -31.5t-18.5 -32.5q-35 -63 -33 -75q43 -2 102 94 q10 12 21.5 24.5t26.5 26.5q2 4 2 25q225 238 268 266q8 20 12 31q-2 10 -4 17t-6 15q-29 -6 -104.5 -69.5t-81.5 -63.5q-45 0 -93 21q-59 25 -59 61q0 8 98 76q100 68 113 88q25 39 25 72q-2 4 -2 10t-3 14q-27 51 -49 90t-41 68q0 14 21 43q10 16 15 26.5t7 14.5l-12 4 q-16 4 -35 4l-428 -215q-33 14 -41 33v31q0 51 76 102t129 49v55q-43 18 -57 19q-12 0 -205 -131q-102 -70 -174 -118t-115 -75q-8 -25 -4 -35q20 -12 35 -12q4 0 20.5 3t18.5 3q14 0 33 -63v-287q6 -29 -58 -65q-61 -37 -59 -62q18 0 54 7t52 7l11 -106q-23 -94 -25 -96 q-57 -90 -207 -209q-72 -57 -121 -95t-73 -59q-180 -137 -181 -190zM612 1905q12 -16 56 -37q35 -23 59 -56q2 -2 18 -51q12 -39 39 -41q35 59 72 110.5t78 96.5q-96 39 -117 66q-18 35 -30.5 61.5t-16.5 46.5q-20 -18 -27 -33q2 -6 2 -30q0 -29 -40 -51q-57 -31 -93 -82z M950 1087l19 191q100 82 184 82q51 0 90 -37t39 -88q0 -35 -63 -123q-188 -86 -228 -86q-41 0 -41 61zM975 1905q14 -14 57 -37q33 -23 60 -56q6 -16 10 -28t6 -23q12 -39 39 -41q65 115 151 207q-98 41 -118 66q-37 70 -45 108q-20 -18 -29 -33q2 -6 2 -30q0 -29 -41 -51 q-57 -31 -92 -82z" />
<glyph unicode="&#xcc;" horiz-adv-x="1611" d="M53 221q0 -49 64 -88q57 -35 108 -35q18 0 264 66q190 -96 218 -105q125 -59 235 -59h68q4 0 67 23q172 45 266 139q131 131 162 246q8 16 17.5 33.5t19.5 35.5q6 57 10.5 91t6.5 44l-197 658q8 31 8 71q31 76 51 109q2 8 62 68q61 57 61 75t-37 41q-33 20 -57 21 q-37 -25 -51 -35q-131 -84 -262 -84q-111 0 -193 29q-295 106 -383 106q-115 0 -252 -92q-150 -100 -149 -207q0 -31 9 -65.5t25.5 -67.5t38 -60.5t46.5 -43.5q49 -16 78.5 -27.5t39.5 -15.5q100 -37 101 -82q0 -18 -11.5 -35t-28 -31t-39 -22.5t-42.5 -8.5q-35 0 -68 45.5 t-43 45.5q-12 0 -35.5 -16.5t-23.5 -26.5q0 -43 59 -84q59 -37 105 -29q61 12 157 55q25 10 54 74q29 68 28 96q0 4 -47 74t-51 72q-119 72 -227 90q-41 23 -41 51q0 31 13 56.5t36.5 45t53.5 30.5t61 11l167 -28q53 -20 88 -32.5t52 -21.5q143 -53 186 -53h64q-23 0 317 84 q-4 -23 -49 -68q-23 -23 -36 -38t-17 -23q-14 -31 -15 -129q0 -12 3 -45t8 -86q23 -18 34 -39q2 -20 0 -29q6 -57 35 -131q2 -2 58 -125q100 -221 100 -272l-4 -16q-4 -12 0 -35q0 -25 -17 -25q-92 213 -342 408q-12 14 -16 26l100 109q33 33 33 96q0 23 -10 74 q-20 20 -38.5 37.5t-35.5 34.5l-12 12t-14 12q-63 51 -125 51q-102 0 -162 -77q-35 -47 -76 -179q2 -10 -4 -41q-6 -35 -6 -43q0 -14 16 -63q16 -45 17 -62q0 -8 -11 -18q-2 0 -11 -1t-19 -1t-20.5 -1t-12.5 -1q-45 0 -133 16q-96 18 -131 19q-39 0 -133 -56 q-94 -51 -91 -88q0 -2 -4 2q-2 -2 -2 -4q0 -100 25 -139q35 -53 125 -53q145 0 141 90q-23 18 -39 18q-14 0 -49 -20.5t-47 -20.5q-55 0 -70 37q4 10 -24 58q0 57 104 92q74 23 146 22q43 0 116.5 -20.5t116.5 -20.5q4 0 25.5 3t23.5 3q109 0 207 -108q76 -47 131 -83 t92 -58q25 -16 62 -82q37 -68 37 -95q0 -72 -68 -110q-53 -33 -131 -33q-166 0 -217 70q-96 35 -117 65q45 39 143 39q12 0 29 -3t32 -8t26.5 -11t15.5 -13q-47 -29 -47 -45q0 -33 30 -41q25 0 70 35q45 33 45 62q0 86 -192 86q-117 0 -199 -31q-33 -12 -35 -14 q-86 29 -142 46t-85 25q-188 0 -246 -28q-29 -16 -74 -68q-47 -53 -47 -78zM123 227q0 14 10 25l37 31q37 14 84 14q18 0 84 -27q64 -27 82 -37q-6 -12 -27 -24q-57 -39 -147 -39q-123 0 -123 57zM582 2046q63 -203 358 -317l55 20q-100 55 -161.5 130t-61.5 140q0 25 10 56 zM791 1044q0 25 14 68q14 12 26.5 21.5t22.5 17.5q47 29 59 29q57 0 117 -50q57 -45 57 -106q0 -35 -45 -92q-43 -59 -73 -60q-27 0 -90 52q-88 70 -88 120z" />
<glyph unicode="&#xcd;" horiz-adv-x="1611" d="M53 221q0 -49 64 -88q57 -35 108 -35q18 0 264 66q190 -96 218 -105q125 -59 235 -59h68q4 0 67 23q172 45 266 139q131 131 162 246q8 16 17.5 33.5t19.5 35.5q6 57 10.5 91t6.5 44l-197 658q8 31 8 71q31 76 51 109q2 8 62 68q61 57 61 75t-37 41q-33 20 -57 21 q-37 -25 -51 -35q-131 -84 -262 -84q-111 0 -193 29q-295 106 -383 106q-115 0 -252 -92q-150 -100 -149 -207q0 -31 9 -65.5t25.5 -67.5t38 -60.5t46.5 -43.5q49 -16 78.5 -27.5t39.5 -15.5q100 -37 101 -82q0 -18 -11.5 -35t-28 -31t-39 -22.5t-42.5 -8.5q-35 0 -68 45.5 t-43 45.5q-12 0 -35.5 -16.5t-23.5 -26.5q0 -43 59 -84q59 -37 105 -29q61 12 157 55q25 10 54 74q29 68 28 96q0 4 -47 74t-51 72q-119 72 -227 90q-41 23 -41 51q0 31 13 56.5t36.5 45t53.5 30.5t61 11l167 -28q53 -20 88 -32.5t52 -21.5q143 -53 186 -53h64q-23 0 317 84 q-4 -23 -49 -68q-23 -23 -36 -38t-17 -23q-14 -31 -15 -129q0 -12 3 -45t8 -86q23 -18 34 -39q2 -20 0 -29q6 -57 35 -131q2 -2 58 -125q100 -221 100 -272l-4 -16q-4 -12 0 -35q0 -25 -17 -25q-92 213 -342 408q-12 14 -16 26l100 109q33 33 33 96q0 23 -10 74 q-20 20 -38.5 37.5t-35.5 34.5l-12 12t-14 12q-63 51 -125 51q-102 0 -162 -77q-35 -47 -76 -179q2 -10 -4 -41q-6 -35 -6 -43q0 -14 16 -63q16 -45 17 -62q0 -8 -11 -18q-2 0 -11 -1t-19 -1t-20.5 -1t-12.5 -1q-45 0 -133 16q-96 18 -131 19q-39 0 -133 -56 q-94 -51 -91 -88q0 -2 -4 2q-2 -2 -2 -4q0 -100 25 -139q35 -53 125 -53q145 0 141 90q-23 18 -39 18q-14 0 -49 -20.5t-47 -20.5q-55 0 -70 37q4 10 -24 58q0 57 104 92q74 23 146 22q43 0 116.5 -20.5t116.5 -20.5q4 0 25.5 3t23.5 3q109 0 207 -108q76 -47 131 -83 t92 -58q25 -16 62 -82q37 -68 37 -95q0 -72 -68 -110q-53 -33 -131 -33q-166 0 -217 70q-96 35 -117 65q45 39 143 39q12 0 29 -3t32 -8t26.5 -11t15.5 -13q-47 -29 -47 -45q0 -33 30 -41q25 0 70 35q45 33 45 62q0 86 -192 86q-117 0 -199 -31q-33 -12 -35 -14 q-86 29 -142 46t-85 25q-188 0 -246 -28q-29 -16 -74 -68q-47 -53 -47 -78zM123 227q0 14 10 25l37 31q37 14 84 14q18 0 84 -27q64 -27 82 -37q-6 -12 -27 -24q-57 -39 -147 -39q-123 0 -123 57zM791 1044q0 25 14 68q14 12 26.5 21.5t22.5 17.5q47 29 59 29q57 0 117 -50 q57 -45 57 -106q0 -35 -45 -92q-43 -59 -73 -60q-27 0 -90 52q-88 70 -88 120zM932 1755l61 -24q358 156 359 360l-199 -47q2 -74 -57.5 -153t-163.5 -136z" />
<glyph unicode="&#xce;" horiz-adv-x="1611" d="M53 221q0 -49 64 -88q57 -35 108 -35q18 0 264 66q190 -96 218 -105q125 -59 235 -59h68q4 0 67 23q172 45 266 139q131 131 162 246q8 16 17.5 33.5t19.5 35.5q6 57 10.5 91t6.5 44l-197 658q8 31 8 71q31 76 51 109q2 8 62 68q61 57 61 75t-37 41q-33 20 -57 21 q-37 -25 -51 -35q-131 -84 -262 -84q-111 0 -193 29q-295 106 -383 106q-115 0 -252 -92q-150 -100 -149 -207q0 -31 9 -65.5t25.5 -67.5t38 -60.5t46.5 -43.5q49 -16 78.5 -27.5t39.5 -15.5q100 -37 101 -82q0 -18 -11.5 -35t-28 -31t-39 -22.5t-42.5 -8.5q-35 0 -68 45.5 t-43 45.5q-12 0 -35.5 -16.5t-23.5 -26.5q0 -43 59 -84q59 -37 105 -29q61 12 157 55q25 10 54 74q29 68 28 96q0 4 -47 74t-51 72q-119 72 -227 90q-41 23 -41 51q0 31 13 56.5t36.5 45t53.5 30.5t61 11l167 -28q53 -20 88 -32.5t52 -21.5q143 -53 186 -53h64q-23 0 317 84 q-4 -23 -49 -68q-23 -23 -36 -38t-17 -23q-14 -31 -15 -129q0 -12 3 -45t8 -86q23 -18 34 -39q2 -20 0 -29q6 -57 35 -131q2 -2 58 -125q100 -221 100 -272l-4 -16q-4 -12 0 -35q0 -25 -17 -25q-92 213 -342 408q-12 14 -16 26l100 109q33 33 33 96q0 23 -10 74 q-20 20 -38.5 37.5t-35.5 34.5l-12 12t-14 12q-63 51 -125 51q-102 0 -162 -77q-35 -47 -76 -179q2 -10 -4 -41q-6 -35 -6 -43q0 -14 16 -63q16 -45 17 -62q0 -8 -11 -18q-2 0 -11 -1t-19 -1t-20.5 -1t-12.5 -1q-45 0 -133 16q-96 18 -131 19q-39 0 -133 -56 q-94 -51 -91 -88q0 -2 -4 2q-2 -2 -2 -4q0 -100 25 -139q35 -53 125 -53q145 0 141 90q-23 18 -39 18q-14 0 -49 -20.5t-47 -20.5q-55 0 -70 37q4 10 -24 58q0 57 104 92q74 23 146 22q43 0 116.5 -20.5t116.5 -20.5q4 0 25.5 3t23.5 3q109 0 207 -108q76 -47 131 -83 t92 -58q25 -16 62 -82q37 -68 37 -95q0 -72 -68 -110q-53 -33 -131 -33q-166 0 -217 70q-96 35 -117 65q45 39 143 39q12 0 29 -3t32 -8t26.5 -11t15.5 -13q-47 -29 -47 -45q0 -33 30 -41q25 0 70 35q45 33 45 62q0 86 -192 86q-117 0 -199 -31q-33 -12 -35 -14 q-86 29 -142 46t-85 25q-188 0 -246 -28q-29 -16 -74 -68q-47 -53 -47 -78zM123 227q0 14 10 25l37 31q37 14 84 14q18 0 84 -27q64 -27 82 -37q-6 -12 -27 -24q-57 -39 -147 -39q-123 0 -123 57zM711 1763l32 -32l179 180q47 -47 107.5 -93t133.5 -87l119 141 q-82 51 -149.5 102t-122.5 103zM791 1044q0 25 14 68q14 12 26.5 21.5t22.5 17.5q47 29 59 29q57 0 117 -50q57 -45 57 -106q0 -35 -45 -92q-43 -59 -73 -60q-27 0 -90 52q-88 70 -88 120z" />
<glyph unicode="&#xcf;" horiz-adv-x="1611" d="M53 221q0 -49 64 -88q57 -35 108 -35q18 0 264 66q190 -96 218 -105q125 -59 235 -59h68q4 0 67 23q172 45 266 139q131 131 162 246q8 16 17.5 33.5t19.5 35.5q6 57 10.5 91t6.5 44l-197 658q8 31 8 71q31 76 51 109q2 8 62 68q61 57 61 75t-37 41q-33 20 -57 21 q-37 -25 -51 -35q-131 -84 -262 -84q-111 0 -193 29q-295 106 -383 106q-115 0 -252 -92q-150 -100 -149 -207q0 -31 9 -65.5t25.5 -67.5t38 -60.5t46.5 -43.5q49 -16 78.5 -27.5t39.5 -15.5q100 -37 101 -82q0 -18 -11.5 -35t-28 -31t-39 -22.5t-42.5 -8.5q-35 0 -68 45.5 t-43 45.5q-12 0 -35.5 -16.5t-23.5 -26.5q0 -43 59 -84q59 -37 105 -29q61 12 157 55q25 10 54 74q29 68 28 96q0 4 -47 74t-51 72q-119 72 -227 90q-41 23 -41 51q0 31 13 56.5t36.5 45t53.5 30.5t61 11l167 -28q53 -20 88 -32.5t52 -21.5q143 -53 186 -53h64q-23 0 317 84 q-4 -23 -49 -68q-23 -23 -36 -38t-17 -23q-14 -31 -15 -129q0 -12 3 -45t8 -86q23 -18 34 -39q2 -20 0 -29q6 -57 35 -131q2 -2 58 -125q100 -221 100 -272l-4 -16q-4 -12 0 -35q0 -25 -17 -25q-92 213 -342 408q-12 14 -16 26l100 109q33 33 33 96q0 23 -10 74 q-20 20 -38.5 37.5t-35.5 34.5l-12 12t-14 12q-63 51 -125 51q-102 0 -162 -77q-35 -47 -76 -179q2 -10 -4 -41q-6 -35 -6 -43q0 -14 16 -63q16 -45 17 -62q0 -8 -11 -18q-2 0 -11 -1t-19 -1t-20.5 -1t-12.5 -1q-45 0 -133 16q-96 18 -131 19q-39 0 -133 -56 q-94 -51 -91 -88q0 -2 -4 2q-2 -2 -2 -4q0 -100 25 -139q35 -53 125 -53q145 0 141 90q-23 18 -39 18q-14 0 -49 -20.5t-47 -20.5q-55 0 -70 37q4 10 -24 58q0 57 104 92q74 23 146 22q43 0 116.5 -20.5t116.5 -20.5q4 0 25.5 3t23.5 3q109 0 207 -108q76 -47 131 -83 t92 -58q25 -16 62 -82q37 -68 37 -95q0 -72 -68 -110q-53 -33 -131 -33q-166 0 -217 70q-96 35 -117 65q45 39 143 39q12 0 29 -3t32 -8t26.5 -11t15.5 -13q-47 -29 -47 -45q0 -33 30 -41q25 0 70 35q45 33 45 62q0 86 -192 86q-117 0 -199 -31q-33 -12 -35 -14 q-86 29 -142 46t-85 25q-188 0 -246 -28q-29 -16 -74 -68q-47 -53 -47 -78zM123 227q0 14 10 25l37 31q37 14 84 14q18 0 84 -27q64 -27 82 -37q-6 -12 -27 -24q-57 -39 -147 -39q-123 0 -123 57zM551 1905q12 -16 55 -37q35 -23 60 -56q2 -2 18 -51q12 -39 39 -41 q35 59 71.5 110.5t77.5 96.5q-96 39 -116 66q-18 35 -30.5 61.5t-16.5 46.5q-20 -18 -27 -33q2 -6 2 -30q0 -29 -41 -51q-57 -31 -92 -82zM791 1044q0 25 14 68q14 12 26.5 21.5t22.5 17.5q47 29 59 29q57 0 117 -50q57 -45 57 -106q0 -35 -45 -92q-43 -59 -73 -60 q-27 0 -90 52q-88 70 -88 120zM913 1905q14 -14 58 -37q33 -23 59 -56q6 -16 10 -28t7 -23q12 -39 38 -41q66 115 152 207q-98 41 -119 66q-37 70 -45 108q-20 -18 -29 -33q2 -6 3 -30q0 -29 -41 -51q-57 -31 -93 -82z" />
<glyph unicode="&#xd0;" horiz-adv-x="1488" d="M2 793h221q-41 -76 -41 -127q0 -20 6 -35q-10 -27 -10 -29q0 -31 15 -108q8 -41 15 -68t11 -41q47 -125 86 -164q72 -74 201 -143q150 -78 229 -78h29q96 0 283 125q180 119 229 215q23 43 39 71.5t26 45.5q16 33 28.5 54t16.5 32q33 80 33 172q0 123 -37 237 q-29 84 -88 174q-43 66 -102 109q-55 41 -87 64.5t-42 29.5q-86 29 -177 53.5t-196 40.5q-141 23 -236.5 38.5t-148.5 25.5q-92 16 -106 88q-12 53 -27 76q2 4 2 30q0 47 -35 76q-27 -14 -28 -96q-43 -207 -43 -227q0 -94 100 -138q33 -8 58.5 -14t43.5 -10 q70 -16 134.5 -26.5t127.5 -14.5q25 -4 78 -19q61 -16 82 -16q4 0 20.5 4t18.5 4q4 0 72 -24q57 -20 84 -25q174 -20 258 -170q29 -29 33 -31q109 -227 108 -309q0 -20 -6 -39l14 -4l-10 -6q2 -20 3 -29.5t1 -11.5q-4 -41 -39 -115q-66 -133 -123 -184q-31 -10 -34 -10 q-10 -8 -18.5 -15.5t-18.5 -17.5q-154 -57 -236 -57q-2 0 -11 1t-19.5 3t-20.5 3t-12 1q-27 0 -103 35q-70 33 -100 57q-39 29 -65.5 51.5t-43.5 36.5q6 16 -20 55q-16 23 -25.5 36.5t-13.5 17.5q-43 131 -43 190q0 41 3 79t11 71h99q6 -53 26 -105q33 -96 92 -123 q51 -4 83 -6t49 -4q111 -10 110 -51q0 -25 -28.5 -51.5t-53.5 -26.5q-16 2 -47 6q-35 4 -53 0q14 -45 74 -45h36q23 0 66 47q45 45 45 70q0 39 -35 92q-35 51 -74 61q-72 20 -117.5 29.5t-68.5 11.5q-53 29 -74 95h263v106h-261q4 23 8.5 47.5t12.5 46.5q2 14 43 80 q35 61 33 70q-51 -14 -58 -27q-8 -14 -11 -26.5t-5 -22.5q-8 -10 -15.5 -22.5t-17.5 -24.5q-8 -35 -12 -65.5t-8 -55.5h-64l117 234q4 4 11 12t18 18q4 4 -27 11l-209 -265l-8 -12h-293v-104z" />
<glyph unicode="&#xd1;" horiz-adv-x="1775" d="M8 1073q0 -18 10 -18q4 -31 6 -47l3 -15q16 -29 84 -84q8 -8 69 -18q123 -16 123 -111q0 -16 -41 -57t-57 -41q-29 0 -150 76q-20 0 -39 -19q0 -39 51.5 -75.5t92.5 -36.5q20 0 75.5 12t65.5 23q35 41 56.5 64.5t29.5 31.5q47 66 47 119q0 129 -164 219q-47 10 -77.5 16 t-45.5 10q-78 29 -77 76q0 37 32 88q72 115 220 115q137 0 239 -127q94 -119 94 -260q-2 -16 -10 -35q8 -100 -43 -211q-53 -111 -133 -174q-61 -47 -209 -107q-23 -8 -108 -88q-90 -84 -91 -120q0 -31 29 -31q102 78 125 78q84 0 158 -84q76 -82 76 -168q0 -6 -13 -33 q-10 -31 -10 -35q20 -12 31 -12l164 125q74 57 133 101t104 77q0 12 -10 43l-154 -76q-27 0 -43 23q-29 41 -48 69.5t-30 44.5q-8 20 -12 32.5t-8 19.5q-20 16 -35.5 31.5t-30.5 29.5q43 55 179 113q41 16 70.5 34.5t50 35t43 44t44.5 66.5q2 18 3.5 27.5t1.5 11.5 q0 16 -9 24q16 76 25.5 126.5t9.5 78.5q0 57 -6 82q-33 125 -33 123q0 49 40 81t95 32q39 0 136 -86q27 -23 56.5 -44.5t63.5 -41.5q10 -4 40 -19.5t81 -42.5l43 6q27 4 39 -2q-33 -59 -65.5 -100t-67.5 -62q-164 -96 -143 -245q2 -4 -4 -22.5t-6 -20.5q0 -18 6 -56.5 t6 -56.5q14 -170 59 -287q4 -10 20.5 -36.5t45.5 -67.5q57 -82 57 -88q0 -8 -47 -92q47 -10 45 -11q174 162 271.5 252t119.5 111q4 23 5 37t3 22l-57 11q-16 -33 -51 -41q-4 -2 -21.5 -4.5t-48.5 -6.5q-86 53 -102 64q-23 82 -36 131t-17 70q-25 92 -25 122q0 84 45 187 q39 94 98 166q135 166 136 233q0 14 -21 76q-23 68 -29 76h-43q-16 -10 -16 -39v-29q2 -14 3 -21.5t1 -4.5q0 -68 -70 -68q-31 0 -180 119q-145 119 -211 118q-94 0 -243 -153l-54 -53q-86 59 -139 95t-76 48q-47 10 -90 15t-80 5q-18 12 -35 13q-43 0 -98 -17 q-23 -18 -42 -34.5t-34 -30.5q-55 -25 -57 -27q-41 -23 -80 -141q-23 -66 -55 -191q-12 -45 -17 -45q-2 2 -2 21q-10 -57 -10 -31zM631 1765l31 -20l79 94q31 -8 76 -25.5t105 -44.5q84 -39 114 -38q47 0 103 84l84 129l-33 22l-70 -90q-78 20 -159 61q-92 45 -134 45 q-53 0 -114 -92z" />
<glyph unicode="&#xd2;" horiz-adv-x="1585" d="M39 625q0 -16 20 -90q31 -117 68 -170q14 -53 46 -102.5t73 -91.5t91 -72.5t103 -47.5q246 -74 285 -74h82q90 0 123 23q88 72 149 141q86 63 148.5 114.5t103.5 90.5q150 139 189 270q0 4 12 33q12 27 12 37q0 35 -12 102.5t-12 102.5q-18 29 -41 66.5t-52 84.5 q-35 33 -62.5 62t-49.5 55q-84 70 -98 86q-53 59 -54 115q0 25 37 78q20 27 31.5 46t15.5 29q-43 31 -49 31q-12 0 -92 -94q-35 -41 -59.5 -71.5t-38.5 -47.5q-29 -33 -64 -65.5t-78 -67.5q-18 31 -18 80q0 113 29 154q4 10 84 55q84 49 83 59q0 39 -71 39q-14 0 -338 -194 q-121 -72 -218.5 -133.5t-172.5 -112.5q-80 -53 -121 -139q-84 -172 -84 -381zM256 805q0 55 86 215q-4 16 2 24q45 63 125 123l162 121q6 0 17 -1t21.5 -3t15.5 -3t-1 -1q-31 -45 -33 -133q-2 -53 -2 -90v-53q-2 -55 -1 -97.5t3 -70.5l-10 -131q-16 -84 -72 -152 q-25 -31 -86 -80q-72 -55 -96 -55q-25 0 -63 55q-35 51 -41 80q-27 74 -27 252zM426 356q0 37 100 105q51 35 80 54.5t33 23.5q45 37 133 114q70 45 135 45q41 0 72 -51q31 -49 31 -94q0 -35 -52 -61q-35 -18 -61 -19q-31 0 -39 6q-23 10 -51 60q-39 2 -39 -50 q0 -80 100 -79q190 0 191 163q0 162 -219 203v264l24 68q74 82 99 82q23 0 167 -197q23 -20 38.5 -30.5t19.5 -14.5q49 -55 76.5 -90t35.5 -49q8 -25 13.5 -43t7.5 -29q27 -27 27 -35q-16 -37 -17 -38q0 2 1 -5.5t3 -21.5q-2 -20 -6 -27q2 -6 6 -14q-29 -127 -139 -248 q-121 -135 -240 -135l-9 -3t-20.5 -6t-21.5 -5t-12 -2q-6 0 -39 -7q-35 -6 -39 -6q-51 0 -233 60q-16 8 -41 22.5t-60 36.5q-55 37 -55 53zM582 2046q63 -203 358 -317l55 20q-100 55 -161.5 130t-61.5 140q0 25 10 56z" />
<glyph unicode="&#xd3;" horiz-adv-x="1585" d="M39 625q0 -16 20 -90q31 -117 68 -170q14 -53 46 -102.5t73 -91.5t91 -72.5t103 -47.5q246 -74 285 -74h82q90 0 123 23q88 72 149 141q86 63 148.5 114.5t103.5 90.5q150 139 189 270q0 4 12 33q12 27 12 37q0 35 -12 102.5t-12 102.5q-18 29 -41 66.5t-52 84.5 q-35 33 -62.5 62t-49.5 55q-84 70 -98 86q-53 59 -54 115q0 25 37 78q20 27 31.5 46t15.5 29q-43 31 -49 31q-12 0 -92 -94q-35 -41 -59.5 -71.5t-38.5 -47.5q-29 -33 -64 -65.5t-78 -67.5q-18 31 -18 80q0 113 29 154q4 10 84 55q84 49 83 59q0 39 -71 39q-14 0 -338 -194 q-121 -72 -218.5 -133.5t-172.5 -112.5q-80 -53 -121 -139q-84 -172 -84 -381zM256 805q0 55 86 215q-4 16 2 24q45 63 125 123l162 121q6 0 17 -1t21.5 -3t15.5 -3t-1 -1q-31 -45 -33 -133q-2 -53 -2 -90v-53q-2 -55 -1 -97.5t3 -70.5l-10 -131q-16 -84 -72 -152 q-25 -31 -86 -80q-72 -55 -96 -55q-25 0 -63 55q-35 51 -41 80q-27 74 -27 252zM426 356q0 37 100 105q51 35 80 54.5t33 23.5q45 37 133 114q70 45 135 45q41 0 72 -51q31 -49 31 -94q0 -35 -52 -61q-35 -18 -61 -19q-31 0 -39 6q-23 10 -51 60q-39 2 -39 -50 q0 -80 100 -79q190 0 191 163q0 162 -219 203v264l24 68q74 82 99 82q23 0 167 -197q23 -20 38.5 -30.5t19.5 -14.5q49 -55 76.5 -90t35.5 -49q8 -25 13.5 -43t7.5 -29q27 -27 27 -35q-16 -37 -17 -38q0 2 1 -5.5t3 -21.5q-2 -20 -6 -27q2 -6 6 -14q-29 -127 -139 -248 q-121 -135 -240 -135l-9 -3t-20.5 -6t-21.5 -5t-12 -2q-6 0 -39 -7q-35 -6 -39 -6q-51 0 -233 60q-16 8 -41 22.5t-60 36.5q-55 37 -55 53zM1268 1755l61 -24q358 156 359 360l-199 -47q2 -74 -57.5 -153t-163.5 -136z" />
<glyph unicode="&#xd4;" horiz-adv-x="1585" d="M39 625q0 -16 20 -90q31 -117 68 -170q14 -53 46 -102.5t73 -91.5t91 -72.5t103 -47.5q246 -74 285 -74h82q90 0 123 23q88 72 149 141q86 63 148.5 114.5t103.5 90.5q150 139 189 270q0 4 12 33q12 27 12 37q0 35 -12 102.5t-12 102.5q-18 29 -41 66.5t-52 84.5 q-35 33 -62.5 62t-49.5 55q-84 70 -98 86q-53 59 -54 115q0 25 37 78q20 27 31.5 46t15.5 29q-43 31 -49 31q-12 0 -92 -94q-35 -41 -59.5 -71.5t-38.5 -47.5q-29 -33 -64 -65.5t-78 -67.5q-18 31 -18 80q0 113 29 154q4 10 84 55q84 49 83 59q0 39 -71 39q-14 0 -338 -194 q-121 -72 -218.5 -133.5t-172.5 -112.5q-80 -53 -121 -139q-84 -172 -84 -381zM256 805q0 55 86 215q-4 16 2 24q45 63 125 123l162 121q6 0 17 -1t21.5 -3t15.5 -3t-1 -1q-31 -45 -33 -133q-2 -53 -2 -90v-53q-2 -55 -1 -97.5t3 -70.5l-10 -131q-16 -84 -72 -152 q-25 -31 -86 -80q-72 -55 -96 -55q-25 0 -63 55q-35 51 -41 80q-27 74 -27 252zM426 356q0 37 100 105q51 35 80 54.5t33 23.5q45 37 133 114q70 45 135 45q41 0 72 -51q31 -49 31 -94q0 -35 -52 -61q-35 -18 -61 -19q-31 0 -39 6q-23 10 -51 60q-39 2 -39 -50 q0 -80 100 -79q190 0 191 163q0 162 -219 203v264l24 68q74 82 99 82q23 0 167 -197q23 -20 38.5 -30.5t19.5 -14.5q49 -55 76.5 -90t35.5 -49q8 -25 13.5 -43t7.5 -29q27 -27 27 -35q-16 -37 -17 -38q0 2 1 -5.5t3 -21.5q-2 -20 -6 -27q2 -6 6 -14q-29 -127 -139 -248 q-121 -135 -240 -135l-9 -3t-20.5 -6t-21.5 -5t-12 -2q-6 0 -39 -7q-35 -6 -39 -6q-51 0 -233 60q-16 8 -41 22.5t-60 36.5q-55 37 -55 53zM889 1763l33 -32l178 180q47 -47 107.5 -93t133.5 -87l119 141q-82 51 -149.5 102t-122.5 103z" />
<glyph unicode="&#xd5;" horiz-adv-x="1585" d="M39 625q0 -16 20 -90q31 -117 68 -170q14 -53 46 -102.5t73 -91.5t91 -72.5t103 -47.5q246 -74 285 -74h82q90 0 123 23q88 72 149 141q86 63 148.5 114.5t103.5 90.5q150 139 189 270q0 4 12 33q12 27 12 37q0 35 -12 102.5t-12 102.5q-18 29 -41 66.5t-52 84.5 q-35 33 -62.5 62t-49.5 55q-84 70 -98 86q-53 59 -54 115q0 25 37 78q20 27 31.5 46t15.5 29q-43 31 -49 31q-12 0 -92 -94q-35 -41 -59.5 -71.5t-38.5 -47.5q-29 -33 -64 -65.5t-78 -67.5q-18 31 -18 80q0 113 29 154q4 10 84 55q84 49 83 59q0 39 -71 39q-14 0 -338 -194 q-121 -72 -218.5 -133.5t-172.5 -112.5q-80 -53 -121 -139q-84 -172 -84 -381zM256 805q0 55 86 215q-4 16 2 24q45 63 125 123l162 121q6 0 17 -1t21.5 -3t15.5 -3t-1 -1q-31 -45 -33 -133q-2 -53 -2 -90v-53q-2 -55 -1 -97.5t3 -70.5l-10 -131q-16 -84 -72 -152 q-25 -31 -86 -80q-72 -55 -96 -55q-25 0 -63 55q-35 51 -41 80q-27 74 -27 252zM426 356q0 37 100 105q51 35 80 54.5t33 23.5q45 37 133 114q70 45 135 45q41 0 72 -51q31 -49 31 -94q0 -35 -52 -61q-35 -18 -61 -19q-31 0 -39 6q-23 10 -51 60q-39 2 -39 -50 q0 -80 100 -79q190 0 191 163q0 162 -219 203v264l24 68q74 82 99 82q23 0 167 -197q23 -20 38.5 -30.5t19.5 -14.5q49 -55 76.5 -90t35.5 -49q8 -25 13.5 -43t7.5 -29q27 -27 27 -35q-16 -37 -17 -38q0 2 1 -5.5t3 -21.5q-2 -20 -6 -27q2 -6 6 -14q-29 -127 -139 -248 q-121 -135 -240 -135l-9 -3t-20.5 -6t-21.5 -5t-12 -2q-6 0 -39 -7q-35 -6 -39 -6q-51 0 -233 60q-16 8 -41 22.5t-60 36.5q-55 37 -55 53zM868 1765l31 -20l80 94q31 -8 76 -25.5t104 -44.5q84 -39 115 -38q47 0 102 84l84 129l-33 22l-69 -90q-78 20 -160 61 q-92 45 -133 45q-53 0 -115 -92z" />
<glyph unicode="&#xd6;" horiz-adv-x="1585" d="M39 625q0 -16 20 -90q31 -117 68 -170q14 -53 46 -102.5t73 -91.5t91 -72.5t103 -47.5q246 -74 285 -74h82q90 0 123 23q88 72 149 141q86 63 148.5 114.5t103.5 90.5q150 139 189 270q0 4 12 33q12 27 12 37q0 35 -12 102.5t-12 102.5q-18 29 -41 66.5t-52 84.5 q-35 33 -62.5 62t-49.5 55q-84 70 -98 86q-53 59 -54 115q0 25 37 78q20 27 31.5 46t15.5 29q-43 31 -49 31q-12 0 -92 -94q-35 -41 -59.5 -71.5t-38.5 -47.5q-29 -33 -64 -65.5t-78 -67.5q-18 31 -18 80q0 113 29 154q4 10 84 55q84 49 83 59q0 39 -71 39q-14 0 -338 -194 q-121 -72 -218.5 -133.5t-172.5 -112.5q-80 -53 -121 -139q-84 -172 -84 -381zM256 805q0 55 86 215q-4 16 2 24q45 63 125 123l162 121q6 0 17 -1t21.5 -3t15.5 -3t-1 -1q-31 -45 -33 -133q-2 -53 -2 -90v-53q-2 -55 -1 -97.5t3 -70.5l-10 -131q-16 -84 -72 -152 q-25 -31 -86 -80q-72 -55 -96 -55q-25 0 -63 55q-35 51 -41 80q-27 74 -27 252zM426 356q0 37 100 105q51 35 80 54.5t33 23.5q45 37 133 114q70 45 135 45q41 0 72 -51q31 -49 31 -94q0 -35 -52 -61q-35 -18 -61 -19q-31 0 -39 6q-23 10 -51 60q-39 2 -39 -50 q0 -80 100 -79q190 0 191 163q0 162 -219 203v264l24 68q74 82 99 82q23 0 167 -197q23 -20 38.5 -30.5t19.5 -14.5q49 -55 76.5 -90t35.5 -49q8 -25 13.5 -43t7.5 -29q27 -27 27 -35q-16 -37 -17 -38q0 2 1 -5.5t3 -21.5q-2 -20 -6 -27q2 -6 6 -14q-29 -127 -139 -248 q-121 -135 -240 -135l-9 -3t-20.5 -6t-21.5 -5t-12 -2q-6 0 -39 -7q-35 -6 -39 -6q-51 0 -233 60q-16 8 -41 22.5t-60 36.5q-55 37 -55 53zM612 1905q12 -16 56 -37q35 -23 59 -56q2 -2 18 -51q12 -39 39 -41q35 59 72 110.5t78 96.5q-96 39 -117 66q-18 35 -30.5 61.5 t-16.5 46.5q-20 -18 -27 -33q2 -6 2 -30q0 -29 -40 -51q-57 -31 -93 -82zM975 1905q14 -14 57 -37q33 -23 60 -56q6 -16 10 -28t6 -23q12 -39 39 -41q65 115 151 207q-98 41 -118 66q-37 70 -45 108q-20 -18 -29 -33q2 -6 2 -30q0 -29 -41 -51q-57 -31 -92 -82z" />
<glyph unicode="&#xd7;" d="M123 406l110 -113l279 278l279 -278l110 113l-278 276l278 279l-110 110l-279 -276l-279 276l-110 -110l278 -279z" />
<glyph unicode="&#xd8;" horiz-adv-x="1585" d="M0 -16l236 198l10 -10q82 -86 194 -121q246 -74 285 -74h82q90 0 123 23q88 72 149 141q86 63 148.5 114.5t103.5 90.5q150 139 189 270q0 4 12 33q12 27 12 37q0 35 -12 102.5t-12 102.5q-18 29 -41 66.5t-52 84.5q-43 41 -77 78l235 199v131l-307 -260q-53 47 -72 67 q-43 45 -43 103q0 25 37 78q20 27 31.5 46t15.5 29q-43 31 -49 31q-12 0 -92 -94q-35 -41 -59.5 -71.5t-38.5 -47.5q-29 -33 -64 -65.5t-78 -67.5q-18 31 -18 80q0 113 29 154q4 10 84 55q84 49 83 59q0 39 -71 39q-14 0 -338 -194q-121 -72 -218.5 -133.5t-172.5 -112.5 q-80 -53 -121 -139q-84 -172 -84 -381q0 -16 20 -90q31 -117 68 -170q14 -51 47 -103l-174 -147v-131zM256 805q0 55 86 215q-4 16 2 24q45 63 125 123l162 121q6 0 17 -1t21.5 -3t15.5 -3t-1 -1q-31 -45 -33 -133q-2 -53 -2 -90v-53q-2 -55 -1 -97.5t3 -70.5l-10 -131 q-6 -37 -20 -68l-252 -213q-16 12 -43 47q-37 53 -43 82q-27 74 -27 252zM430 346l401 338q37 14 76 14q41 0 72 -51q31 -49 31 -94q0 -35 -52 -61q-35 -18 -61 -19q-31 0 -39 6q-23 10 -51 60q-39 2 -39 -50q0 -80 100 -79q190 0 191 163q0 129 -141 183l247 209 q16 -12 23 -17q49 -55 76.5 -90t35.5 -49q8 -25 13.5 -43t7.5 -29q27 -27 27 -35q-16 -37 -17 -38q0 2 1 -5.5t3 -21.5q-2 -20 -6 -27q2 -6 6 -14q-29 -127 -139 -248q-121 -135 -240 -135l-9 -3t-20.5 -6t-21.5 -5t-12 -2q-6 0 -39 -7q-35 -6 -39 -6q-51 0 -233 60 q-16 8 -41 22.5t-60 36.5q-37 27 -51 43zM840 821v219l24 68q74 82 99 82q20 0 135 -152z" />
<glyph unicode="&#xd9;" horiz-adv-x="1138" d="M12 1106q0 -100 103 -309q18 -37 40.5 -78t51.5 -86l72 -154q20 -43 37.5 -86t33.5 -84q80 -88 88 -176q10 -10 19 -14q-8 -57 -12.5 -76.5t-4.5 -1.5q0 -39 29 -39t35 25q23 63 67 125l86 122q16 29 34 64t36 74q41 63 68.5 104t40.5 57q94 143 122 172q6 20 7 33 q66 51 114 172q47 117 47 205q0 6 -3 19.5t-6 28t-6 27.5t-3 21q10 55 -68 213q-61 68 -106 68q-61 49 -72 53q-115 31 -174 31q-14 0 -86 -41q-139 -49 -229 -234q-78 -162 -78 -327v-37q0 -16 2 -27q-14 -27 -25 -26q-35 55 -39 67l-38 146q-25 86 -21 139q-12 0 -12 12 q0 29 14 43q10 57 17.5 103.5t13.5 83.5q27 57 37 86q92 92 96 94l-2 35l-41 6q-18 0 -66 -45q-49 -49 -59 -68q-84 -190 -84 -274q-57 -119 -65 -148q-10 -37 -11 -98zM197 2048q63 -203 358 -317l55 20q-100 55 -161.5 130t-61.5 140q0 25 10 56zM387 864v66q0 170 23 289 q16 31 30.5 53t26.5 37l-6 12q16 27 32.5 51.5t32.5 48.5q51 74 78 74q70 0 148 -55q76 -55 110 -121q14 -51 24.5 -94t16.5 -82q10 -29 17.5 -47.5t11.5 -28.5q-2 -6 4 -49q6 -37 6 -39q0 -25 -24 -100q-23 -78 -37 -105q-57 -111 -118 -206t-126 -177q-37 0 -51 25 q-29 49 -56.5 95t-52.5 89q-80 141 -88 229q-2 10 -2 35z" />
<glyph unicode="&#xda;" horiz-adv-x="1138" d="M12 1106q0 -100 103 -309q18 -37 40.5 -78t51.5 -86l72 -154q20 -43 37.5 -86t33.5 -84q80 -88 88 -176q10 -10 19 -14q-8 -57 -12.5 -76.5t-4.5 -1.5q0 -39 29 -39t35 25q23 63 67 125l86 122q16 29 34 64t36 74q41 63 68.5 104t40.5 57q94 143 122 172q6 20 7 33 q66 51 114 172q47 117 47 205q0 6 -3 19.5t-6 28t-6 27.5t-3 21q10 55 -68 213q-61 68 -106 68q-61 49 -72 53q-115 31 -174 31q-14 0 -86 -41q-139 -49 -229 -234q-78 -162 -78 -327v-37q0 -16 2 -27q-14 -27 -25 -26q-35 55 -39 67l-38 146q-25 86 -21 139q-12 0 -12 12 q0 29 14 43q10 57 17.5 103.5t13.5 83.5q27 57 37 86q92 92 96 94l-2 35l-41 6q-18 0 -66 -45q-49 -49 -59 -68q-84 -190 -84 -274q-57 -119 -65 -148q-10 -37 -11 -98zM387 864v66q0 170 23 289q16 31 30.5 53t26.5 37l-6 12q16 27 32.5 51.5t32.5 48.5q51 74 78 74 q70 0 148 -55q76 -55 110 -121q14 -51 24.5 -94t16.5 -82q10 -29 17.5 -47.5t11.5 -28.5q-2 -6 4 -49q6 -37 6 -39q0 -25 -24 -100q-23 -78 -37 -105q-57 -111 -118 -206t-126 -177q-37 0 -51 25q-29 49 -56.5 95t-52.5 89q-80 141 -88 229q-2 10 -2 35zM657 1755l62 -24 q358 156 358 360l-198 -47q2 -74 -57.5 -153t-164.5 -136z" />
<glyph unicode="&#xdb;" horiz-adv-x="1138" d="M12 1106q0 -100 103 -309q18 -37 40.5 -78t51.5 -86l72 -154q20 -43 37.5 -86t33.5 -84q80 -88 88 -176q10 -10 19 -14q-8 -57 -12.5 -76.5t-4.5 -1.5q0 -39 29 -39t35 25q23 63 67 125l86 122q16 29 34 64t36 74q41 63 68.5 104t40.5 57q94 143 122 172q6 20 7 33 q66 51 114 172q47 117 47 205q0 6 -3 19.5t-6 28t-6 27.5t-3 21q10 55 -68 213q-61 68 -106 68q-61 49 -72 53q-115 31 -174 31q-14 0 -86 -41q-139 -49 -229 -234q-78 -162 -78 -327v-37q0 -16 2 -27q-14 -27 -25 -26q-35 55 -39 67l-38 146q-25 86 -21 139q-12 0 -12 12 q0 29 14 43q10 57 17.5 103.5t13.5 83.5q27 57 37 86q92 92 96 94l-2 35l-41 6q-18 0 -66 -45q-49 -49 -59 -68q-84 -190 -84 -274q-57 -119 -65 -148q-10 -37 -11 -98zM387 864v66q0 170 23 289q16 31 30.5 53t26.5 37l-6 12q16 27 32.5 51.5t32.5 48.5q51 74 78 74 q70 0 148 -55q76 -55 110 -121q14 -51 24.5 -94t16.5 -82q10 -29 17.5 -47.5t11.5 -28.5q-2 -6 4 -49q6 -37 6 -39q0 -25 -24 -100q-23 -78 -37 -105q-57 -111 -118 -206t-126 -177q-37 0 -51 25q-29 49 -56.5 95t-52.5 89q-80 141 -88 229q-2 10 -2 35zM473 1763l33 -32 l178 180q47 -47 107.5 -93t134.5 -87l118 141q-82 51 -149.5 102t-122.5 103z" />
<glyph unicode="&#xdc;" horiz-adv-x="1138" d="M12 1106q0 -100 103 -309q18 -37 40.5 -78t51.5 -86l72 -154q20 -43 37.5 -86t33.5 -84q80 -88 88 -176q10 -10 19 -14q-8 -57 -12.5 -76.5t-4.5 -1.5q0 -39 29 -39t35 25q23 63 67 125l86 122q16 29 34 64t36 74q41 63 68.5 104t40.5 57q94 143 122 172q6 20 7 33 q66 51 114 172q47 117 47 205q0 6 -3 19.5t-6 28t-6 27.5t-3 21q10 55 -68 213q-61 68 -106 68q-61 49 -72 53q-115 31 -174 31q-14 0 -86 -41q-139 -49 -229 -234q-78 -162 -78 -327v-37q0 -16 2 -27q-14 -27 -25 -26q-35 55 -39 67l-38 146q-25 86 -21 139q-12 0 -12 12 q0 29 14 43q10 57 17.5 103.5t13.5 83.5q27 57 37 86q92 92 96 94l-2 35l-41 6q-18 0 -66 -45q-49 -49 -59 -68q-84 -190 -84 -274q-57 -119 -65 -148q-10 -37 -11 -98zM367 1905q12 -16 55 -37q35 -23 59 -56q2 -2 19 -51q12 -39 39 -41q35 59 71.5 110.5t77.5 96.5 q-96 39 -117 66q-18 35 -30.5 61.5t-16.5 46.5q-20 -18 -26 -33q2 -6 2 -30q0 -29 -41 -51q-57 -31 -92 -82zM387 864v66q0 170 23 289q16 31 30.5 53t26.5 37l-6 12q16 27 32.5 51.5t32.5 48.5q51 74 78 74q70 0 148 -55q76 -55 110 -121q14 -51 24.5 -94t16.5 -82 q10 -29 17.5 -47.5t11.5 -28.5q-2 -6 4 -49q6 -37 6 -39q0 -25 -24 -100q-23 -78 -37 -105q-57 -111 -118 -206t-126 -177q-37 0 -51 25q-29 49 -56.5 95t-52.5 89q-80 141 -88 229q-2 10 -2 35zM729 1905q14 -14 57 -37q33 -23 60 -56q6 -16 10 -28t6 -23q12 -39 39 -41 q66 115 152 207q-98 41 -119 66q-37 70 -45 108q-20 -18 -29 -33q2 -6 2 -30q0 -29 -41 -51q-57 -31 -92 -82z" />
<glyph unicode="&#xdd;" horiz-adv-x="1558" d="M86 766q2 -39 51 -72q45 -31 92 -30q43 0 117 34q70 37 86 78q12 31 12 117q0 10 -4 32.5t-12 57.5q-16 70 -25 80q-18 16 -45.5 32.5t-64.5 32.5q-131 57 -131 109q0 100 16 154q10 25 55 51q45 31 72 31q45 0 154 -76q109 -74 135 -115q8 -23 11 -36t5 -17 q8 -39 13.5 -69t9.5 -52q-2 -2 -2 -41v-68t2 -45q-59 -174 -60 -174q-31 -49 -57 -75q-41 -43 -94 -90.5t-119 -100.5q-10 -10 -74 -37q-45 -20 -59 -51q8 -25 33 -25q150 86 243 86q84 0 195 -147q-14 -14 -16 -55q-2 -39 10 -68q53 31 65 59q27 59 99 132q61 59 95 91.5 t42 41.5q14 8 26.5 16t24.5 16q37 25 37 39q0 8 -6 19q-45 -10 -107 -60q-61 -47 -98 -63q-49 72 -57 96q-27 37 -111 53q-31 6 -52.5 10.5t-35.5 6.5q27 45 107 96l149 98q31 295 31 277q-16 37 -17 51q0 14 7 33q-31 68 -31 112q0 37 43 90.5t80 53.5q66 0 161 -66 q94 -66 117 -129t37 -105t23 -63q8 -39 12 -94t4 -129q0 -190 -31 -309q-39 -82 -51 -98q-33 -66 -151 -185q-23 -23 -68 -63.5t-111 -100.5q-96 -86 -125 -86q-43 0 -131 31q-86 33 -123 33q-238 0 -237 -121l6 -27q6 -35 4 -41q70 -68 184 -67q49 0 222 61q113 39 112 54 q0 6 -24 6q27 0 172 -74q145 -76 237 -76q86 0 146 17q70 23 121 100q31 45 30 94q0 63 -35.5 115.5t-91.5 68.5q-23 4 -35 6.5t-16 4.5q-55 0 -102 -45q-49 -43 -49 -95q0 -16 26.5 -55t38.5 -39q27 0 39 31q-49 63 -49 80q0 12 10 24.5t24.5 22.5t32 17t29.5 7 q14 0 57 -24q43 -20 58 -35q0 -8 6 -51q8 -39 8 -51q0 -16 -55 -72q-53 -55 -74 -55q-14 0 -16 2h-15q-16 0 -38.5 -2t-51 -6.5t-51 -7.5t-39.5 -3q-16 0 -264 142q8 20 14 26q51 33 97.5 68t91.5 74l174 149q59 51 91 79t38 34q43 25 67 37q14 14 21 55q4 23 6 65 q49 190 45 228q-2 14 16 61v277q0 33 -59 198q-6 25 -45 74q-35 53 -39 74q-238 164 -317 164q-33 0 -131 -131q-98 -129 -115 -129l-148 102q-150 102 -161 102q-61 0 -117 -30q-12 -14 -21.5 -24.5t-13.5 -14.5q-131 -68 -172 -183q-25 -72 -25 -192q0 -111 27 -146 q45 -68 178 -116q76 -27 76 -109q0 -49 -57 -76q-47 -25 -99 -24q-6 0 -59 28.5t-55 28.5q-14 0 -31 -10zM324 -12q0 14 38 51q39 39 58 39q76 0 137 -21l117 -37q-31 -49 -74 -67q-90 -39 -129 -39q-2 0 -21.5 4t-23.5 4q-23 0 -64 23q-39 20 -38 43zM733 1755l62 -24 q358 156 358 360l-199 -47q2 -74 -57 -153t-164 -136z" />
<glyph unicode="&#xdf;" horiz-adv-x="956" d="M59 899q0 -14 33 -61q31 -43 35 -70q4 -39 6 -138.5t4 -264.5q2 -182 31 -308q-14 -55 -10 -67q2 -57 3 -82t1 -14q0 -23 3 -56t11 -76t11 -75.5t3 -55.5q8 -10 19 -12q51 0 53 21q12 98 12 141q0 8 -1 25.5t-3 43.5q8 53 12.5 89t8.5 59q12 76 12 100q0 70 21 191 q10 66 15 113t5 79q0 39 -6 74q18 61 6 109q-10 43 -8 45q12 20 20.5 35.5t12.5 25.5q8 14 8 78q0 70 -10 94q-82 178 -82 213q0 6 8 22.5t8 18.5q16 84 41 102q88 63 139 64q39 0 123 -47q84 -45 96 -45q43 0 58 26l26 35q29 16 47.5 26.5t26.5 14.5q31 31 37 60 q-59 27 -113 38q-33 14 -56.5 24.5t-39.5 18.5q-72 31 -94 31q-82 0 -234 -137q-154 -135 -184 -217q-2 -4 -6 -22.5t-8 -51.5q-10 -45 -33 -65q-4 -20 -4 -47q0 -29 -33 -60q-31 -29 -31 -45zM416 408q0 -6 4 -28t4 -24q31 -23 51.5 -37t30.5 -22q72 -53 72 -72 q0 -23 -70 -92q-80 -152 -80 -225l2 -7t3 -16.5t3 -17.5t2 -10q-2 -61 29 -127q43 -88 84 -88q31 0 51 10q104 59 164 194q63 141 63 213q0 27 -28 107q-27 74 -27 117q0 23 29 45q68 45 76 59l-23 23q-12 -8 -22.5 -14.5t-20.5 -12.5q-35 -23 -41 -23q-23 0 -31 21 q-18 35 -30.5 57.5t-16.5 32.5q-61 61 -61 80q0 8 14.5 23.5t18.5 15.5l28 45q74 63 119 94q45 45 45 88q0 25 -20.5 68t-20.5 67q0 80 78 129q0 4 -4 21.5t-4 19.5q-49 -16 -111 -55q-190 -121 -196 -123q-16 -16 -17 -55q0 -31 29 -106.5t29 -106.5q0 -43 -78 -121 l-97 -96q-31 -43 -30 -51zM471 -33q0 33 51 103q51 74 82 73q6 0 47 -34q39 -33 43 -46q-2 2 -10 -55q21 -18 21 -28t-13 -13v-125q0 -10 -30 -43l-27 -51q-23 -31 -62 -31q-23 2 -53 35q-39 43 -49 47v168z" />
<glyph unicode="&#xe0;" horiz-adv-x="823" d="M-37 1434q63 -203 356 -318l56 21q-100 55 -161.5 129.5t-61.5 140.5q0 25 10 55zM45 332q18 -47 16 -49q49 -84 77 -131.5t36 -61.5q57 -51 117 -51q55 0 94 76q49 94 76 112q76 -150 76 -159q0 -8 -14.5 -35t-14.5 -31t18 -22q215 131 250 262q-90 -2 -137 131 q-31 94 -31 207q0 72 72 219q31 49 53 82q-8 29 -37 32q-29 2 -73 31q-51 31 -52 55q18 51 13 58h-43q-18 0 -156 -107q-86 -66 -137 -115t-68 -77q-45 -84 -70.5 -131t-29.5 -62q-35 -92 -35 -166v-67zM213 549q0 10 6 14l2 6v72q0 51 53 121q51 70 105 69q16 0 88 -43 q70 -39 70 -59q-2 -8 -41 -57q-39 -45 -41 -56q-12 -111 -25 -196q-25 -178 -86 -178q-10 0 -26.5 22.5t-22.5 34.5q-68 78 -74 213q0 2 -4 17.5t-4 19.5z" />
<glyph unicode="&#xe1;" horiz-adv-x="823" d="M45 332q18 -47 16 -49q49 -84 77 -131.5t36 -61.5q57 -51 117 -51q55 0 94 76q49 94 76 112q76 -150 76 -159q0 -8 -14.5 -35t-14.5 -31t18 -22q215 131 250 262q-90 -2 -137 131q-31 94 -31 207q0 72 72 219q31 49 53 82q-8 29 -37 32q-29 2 -73 31q-51 31 -52 55 q18 51 13 58h-43q-18 0 -156 -107q-86 -66 -137 -115t-68 -77q-45 -84 -70.5 -131t-29.5 -62q-35 -92 -35 -166v-67zM213 549q0 10 6 14l2 6v72q0 51 53 121q51 70 105 69q16 0 88 -43q70 -39 70 -59q-2 -8 -41 -57q-39 -45 -41 -56q-12 -111 -25 -196q-25 -178 -86 -178 q-10 0 -26.5 22.5t-22.5 34.5q-68 78 -74 213q0 2 -4 17.5t-4 19.5zM565 1141l62 -25q358 156 358 361l-199 -47q2 -74 -57 -153t-164 -136z" />
<glyph unicode="&#xe2;" horiz-adv-x="823" d="M45 332q18 -47 16 -49q49 -84 77 -131.5t36 -61.5q57 -51 117 -51q55 0 94 76q49 94 76 112q76 -150 76 -159q0 -8 -14.5 -35t-14.5 -31t18 -22q215 131 250 262q-90 -2 -137 131q-31 94 -31 207q0 72 72 219q31 49 53 82q-8 29 -37 32q-29 2 -73 31q-51 31 -52 55 q18 51 13 58h-43q-18 0 -156 -107q-86 -66 -137 -115t-68 -77q-45 -84 -70.5 -131t-29.5 -62q-35 -92 -35 -166v-67zM213 549q0 10 6 14l2 6v72q0 51 53 121q51 70 105 69q16 0 88 -43q70 -39 70 -59q-2 -8 -41 -57q-39 -45 -41 -56q-12 -111 -25 -196q-25 -178 -86 -178 q-10 0 -26.5 22.5t-22.5 34.5q-68 78 -74 213q0 2 -4 17.5t-4 19.5zM287 1147l32 -33l179 180q47 -47 107.5 -93t133.5 -87l119 141q-82 51 -149.5 102.5t-122.5 102.5z" />
<glyph unicode="&#xe3;" horiz-adv-x="823" d="M45 332q18 -47 16 -49q49 -84 77 -131.5t36 -61.5q57 -51 117 -51q55 0 94 76q49 94 76 112q76 -150 76 -159q0 -8 -14.5 -35t-14.5 -31t18 -22q215 131 250 262q-90 -2 -137 131q-31 94 -31 207q0 72 72 219q31 49 53 82q-8 29 -37 32q-29 2 -73 31q-51 31 -52 55 q18 51 13 58h-43q-18 0 -156 -107q-86 -66 -137 -115t-68 -77q-45 -84 -70.5 -131t-29.5 -62q-35 -92 -35 -166v-67zM174 1149l31 -21l80 95q31 -8 76 -25.5t104 -44.5q84 -39 115 -39q47 0 102 84l84 129l-33 23l-69 -90q-78 20 -160 61q-92 45 -133 45q-53 0 -115 -92z M213 549q0 10 6 14l2 6v72q0 51 53 121q51 70 105 69q16 0 88 -43q70 -39 70 -59q-2 -8 -41 -57q-39 -45 -41 -56q-12 -111 -25 -196q-25 -178 -86 -178q-10 0 -26.5 22.5t-22.5 34.5q-68 78 -74 213q0 2 -4 17.5t-4 19.5z" />
<glyph unicode="&#xe4;" horiz-adv-x="823" d="M41 332q18 -47 16 -49q49 -84 77 -131.5t36 -61.5q57 -51 117 -51q55 0 94 76q49 94 76 112q76 -150 75 -159q0 -8 -14 -35t-14 -31t18 -22q215 131 250 262q-90 -2 -137 131q-31 94 -31 207q0 72 72 219q31 49 53 82q-8 29 -37 32q-29 2 -74 31q-51 31 -51 55 q18 51 13 58h-43q-18 0 -156 -107q-86 -66 -137 -115t-68 -77q-45 -84 -70.5 -131t-29.5 -62q-35 -92 -35 -166v-67zM100 1294q0 -2 54 -34q41 -27 61 -58q2 -2 18 -51q12 -39 39 -41q35 59 72 110.5t78 96.5q-96 39 -117 67q-37 66 -47 107q-18 -14 -27 -33q2 -6 2 -31 q0 -29 -40 -51q-59 -35 -93 -82zM209 549q0 10 6 14l2 6v72q0 51 53 121q51 70 105 69q16 0 88 -43q69 -39 69 -59q-2 -8 -40 -57q-39 -45 -41 -56q-12 -111 -25 -196q-25 -178 -86 -178q-10 0 -26.5 22.5t-22.5 34.5q-68 78 -74 213q0 2 -4 17.5t-4 19.5zM463 1294 q14 -10 28.5 -18t28.5 -16q37 -27 60 -58q6 -16 10 -28.5t6 -22.5q12 -39 39 -41q65 115 151 207q-96 39 -118 67q-33 59 -45 107q-12 -8 -29 -33q2 -6 2 -31q0 -29 -41 -51q-59 -35 -92 -82z" />
<glyph unicode="&#xe5;" horiz-adv-x="823" d="M45 332q18 -47 16 -49q49 -84 77 -131.5t36 -61.5q57 -51 117 -51q55 0 94 76q49 94 76 112q76 -150 76 -159q0 -8 -14.5 -35t-14.5 -31t18 -22q215 131 250 262q-90 -2 -137 131q-31 94 -31 207q0 72 72 219q31 49 53 82q-8 29 -37 32q-29 2 -73 31q-51 31 -52 55 q18 51 13 58h-37q90 72 90 151q0 78 -84 150l-92 78q-55 -41 -68 -50q-68 -47 -94 -79q-43 -55 -43 -109q0 -86 92 -149l88 -60q-12 -10 -24.5 -19t-26.5 -20q-86 -66 -137 -115t-68 -77q-45 -84 -70.5 -131t-29.5 -62q-35 -92 -35 -166v-67zM213 549q0 10 6 14l2 6v72 q0 51 53 121q51 70 105 69q16 0 88 -43q70 -39 70 -59q-2 -8 -41 -57q-39 -45 -41 -56q-12 -111 -25 -196q-25 -178 -86 -178q-10 0 -26.5 22.5t-22.5 34.5q-68 78 -74 213q0 2 -4 17.5t-4 19.5zM348 1231q0 55 66 115l45 -33q80 -59 80 -142q0 -61 -56 -106l-51 35 q-84 59 -84 131z" />
<glyph unicode="&#xe6;" horiz-adv-x="894" d="M35 330q14 -43 10 -47q16 -37 36.5 -85t43.5 -108q43 -51 82 -51q41 0 67 76q34 92 54 112q16 -41 84 -106q45 -41 59 -41q12 0 12 18q23 -16 35 -28.5t17 -16.5q16 -29 16 -55q0 -18 -6 -18q6 0 18 -7l172 172q104 106 125 164q-25 8 -33 8q-57 -76 -102 -75 q-39 0 -139 55q-84 139 -84 174q0 43 84 109l98 73q37 41 58.5 66.5t29.5 38.5q25 39 25 80t-18.5 72.5t-28.5 45.5q-16 84 -19 138q-82 -47 -130 -76t-64 -39q-27 -20 -43.5 -34.5t-24.5 -22.5q-66 41 -66 77q2 8 4.5 14.5t4.5 14.5q4 25 0 29h-31q-12 0 -107 -107 q-121 -133 -143 -192q-35 -92 -52.5 -139.5t-19.5 -53.5q-25 -90 -24 -166v-69zM154 549q0 12 2 14l2 6v72q0 39 35 113q41 78 75 77q8 0 62 -40l32 -33q-32 -92 -34 -125q-6 -10 -6 -17q-4 -59 -8.5 -108t-8.5 -88q-16 -178 -61 -178q-6 0 -19 24q-55 102 -59 150l-8 96 q-2 23 -3 32t-1 5zM473 698q0 72 27 123q2 8 -4 15l4 6l32 35h39q4 -14 15.5 -34t31.5 -46q31 -43 31 -88q0 -47 -137 -129q-25 20 -33 45q-6 8 -6 73z" />
<glyph unicode="&#xe7;" horiz-adv-x="722" d="M76 612q0 -6 1 -39.5t3 -97.5q2 -51 3 -86t1 -53q2 -70 23.5 -115t76.5 -88l95 -74q2 -53 6 -79q4 0 6 2q37 -35 37 -74q0 -84 -107 -148q111 18 185 93q76 74 75 163q0 52 -35 97q27 29 41.5 49t18.5 31q92 70 92 122q0 31 -37 31q-6 0 -53 -45q-45 -45 -76 -45 q-35 0 -127 123q-4 88 -7 138t-1 67q-29 180 -31 172q2 8 9.5 27.5t23.5 47.5q29 -12 56.5 -24t52.5 -23q68 -29 92 -28q33 0 47 10q27 20 55 49q94 94 94 119q0 39 -37 39q-2 0 -11 -3t-19.5 -7.5t-19.5 -7.5t-11 -3q-12 0 -135 92q-29 0 -187 -131q-35 -23 -61.5 -36 t-42.5 -21q-80 -35 -86 -61q-4 -27 -7 -72t-3 -111z" />
<glyph unicode="&#xe8;" horiz-adv-x="628" d="M-37 1434q63 -203 356 -318l56 21q-100 55 -161.5 129.5t-61.5 140.5q0 25 10 55zM39 449q0 -2 1 -12.5t3 -28.5q6 -35 6 -41q33 -84 33 -131q14 -23 37.5 -46.5t56.5 -52.5q57 -49 68 -61q33 -35 32 -78q0 -14 -4 -18q2 0 19 -7l170 172q102 107 127 164q-16 4 -26 6 l-9 2q-57 -76 -102 -75q-37 0 -138 55q-84 139 -84 174q0 43 84 109q47 37 72 55l25 18q70 68 91 107t21 78q0 31 -16 73q-10 16 -17.5 26.5t-11.5 18.5q-16 84 -18 138q-82 -47 -130 -76t-65 -39q-47 -35 -79.5 -67.5t-53.5 -65.5q-14 -23 -31.5 -66t-38.5 -104 q-10 -66 -16 -123t-6 -104zM201 698q0 68 24 123q4 10 -4 17l39 39h37q4 -14 49 -84q31 -49 31 -84q0 -47 -137 -129q-25 20 -35 45q-4 16 -4 73z" />
<glyph unicode="&#xe9;" horiz-adv-x="628" d="M39 449q0 -2 1 -12.5t3 -28.5q6 -35 6 -41q33 -84 33 -131q14 -23 37.5 -46.5t56.5 -52.5q57 -49 68 -61q33 -35 32 -78q0 -14 -4 -18q2 0 19 -7l170 172q102 107 127 164q-16 4 -26 6l-9 2q-57 -76 -102 -75q-37 0 -138 55q-84 139 -84 174q0 43 84 109q47 37 72 55 l25 18q70 68 91 107t21 78q0 31 -16 73q-10 16 -17.5 26.5t-11.5 18.5q-16 84 -18 138q-82 -47 -130 -76t-65 -39q-47 -35 -79.5 -67.5t-53.5 -65.5q-14 -23 -31.5 -66t-38.5 -104q-10 -66 -16 -123t-6 -104zM201 698q0 68 24 123q4 10 -4 17l39 39h37q4 -14 49 -84 q31 -49 31 -84q0 -47 -137 -129q-25 20 -35 45q-4 16 -4 73zM492 1141l61 -25q358 156 358 361l-198 -47q2 -74 -57.5 -153t-163.5 -136z" />
<glyph unicode="&#xea;" horiz-adv-x="628" d="M39 449q0 -2 1 -12.5t3 -28.5q6 -35 6 -41q33 -84 33 -131q14 -23 37.5 -46.5t56.5 -52.5q57 -49 68 -61q33 -35 32 -78q0 -14 -4 -18q2 0 19 -7l170 172q102 107 127 164q-16 4 -26 6l-9 2q-57 -76 -102 -75q-37 0 -138 55q-84 139 -84 174q0 43 84 109q47 37 72 55 l25 18q70 68 91 107t21 78q0 31 -16 73q-10 16 -17.5 26.5t-11.5 18.5q-16 84 -18 138q-82 -47 -130 -76t-65 -39q-47 -35 -79.5 -67.5t-53.5 -65.5q-14 -23 -31.5 -66t-38.5 -104q-10 -66 -16 -123t-6 -104zM197 1147l32 -33l179 180q47 -47 107 -93t134 -87l119 141 q-82 51 -149.5 102.5t-122.5 102.5zM201 698q0 68 24 123q4 10 -4 17l39 39h37q4 -14 49 -84q31 -49 31 -84q0 -47 -137 -129q-25 20 -35 45q-4 16 -4 73z" />
<glyph unicode="&#xeb;" horiz-adv-x="628" d="M-18 1294q2 -2 14 -10t35 -24q41 -27 61 -58q2 -2 19 -51q12 -39 39 -41q35 59 71.5 110.5t77.5 96.5q-96 39 -117 67q-37 66 -47 107q-18 -14 -26 -33q2 -6 2 -31q0 -29 -41 -51q-61 -37 -88 -82zM-12 449q0 -4 6 -41q2 -16 3 -26.5t1 -14.5q29 -92 29 -131 q14 -23 37.5 -46.5t56.5 -52.5q57 -49 67 -61q33 -35 33 -78q0 -14 -4 -18q2 0 19 -7l170 172q101 107 126 164q-16 4 -25 6l-9 2q-57 -76 -103 -75q-37 0 -137 55q-84 139 -84 174q0 43 84 109q47 37 72 55l24 18q70 68 91.5 107t21.5 78q0 31 -16 73q-10 16 -17.5 26.5 t-11.5 18.5q-16 84 -19 138q-82 -47 -130 -76t-64 -39q-47 -35 -80 -67.5t-53 -65.5q-14 -23 -31.5 -66t-38.5 -104q-18 -121 -18 -227zM145 698q0 68 25 123q4 10 -4 17l39 39h37q4 -14 49 -84q31 -49 31 -84q0 -47 -138 -129q-25 20 -34 45q-4 16 -5 73zM340 1294 q14 -10 28.5 -18t28.5 -16q37 -27 60 -58q6 -16 10 -28.5t6 -22.5q12 -39 39 -41q66 115 152 207q-96 39 -119 67q-33 59 -45 107q-12 -8 -29 -33q2 -6 2 -31q0 -29 -41 -51q-59 -35 -92 -82z" />
<glyph unicode="&#xec;" horiz-adv-x="544" d="M-209 1434q63 -203 356 -318l56 21q-100 55 -160.5 129.5t-60.5 140.5q0 25 10 55zM57 774q6 -6 56 -8q39 -6 57 -33q-20 -27 -20 -88v-35q2 -6 2 -37q0 -45 -17 -73v-226q18 -113 31 -131q18 -25 35 -41q33 -33 32 -39q0 -23 -40 -63q4 -8 8 -14t6 -11q37 0 51 21 q74 98 178 178q51 39 51 62q0 10 -18 28q-4 0 -35 -18.5t-35 -18.5q-29 0 -55 62q-27 53 -27 88q0 6 9 37q10 37 10 43q-2 -6 -2 92q2 20 3 31.5t1 15.5q2 10 1 22.5t-3 28.5q8 27 13 43.5t7 26.5q20 51 41 49q4 23 13 35q12 10 21 17t18 11q14 27 24 43q-16 20 -24 31 q-20 -20 -48 -20q-16 0 -35.5 8t-39 21.5t-36 29.5t-22.5 31q-6 23 -10 37t-6 22l-37 -31q-23 -18 -18 -40q-27 -29 -45.5 -49.5t-32.5 -34.5q-59 -66 -62 -103z" />
<glyph unicode="&#xed;" horiz-adv-x="544" d="M57 774q6 -6 56 -8q39 -6 57 -33q-20 -27 -20 -88v-35q2 -6 2 -37q0 -45 -17 -73v-226q18 -113 31 -131q18 -25 35 -41q33 -33 32 -39q0 -23 -40 -63q4 -8 8 -14t6 -11q37 0 51 21q74 98 178 178q51 39 51 62q0 10 -18 28q-4 0 -35 -18.5t-35 -18.5q-29 0 -55 62 q-27 53 -27 88q0 6 9 37q10 37 10 43q-2 -6 -2 92q2 20 3 31.5t1 15.5q2 10 1 22.5t-3 28.5q8 27 13 43.5t7 26.5q20 51 41 49q4 23 13 35q12 10 21 17t18 11q14 27 24 43q-16 20 -24 31q-20 -20 -48 -20q-16 0 -35.5 8t-39 21.5t-36 29.5t-22.5 31q-6 23 -10 37t-6 22 l-37 -31q-23 -18 -18 -40q-27 -29 -45.5 -49.5t-32.5 -34.5q-59 -66 -62 -103zM420 1141l61 -25q358 156 359 361l-199 -47q2 -74 -57.5 -153t-163.5 -136z" />
<glyph unicode="&#xee;" horiz-adv-x="544" d="M47 1147l33 -33l178 180q47 -47 107.5 -93t134.5 -87l118 141q-82 51 -149.5 102.5t-122.5 102.5zM57 774q6 -6 56 -8q39 -6 57 -33q-20 -27 -20 -88v-35q2 -6 2 -37q0 -45 -17 -73v-226q18 -113 31 -131q18 -25 35 -41q33 -33 32 -39q0 -23 -40 -63q4 -8 8 -14t6 -11 q37 0 51 21q74 98 178 178q51 39 51 62q0 10 -18 28q-4 0 -35 -18.5t-35 -18.5q-29 0 -55 62q-27 53 -27 88q0 6 9 37q10 37 10 43q-2 -6 -2 92q2 20 3 31.5t1 15.5q2 10 1 22.5t-3 28.5q8 27 13 43.5t7 26.5q20 51 41 49q4 23 13 35q12 10 21 17t18 11q14 27 24 43 q-16 20 -24 31q-20 -20 -48 -20q-16 0 -35.5 8t-39 21.5t-36 29.5t-22.5 31q-6 23 -10 37t-6 22l-37 -31q-23 -18 -18 -40q-27 -29 -45.5 -49.5t-32.5 -34.5q-59 -66 -62 -103z" />
<glyph unicode="&#xef;" horiz-adv-x="544" d="M-66 1294q12 -12 56 -34q31 -20 53 -58q2 -2 18 -51q12 -39 39 -41q64 113 150 209q-96 39 -117 65q-18 35 -30.5 62t-16.5 47q-18 -14 -27 -35q2 -4 2 -31q0 -31 -38 -51q-55 -31 -89 -82zM80 774q6 -6 55 -8q39 -6 58 -33q-20 -27 -21 -88v-35q2 -6 2 -37 q0 -45 -16 -73v-226q18 -113 30 -131q18 -25 35 -41q33 -33 33 -39q0 -23 -41 -63q4 -8 8 -14t6 -11q37 0 52 21q74 98 178 178q51 39 51 62q0 10 -18 28q-4 0 -35 -18.5t-35 -18.5q-29 0 -55 62q-27 53 -27 88q0 6 8 37q10 37 10 43q-2 -6 -2 92q2 20 3 31.5t1 15.5 q2 10 1 22.5t-3 28.5q8 27 13.5 43.5t7.5 26.5q20 51 41 49q4 23 12 35q12 10 21.5 17t17.5 11q14 27 25 43q-16 20 -25 31q-20 -20 -47 -20q-16 0 -35.5 8t-39 21.5t-36 29.5t-22.5 31q-6 23 -10.5 37t-6.5 22l-36 -31q-23 -18 -19 -40q-27 -29 -45 -49.5t-33 -34.5 q-59 -66 -61 -103zM291 1294q14 -10 28.5 -18t28.5 -16q37 -27 60 -58q6 -16 10 -28.5t6 -22.5q16 -39 39 -41q63 115 151 209q-98 41 -118 65q-37 70 -45 109q-20 -20 -29 -35q2 -4 2 -31t-41 -51q-66 -41 -92 -82z" />
<glyph unicode="&#xf0;" horiz-adv-x="786" d="M-92 1155h182q4 -20 6 -36.5t4 -31.5q8 -51 21 -63q6 -8 27.5 -25.5t58.5 -46.5q57 -43 57 -53q0 -23 -90 -135q-45 -55 -66 -83l-22 -28q-10 -111 -15 -173t-5 -79q0 -41 20 -96q31 -90 57 -98q2 -29 60 -86l92 -92q-20 -8 -37 -39l12 -41q33 -2 60 31q39 49 157 170 q53 53 90 96t60 73q70 94 72 173q2 20 2 49v71q4 23 7 33l3 10q0 27 -21 107q-23 88 -30 96q-66 84 -174 162q-25 10 -43.5 19.5t-28.5 13.5q-41 35 -71.5 60.5t-53.5 41.5h221v109l-289 -2q4 16 13 28q63 55 104 72q0 41 -39 41q-45 0 -133 -98q-23 -23 -37 -43l-231 -2 v-105zM244 623q0 92 14 143q12 14 20.5 22.5l12.5 12.5q2 10 3 17t1 11q23 23 41 23q10 0 61 -23q86 -41 115 -133q41 -139 41 -166q0 -18 -12 -32v-78q-10 -66 -33 -115q-33 -70 -76 -72q-16 0 -55 31q-39 33 -47 49q-47 86 -56 123q-10 39 -17 67.5t-11 49.5q-2 4 -2 70z " />
<glyph unicode="&#xf1;" horiz-adv-x="919" d="M51 858q2 -6 3 -14t5 -19q57 0 66 -8q6 -4 13 -14t15.5 -22.5t13.5 -26t5 -21.5t-10 -18q-4 -35 -7 -76t-3 -86v-115q0 -14 -6.5 -55t-16.5 -111q-35 -23 -35 -28v-54l123 -90q2 -68 37 -67l15 6l10 4q8 10 17 25.5t19.5 32t40.5 44.5q33 31 33 52q0 10 -27 30 q-23 23 -26 31q-16 37 -17 121q0 12 3.5 52t7.5 110q8 137 16 151q2 27 67.5 86.5t94.5 59.5q39 0 78 -82v-154q-14 -29 -21 -92l-6 -98l-8 -74q0 -20 2 -25v-20q0 -20 57 -123q66 -121 99 -121q29 0 55 14l104 175q0 14 -16 36q-14 -6 -22.5 -10t-12.5 -6q-14 0 -45 35 q-31 37 -33 51q-2 18 -3 30.5t-1 16.5v35l15 117q8 53 11 97t5 79q2 88 72 129l10 31q0 10 -10 20q-20 -4 -35 -10t-23 -10l-63 82q-37 70 -41 110q-14 -8 -45 -57t-58 -49q-86 -72 -136 -114t-68 -56q-14 0 -15 6q-59 188 -61 205q0 6 16.5 34.5t16.5 32.5l-17 19 q-33 -6 -67 -41q-47 -74 -60 -86q-37 -45 -84 -61.5t-47 -45.5zM174 1149l31 -21l80 95q31 -8 76 -25.5t104 -44.5q84 -39 115 -39q47 0 102 84l84 129l-33 23l-69 -90q-78 20 -160 61q-92 45 -133 45q-53 0 -115 -92z" />
<glyph unicode="&#xf2;" horiz-adv-x="710" d="M-37 1434q63 -203 356 -318l56 21q-100 55 -161.5 129.5t-61.5 140.5q0 25 10 55zM43 512q0 -10 6 -18l2 -13q2 -18 6 -49t15 -72q8 -12 13 -21t9 -15q16 -14 27.5 -24.5t17.5 -16.5q16 -33 32.5 -64t35.5 -63q61 -78 61 -93q0 -18 -2 -22q-2 -14 0 -21q8 -14 19 -20 q29 0 51 23q14 18 27.5 36.5t27.5 34.5q160 121 203 195q74 118 74 233q0 125 -109 264q-72 94 -72 138q0 12 13 53q14 37 14 47q0 6 -33 39q-39 -33 -68.5 -58.5t-52.5 -43.5q-25 -33 -43 -52q-236 -166 -254 -323l-10 -37q-10 -35 -10 -37zM197 647q0 43 32 96 q33 57 70 58q14 0 86 -105q63 -94 84 -131q59 -108 59 -139q0 -10 -14 -37q6 -27 4 -55q-6 -23 -61 -92q-10 -10 -37 -11q-20 0 -101 107q-25 16 -63 72q-59 147 -59 237z" />
<glyph unicode="&#xf3;" horiz-adv-x="710" d="M43 512q0 -10 6 -18l2 -13q2 -18 6 -49t15 -72q8 -12 13 -21t9 -15q16 -14 27.5 -24.5t17.5 -16.5q16 -33 32.5 -64t35.5 -63q61 -78 61 -93q0 -18 -2 -22q-2 -14 0 -21q8 -14 19 -20q29 0 51 23q14 18 27.5 36.5t27.5 34.5q160 121 203 195q74 118 74 233 q0 125 -109 264q-72 94 -72 138q0 12 13 53q14 37 14 47q0 6 -33 39q-39 -33 -68.5 -58.5t-52.5 -43.5q-25 -33 -43 -52q-236 -166 -254 -323l-10 -37q-10 -35 -10 -37zM197 647q0 43 32 96q33 57 70 58q14 0 86 -105q63 -94 84 -131q59 -108 59 -139q0 -10 -14 -37 q6 -27 4 -55q-6 -23 -61 -92q-10 -10 -37 -11q-20 0 -101 107q-25 16 -63 72q-59 147 -59 237zM565 1141l62 -25q358 156 358 361l-199 -47q2 -74 -57 -153t-164 -136z" />
<glyph unicode="&#xf4;" horiz-adv-x="710" d="M43 512q0 -10 6 -18l2 -13q2 -18 6 -49t15 -72q8 -12 13 -21t9 -15q16 -14 27.5 -24.5t17.5 -16.5q16 -33 32.5 -64t35.5 -63q61 -78 61 -93q0 -18 -2 -22q-2 -14 0 -21q8 -14 19 -20q29 0 51 23q14 18 27.5 36.5t27.5 34.5q160 121 203 195q74 118 74 233 q0 125 -109 264q-72 94 -72 138q0 12 13 53q14 37 14 47q0 6 -33 39q-39 -33 -68.5 -58.5t-52.5 -43.5q-25 -33 -43 -52q-236 -166 -254 -323l-10 -37q-10 -35 -10 -37zM197 647q0 43 32 96q33 57 70 58q14 0 86 -105q63 -94 84 -131q59 -108 59 -139q0 -10 -14 -37 q6 -27 4 -55q-6 -23 -61 -92q-10 -10 -37 -11q-20 0 -101 107q-25 16 -63 72q-59 147 -59 237zM197 1147l32 -33l179 180q47 -47 107 -93t134 -87l119 141q-82 51 -149.5 102.5t-122.5 102.5z" />
<glyph unicode="&#xf5;" horiz-adv-x="710" d="M43 512q0 -10 6 -18l2 -13q2 -18 6 -49t15 -72q8 -12 13 -21t9 -15q16 -14 27.5 -24.5t17.5 -16.5q16 -33 32.5 -64t35.5 -63q61 -78 61 -93q0 -18 -2 -22q-2 -14 0 -21q8 -14 19 -20q29 0 51 23q14 18 27.5 36.5t27.5 34.5q160 121 203 195q74 118 74 233 q0 125 -109 264q-72 94 -72 138q0 12 13 53q14 37 14 47q0 6 -33 39q-39 -33 -68.5 -58.5t-52.5 -43.5q-25 -33 -43 -52q-236 -166 -254 -323l-10 -37q-10 -35 -10 -37zM174 1149l31 -21l80 95q31 -8 76 -25.5t104 -44.5q84 -39 115 -39q47 0 102 84l84 129l-33 23l-69 -90 q-78 20 -160 61q-92 45 -133 45q-53 0 -115 -92zM197 647q0 43 32 96q33 57 70 58q14 0 86 -105q63 -94 84 -131q59 -108 59 -139q0 -10 -14 -37q6 -27 4 -55q-6 -23 -61 -92q-10 -10 -37 -11q-20 0 -101 107q-25 16 -63 72q-59 147 -59 237z" />
<glyph unicode="&#xf6;" horiz-adv-x="710" d="M43 512q0 -10 6 -18l2 -13q2 -18 6 -49t15 -72q8 -12 13 -21t9 -15q16 -14 27.5 -24.5t17.5 -16.5q16 -33 32.5 -64t35.5 -63q61 -78 61 -93q0 -18 -2 -22q-2 -14 0 -21q8 -14 19 -20q29 0 51 23q14 18 27.5 36.5t27.5 34.5q160 121 203 195q74 118 74 233 q0 125 -109 264q-72 94 -72 138q0 12 13 53q14 37 14 47q0 6 -33 39q-39 -33 -68.5 -58.5t-52.5 -43.5q-25 -33 -43 -52q-236 -166 -254 -323l-10 -37q-10 -35 -10 -37zM100 1294q14 -10 28.5 -18t29.5 -16q37 -27 59 -58q6 -16 10 -28.5t6 -22.5q12 -39 39 -41 q66 115 152 207q-96 39 -119 67q-33 59 -45 107q-12 -8 -29 -33q2 -6 2 -31q0 -29 -40 -51q-59 -35 -93 -82zM197 647q0 43 32 96q33 57 70 58q14 0 86 -105q63 -94 84 -131q59 -108 59 -139q0 -10 -14 -37q6 -27 4 -55q-6 -23 -61 -92q-10 -10 -37 -11q-20 0 -101 107 q-25 16 -63 72q-59 147 -59 237zM465 1294q0 -2 53 -34q41 -27 62 -58q2 -2 18 -51q12 -39 39 -41q35 59 71.5 110.5t77.5 96.5q-96 39 -116 67q-37 66 -47 107q-18 -14 -27 -33q2 -6 2 -31q0 -29 -41 -51q-59 -35 -92 -82z" />
<glyph unicode="&#xf7;" d="M109 608h804v150h-804v-150zM408 340q0 -41 30.5 -71.5t73.5 -30.5q41 0 71.5 30.5t30.5 73.5q0 41 -30.5 71.5t-71.5 30.5q-43 0 -73.5 -29.5t-30.5 -74.5zM408 1024q0 -41 30.5 -71.5t73.5 -30.5q41 0 71.5 30.5t30.5 71.5q0 43 -30.5 73.5t-71.5 30.5 q-43 0 -73.5 -30.5t-30.5 -73.5z" />
<glyph unicode="&#xf8;" horiz-adv-x="710" d="M0 258l2 -133l152 127q12 -25 25.5 -49.5t27.5 -46.5q61 -78 61 -93q0 -18 -2 -22q-2 -14 0 -21q8 -14 19 -20q29 0 51 23q14 18 27.5 36.5t27.5 34.5q160 121 203 195q74 119 74 233q0 63 -29 133l72 62v141l-125 -106q-6 8 -12.5 16t-14.5 18q-72 94 -72 138 q0 12 13 53q14 37 14 47q0 6 -33 39q-39 -33 -68.5 -58.5t-52.5 -43.5q-25 -33 -43 -52q-236 -166 -254 -323l-10 -37q-10 -35 -10 -37q0 -10 6 -18l2 -13q2 -18 6 -49t15 -72q4 -4 8 -11t8 -15zM197 647q0 43 32 96q33 57 70 58q14 0 86 -105q14 -23 25.5 -40t21.5 -31 l-194 -166q-4 16 -10.5 33.5t-10.5 37.5q-20 76 -20 117zM291 367l196 163q41 -78 41 -104q0 -10 -14 -37q6 -27 4 -55q-6 -23 -61 -92q-10 -10 -37 -11q-20 0 -101 107q-6 4 -13 11t-15 18z" />
<glyph unicode="&#xf9;" horiz-adv-x="970" d="M57 764q0 -10 11 -21h34q4 0 15.5 7.5t13.5 7.5q53 0 62 -70v-84q12 -16 12 -22q-14 -61 -12 -95q4 -63 5 -105t-3 -65q-6 -31 -13 -55l-43 -55q-29 -37 -24 -47q6 0 30.5 3t28.5 3l66 -66q68 -68 75 -73l275 237l24 -6q0 -76 91 -166q-18 -25 -19 -45q0 -20 8 -29 l168 168q39 39 51 86q-39 -20 -67 -20q-74 0 -76 143l-4 6q-6 2 -6 15v170q0 8 18 123q20 35 39 64.5t35 55.5q0 16 -6 27q-55 -6 -98 34t-43 95q0 -14 28 59q-8 0 -26 9q-121 -121 -234 -176q-2 -31 -6 -41l74 -11q20 -6 43 -65q23 -61 22 -86q0 -20 -10 -10q2 -23 0 -43 q-2 -10 -2 -37q0 -121 -12 -258q0 -20 -62 -76q-59 -55 -82 -55q-66 0 -88 120q6 23 4 31l-8 12q0 66 23 197q-2 23 -4.5 37t-4.5 20q14 14 15 21q0 43 -13 121q-16 88 -18 118q-14 25 -31 46q-20 27 -24 40q0 8 20.5 43t20.5 50q0 14 -6 14q-43 -8 -52 -21q-23 -59 -34 -71 q-29 -27 -45.5 -41t-20.5 -19q-115 -127 -115 -149zM82 1434q63 -203 358 -318l56 21q-100 55 -162 129.5t-62 140.5q0 25 11 55z" />
<glyph unicode="&#xfa;" horiz-adv-x="970" d="M57 764q0 -10 11 -21h34q4 0 15.5 7.5t13.5 7.5q53 0 62 -70v-84q12 -16 12 -22q-14 -61 -12 -95q4 -63 5 -105t-3 -65q-6 -31 -13 -55l-43 -55q-29 -37 -24 -47q6 0 30.5 3t28.5 3l66 -66q68 -68 75 -73l275 237l24 -6q0 -76 91 -166q-18 -25 -19 -45q0 -20 8 -29 l168 168q39 39 51 86q-39 -20 -67 -20q-74 0 -76 143l-4 6q-6 2 -6 15v170q0 8 18 123q20 35 39 64.5t35 55.5q0 16 -6 27q-55 -6 -98 34t-43 95q0 -14 28 59q-8 0 -26 9q-121 -121 -234 -176q-2 -31 -6 -41l74 -11q20 -6 43 -65q23 -61 22 -86q0 -20 -10 -10q2 -23 0 -43 q-2 -10 -2 -37q0 -121 -12 -258q0 -20 -62 -76q-59 -55 -82 -55q-66 0 -88 120q6 23 4 31l-8 12q0 66 23 197q-2 23 -4.5 37t-4.5 20q14 14 15 21q0 43 -13 121q-16 88 -18 118q-14 25 -31 46q-20 27 -24 40q0 8 20.5 43t20.5 50q0 14 -6 14q-43 -8 -52 -21q-23 -59 -34 -71 q-29 -27 -45.5 -41t-20.5 -19q-115 -127 -115 -149zM475 1141l62 -25q358 156 358 361l-199 -47q2 -74 -57 -153t-164 -136z" />
<glyph unicode="&#xfb;" horiz-adv-x="970" d="M57 764q0 -10 11 -21h34q4 0 15.5 7.5t13.5 7.5q53 0 62 -70v-84q12 -16 12 -22q-14 -61 -12 -95q4 -63 5 -105t-3 -65q-6 -31 -13 -55l-43 -55q-29 -37 -24 -47q6 0 30.5 3t28.5 3l66 -66q68 -68 75 -73l275 237l24 -6q0 -76 91 -166q-18 -25 -19 -45q0 -20 8 -29 l168 168q39 39 51 86q-39 -20 -67 -20q-74 0 -76 143l-4 6q-6 2 -6 15v170q0 8 18 123q20 35 39 64.5t35 55.5q0 16 -6 27q-55 -6 -98 34t-43 95q0 -14 28 59q-8 0 -26 9q-121 -121 -234 -176q-2 -31 -6 -41l74 -11q20 -6 43 -65q23 -61 22 -86q0 -20 -10 -10q2 -23 0 -43 q-2 -10 -2 -37q0 -121 -12 -258q0 -20 -62 -76q-59 -55 -82 -55q-66 0 -88 120q6 23 4 31l-8 12q0 66 23 197q-2 23 -4.5 37t-4.5 20q14 14 15 21q0 43 -13 121q-16 88 -18 118q-14 25 -31 46q-20 27 -24 40q0 8 20.5 43t20.5 50q0 14 -6 14q-43 -8 -52 -21q-23 -59 -34 -71 q-29 -27 -45.5 -41t-20.5 -19q-115 -127 -115 -149zM246 1147l33 -33l178 180q47 -47 107.5 -93t133.5 -87l119 141q-82 51 -149.5 102.5t-122.5 102.5z" />
<glyph unicode="&#xfc;" horiz-adv-x="970" d="M57 764q0 -10 11 -21h34q4 0 15.5 7.5t13.5 7.5q53 0 62 -70v-84q12 -16 12 -22q-14 -61 -12 -95q4 -63 5 -105t-3 -65q-6 -31 -13 -55l-43 -55q-29 -37 -24 -47q6 0 30.5 3t28.5 3l66 -66q68 -68 75 -73l275 237l24 -6q0 -76 91 -166q-18 -25 -19 -45q0 -20 8 -29 l168 168q39 39 51 86q-39 -20 -67 -20q-74 0 -76 143l-4 6q-6 2 -6 15v170q0 8 18 123q20 35 39 64.5t35 55.5q0 16 -6 27q-55 -6 -98 34t-43 95q0 -14 28 59q-8 0 -26 9q-121 -121 -234 -176q-2 -31 -6 -41l74 -11q20 -6 43 -65q23 -61 22 -86q0 -20 -10 -10q2 -23 0 -43 q-2 -8 -2 -37q0 -121 -12 -258q0 -20 -62 -76q-59 -55 -82 -55q-66 0 -88 120q6 23 4 31l-8 12q0 66 23 197q-2 23 -4.5 37t-4.5 20q14 14 15 21q0 43 -13 121q-16 88 -18 118q-14 25 -31 46q-20 27 -24 40q0 8 20.5 43t20.5 50q0 14 -6 14q-43 -8 -52 -21q-23 -59 -34 -71 q-29 -27 -45.5 -41t-20.5 -19q-115 -127 -115 -149zM168 1294q14 -10 28.5 -18t28.5 -16q37 -27 60 -58q6 -16 10 -28.5t6 -22.5q12 -39 39 -41q66 115 152 207q-96 39 -119 67q-33 59 -45 107q-12 -8 -29 -33q2 -6 2 -31q0 -29 -41 -51q-59 -35 -92 -82zM532 1294 q0 -2 54 -34q41 -27 61 -58q2 -2 19 -51q12 -39 39 -41q35 59 71.5 110.5t77.5 96.5q-96 39 -117 67q-37 66 -47 107q-18 -14 -26 -33q2 -6 2 -31q0 -29 -41 -51q-59 -35 -93 -82z" />
<glyph unicode="&#xfd;" horiz-adv-x="925" d="M59 807q14 -12 33 -12q6 0 30.5 6t27.5 6q31 0 71 -86q35 -80 35 -117v-188q-10 -39 -16.5 -60.5t-8.5 -27.5q-10 -18 -19 -33.5t-19 -30.5q-29 -41 -29 -57h65q37 0 107 -88q6 -70 22 -80q29 16 56 72q33 74 43 84q31 29 50 46t30 25q47 47 53 80q-29 23 -41 23 q-53 -41 -68 -41q-10 0 -20 10t-19.5 25.5t-15.5 33t-6 29.5q0 29 24 137q2 63 3.5 93t1.5 26q6 33 10 56.5t6 39.5q14 33 43 33q4 0 37 -17l33 -16q43 -10 65 -84l41 -139q10 -31 0 -139q-2 -25 10 -47q-12 -25 -12 -31q0 -23 8 -41q-23 -35 -36 -61.5t-21 -42.5 q-33 -33 -49 -39q-29 -31 -48.5 -51.5t-29.5 -30.5l-144 -164q-127 -150 -126 -232q0 -20 18 -44.5t37 -24.5q55 0 55 51q-2 4 -2 16t-2 35q-8 20 -4 41q16 35 26 52l9 18q125 172 166 203q98 76 276 294q49 166 49 258q0 127 -24 205q-37 57 -66 80q-51 72 -67 109 q-16 -6 -36 10t-20 35q0 2 6.5 12t6.5 14q0 12 -15 33q-33 -8 -119 -110q-86 -100 -100 -101q-23 0 -133 144q6 37 -4 75h-47q-59 -76 -106.5 -143.5t-80.5 -130.5zM473 1141l62 -25q358 156 358 361l-199 -47q2 -74 -57 -153t-164 -136z" />
<glyph unicode="&#xfe;" horiz-adv-x="847" d="M63 471q0 -117 27 -182q20 -53 92 -158l13 -51q10 -41 22 -41q35 14 81 40.5t103 65.5q29 41 56 41q31 0 45 -14q27 -41 37 -61q96 -127 96 -154q-2 -6 -19 -23q8 -14 9 -36q0 -27 -21 -54q6 -41 -12 -61q-78 -84 -225 -84q-35 0 -66 11t-53.5 31.5t-36.5 46.5t-14 56 q0 4 12 22.5t12 20.5q-25 25 -39 25q-23 0 -39 -41q-14 -41 -14 -70q0 -61 88 -123q82 -57 148 -57l84 14q41 8 69.5 11.5t44.5 5.5q45 41 82 89t70 105q69 126 69 232q0 6 -49 108q-92 193 -92 256v211q43 31 51 33q4 0 15.5 -4t13.5 -4q45 6 45 35q0 18 -10 53 q-18 53 -51 59q10 -8 8 -26l-39 18q29 143 29 117v39h-39q-14 -23 -22 -33l-7 -10q-20 -27 -37 -27q-37 0 -88 49q-51 51 -49 52q-33 0 -105 -70q-23 -23 -41 -40t-32 -32q-98 -33 -164 -162q-57 -113 -58 -229zM225 553q0 18 6.5 58t16.5 102q2 14 45 45q45 33 61 33 q2 0 138 -54q16 -61 16 -65q0 -45 -35 -180q-31 -123 -24 -189q-23 -31 -58 -31q-84 0 -133 125q-33 80 -33 156z" />
<glyph unicode="&#xff;" horiz-adv-x="925" d="M59 807q14 -12 33 -12q6 0 30.5 6t27.5 6q31 0 71 -86q35 -80 35 -117v-188q-10 -39 -16.5 -60.5t-8.5 -27.5q-10 -18 -19 -33.5t-19 -30.5q-29 -41 -29 -57h65q37 0 107 -88q6 -70 22 -80q29 16 56 72q33 74 43 84q31 29 50 46t30 25q47 47 53 80q-29 23 -41 23 q-53 -41 -68 -41q-10 0 -20 10t-19.5 25.5t-15.5 33t-6 29.5q0 29 24 137q2 63 3.5 93t1.5 26q6 33 10 56.5t6 39.5q14 33 43 33q4 0 37 -17l33 -16q43 -10 65 -84l41 -139q10 -31 0 -139q-2 -25 10 -47q-12 -25 -12 -31q0 -23 8 -41q-23 -35 -36 -61.5t-21 -42.5 q-33 -33 -49 -39q-29 -31 -48.5 -51.5t-29.5 -30.5l-144 -164q-127 -150 -126 -232q0 -20 18 -44.5t37 -24.5q55 0 55 51q-2 4 -2 16t-2 35q-8 20 -4 41q16 35 26 52l9 18q125 172 166 203q98 76 276 294q49 166 49 258q0 127 -24 205q-37 57 -66 80q-51 72 -67 109 q-16 -6 -36 10t-20 35q0 2 6.5 12t6.5 14q0 12 -15 33q-33 -8 -119 -110q-86 -100 -100 -101q-23 0 -133 144q6 37 -4 75h-47q-59 -76 -106.5 -143.5t-80.5 -130.5zM111 1294q12 -12 55 -34q37 -27 59 -58q27 -90 56 -92q29 53 66.5 104.5t84.5 102.5q-96 39 -117 67 q-37 66 -47 107q-12 -8 -28 -33q2 -16 3 -24.5t1 -6.5q0 -29 -41 -51q-59 -35 -92 -82zM473 1294q14 -14 57 -34q33 -20 58 -58q2 -2 18 -51q12 -39 39 -41q66 115 152 207q-96 39 -119 67q-16 33 -28.5 59.5t-16.5 47.5q-12 -8 -29 -33q2 -6 2 -31q0 -29 -41 -51 q-59 -35 -92 -82z" />
<glyph unicode="&#x152;" horiz-adv-x="2418" d="M37 625q0 -16 20 -90q31 -117 68 -170q14 -53 46 -102.5t73 -91.5t91 -72.5t103 -47.5q246 -74 285 -74h82q90 0 123 23q88 72 149 141q100 78 163 128t89 77l29 29l2 -6q39 -123 123 -213q92 -102 211 -123q6 -2 23.5 -6t45.5 -13q49 -14 62 -14h86q100 0 246 129 q141 129 174 227l49 93q0 31 -31 30q-10 0 -33 -53q-31 -76 -37 -82q-41 -61 -133 -125q-96 -63 -168 -63q-6 0 -43 6q-33 8 -45 8q-45 0 -145 43q-55 23 -103 117l-36 76l-35 73q-20 41 -21 53q0 18 27 33t53 15q59 0 94 -31q25 -20 56.5 -40t66.5 -34t70 -23.5t65 -9.5 q74 0 187 162q41 57 66.5 99t39.5 71q-29 23 -34 23q-27 -35 -44.5 -57.5t-27.5 -34.5q-55 -70 -103 -70q-49 0 -112 22q-61 45 -76 60l-57 10q-41 10 -41 29q37 43 90 59q84 27 215 96q63 35 111.5 66t80.5 59q12 8 21 47q10 37 10 54q0 72 -51 149q-59 94 -80 139 q-4 14 -2 68q2 45 -18 49q-199 -160 -199 -190q0 -14 33 -68q12 -20 22 -36.5t19 -28.5q23 -61 22 -115q0 -106 -121 -205q-53 -43 -215 -135q-18 -10 -34.5 -19.5t-32.5 -15.5q-72 -72 -97 -74l-7 24.5t-5 14.5l-12 84q-2 16 -4 27.5t-4 21.5v39q0 57 20 107 q27 66 41 100.5t16 42.5q35 41 58 49q43 51 95 99.5t114 93.5q63 45 63 65q0 16 -18 33q-301 -164 -438 -332q-16 -23 -29.5 -42t-24.5 -35q-76 76 -106 112q-84 70 -99 86q-53 59 -53 115q0 25 37 78q20 27 31.5 46t15.5 29q-43 31 -49 31q-12 0 -92 -94 q-35 -41 -59.5 -71.5t-38.5 -47.5q-29 -33 -64 -65.5t-78 -67.5q-18 31 -18 80q0 113 28 154q4 10 84 55q84 49 84 59q0 39 -71 39q-14 0 -338 -194q-121 -72 -218.5 -133.5t-172.5 -112.5q-80 -53 -121 -139q-84 -172 -84 -381zM254 805q0 55 86 215q-4 16 2 24 q45 63 125 123l162 121q6 0 17 -1t21.5 -3t15.5 -3t-1 -1q-31 -45 -33 -133q-2 -53 -2 -90v-53q-2 -55 -1 -97.5t3 -70.5l-10 -131q-16 -84 -72 -152q-25 -31 -86 -80q-72 -55 -96 -55q-25 0 -63 55q-35 51 -41 80q-27 74 -27 252zM424 356q0 37 100 105q51 35 80 54.5 t33 23.5q45 37 133 114q70 45 135 45q41 0 72 -51q31 -49 31 -94q0 -35 -52 -61q-35 -18 -61 -19q-31 0 -39 6q-23 10 -51 60q-39 2 -39 -50q0 -80 100 -79q190 0 191 163q0 162 -219 203v264l24 68q74 82 99 82q23 0 167 -197q23 -20 38.5 -30.5t19.5 -14.5 q102 -115 110 -139q14 -33 17 -43q-10 -27 -10 -29q0 -23 4 -68.5t12 -113.5q-33 -106 -125 -207q-123 -135 -240 -135l-9 -3t-20.5 -6t-21.5 -5t-12 -2q-6 0 -39 -7q-35 -6 -39 -6q-51 0 -233 60q-16 8 -41 22.5t-60 36.5q-55 37 -55 53z" />
<glyph unicode="&#x153;" horiz-adv-x="1105" d="M39 512q0 -10 6 -18l2 -13q2 -18 6 -49t15 -72q8 -12 13 -21t9 -15q16 -14 27.5 -24.5t17.5 -16.5q16 -33 32.5 -64t35.5 -63q61 -78 61 -93q0 -18 -2 -22q-2 -14 0 -21q8 -14 19 -20q29 0 51 23q14 18 27.5 36.5t27.5 34.5q63 49 106.5 89t67.5 69v-16q14 -23 38 -46.5 t56 -52.5q57 -49 68 -61q33 -35 33 -78q0 -14 -4 -18q2 0 18 -7l170 172q102 107 127 164q-16 4 -25 6l-10 2q-57 -76 -102 -75q-37 0 -137 55q-84 139 -84 174q0 43 84 109q47 37 71 55l25 18q70 68 91 107t21 78q0 31 -16 73q-10 16 -17 26.5t-12 18.5q-16 84 -18 138 q-82 -47 -130 -76t-65 -39q-127 -90 -165 -199l-7 -16q-2 4 -5 9t-11 13q-10 10 -21.5 27.5t-25.5 40.5q-25 45 -25 70q0 12 13 53q14 37 14 47q0 6 -33 39q-39 -33 -68.5 -58.5t-52.5 -43.5q-25 -33 -43 -52q-236 -166 -254 -323l-10 -37q-10 -35 -10 -37zM193 647 q0 43 32 96q33 57 70 58q14 0 86 -105q31 -47 52.5 -78.5t31.5 -52.5q20 -35 32.5 -63.5t20.5 -48.5v-4q0 -11 6 -31q-8 -20 -14 -29q6 -27 4 -55q-6 -23 -61 -92q-10 -10 -37 -11q-20 0 -101 107q-25 16 -63 72q-59 147 -59 237zM680 698q0 68 25 123q4 10 -5 17l39 39h37 q4 -14 49 -84q31 -49 31 -84q0 -47 -137 -129q-25 20 -35 45q-4 16 -4 73z" />
<glyph unicode="&#x178;" horiz-adv-x="1558" d="M86 766q2 -39 51 -72q45 -31 92 -30q43 0 117 34q70 37 86 78q12 31 12 117q0 10 -4 32.5t-12 57.5q-16 70 -25 80q-18 16 -45.5 32.5t-64.5 32.5q-131 57 -131 109q0 100 16 154q10 25 55 51q45 31 72 31q45 0 154 -76q109 -74 135 -115q8 -23 11 -36t5 -17 q8 -39 13.5 -69t9.5 -52q-2 -2 -2 -41v-68t2 -45q-59 -174 -60 -174q-31 -49 -57 -75q-41 -43 -94 -90.5t-119 -100.5q-10 -10 -74 -37q-45 -20 -59 -51q8 -25 33 -25q150 86 243 86q84 0 195 -147q-14 -14 -16 -55q-2 -39 10 -68q53 31 65 59q27 59 99 132q61 59 95 91.5 t42 41.5q14 8 26.5 16t24.5 16q37 25 37 39q0 8 -6 19q-45 -10 -107 -60q-61 -47 -98 -63q-49 72 -57 96q-27 37 -111 53q-31 6 -52.5 10.5t-35.5 6.5q27 45 107 96l149 98q31 295 31 277q-16 37 -17 51q0 14 7 33q-31 68 -31 112q0 37 43 90.5t80 53.5q66 0 161 -66 q94 -66 117 -129t37 -105t23 -63q8 -39 12 -94t4 -129q0 -190 -31 -309q-39 -82 -51 -98q-33 -66 -151 -185q-23 -23 -68 -63.5t-111 -100.5q-96 -86 -125 -86q-43 0 -131 31q-86 33 -123 33q-238 0 -237 -121l6 -27q6 -35 4 -41q70 -68 184 -67q49 0 222 61q113 39 112 54 q0 6 -24 6q27 0 172 -74q145 -76 237 -76q86 0 146 17q70 23 121 100q31 45 30 94q0 63 -35.5 115.5t-91.5 68.5q-23 4 -35 6.5t-16 4.5q-55 0 -102 -45q-49 -43 -49 -95q0 -16 26.5 -55t38.5 -39q27 0 39 31q-49 63 -49 80q0 12 10 24.5t24.5 22.5t32 17t29.5 7 q14 0 57 -24q43 -20 58 -35q0 -8 6 -51q8 -39 8 -51q0 -16 -55 -72q-53 -55 -74 -55q-14 0 -16 2h-15q-16 0 -38.5 -2t-51 -6.5t-51 -7.5t-39.5 -3q-16 0 -264 142q8 20 14 26q51 33 97.5 68t91.5 74l174 149q59 51 91 79t38 34q43 25 67 37q14 14 21 55q4 23 6 65 q49 190 45 228q-2 14 16 61v277q0 33 -59 198q-6 25 -45 74q-35 53 -39 74q-238 164 -317 164q-33 0 -131 -131q-98 -129 -115 -129l-148 102q-150 102 -161 102q-61 0 -117 -30q-12 -14 -21.5 -24.5t-13.5 -14.5q-131 -68 -172 -183q-25 -72 -25 -192q0 -111 27 -146 q45 -68 178 -116q76 -27 76 -109q0 -49 -57 -76q-47 -25 -99 -24q-6 0 -59 28.5t-55 28.5q-14 0 -31 -10zM324 -12q0 14 38 51q39 39 58 39q76 0 137 -21l117 -37q-31 -49 -74 -67q-90 -39 -129 -39q-2 0 -21.5 4t-23.5 4q-23 0 -64 23q-39 20 -38 43zM367 1905 q12 -16 55 -37q35 -23 59 -56q2 -2 19 -51q12 -39 39 -41q35 59 71.5 110.5t77.5 96.5q-96 39 -117 66q-18 35 -30.5 61.5t-16.5 46.5q-20 -18 -26 -33q2 -6 2 -30q0 -29 -41 -51q-57 -31 -92 -82zM729 1905q14 -14 57 -37q33 -23 60 -56q6 -16 10 -28t6 -23q12 -39 39 -41 q66 115 152 207q-98 41 -119 66q-37 70 -45 108q-20 -18 -29 -33q2 -6 2 -30q0 -29 -41 -51q-57 -31 -92 -82z" />
<glyph unicode="&#x2c6;" horiz-adv-x="628" d="M197 1147l32 -33l179 180q47 -47 107 -93t134 -87l119 141q-82 51 -149.5 102.5t-122.5 102.5z" />
<glyph unicode="&#x2dc;" horiz-adv-x="823" d="M174 1149l31 -21l80 95q31 -8 76 -25.5t104 -44.5q84 -39 115 -39q47 0 102 84l84 129l-33 23l-69 -90q-78 20 -160 61q-92 45 -133 45q-53 0 -115 -92z" />
<glyph unicode="&#x2000;" horiz-adv-x="1053" />
<glyph unicode="&#x2001;" horiz-adv-x="2107" />
<glyph unicode="&#x2002;" horiz-adv-x="1053" />
<glyph unicode="&#x2003;" horiz-adv-x="2107" />
<glyph unicode="&#x2004;" horiz-adv-x="702" />
<glyph unicode="&#x2005;" horiz-adv-x="526" />
<glyph unicode="&#x2006;" horiz-adv-x="351" />
<glyph unicode="&#x2007;" horiz-adv-x="351" />
<glyph unicode="&#x2008;" horiz-adv-x="263" />
<glyph unicode="&#x2009;" horiz-adv-x="421" />
<glyph unicode="&#x200a;" horiz-adv-x="117" />
<glyph unicode="&#x2010;" horiz-adv-x="315" d="M0 297l315 94v107l-315 -90v-111zM0 530l315 95v106l-315 -90v-111z" />
<glyph unicode="&#x2011;" horiz-adv-x="315" d="M0 297l315 94v107l-315 -90v-111zM0 530l315 95v106l-315 -90v-111z" />
<glyph unicode="&#x2012;" horiz-adv-x="315" d="M0 297l315 94v107l-315 -90v-111zM0 530l315 95v106l-315 -90v-111z" />
<glyph unicode="&#x2013;" horiz-adv-x="776" d="M0 440h707l69 168h-706z" />
<glyph unicode="&#x2014;" horiz-adv-x="1239" d="M0 440h1169l70 168h-1169z" />
<glyph unicode="&#x2018;" horiz-adv-x="587" d="M94 1071q0 -156 189 -266q35 41 80 87t102 99q-68 2 -119 29q-96 47 -96 145q0 113 151 191l-22 37q-285 -113 -285 -322z" />
<glyph unicode="&#x2019;" horiz-adv-x="559" d="M117 1217q203 -18 202 -168q0 -109 -141 -179l21 -34q270 106 270 305q0 152 -180 252q-41 -45 -83 -89t-89 -87z" />
<glyph unicode="&#x201a;" horiz-adv-x="559" d="M117 111q203 -18 202 -166q0 -106 -141 -181l21 -34q270 113 270 303q0 154 -180 254q-41 -47 -83 -91t-89 -85z" />
<glyph unicode="&#x201c;" horiz-adv-x="1017" d="M94 1071q0 -156 189 -266q35 41 80 87t102 99q-68 2 -119 29q-96 47 -96 145q0 113 151 191l-22 37q-285 -113 -285 -322zM524 1071q0 -156 189 -266q80 98 182 186q-215 18 -215 176q0 111 151 189l-22 37q-285 -113 -285 -322z" />
<glyph unicode="&#x201d;" horiz-adv-x="1017" d="M123 1208q215 -23 215 -176q0 -113 -152 -190l23 -37q285 117 285 321q0 158 -191 267q-45 -53 -89 -98.5t-91 -86.5zM553 1208q215 -23 215 -176q0 -113 -152 -190l23 -37q285 117 285 321q0 158 -191 267q-39 -47 -84 -93.5t-96 -91.5z" />
<glyph unicode="&#x201e;" horiz-adv-x="1017" d="M123 123q215 -23 215 -174q0 -113 -152 -191l23 -37q285 117 285 320q0 158 -191 266q-45 -53 -89 -98t-91 -86zM553 123q215 -23 215 -176q0 -111 -152 -189l23 -37q285 117 285 320q0 158 -191 266q-39 -47 -84 -93t-96 -91z" />
<glyph unicode="&#x2022;" horiz-adv-x="1366" d="M401 692q0 -117 84 -200q82 -82 201 -82q117 0 199 82q84 84 84 202q0 115 -84 199t-195 84q-121 0 -205 -84t-84 -201z" />
<glyph unicode="&#x2026;" horiz-adv-x="1544" d="M72 158q109 -86 186 -185q82 100 186 185q-108 86 -186 184q-39 -49 -86 -95t-100 -89zM586 158q109 -86 186 -185q76 92 186 185q-112 96 -186 184q-39 -49 -86 -95t-100 -89zM1102 158q53 -45 100 -91.5t86 -93.5q35 45 82 91.5t105 93.5q-117 92 -187 184 q-82 -100 -186 -184z" />
<glyph unicode="&#x202f;" horiz-adv-x="421" />
<glyph unicode="&#x2039;" horiz-adv-x="577" d="M55 508l330 -324l125 117l-291 289l281 231l-29 31z" />
<glyph unicode="&#x203a;" horiz-adv-x="577" d="M68 735l290 -289l-282 -231l28 -31l418 344l-329 324z" />
<glyph unicode="&#x205f;" horiz-adv-x="526" />
<glyph unicode="&#x2122;" horiz-adv-x="1953" d="M-8 1167l31 -20l30 31q39 39 111 39h78q-158 -139 -158 -297q0 -160 133 -258q131 -98 348 -99h35q16 0 31 2l20 25q76 90 116 138t48 56l-29 25q-80 -74 -223 -74q-141 0 -217 45l64 51q33 27 79 56v330h138q47 0 106 -7q6 29 29 93l29 75l10 33q-72 -41 -174 -41h-441 q-43 0 -82 6q-51 -121 -112 -209zM195 1004q0 98 110 213h31v-322q0 -59 -27 -94q-115 74 -114 203zM786 676h23q113 0 184 -109q16 20 27.5 33.5t17.5 22.5l136 165l-29 25l-74 -86q-43 31 -67 43l-62 31l-10 4l10 16q35 53 53.5 85t22.5 40q37 70 37 137q0 18 -4 39l51 41 q47 39 96 39q94 0 94 -115v-520q45 23 83 38.5t71 25.5v518l86 65q41 33 86 33q31 0 59 -24q43 -43 92 -60q-86 -78 -86 -178v-18q0 -12 3 -33l8 -160v-37q0 -102 -52 -141l23 -29q70 43 119 74t82 47q29 16 47 26.5t29 14.5l24 14l-20 31l-35 -16q-29 -12 -41 -13 q-12 0 -19.5 3.5t-10.5 15.5t-5 35.5t-2 66.5l-4 166v58q0 80 127 165l-21 31q-27 -14 -41 -14q-41 0 -104 47q-72 55 -119 55q-16 -16 -41.5 -36.5t-58.5 -45.5l-125 -96q2 147 -154 178q-55 -55 -118 -104l-136 -107q-18 39 -71 115q-20 27 -21 45q0 20 23 43l-23 27 l-158 -117q2 -23 33 -59q115 -139 115 -248q0 -137 -150 -293z" />
<glyph unicode="&#x25fc;" horiz-adv-x="1013" d="M0 0v1014h1014v-1014h-1014z" />
</font>
</defs>
</svg>
